<?xml version="1.0" encoding="utf-8"?>
<!-- Generator: Adobe Illustrator 18.0.0, SVG Export Plug-In . SVG Version: 6.00 Build 0)  -->
<!DOCTYPE svg PUBLIC "-//W3C//DTD SVG 1.1//EN" "http://www.w3.org/Graphics/SVG/1.1/DTD/svg11.dtd">
<svg version="1.1" id="Layer_1" xmlns="http://www.w3.org/2000/svg" xmlns:xlink="http://www.w3.org/1999/xlink" x="0px" y="0px"
	 viewBox="0 0 515.6 94.3" enable-background="new 0 0 515.6 94.3" xml:space="preserve">
<g>
	<g>
		<g opacity="0.25">
			<path d="M256.4,81.4l-9.6-8.9c-0.5-0.4-0.7-0.9-0.7-1.6c0-0.3,0.1-0.6,0.2-0.9s0.4-0.5,0.7-0.8c0.3-0.2,0.6-0.4,1-0.5
				c0.4-0.1,0.8-0.2,1.2-0.2c0.9,0,1.7,0.3,2.3,0.8l9,8.3l9-8.3c0.6-0.5,1.4-0.8,2.3-0.8c0.4,0,0.8,0.1,1.2,0.2
				c0.4,0.1,0.7,0.3,1,0.5c0.3,0.2,0.5,0.5,0.7,0.8c0.2,0.3,0.3,0.6,0.3,0.9c0,0.6-0.2,1.1-0.7,1.6l-9.6,8.9l9.7,9
				c0.4,0.4,0.7,0.9,0.7,1.5c0,0.3-0.1,0.6-0.3,0.9c-0.2,0.3-0.4,0.6-0.7,0.8c-0.3,0.2-0.6,0.4-1,0.5c-0.4,0.1-0.8,0.2-1.2,0.2
				c-0.9,0-1.6-0.2-2.2-0.7l-9-8.4l-9.1,8.4c-0.6,0.5-1.3,0.7-2.2,0.7c-0.4,0-0.8-0.1-1.2-0.2c-0.4-0.1-0.7-0.3-1-0.5
				c-0.3-0.2-0.5-0.5-0.7-0.8c-0.2-0.3-0.2-0.6-0.2-0.9c0-0.6,0.2-1.1,0.6-1.5L256.4,81.4z"/>
			<path d="M299.7,91.9V85h-17.2c-0.9,0-1.6-0.2-2.2-0.7c-0.6-0.5-0.9-1-0.9-1.7c0-0.5,0.2-1,0.6-1.4l20.3-22.8
				c0.3-0.3,0.6-0.6,1.1-0.7s0.9-0.3,1.5-0.3c0.4,0,0.8,0.1,1.2,0.2c0.4,0.1,0.7,0.3,1,0.5c0.3,0.2,0.5,0.5,0.7,0.8
				c0.2,0.3,0.2,0.6,0.2,0.9v20.4h3.7c0.9,0,1.6,0.2,2.2,0.7c0.6,0.5,0.9,1,0.9,1.7s-0.3,1.3-0.9,1.7c-0.6,0.5-1.3,0.7-2.2,0.7H306
				v6.9c0,0.7-0.3,1.2-0.9,1.7c-0.6,0.5-1.3,0.7-2.2,0.7c-0.9,0-1.6-0.2-2.2-0.7C300,93.1,299.7,92.6,299.7,91.9z M299.7,80.2V67.5
				l-11.3,12.7H299.7z"/>
		</g>
	</g>
	<g>
		<g>
			<path fill="#FF6CC5" d="M255.3,80.5l-9.6-8.9c-0.5-0.4-0.7-0.9-0.7-1.6c0-0.3,0.1-0.6,0.2-0.9s0.4-0.5,0.7-0.8
				c0.3-0.2,0.6-0.4,1-0.5c0.4-0.1,0.8-0.2,1.2-0.2c0.9,0,1.7,0.3,2.3,0.8l9,8.3l9-8.3c0.6-0.5,1.4-0.8,2.3-0.8
				c0.4,0,0.8,0.1,1.2,0.2c0.4,0.1,0.7,0.3,1,0.5c0.3,0.2,0.5,0.5,0.7,0.8c0.2,0.3,0.3,0.6,0.3,0.9c0,0.6-0.2,1.1-0.7,1.6l-9.6,8.9
				l9.7,9c0.4,0.4,0.7,0.9,0.7,1.5c0,0.3-0.1,0.6-0.3,0.9c-0.2,0.3-0.4,0.6-0.7,0.8c-0.3,0.2-0.6,0.4-1,0.5
				c-0.4,0.1-0.8,0.2-1.2,0.2c-0.9,0-1.6-0.2-2.2-0.7l-9-8.4l-9.1,8.4c-0.6,0.5-1.3,0.7-2.2,0.7c-0.4,0-0.8-0.1-1.2-0.2
				c-0.4-0.1-0.7-0.3-1-0.5c-0.3-0.2-0.5-0.5-0.7-0.8c-0.2-0.3-0.2-0.6-0.2-0.9c0-0.6,0.2-1.1,0.6-1.5L255.3,80.5z"/>
			<path fill="#FF6CC5" d="M298.6,91.1v-6.9h-17.2c-0.9,0-1.6-0.2-2.2-0.7c-0.6-0.5-0.9-1-0.9-1.7c0-0.5,0.2-1,0.6-1.4l20.3-22.8
				c0.3-0.3,0.6-0.6,1.1-0.7s0.9-0.3,1.5-0.3c0.4,0,0.8,0.1,1.2,0.2c0.4,0.1,0.7,0.3,1,0.5c0.3,0.2,0.5,0.5,0.7,0.8
				c0.2,0.3,0.2,0.6,0.2,0.9v20.4h3.7c0.9,0,1.6,0.2,2.2,0.7c0.6,0.5,0.9,1,0.9,1.7s-0.3,1.3-0.9,1.7c-0.6,0.5-1.3,0.7-2.2,0.7h-3.7
				v6.9c0,0.7-0.3,1.2-0.9,1.7c-0.6,0.5-1.3,0.7-2.2,0.7c-0.9,0-1.6-0.2-2.2-0.7C298.9,92.3,298.6,91.7,298.6,91.1z M298.6,79.4
				V66.7l-11.3,12.7H298.6z"/>
		</g>
	</g>
	<path opacity="0.25" d="M372.1,36.8h3.7l4,4l-4,4h-3.7l4-4L372.1,36.8z M368.2,40.9l-4,4h3.7l4-4l-4-4h-3.7L368.2,40.9z
		 M360.2,40.9l-4,4h3.7l4-4l-4-4h-3.7L360.2,40.9z M352.3,40.9l-4,4h3.7l4-4l-4-4h-3.7L352.3,40.9z M344.4,40.9l-4,4h3.7l4-4l-4-4
		h-3.7L344.4,40.9z M336.5,40.9l-4,4h3.7l4-4l-4-4h-3.7L336.5,40.9z M328.5,40.9l-4,4h3.7l4-4l-4-4h-3.7L328.5,40.9z M320.6,40.9
		l-4,4h3.7l4-4l-4-4h-3.7L320.6,40.9z M312.7,40.9l-4,4h3.7l4-4l-4-4h-3.7L312.7,40.9z M304.7,40.9l-4,4h3.7l4-4l-4-4h-3.7
		L304.7,40.9z M505.2,64.7l-11.4,11.4h10.4l11.4-11.4l-11.4-11.4h-10.4L505.2,64.7z M482.9,64.7l-11.4,11.4l10.4,0l11.4-11.4
		l-11.4-11.4h-10.4L482.9,64.7z M460.6,64.7l-11.4,11.4h10.4L471,64.7l-11.4-11.4h-10.4L460.6,64.7z M438.3,64.7l-11.4,11.4h10.4
		l11.4-11.4l-11.4-11.4h-10.4L438.3,64.7z M416,64.7l-11.4,11.4H415l11.4-11.4L415,53.4l-10.4,0L416,64.7z M393.7,64.8l-11.4,11.4
		h10.4L404,64.8l-11.4-11.4h-10.4L393.7,64.8z M371.3,64.8L360,76.1h10.4l11.4-11.4l-11.4-11.4H360L371.3,64.8z M349,64.8
		l-11.4,11.4H348l11.4-11.4L348,53.4h-10.4L349,64.8z M326.7,64.8l-11.4,11.4h10.4l11.4-11.4l-11.4-11.4h-10.4L326.7,64.8z"/>
	<g>
		<g>
			<g>
				<g>
					<path fill="#FFFFFF" d="M371.5,35.5h3.7l4,4l-4,4h-3.7l4-4L371.5,35.5z M367.7,39.6l-4,4h3.7l4-4l-4-4h-3.7L367.7,39.6z
						 M359.7,39.6l-4,4h3.7l4-4l-4-4h-3.7L359.7,39.6z M351.8,39.6l-4,4h3.7l4-4l-4-4h-3.7L351.8,39.6z M343.9,39.6l-4,4h3.7l4-4
						l-4-4h-3.7L343.9,39.6z M335.9,39.6l-4,4h3.7l4-4l-4-4h-3.7L335.9,39.6z M328,39.6l-4,4h3.7l4-4l-4-4H324L328,39.6z
						 M320.1,39.6l-4,4h3.7l4-4l-4-4H316L320.1,39.6z M312.1,39.6l-4,4h3.7l4-4l-4-4h-3.7L312.1,39.6z M304.2,39.6l-4,4h3.7l4-4
						l-4-4h-3.7L304.2,39.6z"/>
					<path fill="#00B0C2" d="M504.7,63.4l-11.4,11.4h10.4l11.4-11.4l-11.4-11.4h-10.4L504.7,63.4z M482.4,63.4L471,74.8l10.4,0
						l11.4-11.4l-11.4-11.4H471L482.4,63.4z M460.1,63.4l-11.4,11.4h10.4l11.4-11.4l-11.4-11.4h-10.4L460.1,63.4z M437.8,63.4
						l-11.4,11.4h10.4l11.4-11.4l-11.4-11.4h-10.4L437.8,63.4z M415.5,63.4l-11.4,11.4h10.4l11.4-11.4l-11.4-11.4l-10.4,0
						L415.5,63.4z M393.1,63.4l-11.4,11.4h10.4l11.4-11.4l-11.4-11.4h-10.4L393.1,63.4z M370.8,63.4l-11.4,11.4h10.4l11.4-11.4
						l-11.4-11.4h-10.4L370.8,63.4z M348.5,63.4l-11.4,11.4h10.4l11.4-11.4l-11.4-11.4h-10.4L348.5,63.4z M326.2,63.4l-11.4,11.4
						h10.4l11.4-11.4l-11.4-11.4h-10.4L326.2,63.4z"/>
				</g>
			</g>
			<g opacity="0.25">
				<g>
					<g>
						<path d="M74.7,8.2c-5.7,0-8.6,2.9-8.6,8.6v1.6h6.3c0.9,0,1.7,0.3,2.3,0.9c0.6,0.6,0.9,1.4,0.9,2.3c0,0.9-0.3,1.7-0.9,2.3
							c-0.6,0.6-1.4,0.9-2.3,0.9h-6.3v23.3c0,0.4-0.1,0.9-0.2,1.2c-0.2,0.4-0.4,0.7-0.7,1c-0.3,0.3-0.6,0.5-1,0.7
							c-0.4,0.2-0.8,0.2-1.3,0.2c-0.5,0-0.9-0.1-1.3-0.2c-0.4-0.2-0.7-0.4-1-0.7c-0.3-0.3-0.5-0.6-0.7-1c-0.2-0.4-0.2-0.8-0.2-1.2
							V24.9h-1.5c-0.9,0-1.7-0.3-2.3-0.9c-0.6-0.6-0.9-1.4-0.9-2.3c0-0.9,0.3-1.7,0.9-2.3c0.6-0.6,1.4-0.9,2.3-0.9h1.5v-1.6
							c0-10,5-15.1,15.1-15.1c0.9,0,1.7,0.3,2.3,0.9c0.6,0.6,0.9,1.4,0.9,2.3c0,0.9-0.3,1.7-0.9,2.3C76.4,7.9,75.6,8.2,74.7,8.2z"/>
						<path d="M115.1,34c0,4.9-1.7,9-5.1,12.3c-3.4,3.4-7.6,5.1-12.3,5.1c-4.8,0-8.9-1.7-12.3-5.1C82,43,80.3,38.9,80.3,34
							c0-4.8,1.7-8.9,5.1-12.3c3.4-3.4,7.5-5.1,12.3-5.1c4.8,0,8.9,1.7,12.3,5.1c1.7,1.7,3,3.6,3.8,5.6
							C114.7,29.4,115.1,31.6,115.1,34z M97.7,23.1c-1.5,0-3,0.3-4.3,0.9c-1.3,0.6-2.5,1.4-3.5,2.4c-1,1-1.7,2.1-2.3,3.5
							c-0.6,1.3-0.9,2.7-0.9,4.2s0.3,2.9,0.9,4.2c0.6,1.3,1.3,2.5,2.3,3.5c1,1,2.1,1.8,3.5,2.4c1.3,0.6,2.8,0.9,4.3,0.9
							c1.5,0,2.9-0.3,4.3-0.9c1.3-0.6,2.5-1.4,3.5-2.4c1-1,1.8-2.2,2.3-3.5c0.6-1.3,0.9-2.7,0.9-4.2s-0.3-2.9-0.9-4.2
							c-0.6-1.3-1.3-2.5-2.3-3.5c-1-1-2.1-1.8-3.5-2.4C100.6,23.4,99.2,23.1,97.7,23.1z"/>
						<path d="M126.5,19.8v0.6c1.6-1.2,3.2-2.2,5.1-2.9c1.8-0.7,3.8-1,5.9-1c0.9,0,1.9,0.1,2.9,0.2c1,0.1,2,0.3,2.9,0.7
							c0.9,0.3,1.6,0.8,2.2,1.3c0.6,0.6,0.9,1.3,0.9,2.2c0,0.5-0.1,0.9-0.3,1.3c-0.2,0.4-0.4,0.7-0.7,1c-0.3,0.3-0.6,0.5-1,0.7
							c-0.4,0.2-0.8,0.2-1.3,0.2c-0.4,0-0.9-0.1-1.4-0.3c-1.3-0.5-2.7-0.8-4.3-0.8c-1.5,0-2.9,0.3-4.3,0.9c-1.3,0.6-2.5,1.3-3.5,2.3
							c-1,1-1.8,2.1-2.3,3.5c-0.6,1.3-0.9,2.7-0.9,4.3v14.2c0,0.9-0.3,1.7-0.9,2.3c-0.6,0.6-1.4,0.9-2.3,0.9c-0.9,0-1.7-0.3-2.3-0.9
							c-0.6-0.6-0.9-1.4-0.9-2.3V19.8c0-0.9,0.3-1.7,0.9-2.3c0.6-0.6,1.4-0.9,2.3-0.9c0.9,0,1.7,0.3,2.3,0.9
							C126.2,18.2,126.5,19,126.5,19.8z"/>
						<path d="M156.3,34.9c-2-0.7-3.3-1.5-4.1-2.3h0c-1.6-1.6-2.4-3.5-2.4-5.6c0-1.6,0.4-3,1.3-4.3c0.8-1.3,1.9-2.4,3.3-3.3
							c1.3-0.9,2.9-1.6,4.6-2.1c1.7-0.5,3.4-0.7,5.1-0.7c5.2,0,9.6,2.1,13.4,6.3c0.4,0.5,0.7,1.2,0.7,2c0,0.9-0.3,1.7-0.9,2.3
							c-0.6,0.6-1.4,0.9-2.3,0.9c-0.7,0-1.2-0.2-1.7-0.6c-0.5-0.4-0.9-0.8-1.4-1.2c-2.1-2.1-4.7-3.2-7.7-3.2c-3,0-5.4,0.9-7.2,2.7
							c-0.3,0.3-0.5,0.8-0.5,1.4c0,0.6,0.3,1,0.8,1.2l14.6,4.8c2,0.8,3.4,1.6,4.1,2.3h0c1.6,1.6,2.4,3.5,2.4,5.6
							c0,1.6-0.4,3-1.3,4.3c-0.8,1.3-1.9,2.4-3.3,3.3c-1.3,0.9-2.9,1.6-4.5,2.1c-1.7,0.5-3.4,0.7-5.1,0.7c-5.2,0-9.7-2.1-13.4-6.2
							c-0.5-0.6-0.7-1.3-0.7-2c0-0.9,0.3-1.7,0.9-2.3c0.6-0.6,1.4-0.9,2.3-0.9c0.7,0,1.3,0.2,1.7,0.6c0.5,0.4,0.9,0.8,1.3,1.2
							c2.1,2.1,4.7,3.2,7.8,3.2c3,0,5.4-0.9,7.2-2.8c0.3-0.4,0.5-0.8,0.5-1.3c0-0.6-0.3-1-0.8-1.2L156.3,34.9z"/>
						<path d="M211.3,48.2v-0.6c-1.6,1.2-3.2,2.2-5.1,2.9c-1.8,0.7-3.8,1-5.9,1c-4.8,0-8.9-1.7-12.3-5.1C184.7,43,183,38.9,183,34
							c0-4.8,1.7-8.9,5.1-12.3c3.4-3.4,7.5-5.1,12.3-5.1c4.8,0,8.9,1.7,12.3,5.1c3.4,3.4,5.1,7.5,5.1,12.3v14.2
							c0,0.9-0.3,1.7-0.9,2.3c-0.6,0.6-1.4,0.9-2.3,0.9c-0.9,0-1.7-0.3-2.3-0.9C211.7,49.9,211.3,49.1,211.3,48.2z M200.4,23.1
							c-1.5,0-3,0.3-4.3,0.9c-1.3,0.6-2.5,1.4-3.5,2.4c-1,1-1.7,2.1-2.3,3.5c-0.6,1.3-0.9,2.7-0.9,4.2s0.3,2.9,0.9,4.2
							c0.6,1.3,1.3,2.5,2.3,3.5c1,1,2.1,1.8,3.5,2.4c1.3,0.6,2.8,0.9,4.3,0.9c1.5,0,2.9-0.3,4.3-0.9c1.3-0.6,2.5-1.4,3.5-2.4
							c1-1,1.8-2.2,2.3-3.5c0.6-1.3,0.9-2.7,0.9-4.2s-0.3-2.9-0.9-4.2c-0.6-1.3-1.3-2.5-2.3-3.5c-1-1-2.1-1.8-3.5-2.4
							C203.4,23.4,201.9,23.1,200.4,23.1z"/>
						<path d="M251.2,47.6c-3.1,2.6-6.8,3.8-10.9,3.8c-4.8,0-8.9-1.7-12.3-5.1c-3.4-3.4-5.1-7.5-5.1-12.3c0-4.8,1.7-8.9,5.1-12.3
							c3.4-3.4,7.5-5.1,12.3-5.1c4.8,0,8.9,1.7,12.3,5.1c3.4,3.4,5.1,7.5,5.1,12.3v17.3c0,1.5-0.2,2.9-0.7,4.2
							c-0.5,1.3-1.1,2.5-1.9,3.7c-0.8,1.1-1.8,2.1-2.9,3c-1.1,0.9-2.3,1.6-3.6,2.3c-1.3,0.6-2.6,1.1-4,1.4c-1.4,0.3-2.8,0.5-4.2,0.5
							c-1.7,0-3.3-0.2-4.9-0.6c-1.6-0.4-3.1-1.1-4.5-1.9c-1.4-0.8-2.7-1.9-3.9-3.1c-1.2-1.2-2.2-2.6-3-4.1c-0.3-0.5-0.5-1.1-0.5-1.7
							c0-0.9,0.3-1.7,0.9-2.3c0.6-0.6,1.4-0.9,2.3-0.9c0.6,0,1.1,0.1,1.5,0.4c0.4,0.3,1,0.9,1.7,1.9c0.7,1,1.3,1.8,1.9,2.3
							c2.4,2.4,5.2,3.5,8.6,3.5c3.4,0,6.2-1.2,8.5-3.5c1.4-1.7,2.1-3.4,2.1-5.1V47.6z M240.3,23.1c-1.5,0-3,0.3-4.3,0.9
							c-1.3,0.6-2.5,1.4-3.5,2.4c-1,1-1.7,2.1-2.3,3.5c-0.6,1.3-0.9,2.7-0.9,4.2s0.3,2.9,0.9,4.2c0.6,1.3,1.3,2.5,2.3,3.5
							c1,1,2.1,1.8,3.5,2.4c1.3,0.6,2.8,0.9,4.3,0.9c1.5,0,2.9-0.3,4.3-0.9c1.3-0.6,2.5-1.4,3.5-2.4c1-1,1.8-2.2,2.3-3.5
							c0.6-1.3,0.9-2.7,0.9-4.2s-0.3-2.9-0.9-4.2c-0.6-1.3-1.3-2.5-2.3-3.5c-1-1-2.1-1.8-3.5-2.4C243.2,23.4,241.8,23.1,240.3,23.1z
							"/>
						<path d="M289.2,41.7c0.9,0,1.7,0.3,2.3,0.9c0.6,0.6,0.9,1.4,0.9,2.3c0,0.9-0.3,1.7-0.9,2.3c-3.2,2.8-7,4.2-11.4,4.2
							c-4.8,0-8.9-1.7-12.3-5.1c-3.4-3.4-5.1-7.5-5.1-12.3c0-4.8,1.7-8.9,5.1-12.3c3.4-3.4,7.5-5.1,12.3-5.1c4.8,0,8.9,1.7,12.3,5.1
							c1.7,1.7,3,3.6,3.8,5.6c0.9,2.1,1.3,4.3,1.3,6.7c0,0.9-0.3,1.7-0.9,2.3c-0.6,0.6-1.4,0.9-2.3,0.9h-24.7
							c0.4,1.1,0.9,2.2,1.6,3.1c0.7,0.9,1.5,1.8,2.4,2.4c0.9,0.7,1.9,1.2,3.1,1.6c1.1,0.4,2.3,0.6,3.5,0.6c1.4,0,2.6-0.2,3.8-0.6
							c1.1-0.4,2.2-1,3.2-1.9C287.7,42,288.4,41.7,289.2,41.7z M290.6,30.8c-0.4-1.1-0.9-2.2-1.6-3.1c-0.7-0.9-1.5-1.8-2.4-2.4
							c-0.9-0.7-1.9-1.2-3.1-1.6c-1.1-0.4-2.3-0.6-3.4-0.6c-1.2,0-2.3,0.2-3.5,0.6c-1.1,0.4-2.1,0.9-3.1,1.6
							c-0.9,0.7-1.7,1.5-2.4,2.4c-0.7,0.9-1.2,2-1.5,3.1H290.6z"/>
					</g>
				</g>
			</g>
			<g>
				<g>
					<g>
						<path fill="#FFFFFF" d="M72.4,6.5c-5.7,0-8.6,2.9-8.6,8.6v1.6h6.3c0.9,0,1.7,0.3,2.3,0.9c0.6,0.6,0.9,1.4,0.9,2.3
							c0,0.9-0.3,1.7-0.9,2.3c-0.6,0.6-1.4,0.9-2.3,0.9h-6.3v23.3c0,0.4-0.1,0.9-0.2,1.2c-0.2,0.4-0.4,0.7-0.7,1
							c-0.3,0.3-0.6,0.5-1,0.7c-0.4,0.2-0.8,0.2-1.3,0.2c-0.5,0-0.9-0.1-1.3-0.2c-0.4-0.2-0.7-0.4-1-0.7c-0.3-0.3-0.5-0.6-0.7-1
							c-0.2-0.4-0.2-0.8-0.2-1.2V23.2h-1.5c-0.9,0-1.7-0.3-2.3-0.9c-0.6-0.6-0.9-1.4-0.9-2.3c0-0.9,0.3-1.7,0.9-2.3
							c0.6-0.6,1.4-0.9,2.3-0.9h1.5v-1.6C57.4,5,62.4,0,72.4,0c0.9,0,1.7,0.3,2.3,0.9c0.6,0.6,0.9,1.4,0.9,2.3
							c0,0.9-0.3,1.7-0.9,2.3C74.1,6.2,73.3,6.5,72.4,6.5z"/>
						<path fill="#FFFFFF" d="M112.9,32.3c0,4.9-1.7,9-5.1,12.3c-3.4,3.4-7.6,5.1-12.3,5.1c-4.8,0-8.9-1.7-12.3-5.1
							c-3.4-3.4-5.1-7.5-5.1-12.3c0-4.8,1.7-8.9,5.1-12.3c3.4-3.4,7.5-5.1,12.3-5.1c4.8,0,8.9,1.7,12.3,5.1c1.7,1.7,3,3.6,3.8,5.6
							C112.4,27.7,112.8,29.9,112.9,32.3z M95.4,21.4c-1.5,0-3,0.3-4.3,0.9c-1.3,0.6-2.5,1.4-3.5,2.4c-1,1-1.7,2.1-2.3,3.5
							c-0.6,1.3-0.9,2.7-0.9,4.2c0,1.5,0.3,2.9,0.9,4.2c0.6,1.3,1.3,2.5,2.3,3.5c1,1,2.1,1.8,3.5,2.4c1.3,0.6,2.8,0.9,4.3,0.9
							c1.5,0,2.9-0.3,4.3-0.9c1.3-0.6,2.5-1.4,3.5-2.4c1-1,1.8-2.2,2.3-3.5c0.6-1.3,0.9-2.7,0.9-4.2c0-1.5-0.3-2.9-0.9-4.2
							c-0.6-1.3-1.3-2.5-2.3-3.5c-1-1-2.1-1.8-3.5-2.4C98.4,21.7,97,21.4,95.4,21.4z"/>
						<path fill="#FFFFFF" d="M124.2,18.1v0.6c1.6-1.2,3.2-2.2,5.1-2.9c1.8-0.7,3.8-1,5.9-1c0.9,0,1.9,0.1,2.9,0.2
							c1,0.1,2,0.3,2.9,0.7c0.9,0.3,1.6,0.8,2.2,1.3c0.6,0.6,0.9,1.3,0.9,2.2c0,0.5-0.1,0.9-0.3,1.3c-0.2,0.4-0.4,0.7-0.7,1
							c-0.3,0.3-0.6,0.5-1,0.7c-0.4,0.2-0.8,0.2-1.3,0.2c-0.4,0-0.9-0.1-1.4-0.3c-1.3-0.5-2.7-0.8-4.3-0.8c-1.5,0-2.9,0.3-4.3,0.9
							c-1.3,0.6-2.5,1.3-3.5,2.3c-1,1-1.8,2.1-2.3,3.5c-0.6,1.3-0.9,2.7-0.9,4.3v14.2c0,0.9-0.3,1.7-0.9,2.3
							c-0.6,0.6-1.4,0.9-2.3,0.9c-0.9,0-1.7-0.3-2.3-0.9c-0.6-0.6-0.9-1.4-0.9-2.3V18.1c0-0.9,0.3-1.7,0.9-2.3
							c0.6-0.6,1.4-0.9,2.3-0.9c0.9,0,1.7,0.3,2.3,0.9C123.9,16.5,124.2,17.3,124.2,18.1z"/>
						<path fill="#FFFFFF" d="M154.1,33.2c-2-0.7-3.3-1.5-4.1-2.3h0c-1.6-1.6-2.4-3.5-2.4-5.6c0-1.6,0.4-3,1.3-4.3
							c0.8-1.3,1.9-2.4,3.3-3.3c1.3-0.9,2.9-1.6,4.6-2.1c1.7-0.5,3.4-0.7,5.1-0.7c5.2,0,9.6,2.1,13.4,6.3c0.4,0.5,0.7,1.2,0.7,2
							c0,0.9-0.3,1.7-0.9,2.3c-0.6,0.6-1.4,0.9-2.3,0.9c-0.7,0-1.2-0.2-1.7-0.6c-0.5-0.4-0.9-0.8-1.4-1.2c-2.1-2.1-4.7-3.2-7.7-3.2
							c-3,0-5.4,0.9-7.2,2.7c-0.3,0.3-0.5,0.8-0.5,1.4c0,0.6,0.3,1,0.8,1.2l14.6,4.8c2,0.8,3.4,1.6,4.1,2.3h0
							c1.6,1.6,2.4,3.5,2.4,5.6c0,1.6-0.4,3-1.3,4.3c-0.8,1.3-1.9,2.4-3.3,3.3c-1.3,0.9-2.9,1.6-4.5,2.1c-1.7,0.5-3.4,0.7-5.1,0.7
							c-5.2,0-9.7-2.1-13.4-6.2c-0.5-0.6-0.7-1.3-0.7-2c0-0.9,0.3-1.7,0.9-2.3c0.6-0.6,1.4-0.9,2.3-0.9c0.7,0,1.3,0.2,1.7,0.6
							c0.5,0.4,0.9,0.8,1.3,1.2c2.1,2.1,4.7,3.2,7.8,3.2c3,0,5.4-0.9,7.2-2.8c0.3-0.4,0.5-0.8,0.5-1.3c0-0.6-0.3-1-0.8-1.2
							L154.1,33.2z"/>
						<path fill="#FFFFFF" d="M209.1,46.5v-0.6c-1.6,1.2-3.2,2.2-5.1,2.9c-1.8,0.7-3.8,1-5.9,1c-4.8,0-8.9-1.7-12.3-5.1
							c-3.4-3.4-5.1-7.5-5.1-12.3c0-4.8,1.7-8.9,5.1-12.3c3.4-3.4,7.5-5.1,12.3-5.1c4.8,0,8.9,1.7,12.3,5.1
							c3.4,3.4,5.1,7.5,5.1,12.3v14.2c0,0.9-0.3,1.7-0.9,2.3c-0.6,0.6-1.4,0.9-2.3,0.9c-0.9,0-1.7-0.3-2.3-0.9
							C209.4,48.2,209.1,47.4,209.1,46.5z M198.2,21.4c-1.5,0-3,0.3-4.3,0.9c-1.3,0.6-2.5,1.4-3.5,2.4c-1,1-1.7,2.1-2.3,3.5
							c-0.6,1.3-0.9,2.7-0.9,4.2c0,1.5,0.3,2.9,0.9,4.2c0.6,1.3,1.3,2.5,2.3,3.5c1,1,2.1,1.8,3.5,2.4c1.3,0.6,2.8,0.9,4.3,0.9
							c1.5,0,2.9-0.3,4.3-0.9c1.3-0.6,2.5-1.4,3.5-2.4c1-1,1.8-2.2,2.3-3.5c0.6-1.3,0.9-2.7,0.9-4.2c0-1.5-0.3-2.9-0.9-4.2
							c-0.6-1.3-1.3-2.5-2.3-3.5c-1-1-2.1-1.8-3.5-2.4C201.1,21.7,199.7,21.4,198.2,21.4z"/>
						<path fill="#FFFFFF" d="M248.9,45.9c-3.1,2.6-6.8,3.8-10.9,3.8c-4.8,0-8.9-1.7-12.3-5.1c-3.4-3.4-5.1-7.5-5.1-12.3
							c0-4.8,1.7-8.9,5.1-12.3c3.4-3.4,7.5-5.1,12.3-5.1c4.8,0,8.9,1.7,12.3,5.1c3.4,3.4,5.1,7.5,5.1,12.3v17.3
							c0,1.5-0.2,2.9-0.7,4.2c-0.5,1.3-1.1,2.5-1.9,3.7c-0.8,1.1-1.8,2.1-2.9,3c-1.1,0.9-2.3,1.6-3.6,2.3c-1.3,0.6-2.6,1.1-4,1.4
							c-1.4,0.3-2.8,0.5-4.2,0.5c-1.7,0-3.3-0.2-4.9-0.6c-1.6-0.4-3.1-1.1-4.5-1.9c-1.4-0.8-2.7-1.9-3.9-3.1c-1.2-1.2-2.2-2.6-3-4.1
							c-0.3-0.5-0.5-1.1-0.5-1.7c0-0.9,0.3-1.7,0.9-2.3c0.6-0.6,1.4-0.9,2.3-0.9c0.6,0,1.1,0.1,1.5,0.4c0.4,0.3,1,0.9,1.7,1.9
							c0.7,1,1.3,1.8,1.9,2.3c2.4,2.4,5.2,3.5,8.6,3.5c3.4,0,6.2-1.2,8.5-3.5c1.4-1.7,2.1-3.4,2.1-5.1V45.9z M238,21.4
							c-1.5,0-3,0.3-4.3,0.9c-1.3,0.6-2.5,1.4-3.5,2.4c-1,1-1.7,2.1-2.3,3.5c-0.6,1.3-0.9,2.7-0.9,4.2c0,1.5,0.3,2.9,0.9,4.2
							c0.6,1.3,1.3,2.5,2.3,3.5c1,1,2.1,1.8,3.5,2.4c1.3,0.6,2.8,0.9,4.3,0.9c1.5,0,2.9-0.3,4.3-0.9c1.3-0.6,2.5-1.4,3.5-2.4
							c1-1,1.8-2.2,2.3-3.5c0.6-1.3,0.9-2.7,0.9-4.2c0-1.5-0.3-2.9-0.9-4.2c-0.6-1.3-1.3-2.5-2.3-3.5c-1-1-2.1-1.8-3.5-2.4
							C240.9,21.7,239.5,21.4,238,21.4z"/>
						<path fill="#FFFFFF" d="M286.9,40c0.9,0,1.7,0.3,2.3,0.9c0.6,0.6,0.9,1.4,0.9,2.3c0,0.9-0.3,1.7-0.9,2.3
							c-3.2,2.8-7,4.2-11.4,4.2c-4.8,0-8.9-1.7-12.3-5.1c-3.4-3.4-5.1-7.5-5.1-12.3c0-4.8,1.7-8.9,5.1-12.3
							c3.4-3.4,7.5-5.1,12.3-5.1c4.8,0,8.9,1.7,12.3,5.1c1.7,1.7,3,3.6,3.8,5.6c0.9,2.1,1.3,4.3,1.3,6.7c0,0.9-0.3,1.7-0.9,2.3
							c-0.6,0.6-1.4,0.9-2.3,0.9h-24.7c0.4,1.1,0.9,2.2,1.6,3.1c0.7,0.9,1.5,1.8,2.4,2.4c0.9,0.7,1.9,1.2,3.1,1.6
							c1.1,0.4,2.3,0.6,3.5,0.6c1.4,0,2.6-0.2,3.8-0.6c1.1-0.4,2.2-1,3.2-1.9C285.4,40.3,286.1,40,286.9,40z M288.3,29.1
							c-0.4-1.1-0.9-2.2-1.6-3.1c-0.7-0.9-1.5-1.8-2.4-2.4c-0.9-0.7-1.9-1.2-3.1-1.6c-1.1-0.4-2.3-0.6-3.4-0.6s-2.3,0.2-3.5,0.6
							c-1.1,0.4-2.1,0.9-3.1,1.6c-0.9,0.7-1.7,1.5-2.4,2.4c-0.7,0.9-1.2,2-1.5,3.1H288.3z"/>
					</g>
				</g>
			</g>
		</g>
		<g>
			
				<radialGradient id="SVGID_1_" cx="8666.7412" cy="892.7761" r="138.6221" gradientTransform="matrix(-0.2574 0 0 2.930000e-002 2410.009 32.7871)" gradientUnits="userSpaceOnUse">
				<stop  offset="0" style="stop-color:#FF0000"/>
				<stop  offset="0.8486" style="stop-color:#FF0500;stop-opacity:0"/>
			</radialGradient>
			<ellipse fill="url(#SVGID_1_)" cx="179" cy="58.9" rx="35.7" ry="4.1"/>
			
				<radialGradient id="SVGID_2_" cx="4272.4126" cy="892.7761" r="138.621" gradientTransform="matrix(-0.5365 0 0 2.930000e-002 2366.5483 32.7871)" gradientUnits="userSpaceOnUse">
				<stop  offset="0" style="stop-color:#FF0000"/>
				<stop  offset="0.8486" style="stop-color:#FF0500;stop-opacity:0"/>
			</radialGradient>
			<ellipse fill="url(#SVGID_2_)" cx="74.4" cy="58.9" rx="74.4" ry="4.1"/>
			
				<radialGradient id="SVGID_3_" cx="4941.1694" cy="-1201.5282" r="138.8451" gradientTransform="matrix(-0.4817 0 0 1.870000e-002 2448.1775 80.6409)" gradientUnits="userSpaceOnUse">
				<stop  offset="0" style="stop-color:#FF0000"/>
				<stop  offset="0.8486" style="stop-color:#FF0500;stop-opacity:0"/>
			</radialGradient>
			<ellipse fill="url(#SVGID_3_)" cx="68.1" cy="58.2" rx="66.8" ry="2.6"/>
			
				<radialGradient id="SVGID_4_" cx="6067.876" cy="558.252" r="138.5519" gradientTransform="matrix(-0.3633 0 0 2.470000e-002 2361.9495 44.7746)" gradientUnits="userSpaceOnUse">
				<stop  offset="0" style="stop-color:#C40006"/>
				<stop  offset="0.9892" style="stop-color:#FF0500;stop-opacity:0"/>
			</radialGradient>
			<ellipse fill="url(#SVGID_4_)" cx="157.6" cy="58.6" rx="50.4" ry="3.4"/>
		</g>
	</g>
</g>
</svg>
