<?xml version="1.0" encoding="utf-8"?>
<!-- Generator: Adobe Illustrator 18.0.0, SVG Export Plug-In . SVG Version: 6.00 Build 0)  -->
<!DOCTYPE svg PUBLIC "-//W3C//DTD SVG 1.1//EN" "http://www.w3.org/Graphics/SVG/1.1/DTD/svg11.dtd">
<svg version="1.1" id="Layer_1" xmlns="http://www.w3.org/2000/svg" xmlns:xlink="http://www.w3.org/1999/xlink" x="0px" y="0px"
	 viewBox="0 0 31.8 30.5" enable-background="new 0 0 31.8 30.5" xml:space="preserve">
<g>
	<g opacity="0.23">
		<path d="M31.2,13.6C31.2,13.6,31.2,13.6,31.2,13.6c-0.3,2.1-0.7,4-1.8,5.7c-1.1,1.9-2.5,3.6-4.4,4.7c-1.4,0.9-2.9,1.6-4.6,1.8
			c-1.2,0.2-2.3,0.2-3.5,0.1c0,0,0.1,0,0.1,0c-0.2,0-0.4,0-0.5-0.1c-0.5-0.1-0.9-0.2-1.4-0.3c-0.8-0.2-1.6-0.5-2.3-0.9
			c-0.6-0.3-1.2-0.7-1.7-1.2c0.7-0.5,1.4-0.9,2.2-1.4c-0.2-0.1-0.4-0.2-0.6-0.4c-3.2-1.8-6.3-3.6-9.5-5.4c0,0.2,0,0.5,0,0.7
			c0.1,3.7,0.2,7.4,0.2,11.1c0.2-0.1,0.4-0.3,0.6-0.4c0.6-0.4,1.2-0.7,1.8-1.1c2,1.4,4.1,2.5,6.5,3.1c2.1,0.5,4.1,0.4,6.2,0.1
			c3.5-0.5,6.7-2.5,9-5.1c0.7-0.8,1.3-1.7,1.9-2.7c0.6-1,1.1-2.2,1.3-3.3c0.3-1.1,0.5-2.1,0.5-3.2C31.3,15,31.3,14.3,31.2,13.6z"/>
		<path d="M7.5,7.1c1.3-0.8,2.7-1.4,4.2-1.6c1.2-0.2,2.4-0.2,3.6-0.1c0,0-0.1,0-0.1,0c0.1,0,0.3,0,0.4,0.1c0.4,0.1,0.9,0.2,1.3,0.3
			c0.8,0.2,1.7,0.5,2.4,0.9c0.6,0.3,1.2,0.8,1.8,1.2c-0.7,0.5-1.4,0.9-2.2,1.4c0.2,0.1,0.4,0.2,0.6,0.4c3.2,1.8,6.3,3.6,9.5,5.4
			c0-0.2,0-0.5,0-0.7c-0.1-3.7-0.2-7.4-0.2-11.1c-0.2,0.1-0.4,0.3-0.6,0.4c-0.6,0.4-1.2,0.7-1.8,1.1c-2-1.5-4.2-2.6-6.7-3.1
			c-2.2-0.4-4.4-0.4-6.6,0.1c-1.9,0.5-3.7,1.2-5.4,2.3C6.6,4.5,5.6,5.4,4.6,6.5c-1.5,1.6-2.5,3.7-3.1,5.9c-0.3,1.1-0.5,2.1-0.5,3.2
			c0,0.7,0,1.4,0,2.1c0-0.1,0-0.2,0-0.3c0.3-2.1,0.9-4,1.9-5.8C4.1,9.8,5.7,8.2,7.5,7.1z"/>
	</g>
	<g>
		<g>
			<path fill="#F66BC6" d="M30.2,12.6C30.2,12.6,30.2,12.6,30.2,12.6c-0.3,2.1-0.7,4-1.8,5.7c-1.1,1.9-2.5,3.6-4.4,4.7
				c-1.4,0.9-2.9,1.6-4.6,1.8c-1.2,0.2-2.3,0.2-3.5,0.1c0,0,0.1,0,0.1,0c-0.2,0-0.4,0-0.5-0.1c-0.5-0.1-0.9-0.2-1.4-0.3
				c-0.8-0.2-1.6-0.5-2.3-0.9c-0.6-0.3-1.2-0.7-1.7-1.2c0.7-0.5,1.4-0.9,2.2-1.4c-0.2-0.1-0.4-0.2-0.6-0.4c-3.2-1.8-6.3-3.6-9.5-5.4
				c0,0.2,0,0.5,0,0.7c0.1,3.7,0.2,7.4,0.2,11.1c0.2-0.1,0.4-0.3,0.6-0.4c0.6-0.4,1.2-0.7,1.8-1.1c2,1.4,4.1,2.5,6.5,3.1
				c2.1,0.5,4.1,0.4,6.2,0.1c3.5-0.5,6.7-2.5,9-5.1c0.7-0.8,1.3-1.7,1.9-2.7c0.6-1,1.1-2.2,1.3-3.3c0.3-1.1,0.5-2.1,0.5-3.2
				C30.3,14,30.3,13.3,30.2,12.6z"/>
			<path fill="#F66BC6" d="M6.5,6.1c1.3-0.8,2.7-1.4,4.2-1.6c1.2-0.2,2.4-0.2,3.6-0.1c0,0-0.1,0-0.1,0c0.1,0,0.3,0,0.4,0.1
				c0.4,0.1,0.9,0.2,1.3,0.3c0.8,0.2,1.7,0.5,2.4,0.9c0.6,0.3,1.2,0.8,1.8,1.2c-0.7,0.5-1.4,0.9-2.2,1.4c0.2,0.1,0.4,0.2,0.6,0.4
				c3.2,1.8,6.3,3.6,9.5,5.4c0-0.2,0-0.5,0-0.7c-0.1-3.7-0.2-7.4-0.2-11.1c-0.2,0.1-0.4,0.3-0.6,0.4c-0.6,0.4-1.2,0.7-1.8,1.1
				c-2-1.5-4.2-2.6-6.7-3.1c-2.2-0.4-4.4-0.4-6.6,0.1c-1.9,0.5-3.7,1.2-5.4,2.3C5.6,3.5,4.6,4.4,3.6,5.5c-1.5,1.6-2.5,3.7-3.1,5.9
				c-0.3,1.1-0.5,2.1-0.5,3.2c0,0.7,0,1.4,0,2.1c0-0.1,0-0.2,0-0.3c0.3-2.1,0.9-4,1.9-5.8C3.1,8.8,4.7,7.2,6.5,6.1z"/>
		</g>
	</g>
</g>
</svg>
