<?xml version="1.0" encoding="utf-8"?>
<!-- Generator: Adobe Illustrator 18.0.0, SVG Export Plug-In . SVG Version: 6.00 Build 0)  -->
<!DOCTYPE svg PUBLIC "-//W3C//DTD SVG 1.1//EN" "http://www.w3.org/Graphics/SVG/1.1/DTD/svg11.dtd">
<svg version="1.1" id="Layer_1" xmlns="http://www.w3.org/2000/svg" xmlns:xlink="http://www.w3.org/1999/xlink" x="0px" y="0px"
	 viewBox="0 0 361.8 164.7" enable-background="new 0 0 361.8 164.7" xml:space="preserve">
<g>
	<g>
		<g>
			<g opacity="0.2">
				<g>
					<g>
						<g opacity="0.2">
							
								<line fill="none" stroke="#000000" stroke-width="0.8451" stroke-linecap="round" stroke-linejoin="round" x1="57.5" y1="139.1" x2="57.5" y2="138.3"/>
							
								<line fill="none" stroke="#000000" stroke-width="0.8451" stroke-linecap="round" stroke-linejoin="round" stroke-dasharray="1.7807,3.5613" x1="57.5" y1="134.7" x2="57.5" y2="93.7"/>
							
								<line fill="none" stroke="#000000" stroke-width="0.8451" stroke-linecap="round" stroke-linejoin="round" x1="57.5" y1="92" x2="57.5" y2="91.1"/>
						</g>
						<g>
							<g>
								
									<line fill="none" stroke="#FFFFFF" stroke-width="0.8451" stroke-linecap="round" stroke-linejoin="round" x1="56.5" y1="138.1" x2="56.5" y2="137.3"/>
								
									<line fill="none" stroke="#FFFFFF" stroke-width="0.8451" stroke-linecap="round" stroke-linejoin="round" stroke-dasharray="1.7807,3.5613" x1="56.5" y1="133.7" x2="56.5" y2="92.7"/>
								
									<line fill="none" stroke="#FFFFFF" stroke-width="0.8451" stroke-linecap="round" stroke-linejoin="round" x1="56.5" y1="91" x2="56.5" y2="90.1"/>
							</g>
						</g>
					</g>
					<g>
						<g opacity="0.2">
							
								<line fill="none" stroke="#000000" stroke-width="0.8451" stroke-linecap="round" stroke-linejoin="round" x1="20.8" y1="143.3" x2="21.4" y2="142.7"/>
							
								<line fill="none" stroke="#000000" stroke-width="0.8451" stroke-linecap="round" stroke-linejoin="round" stroke-dasharray="1.6532,3.3065" x1="23.6" y1="140.3" x2="55.8" y2="104.8"/>
							
								<line fill="none" stroke="#000000" stroke-width="0.8451" stroke-linecap="round" stroke-linejoin="round" x1="57" y1="103.5" x2="57.5" y2="102.9"/>
						</g>
						<g>
							<g>
								
									<line fill="none" stroke="#FFFFFF" stroke-width="0.8451" stroke-linecap="round" stroke-linejoin="round" x1="19.8" y1="142.3" x2="20.4" y2="141.7"/>
								
									<line fill="none" stroke="#FFFFFF" stroke-width="0.8451" stroke-linecap="round" stroke-linejoin="round" stroke-dasharray="1.6532,3.3065" x1="22.6" y1="139.3" x2="54.8" y2="103.8"/>
								
									<line fill="none" stroke="#FFFFFF" stroke-width="0.8451" stroke-linecap="round" stroke-linejoin="round" x1="56" y1="102.5" x2="56.5" y2="101.9"/>
							</g>
						</g>
					</g>
					<g>
						<g opacity="0.2">
							
								<line fill="none" stroke="#000000" stroke-width="0.8451" stroke-linecap="round" stroke-linejoin="round" x1="94.3" y1="142.9" x2="93.8" y2="142.3"/>
							
								<line fill="none" stroke="#000000" stroke-width="0.8451" stroke-linecap="round" stroke-linejoin="round" stroke-dasharray="1.6449,3.2898" x1="91.5" y1="139.8" x2="59.2" y2="104.8"/>
							
								<line fill="none" stroke="#000000" stroke-width="0.8451" stroke-linecap="round" stroke-linejoin="round" x1="58.1" y1="103.5" x2="57.5" y2="102.9"/>
						</g>
						<g>
							<g>
								
									<line fill="none" stroke="#FFFFFF" stroke-width="0.8451" stroke-linecap="round" stroke-linejoin="round" x1="93.3" y1="141.9" x2="92.8" y2="141.3"/>
								
									<line fill="none" stroke="#FFFFFF" stroke-width="0.8451" stroke-linecap="round" stroke-linejoin="round" stroke-dasharray="1.6449,3.2898" x1="90.5" y1="138.8" x2="58.2" y2="103.8"/>
								
									<line fill="none" stroke="#FFFFFF" stroke-width="0.8451" stroke-linecap="round" stroke-linejoin="round" x1="57.1" y1="102.5" x2="56.5" y2="101.9"/>
							</g>
						</g>
					</g>
				</g>
			</g>
			<g>
				<g>
					<g>
						<g opacity="0.2">
							<circle fill="none" stroke="#000000" stroke-width="1.0246" stroke-miterlimit="10" cx="12.8" cy="150.9" r="11.2"/>
						</g>
						<g>
							<circle fill="none" stroke="#00B0C2" stroke-width="1.0246" stroke-miterlimit="10" cx="11.8" cy="149.9" r="11.2"/>
						</g>
					</g>
					<g>
						<g opacity="0.2">
							<circle fill="none" stroke="#000000" stroke-width="1.0246" stroke-miterlimit="10" cx="57.5" cy="150.9" r="11.2"/>
						</g>
						<g>
							<circle fill="none" stroke="#00B0C2" stroke-width="1.0246" stroke-miterlimit="10" cx="56.5" cy="149.9" r="11.2"/>
						</g>
					</g>
					<g>
						<g opacity="0.2">
							<circle fill="none" stroke="#000000" stroke-width="1.0246" stroke-miterlimit="10" cx="102.3" cy="150.9" r="11.2"/>
						</g>
						<g>
							<circle fill="none" stroke="#00B0C2" stroke-width="1.0246" stroke-miterlimit="10" cx="101.3" cy="149.9" r="11.2"/>
						</g>
					</g>
				</g>
			</g>
		</g>
		<g>
			<g>
				<g opacity="0.2">
					<path d="M99.7,112.7H11.2c-3.3,0-6-2.7-6-6V72.9c0-3.3,2.7-6,6-6h88.5c3.3,0,6,2.7,6,6v33.9C105.7,110,103,112.7,99.7,112.7z"
						/>
				</g>
				<g>
					<path fill="#00B0C2" d="M98.7,111.7H10.2c-3.3,0-6-2.7-6-6V71.9c0-3.3,2.7-6,6-6h88.5c3.3,0,6,2.7,6,6v33.9
						C104.7,109,102,111.7,98.7,111.7z"/>
				</g>
			</g>
			<g>
				<g>
					<g>
						
							<image overflow="visible" opacity="0.2" width="10" height="19" xlink:href="20D1137F.png"  transform="matrix(1 0 0 1 50.0387 72.9818)">
						</image>
						<g>
							<path fill="#FFFFFF" d="M57.3,73.4v15.2h-2.8V75.7h-3.2v-2.4H57.3z"/>
						</g>
					</g>
				</g>
			</g>
			<g>
				<g>
					<g>
						
							<image overflow="visible" opacity="0.2" width="12" height="14" xlink:href="20D1137D.png"  transform="matrix(1 0 0 1 30.0387 95.9818)">
						</image>
						<g>
							<path fill="#FFFFFF" d="M32.5,106.3c-0.6-0.4-1.1-0.9-1.4-1.7c-0.3-0.7-0.5-1.6-0.5-2.6c0-1,0.2-1.9,0.5-2.6
								c0.3-0.7,0.8-1.3,1.4-1.7c0.6-0.4,1.3-0.6,2-0.6c0.7,0,1.4,0.2,2,0.6c0.6,0.4,1.1,0.9,1.4,1.7c0.3,0.7,0.5,1.6,0.5,2.6
								c0,1-0.2,1.9-0.5,2.6c-0.3,0.7-0.8,1.3-1.4,1.7c-0.6,0.4-1.3,0.6-2,0.6C33.8,106.8,33.1,106.7,32.5,106.3z M36.1,104.5
								c0.4-0.6,0.6-1.4,0.6-2.5c0-1.1-0.2-1.9-0.6-2.5c-0.4-0.6-0.9-0.8-1.6-0.8c-0.7,0-1.2,0.3-1.6,0.8c-0.4,0.6-0.6,1.4-0.6,2.5
								c0,1.1,0.2,1.9,0.6,2.5c0.4,0.6,0.9,0.8,1.6,0.8C35.2,105.3,35.7,105.1,36.1,104.5z"/>
						</g>
					</g>
					<g>
						
							<image overflow="visible" opacity="0.2" width="6" height="6" xlink:href="20D11383.png"  transform="matrix(1 0 0 1 39.0387 103.9818)">
						</image>
						<g>
							<path fill="#FFFFFF" d="M39.7,106.5c-0.2-0.2-0.3-0.5-0.3-0.8c0-0.3,0.1-0.6,0.3-0.8c0.2-0.2,0.5-0.3,0.8-0.3
								c0.3,0,0.6,0.1,0.8,0.3c0.2,0.2,0.3,0.5,0.3,0.8c0,0.3-0.1,0.6-0.3,0.8c-0.2,0.2-0.5,0.3-0.8,0.3S40,106.7,39.7,106.5z"/>
						</g>
					</g>
					<g>
						
							<image overflow="visible" opacity="0.2" width="11" height="14" xlink:href="20D11385.png"  transform="matrix(1 0 0 1 42.0387 95.9818)">
						</image>
						<g>
							<path fill="#FFFFFF" d="M44.5,106.3c-0.6-0.4-1.1-0.9-1.4-1.7s-0.5-1.6-0.5-2.6c0-1,0.2-1.9,0.5-2.6c0.3-0.7,0.8-1.3,1.4-1.7
								c0.6-0.4,1.3-0.6,2-0.6c0.7,0,1.4,0.2,2,0.6c0.6,0.4,1.1,0.9,1.4,1.7c0.3,0.7,0.5,1.6,0.5,2.6c0,1-0.2,1.9-0.5,2.6
								s-0.8,1.3-1.4,1.7c-0.6,0.4-1.3,0.6-2,0.6C45.7,106.8,45.1,106.7,44.5,106.3z M48.1,104.5c0.4-0.6,0.6-1.4,0.6-2.5
								c0-1.1-0.2-1.9-0.6-2.5c-0.4-0.6-0.9-0.8-1.6-0.8c-0.7,0-1.2,0.3-1.6,0.8c-0.4,0.6-0.6,1.4-0.6,2.5c0,1.1,0.2,1.9,0.6,2.5
								c0.4,0.6,0.9,0.8,1.6,0.8C47.1,105.3,47.7,105.1,48.1,104.5z"/>
						</g>
					</g>
					<g>
						
							<image overflow="visible" opacity="0.2" width="11" height="14" xlink:href="20D11387.png"  transform="matrix(1 0 0 1 50.0387 95.9818)">
						</image>
						<g>
							<path fill="#FFFFFF" d="M58.3,105.2v1.5h-6.9v-1.2l3.7-3.5c0.4-0.4,0.7-0.8,0.8-1c0.1-0.3,0.2-0.6,0.2-0.9
								c0-0.4-0.1-0.8-0.4-1c-0.3-0.2-0.7-0.3-1.3-0.3c-1,0-1.7,0.3-2.2,1L51,98.8c0.4-0.5,0.9-0.9,1.5-1.1c0.6-0.3,1.3-0.4,2.1-0.4
								c1,0,1.8,0.2,2.4,0.7c0.6,0.5,0.9,1.1,0.9,2c0,0.5-0.1,1-0.3,1.4c-0.2,0.4-0.6,1-1.2,1.5l-2.5,2.4H58.3z"/>
						</g>
					</g>
					<g>
						
							<image overflow="visible" opacity="0.2" width="11" height="13" xlink:href="20D11384.png"  transform="matrix(1 0 0 1 58.0387 96.9818)">
						</image>
						<g>
							<path fill="#FFFFFF" d="M65.1,101.7c0.6,0.5,0.9,1.2,0.9,2.1c0,0.6-0.1,1.1-0.4,1.5c-0.3,0.5-0.7,0.8-1.2,1.1
								c-0.6,0.3-1.2,0.4-2,0.4c-0.7,0-1.3-0.1-1.9-0.3c-0.6-0.2-1.1-0.5-1.6-0.8l0.7-1.3c0.3,0.3,0.8,0.5,1.2,0.7
								c0.5,0.2,1,0.2,1.5,0.2c0.6,0,1.1-0.1,1.4-0.4c0.4-0.3,0.5-0.6,0.5-1c0-0.5-0.2-0.8-0.6-1.1c-0.4-0.2-1-0.4-1.9-0.4h-2.3
								l0.5-5.1h5.5v1.5h-4l-0.2,2.2h0.9C63.5,101,64.5,101.2,65.1,101.7z"/>
						</g>
					</g>
					<g>
						
							<image overflow="visible" opacity="0.2" width="8" height="10" xlink:href="20D1138C.png"  transform="matrix(1 0 0 1 70.0387 99.9818)">
						</image>
						<g>
							<path fill="#FFFFFF" d="M75.4,105.8v0.9H71v-5.8h4.3v0.9h-3.2v1.5h2.8v0.9h-2.8v1.6H75.4z"/>
						</g>
					</g>
					<g>
						
							<image overflow="visible" opacity="0.2" width="9" height="10" xlink:href="20D1138D.png"  transform="matrix(1 0 0 1 75.0387 99.9818)">
						</image>
						<g>
							<path fill="#FFFFFF" d="M77.8,101.8h-1.9v-0.9h5v0.9h-1.9v4.9h-1.1V101.8z"/>
						</g>
					</g>
					<g>
						
							<image overflow="visible" opacity="0.2" width="9" height="10" xlink:href="20D1138F.png"  transform="matrix(1 0 0 1 81.0387 99.9818)">
						</image>
						<g>
							<path fill="#FFFFFF" d="M86.8,100.9v5.8h-1.1v-2.5h-3v2.5h-1.1v-5.8h1.1v2.4h3v-2.4H86.8z"/>
						</g>
					</g>
				</g>
			</g>
		</g>
	</g>
	<g>
		<g>
			<g>
				<g opacity="0.6">
					<g>
						<g>
							<g opacity="0.2">
								
									<line fill="none" stroke="#000000" stroke-width="0.7172" stroke-linecap="round" stroke-linejoin="round" stroke-miterlimit="10" stroke-dasharray="0.8132,1.6265" x1="275.8" y1="120.9" x2="294.8" y2="91.4"/>
							</g>
							<g>
								
									<line fill="none" stroke="#AC9BFB" stroke-width="0.7172" stroke-linecap="round" stroke-linejoin="round" stroke-miterlimit="10" stroke-dasharray="0.8132,1.6265" x1="274.8" y1="119.9" x2="293.8" y2="90.4"/>
							</g>
						</g>
					</g>
				</g>
				<g opacity="0.6">
					<g>
						<g opacity="0.2">
							
								<line fill="none" stroke="#000000" stroke-width="0.7172" stroke-linecap="round" stroke-linejoin="round" x1="260.2" y1="147.1" x2="260.4" y2="146.7"/>
							
								<line fill="none" stroke="#000000" stroke-width="0.7172" stroke-linecap="round" stroke-linejoin="round" stroke-dasharray="0.7762,1.5524" x1="261.4" y1="145.5" x2="266.6" y2="138.7"/>
							
								<line fill="none" stroke="#000000" stroke-width="0.7172" stroke-linecap="round" stroke-linejoin="round" x1="267" y1="138.1" x2="267.3" y2="137.8"/>
						</g>
						<g>
							<g>
								
									<line fill="none" stroke="#AC9BFB" stroke-width="0.7172" stroke-linecap="round" stroke-linejoin="round" x1="259.2" y1="146.1" x2="259.4" y2="145.7"/>
								
									<line fill="none" stroke="#AC9BFB" stroke-width="0.7172" stroke-linecap="round" stroke-linejoin="round" stroke-dasharray="0.7762,1.5524" x1="260.4" y1="144.5" x2="265.6" y2="137.7"/>
								
									<line fill="none" stroke="#AC9BFB" stroke-width="0.7172" stroke-linecap="round" stroke-linejoin="round" x1="266" y1="137.1" x2="266.3" y2="136.8"/>
							</g>
						</g>
					</g>
				</g>
				<g opacity="0.6">
					<g>
						<g opacity="0.2">
							
								<line fill="none" stroke="#000000" stroke-width="0.7172" stroke-linecap="round" stroke-linejoin="round" x1="326" y1="146.9" x2="326.2" y2="146.6"/>
							
								<line fill="none" stroke="#000000" stroke-width="0.7172" stroke-linecap="round" stroke-linejoin="round" stroke-dasharray="0.7381,1.4762" x1="327.1" y1="145.4" x2="332.1" y2="139"/>
							
								<line fill="none" stroke="#000000" stroke-width="0.7172" stroke-linecap="round" stroke-linejoin="round" x1="332.5" y1="138.4" x2="332.8" y2="138"/>
						</g>
						<g>
							<g>
								
									<line fill="none" stroke="#AC9BFB" stroke-width="0.7172" stroke-linecap="round" stroke-linejoin="round" x1="325" y1="145.9" x2="325.2" y2="145.6"/>
								
									<line fill="none" stroke="#AC9BFB" stroke-width="0.7172" stroke-linecap="round" stroke-linejoin="round" stroke-dasharray="0.7381,1.4762" x1="326.1" y1="144.4" x2="331.1" y2="138"/>
								
									<line fill="none" stroke="#AC9BFB" stroke-width="0.7172" stroke-linecap="round" stroke-linejoin="round" x1="331.5" y1="137.4" x2="331.8" y2="137"/>
							</g>
						</g>
					</g>
				</g>
				<g opacity="0.6">
					<g>
						<g opacity="0.2">
							
								<line fill="none" stroke="#000000" stroke-width="0.7172" stroke-linecap="round" stroke-linejoin="round" x1="348.1" y1="146.8" x2="347.8" y2="146.5"/>
							
								<line fill="none" stroke="#000000" stroke-width="0.7172" stroke-linecap="round" stroke-linejoin="round" stroke-dasharray="0.7373,1.4745" x1="347" y1="145.3" x2="342.2" y2="138.7"/>
							
								<line fill="none" stroke="#000000" stroke-width="0.7172" stroke-linecap="round" stroke-linejoin="round" x1="341.8" y1="138.1" x2="341.5" y2="137.8"/>
						</g>
						<g>
							<g>
								
									<line fill="none" stroke="#AC9BFB" stroke-width="0.7172" stroke-linecap="round" stroke-linejoin="round" x1="347.1" y1="145.8" x2="346.8" y2="145.5"/>
								
									<line fill="none" stroke="#AC9BFB" stroke-width="0.7172" stroke-linecap="round" stroke-linejoin="round" stroke-dasharray="0.7373,1.4745" x1="346" y1="144.3" x2="341.2" y2="137.7"/>
								
									<line fill="none" stroke="#AC9BFB" stroke-width="0.7172" stroke-linecap="round" stroke-linejoin="round" x1="340.8" y1="137.1" x2="340.5" y2="136.8"/>
							</g>
						</g>
					</g>
				</g>
				<g opacity="0.6">
					<g>
						<g>
							<g opacity="0.2">
								
									<line fill="none" stroke="#000000" stroke-width="0.7172" stroke-linecap="round" stroke-linejoin="round" stroke-miterlimit="10" stroke-dasharray="0.8132,1.6265" x1="332.8" y1="120.9" x2="314.3" y2="94.2"/>
							</g>
							<g>
								
									<line fill="none" stroke="#AC9BFB" stroke-width="0.7172" stroke-linecap="round" stroke-linejoin="round" stroke-miterlimit="10" stroke-dasharray="0.8132,1.6265" x1="331.8" y1="119.9" x2="313.3" y2="93.2"/>
							</g>
						</g>
					</g>
				</g>
				<g opacity="0.6">
					<g>
						<g opacity="0.2">
							
								<line fill="none" stroke="#000000" stroke-width="0.7172" stroke-linecap="round" stroke-linejoin="round" x1="281.7" y1="146.8" x2="281.5" y2="146.5"/>
							
								<line fill="none" stroke="#000000" stroke-width="0.7172" stroke-linecap="round" stroke-linejoin="round" stroke-dasharray="0.7373,1.4745" x1="280.6" y1="145.3" x2="275.9" y2="138.7"/>
							
								<line fill="none" stroke="#000000" stroke-width="0.7172" stroke-linecap="round" stroke-linejoin="round" x1="275.4" y1="138.1" x2="275.2" y2="137.8"/>
						</g>
						<g>
							<g>
								
									<line fill="none" stroke="#AC9BFB" stroke-width="0.7172" stroke-linecap="round" stroke-linejoin="round" x1="280.7" y1="145.8" x2="280.5" y2="145.5"/>
								
									<line fill="none" stroke="#AC9BFB" stroke-width="0.7172" stroke-linecap="round" stroke-linejoin="round" stroke-dasharray="0.7373,1.4745" x1="279.6" y1="144.3" x2="274.9" y2="137.7"/>
								
									<line fill="none" stroke="#AC9BFB" stroke-width="0.7172" stroke-linecap="round" stroke-linejoin="round" x1="274.4" y1="137.1" x2="274.2" y2="136.8"/>
							</g>
						</g>
					</g>
				</g>
			</g>
			<g>
				<g>
					<g>
						<g opacity="0.2">
							<circle fill="none" stroke="#000000" stroke-miterlimit="10" cx="271.1" cy="129.3" r="9.1"/>
						</g>
						<g>
							<circle fill="none" stroke="#00B0C2" stroke-miterlimit="10" cx="270.1" cy="128.3" r="9.1"/>
						</g>
					</g>
					<g>
						<g opacity="0.2">
							<circle fill="none" stroke="#000000" stroke-miterlimit="10" cx="337" cy="129.3" r="9.1"/>
						</g>
						<g>
							<circle fill="none" stroke="#00B0C2" stroke-miterlimit="10" cx="336" cy="128.3" r="9.1"/>
						</g>
					</g>
					<g>
						<g>
							<g opacity="0.2">
								<circle fill="none" stroke="#000000" stroke-width="1.0246" stroke-miterlimit="10" cx="255.9" cy="155.1" r="9.1"/>
							</g>
							<g>
								<circle fill="none" stroke="#00B0C2" stroke-width="1.0246" stroke-miterlimit="10" cx="254.9" cy="154.1" r="9.1"/>
							</g>
						</g>
						<g>
							<g opacity="0.2">
								<circle fill="none" stroke="#000000" stroke-width="1.0246" stroke-miterlimit="10" cx="286.3" cy="155.1" r="9.1"/>
							</g>
							<g>
								<circle fill="none" stroke="#00B0C2" stroke-width="1.0246" stroke-miterlimit="10" cx="285.3" cy="154.1" r="9.1"/>
							</g>
						</g>
					</g>
					<g>
						<g>
							<g opacity="0.2">
								<circle fill="none" stroke="#000000" stroke-width="1.0246" stroke-miterlimit="10" cx="321.8" cy="155.1" r="9.1"/>
							</g>
							<g>
								<circle fill="none" stroke="#00B0C2" stroke-width="1.0246" stroke-miterlimit="10" cx="320.8" cy="154.1" r="9.1"/>
							</g>
						</g>
						<g>
							<g opacity="0.2">
								<circle fill="none" stroke="#000000" stroke-width="1.0246" stroke-miterlimit="10" cx="352.2" cy="155.1" r="9.1"/>
							</g>
							<g>
								<circle fill="none" stroke="#00B0C2" stroke-width="1.0246" stroke-miterlimit="10" cx="351.2" cy="154.1" r="9.1"/>
							</g>
						</g>
					</g>
				</g>
			</g>
		</g>
		<g>
			<g>
				<g opacity="0.2">
					<path d="M347.3,111.8h-86.5c-3.3,0-6-2.7-6-6v-33c0-3.3,2.7-6,6-6h86.5c3.3,0,6,2.7,6,6v33
						C353.3,109.1,350.6,111.8,347.3,111.8z"/>
				</g>
				<g>
					<path fill="#00B0C2" d="M346.3,110.8h-86.5c-3.3,0-6-2.7-6-6v-33c0-3.3,2.7-6,6-6h86.5c3.3,0,6,2.7,6,6v33
						C352.3,108.1,349.6,110.8,346.3,110.8z"/>
				</g>
			</g>
			<g>
				<g>
					<g>
						
							<image overflow="visible" opacity="0.2" width="10" height="19" xlink:href="BE37D16C.png"  transform="matrix(1 0 0 1 299.0387 71.9818)">
						</image>
						<g>
							<path fill="#FFFFFF" d="M305.8,73.2v14.9h-2.8V75.5h-3.2v-2.3H305.8z"/>
						</g>
					</g>
				</g>
			</g>
			<g>
				<g>
					<g>
						
							<image overflow="visible" opacity="0.2" width="12" height="13" xlink:href="BE37D16B.png"  transform="matrix(1 0 0 1 279.0387 95.9818)">
						</image>
						<g>
							<path fill="#FFFFFF" d="M281.6,105.5c-0.6-0.4-1-0.9-1.4-1.6c-0.3-0.7-0.5-1.6-0.5-2.5s0.2-1.8,0.5-2.5
								c0.3-0.7,0.8-1.3,1.4-1.6c0.6-0.4,1.2-0.6,2-0.6s1.4,0.2,2,0.6c0.6,0.4,1,0.9,1.4,1.6c0.3,0.7,0.5,1.6,0.5,2.5
								s-0.2,1.8-0.5,2.5c-0.3,0.7-0.8,1.3-1.4,1.6c-0.6,0.4-1.2,0.6-2,0.6S282.2,105.8,281.6,105.5z M285.1,103.7
								c0.4-0.5,0.6-1.3,0.6-2.4c0-1.1-0.2-1.9-0.6-2.4c-0.4-0.5-0.9-0.8-1.6-0.8c-0.6,0-1.2,0.3-1.5,0.8c-0.4,0.5-0.6,1.3-0.6,2.4
								c0,1.1,0.2,1.9,0.6,2.4c0.4,0.5,0.9,0.8,1.5,0.8C284.2,104.6,284.8,104.3,285.1,103.7z"/>
						</g>
					</g>
					<g>
						
							<image overflow="visible" opacity="0.2" width="7" height="6" xlink:href="BE37D164.png"  transform="matrix(1 0 0 1 287.0387 102.9818)">
						</image>
						<g>
							<path fill="#FFFFFF" d="M288.7,105.7c-0.2-0.2-0.3-0.5-0.3-0.8c0-0.3,0.1-0.6,0.3-0.8s0.5-0.3,0.8-0.3s0.6,0.1,0.8,0.3
								c0.2,0.2,0.3,0.5,0.3,0.8c0,0.3-0.1,0.6-0.3,0.8c-0.2,0.2-0.5,0.3-0.8,0.3S288.9,105.9,288.7,105.7z"/>
						</g>
					</g>
					<g>
						
							<image overflow="visible" opacity="0.2" width="11" height="13" xlink:href="BE37D167.png"  transform="matrix(1 0 0 1 291.0387 95.9818)">
						</image>
						<g>
							<path fill="#FFFFFF" d="M293.3,105.5c-0.6-0.4-1-0.9-1.4-1.6c-0.3-0.7-0.5-1.6-0.5-2.5s0.2-1.8,0.5-2.5
								c0.3-0.7,0.8-1.3,1.4-1.6c0.6-0.4,1.2-0.6,2-0.6s1.4,0.2,2,0.6c0.6,0.4,1,0.9,1.4,1.6c0.3,0.7,0.5,1.6,0.5,2.5
								s-0.2,1.8-0.5,2.5c-0.3,0.7-0.8,1.3-1.4,1.6c-0.6,0.4-1.2,0.6-2,0.6S293.9,105.8,293.3,105.5z M296.8,103.7
								c0.4-0.5,0.6-1.3,0.6-2.4c0-1.1-0.2-1.9-0.6-2.4c-0.4-0.5-0.9-0.8-1.6-0.8c-0.6,0-1.2,0.3-1.5,0.8c-0.4,0.5-0.6,1.3-0.6,2.4
								c0,1.1,0.2,1.9,0.6,2.4c0.4,0.5,0.9,0.8,1.5,0.8C295.9,104.6,296.5,104.3,296.8,103.7z"/>
						</g>
					</g>
					<g>
						
							<image overflow="visible" opacity="0.2" width="11" height="13" xlink:href="BE37D165.png"  transform="matrix(1 0 0 1 299.0387 95.9818)">
						</image>
						<g>
							<path fill="#FFFFFF" d="M306.9,104.5v1.4h-6.8v-1.1l3.6-3.5c0.4-0.4,0.7-0.7,0.8-1c0.1-0.3,0.2-0.6,0.2-0.9
								c0-0.4-0.1-0.8-0.4-1c-0.3-0.2-0.7-0.3-1.3-0.3c-0.9,0-1.7,0.3-2.1,1l-1.2-0.9c0.4-0.5,0.8-0.9,1.4-1.1
								c0.6-0.3,1.3-0.4,2-0.4c1,0,1.8,0.2,2.4,0.7c0.6,0.5,0.9,1.1,0.9,1.9c0,0.5-0.1,1-0.3,1.4c-0.2,0.4-0.6,0.9-1.2,1.5l-2.5,2.3
								H306.9z"/>
						</g>
					</g>
					<g>
						
							<image overflow="visible" opacity="0.2" width="11" height="13" xlink:href="BE37D17B.png"  transform="matrix(1 0 0 1 307.0387 95.9818)">
						</image>
						<g>
							<path fill="#FFFFFF" d="M313.6,101c0.6,0.5,0.9,1.2,0.9,2.1c0,0.6-0.1,1-0.4,1.5c-0.3,0.4-0.7,0.8-1.2,1.1
								c-0.5,0.3-1.2,0.4-2,0.4c-0.7,0-1.3-0.1-1.9-0.3c-0.6-0.2-1.1-0.4-1.5-0.8l0.7-1.3c0.3,0.3,0.7,0.5,1.2,0.7
								c0.5,0.2,1,0.2,1.5,0.2c0.6,0,1.1-0.1,1.4-0.4c0.3-0.2,0.5-0.6,0.5-1c0-0.5-0.2-0.8-0.6-1.1c-0.4-0.2-1-0.4-1.9-0.4h-2.2
								l0.5-5h5.4v1.4H310l-0.2,2.1h0.9C312,100.3,313,100.5,313.6,101z"/>
						</g>
					</g>
					<g>
						
							<image overflow="visible" opacity="0.2" width="9" height="10" xlink:href="BE37D17C.png"  transform="matrix(1 0 0 1 318.0387 98.9818)">
						</image>
						<g>
							<path fill="#FFFFFF" d="M323.6,105v0.9h-4.3v-5.7h4.2v0.9h-3.1v1.5h2.8v0.9h-2.8v1.6H323.6z"/>
						</g>
					</g>
					<g>
						
							<image overflow="visible" opacity="0.2" width="9" height="10" xlink:href="BE37D17F.png"  transform="matrix(1 0 0 1 323.0387 98.9818)">
						</image>
						<g>
							<path fill="#FFFFFF" d="M325.9,101.1H324v-0.9h4.9v0.9H327v4.8h-1.1V101.1z"/>
						</g>
					</g>
					<g>
						
							<image overflow="visible" opacity="0.2" width="9" height="10" xlink:href="BE37D17D.png"  transform="matrix(1 0 0 1 329.0387 98.9818)">
						</image>
						<g>
							<path fill="#FFFFFF" d="M334.8,100.2v5.7h-1.1v-2.5h-3v2.5h-1.1v-5.7h1.1v2.4h3v-2.4H334.8z"/>
						</g>
					</g>
				</g>
			</g>
		</g>
	</g>
	<g>
		<g opacity="0.2">
			<polyline fill="none" stroke="#000000" stroke-width="1.0246" stroke-miterlimit="10" points="167.5,45.4 167.3,70.6 121.2,85.5 
							"/>
			<polygon points="111.6,88.6 123.4,78.7 122,85.2 127,89.8 			"/>
		</g>
		<g>
			<g>
				<polyline fill="none" stroke="#00B0C2" stroke-width="1.0246" stroke-miterlimit="10" points="166.5,44.4 166.3,69.6 
					120.2,84.5 				"/>
				<g>
					<polygon fill="#00B0C2" points="110.6,87.6 122.4,77.7 121,84.2 126,88.8 					"/>
				</g>
			</g>
		</g>
	</g>
	<g>
		<g opacity="0.2">
			<polyline fill="none" stroke="#000000" stroke-width="1.0246" stroke-miterlimit="10" points="194.4,45.4 194.5,70.6 240.6,85.5 
							"/>
			<polygon points="250.2,88.6 234.9,89.8 239.9,85.2 238.4,78.7 			"/>
		</g>
		<g>
			<g>
				<polyline fill="none" stroke="#FF5FAC" stroke-width="1.0246" stroke-miterlimit="10" points="193.4,44.4 193.5,69.6 
					239.6,84.5 				"/>
				<g>
					<polygon fill="#FF5FAC" points="249.2,87.6 233.9,88.8 238.9,84.2 237.4,77.7 					"/>
				</g>
			</g>
		</g>
	</g>
	<g>
		<g>
			<g>
				
					<image overflow="visible" opacity="0.15" width="38" height="32" xlink:href="BE37D17A.png"  transform="matrix(1 0 0 1 163.0387 -1.0182)">
				</image>
				<g>
					<path fill="#FFFFFF" d="M193,28.3c-8.8,0-17.6,0-26.4,0c0,0-0.1,0-0.1-0.1c-1.7-0.4-2.7-1.6-2.7-3.3c0-7.4,0-9.1,0-16.5
						c0-0.5,0.1-1,0.3-1.5c0.6-1.3,1.7-1.9,3.1-1.9c3,0,6.1,0,9.1,0c0.3,0,0.5-0.1,0.7-0.2c2.6-1.4,5.2-2.9,7.8-4.3
						c0.4-0.2,0.9-0.4,1.3-0.6c0.2,0,0.4,0,0.6,0c0.8,0.2,1.3,0.8,1.6,1.5c0.6,1.1,1.2,2.2,1.8,3.3c0.1,0.2,0.3,0.3,0.5,0.3
						c0.6,0,1.1,0,1.7,0c2.1,0,3.5,1.4,3.5,3.5c0,2.3,0,2.4,0,4.8c0,0.1,0,0.3,0,0.4c0.6,0,1.1,0,1.6,0c0,2.8,0,5.5,0,8.3
						c-0.5,0-1.1,0-1.6,0c0,0.2,0,0.3,0,0.4c0,2,0,0.5,0,2.5c0,1.1-0.4,2-1.2,2.6C194.1,28,193.6,28.1,193,28.3z M174.3,6.5
						C174.3,6.4,174.3,6.4,174.3,6.5c-0.1-0.1-0.2-0.1-0.3-0.1c-2.3,0-4.5,0-6.8,0c-1.3,0-2.2,0.8-2.2,2.2c0,7.3,0,8.9,0,16.3
						c0,1.3,0.8,2.1,2.2,2.1c8.4,0,16.8,0,25.2,0c1.4,0,2.1-0.8,2.1-2.2c0-2,0-0.4,0-2.4c0-0.1,0-0.2,0-0.4c-1.6,0-3.1,0-4.6,0
						c-0.6,0-1.2-0.1-1.8-0.4c-1.2-0.5-2.5-1.9-2.4-4.1c0.1-2,1.7-3.7,3.7-3.8c1.5-0.1,3.1,0,4.7,0c0.1,0,0.3,0,0.4,0
						c0-2.2,0-2.1,0-4.3c-0.2,0-0.3,0-0.5,0c-8.8,0-17.5,0-26.3,0c-0.2,0-0.3,0-0.5,0c-0.3-0.1-0.5-0.3-0.5-0.6
						c0-0.3,0.2-0.5,0.5-0.6c0.1,0,0.3,0,0.4,0c0.6,0,1.2-0.1,1.8,0c1.3,0.1,2.4-0.2,3.4-0.9C173.3,6.9,173.8,6.7,174.3,6.5z
						 M174,8.1c5.6,0,11,0,16.5,0c-0.1-0.1-0.1-0.2-0.2-0.3c-1.1-2-2.2-3.9-3.3-5.9c-0.4-0.6-0.6-0.7-1.3-0.4
						c-3.8,2.1-7.6,4.2-11.3,6.3C174.3,7.9,174.2,8,174,8.1z M196.2,15c-2.2,0-4.3,0-6.5,0c-2,0.1-3.1,1.8-2.5,3.7
						c0.3,1.2,1.4,2,2.7,2c2,0,4.1,0,6.1,0c0.1,0,0.1,0,0.2,0C196.2,18.8,196.2,16.9,196.2,15z M191.1,6.4c0.3,0.6,0.6,1.1,0.9,1.6
						c0,0.1,0.1,0.1,0.2,0.1c0.8,0,1.5,0,2.3,0c-0.1-1-0.8-1.7-1.8-1.7C192.2,6.4,191.7,6.4,191.1,6.4z"/>
				</g>
			</g>
			<g>
				
					<image overflow="visible" opacity="0.15" width="7" height="7" xlink:href="BE37D19F.png"  transform="matrix(1 0 0 1 188.0387 15.9818)">
				</image>
				<g>
					<path fill="#FFFFFF" d="M191.8,17.9c0,0.8-0.6,1.4-1.4,1.4c-0.8,0-1.4-0.7-1.4-1.4c0-0.8,0.7-1.4,1.4-1.4
						C191.1,16.5,191.8,17.1,191.8,17.9z"/>
				</g>
			</g>
		</g>
	</g>
	<g>
		
			<image overflow="visible" opacity="0.15" width="56" height="13" xlink:href="BE37D199.png"  transform="matrix(1 0 0 1 203.0387 11.9818)">
		</image>
		<g>
			<g>
				<path fill="#FFFFFF" d="M205.5,21.5c-0.6-0.4-1-0.9-1.4-1.6c-0.3-0.7-0.5-1.5-0.5-2.4s0.2-1.7,0.5-2.4c0.3-0.7,0.8-1.2,1.4-1.6
					c0.6-0.4,1.2-0.5,2-0.5c0.7,0,1.4,0.2,2,0.5c0.6,0.4,1,0.9,1.4,1.6c0.3,0.7,0.5,1.5,0.5,2.4s-0.2,1.7-0.5,2.4
					c-0.3,0.7-0.8,1.2-1.4,1.6c-0.6,0.4-1.2,0.5-2,0.5C206.7,22,206,21.8,205.5,21.5z M208.4,19.4c0.2-0.4,0.4-1,0.4-1.9
					c0-0.9-0.1-1.5-0.4-1.9c-0.2-0.4-0.6-0.6-1-0.6c-0.4,0-0.8,0.2-1,0.6c-0.2,0.4-0.4,1-0.4,1.9c0,0.9,0.1,1.5,0.4,1.9
					c0.2,0.4,0.6,0.6,1,0.6C207.9,20,208.2,19.8,208.4,19.4z"/>
				<path fill="#FFFFFF" d="M212.3,21.5c-0.3-0.3-0.4-0.6-0.4-1c0-0.4,0.1-0.7,0.4-1c0.3-0.3,0.6-0.4,1-0.4c0.4,0,0.8,0.1,1,0.4
					c0.3,0.3,0.4,0.6,0.4,1c0,0.4-0.1,0.7-0.4,1c-0.3,0.3-0.6,0.4-1,0.4C212.9,21.9,212.5,21.8,212.3,21.5z"/>
				<path fill="#FFFFFF" d="M217.1,21.5c-0.6-0.4-1-0.9-1.4-1.6c-0.3-0.7-0.5-1.5-0.5-2.4s0.2-1.7,0.5-2.4c0.3-0.7,0.8-1.2,1.4-1.6
					c0.6-0.4,1.2-0.5,2-0.5c0.7,0,1.4,0.2,2,0.5c0.6,0.4,1,0.9,1.4,1.6c0.3,0.7,0.5,1.5,0.5,2.4s-0.2,1.7-0.5,2.4
					c-0.3,0.7-0.8,1.2-1.4,1.6c-0.6,0.4-1.2,0.5-2,0.5C218.3,22,217.7,21.8,217.1,21.5z M220.1,19.4c0.2-0.4,0.4-1,0.4-1.9
					c0-0.9-0.1-1.5-0.4-1.9c-0.2-0.4-0.6-0.6-1-0.6c-0.4,0-0.8,0.2-1,0.6c-0.2,0.4-0.4,1-0.4,1.9c0,0.9,0.1,1.5,0.4,1.9
					c0.2,0.4,0.6,0.6,1,0.6C219.5,20,219.8,19.8,220.1,19.4z"/>
				<path fill="#FFFFFF" d="M229.7,17.1c0.6,0.5,0.9,1.2,0.9,2c0,0.5-0.1,1-0.4,1.5c-0.3,0.4-0.7,0.8-1.3,1.1
					c-0.6,0.3-1.3,0.4-2.1,0.4c-0.6,0-1.2-0.1-1.8-0.2c-0.6-0.1-1.1-0.4-1.5-0.6l0.9-1.8c0.3,0.2,0.7,0.4,1.1,0.5s0.8,0.2,1.3,0.2
					s0.8-0.1,1-0.2c0.3-0.2,0.4-0.4,0.4-0.7c0-0.3-0.1-0.5-0.4-0.7c-0.2-0.1-0.7-0.2-1.3-0.2h-2.4l0.4-5.1h5.5v1.9h-3.5l-0.1,1.3
					h0.6C228.2,16.3,229.1,16.6,229.7,17.1z"/>
				<path fill="#FFFFFF" d="M242,19.1h-4.9c0.1,0.3,0.3,0.6,0.6,0.8c0.3,0.2,0.6,0.3,1.1,0.3c0.3,0,0.6,0,0.8-0.1s0.5-0.2,0.7-0.4
					l1.2,1.3c-0.7,0.7-1.6,1.1-2.9,1.1c-0.8,0-1.5-0.1-2.1-0.4c-0.6-0.3-1.1-0.7-1.4-1.2s-0.5-1.1-0.5-1.8c0-0.7,0.2-1.3,0.5-1.8
					c0.3-0.5,0.8-0.9,1.3-1.2c0.6-0.3,1.2-0.4,1.9-0.4c0.7,0,1.3,0.1,1.8,0.4s1,0.7,1.3,1.2c0.3,0.5,0.5,1.1,0.5,1.9
					C242.1,18.5,242,18.7,242,19.1z M237.6,17c-0.2,0.2-0.4,0.5-0.5,0.8h2.7c-0.1-0.4-0.2-0.6-0.5-0.8c-0.2-0.2-0.5-0.3-0.9-0.3
					C238.1,16.7,237.8,16.8,237.6,17z"/>
				<path fill="#FFFFFF" d="M247.8,21.6c-0.2,0.1-0.4,0.2-0.7,0.3c-0.3,0.1-0.6,0.1-0.9,0.1c-0.9,0-1.5-0.2-2-0.6
					c-0.5-0.4-0.7-1.1-0.7-1.9v-2.3h-1v-1.8h1v-1.7h2.4v1.7h1.5v1.8h-1.5v2.2c0,0.2,0.1,0.4,0.2,0.6c0.1,0.1,0.3,0.2,0.5,0.2
					c0.3,0,0.5-0.1,0.7-0.2L247.8,21.6z"/>
				<path fill="#FFFFFF" d="M255.1,15.8c0.5,0.5,0.8,1.2,0.8,2.2v3.8h-2.4v-3.5c0-0.9-0.4-1.4-1.1-1.4c-0.4,0-0.7,0.1-1,0.4
					c-0.2,0.3-0.4,0.7-0.4,1.2v3.2h-2.4v-9.2h2.4v3.1c0.3-0.2,0.6-0.4,0.9-0.5c0.3-0.1,0.7-0.2,1.1-0.2
					C253.9,15,254.5,15.3,255.1,15.8z"/>
			</g>
		</g>
	</g>
	<g>
		<g opacity="0.2">
			<path d="M205.1,70.1c-0.4-0.1-0.8-0.3-1.1-0.6c-0.3-0.3-0.4-0.6-0.5-1c-0.1-0.4-0.1-0.8-0.1-1.3c0-0.4,0.1-0.9,0.3-1.5
				c0.2-0.5,0.3-1,0.6-1.4s0.5-0.7,0.7-1c0.3-0.3,0.6-0.5,1-0.5c0.4-0.1,0.8-0.1,1.3,0.1c1.6,0.5,2.1,2,1.4,4.3
				C208,69.6,206.8,70.6,205.1,70.1z M205.4,69.2c1,0.3,1.7-0.5,2.3-2.3c0.5-1.8,0.3-2.8-0.6-3.1c-1-0.3-1.7,0.5-2.3,2.2
				C204.2,67.8,204.4,68.9,205.4,69.2z"/>
			<path d="M208.9,71.1l0.3-1l1,0.3l-0.3,1L208.9,71.1z"/>
			<path d="M213.7,72.7c-0.4-0.1-0.8-0.3-1.1-0.6c-0.3-0.3-0.4-0.6-0.5-1c-0.1-0.4-0.1-0.8-0.1-1.3c0-0.4,0.1-0.9,0.3-1.5
				c0.2-0.5,0.3-1,0.6-1.4c0.2-0.4,0.5-0.7,0.7-1c0.3-0.3,0.6-0.5,1-0.5c0.4-0.1,0.8-0.1,1.3,0.1c1.6,0.5,2.1,2,1.4,4.3
				C216.5,72.2,215.3,73.2,213.7,72.7z M213.9,71.8c1,0.3,1.7-0.5,2.3-2.3c0.5-1.8,0.3-2.8-0.6-3.1c-1-0.3-1.7,0.5-2.3,2.2
				C212.8,70.5,213,71.5,213.9,71.8z"/>
			<path d="M217.4,73.7c0-0.2,0.1-0.4,0.1-0.5c0.1-0.3,0.3-0.6,0.5-0.9s0.5-0.5,0.7-0.6c0.3-0.1,0.5-0.3,0.8-0.4
				c0.3-0.1,0.6-0.2,0.9-0.3c0.3-0.1,0.6-0.2,0.8-0.3c0.3-0.1,0.5-0.2,0.7-0.4s0.3-0.4,0.4-0.6c0.1-0.3,0.1-0.7-0.1-0.9
				c-0.2-0.3-0.4-0.5-0.8-0.6c-0.3-0.1-0.6-0.1-0.9,0c-0.3,0.1-0.6,0.2-0.8,0.5l-0.6-0.7c0.3-0.3,0.7-0.5,1.2-0.7s0.9-0.1,1.4,0
				c0.6,0.2,1.1,0.5,1.4,1s0.4,1,0.2,1.6c-0.1,0.4-0.3,0.7-0.6,0.9s-0.5,0.5-0.9,0.6c-0.3,0.1-0.6,0.2-1,0.4c-0.4,0.1-0.7,0.2-1,0.3
				s-0.6,0.2-0.8,0.4s-0.4,0.4-0.5,0.6l3.5,1.1l-0.3,0.8L217.4,73.7z"/>
			<path d="M223.2,74.5l0.8-0.5c0.3,0.6,0.7,1,1.3,1.2c0.4,0.1,0.8,0.1,1.2-0.1c0.4-0.2,0.6-0.5,0.8-0.9c0.1-0.4,0.1-0.8-0.1-1.2
				c-0.2-0.4-0.6-0.6-1-0.7c-0.4-0.1-0.9-0.1-1.3,0l-0.5-0.4l1.4-3.3l3.5,1.1l-0.3,0.8l-2.7-0.8l-0.6,1.4l-0.2,0.3l0,0
				c0.3-0.1,0.6,0,1,0.1c0.7,0.2,1.2,0.6,1.6,1.2c0.3,0.6,0.4,1.2,0.2,1.8c-0.2,0.7-0.6,1.1-1.2,1.5c-0.6,0.3-1.3,0.3-2,0.1
				c-0.4-0.1-0.8-0.3-1.1-0.6C223.6,75.3,223.3,74.9,223.2,74.5z"/>
		</g>
		<g>
			<g>
				<path fill="#F66BC6" d="M204.1,69.1c-0.4-0.1-0.8-0.3-1.1-0.6c-0.3-0.3-0.4-0.6-0.5-1c-0.1-0.4-0.1-0.8-0.1-1.3
					c0-0.4,0.1-0.9,0.3-1.5c0.2-0.5,0.3-1,0.6-1.4s0.5-0.7,0.7-1c0.3-0.3,0.6-0.5,1-0.5c0.4-0.1,0.8-0.1,1.3,0.1
					c1.6,0.5,2.1,2,1.4,4.3C207,68.6,205.8,69.6,204.1,69.1z M204.4,68.2c1,0.3,1.7-0.5,2.3-2.3c0.5-1.8,0.3-2.8-0.6-3.1
					c-1-0.3-1.7,0.5-2.3,2.2C203.2,66.8,203.4,67.9,204.4,68.2z"/>
				<path fill="#F66BC6" d="M207.9,70.1l0.3-1l1,0.3l-0.3,1L207.9,70.1z"/>
				<path fill="#F66BC6" d="M212.7,71.7c-0.4-0.1-0.8-0.3-1.1-0.6c-0.3-0.3-0.4-0.6-0.5-1c-0.1-0.4-0.1-0.8-0.1-1.3
					c0-0.4,0.1-0.9,0.3-1.5c0.2-0.5,0.3-1,0.6-1.4c0.2-0.4,0.5-0.7,0.7-1c0.3-0.3,0.6-0.5,1-0.5c0.4-0.1,0.8-0.1,1.3,0.1
					c1.6,0.5,2.1,2,1.4,4.3C215.5,71.2,214.3,72.2,212.7,71.7z M212.9,70.8c1,0.3,1.7-0.5,2.3-2.3c0.5-1.8,0.3-2.8-0.6-3.1
					c-1-0.3-1.7,0.5-2.3,2.2C211.8,69.5,212,70.5,212.9,70.8z"/>
				<path fill="#F66BC6" d="M216.4,72.7c0-0.2,0.1-0.4,0.1-0.5c0.1-0.3,0.3-0.6,0.5-0.9s0.5-0.5,0.7-0.6c0.3-0.1,0.5-0.3,0.8-0.4
					c0.3-0.1,0.6-0.2,0.9-0.3c0.3-0.1,0.6-0.2,0.8-0.3c0.3-0.1,0.5-0.2,0.7-0.4s0.3-0.4,0.4-0.6c0.1-0.3,0.1-0.7-0.1-0.9
					c-0.2-0.3-0.4-0.5-0.8-0.6c-0.3-0.1-0.6-0.1-0.9,0c-0.3,0.1-0.6,0.2-0.8,0.5l-0.6-0.7c0.3-0.3,0.7-0.5,1.2-0.7s0.9-0.1,1.4,0
					c0.6,0.2,1.1,0.5,1.4,1s0.4,1,0.2,1.6c-0.1,0.4-0.3,0.7-0.6,0.9s-0.5,0.5-0.9,0.6c-0.3,0.1-0.6,0.2-1,0.4
					c-0.4,0.1-0.7,0.2-1,0.3s-0.6,0.2-0.8,0.4s-0.4,0.4-0.5,0.6l3.5,1.1l-0.3,0.8L216.4,72.7z"/>
				<path fill="#F66BC6" d="M222.2,73.5l0.8-0.5c0.3,0.6,0.7,1,1.3,1.2c0.4,0.1,0.8,0.1,1.2-0.1c0.4-0.2,0.6-0.5,0.8-0.9
					c0.1-0.4,0.1-0.8-0.1-1.2c-0.2-0.4-0.6-0.6-1-0.7c-0.4-0.1-0.9-0.1-1.3,0l-0.5-0.4l1.4-3.3l3.5,1.1l-0.3,0.8l-2.7-0.8l-0.6,1.4
					l-0.2,0.3l0,0c0.3-0.1,0.6,0,1,0.1c0.7,0.2,1.2,0.6,1.6,1.2c0.3,0.6,0.4,1.2,0.2,1.8c-0.2,0.7-0.6,1.1-1.2,1.5
					c-0.6,0.3-1.3,0.3-2,0.1c-0.4-0.1-0.8-0.3-1.1-0.6C222.6,74.3,222.3,73.9,222.2,73.5z"/>
			</g>
		</g>
	</g>
	<g>
		<g opacity="0.2">
			<path d="M136.8,76.4c-0.4,0.1-0.9,0.2-1.2,0.1c-0.4-0.1-0.7-0.3-1-0.5c-0.3-0.3-0.5-0.6-0.8-1c-0.2-0.4-0.4-0.8-0.6-1.4
				c-0.2-0.5-0.3-1-0.3-1.5c0-0.4,0-0.9,0-1.2c0.1-0.4,0.3-0.7,0.5-1c0.3-0.3,0.6-0.5,1.1-0.6c1.6-0.5,2.8,0.4,3.6,2.8
				C138.9,74.4,138.4,75.9,136.8,76.4z M136.5,75.5c1-0.3,1.2-1.4,0.6-3.2c-0.6-1.8-1.3-2.5-2.3-2.2s-1.2,1.4-0.6,3.1
				C134.8,75.1,135.5,75.8,136.5,75.5z"/>
			<path d="M140.5,75.1l-0.3-1l1-0.3l0.3,1L140.5,75.1z"/>
			<path d="M145.3,73.7c-0.4,0.1-0.9,0.2-1.2,0.1c-0.4-0.1-0.7-0.3-1-0.5c-0.3-0.3-0.5-0.6-0.8-1c-0.2-0.4-0.4-0.8-0.6-1.4
				c-0.2-0.5-0.3-1-0.3-1.5c0-0.4,0-0.9,0-1.2c0.1-0.4,0.3-0.7,0.5-1c0.3-0.3,0.6-0.5,1.1-0.6c1.6-0.5,2.8,0.4,3.6,2.8
				C147.4,71.7,146.9,73.1,145.3,73.7z M145,72.8c1-0.3,1.2-1.4,0.6-3.2c-0.6-1.8-1.3-2.5-2.3-2.2c-1,0.3-1.2,1.4-0.6,3.1
				C143.3,72.3,144,73.1,145,72.8z"/>
			<path d="M148.9,72.4c-0.1-0.2-0.2-0.4-0.2-0.5c-0.1-0.3-0.1-0.7-0.1-1c0-0.3,0.1-0.6,0.2-0.9c0.1-0.3,0.3-0.5,0.5-0.8
				c0.2-0.3,0.4-0.5,0.6-0.8c0.2-0.2,0.4-0.5,0.5-0.7c0.1-0.2,0.3-0.5,0.3-0.7c0.1-0.2,0.1-0.5,0-0.7c-0.1-0.3-0.3-0.6-0.6-0.7
				c-0.3-0.1-0.6-0.1-1,0c-0.3,0.1-0.5,0.3-0.7,0.5c-0.2,0.2-0.3,0.5-0.4,0.8l-0.9-0.3c0.1-0.5,0.3-0.9,0.6-1.2s0.7-0.6,1.2-0.8
				c0.6-0.2,1.2-0.2,1.7,0c0.5,0.2,0.9,0.7,1.1,1.3c0.1,0.4,0.1,0.7,0.1,1.1c-0.1,0.4-0.2,0.7-0.4,1c-0.2,0.3-0.4,0.6-0.6,0.9
				c-0.2,0.3-0.4,0.6-0.6,0.8c-0.2,0.2-0.3,0.5-0.4,0.8c-0.1,0.3-0.1,0.5,0,0.8l3.5-1.1l0.3,0.8L148.9,72.4z"/>
			<path d="M154.2,69.8l0.3-0.9c0.6,0.4,1.2,0.5,1.8,0.3c0.4-0.1,0.7-0.4,0.9-0.7c0.2-0.4,0.3-0.7,0.1-1.2c-0.1-0.4-0.4-0.7-0.8-0.9
				c-0.4-0.2-0.8-0.2-1.3,0c-0.4,0.1-0.8,0.4-1.1,0.7l-0.6,0l-0.8-3.5l3.5-1.1l0.3,0.8l-2.7,0.9l0.3,1.5l0.1,0.4l0,0
				c0.2-0.2,0.5-0.4,0.8-0.5c0.7-0.2,1.4-0.2,2,0.1c0.6,0.3,1,0.8,1.2,1.4c0.2,0.7,0.2,1.3-0.2,1.9c-0.3,0.6-0.8,1-1.5,1.2
				c-0.4,0.1-0.8,0.2-1.3,0.1C154.9,70.1,154.5,70,154.2,69.8z"/>
		</g>
		<g>
			<g>
				<path fill="#00B0C2" d="M135.8,75.4c-0.4,0.1-0.9,0.2-1.2,0.1c-0.4-0.1-0.7-0.3-1-0.5c-0.3-0.3-0.5-0.6-0.8-1
					c-0.2-0.4-0.4-0.8-0.6-1.4c-0.2-0.5-0.3-1-0.3-1.5c0-0.4,0-0.9,0-1.2c0.1-0.4,0.3-0.7,0.5-1c0.3-0.3,0.6-0.5,1.1-0.6
					c1.6-0.5,2.8,0.4,3.6,2.8C137.9,73.4,137.4,74.9,135.8,75.4z M135.5,74.5c1-0.3,1.2-1.4,0.6-3.2c-0.6-1.8-1.3-2.5-2.3-2.2
					s-1.2,1.4-0.6,3.1C133.8,74.1,134.5,74.8,135.5,74.5z"/>
				<path fill="#00B0C2" d="M139.5,74.1l-0.3-1l1-0.3l0.3,1L139.5,74.1z"/>
				<path fill="#00B0C2" d="M144.3,72.7c-0.4,0.1-0.9,0.2-1.2,0.1c-0.4-0.1-0.7-0.3-1-0.5c-0.3-0.3-0.5-0.6-0.8-1
					c-0.2-0.4-0.4-0.8-0.6-1.4c-0.2-0.5-0.3-1-0.3-1.5c0-0.4,0-0.9,0-1.2c0.1-0.4,0.3-0.7,0.5-1c0.3-0.3,0.6-0.5,1.1-0.6
					c1.6-0.5,2.8,0.4,3.6,2.8C146.4,70.7,145.9,72.1,144.3,72.7z M144,71.8c1-0.3,1.2-1.4,0.6-3.2c-0.6-1.8-1.3-2.5-2.3-2.2
					c-1,0.3-1.2,1.4-0.6,3.1C142.3,71.3,143,72.1,144,71.8z"/>
				<path fill="#00B0C2" d="M147.9,71.4c-0.1-0.2-0.2-0.4-0.2-0.5c-0.1-0.3-0.1-0.7-0.1-1c0-0.3,0.1-0.6,0.2-0.9
					c0.1-0.3,0.3-0.5,0.5-0.8c0.2-0.3,0.4-0.5,0.6-0.8c0.2-0.2,0.4-0.5,0.5-0.7c0.1-0.2,0.3-0.5,0.3-0.7c0.1-0.2,0.1-0.5,0-0.7
					c-0.1-0.3-0.3-0.6-0.6-0.7c-0.3-0.1-0.6-0.1-1,0c-0.3,0.1-0.5,0.3-0.7,0.5c-0.2,0.2-0.3,0.5-0.4,0.8l-0.9-0.3
					c0.1-0.5,0.3-0.9,0.6-1.2s0.7-0.6,1.2-0.8c0.6-0.2,1.2-0.2,1.7,0c0.5,0.2,0.9,0.7,1.1,1.3c0.1,0.4,0.1,0.7,0.1,1.1
					c-0.1,0.4-0.2,0.7-0.4,1c-0.2,0.3-0.4,0.6-0.6,0.9c-0.2,0.3-0.4,0.6-0.6,0.8c-0.2,0.2-0.3,0.5-0.4,0.8c-0.1,0.3-0.1,0.5,0,0.8
					l3.5-1.1l0.3,0.8L147.9,71.4z"/>
				<path fill="#00B0C2" d="M153.2,68.8l0.3-0.9c0.6,0.4,1.2,0.5,1.8,0.3c0.4-0.1,0.7-0.4,0.9-0.7c0.2-0.4,0.3-0.7,0.1-1.2
					c-0.1-0.4-0.4-0.7-0.8-0.9c-0.4-0.2-0.8-0.2-1.3,0c-0.4,0.1-0.8,0.4-1.1,0.7l-0.6,0l-0.8-3.5l3.5-1.1l0.3,0.8l-2.7,0.9l0.3,1.5
					l0.1,0.4l0,0c0.2-0.2,0.5-0.4,0.8-0.5c0.7-0.2,1.4-0.2,2,0.1c0.6,0.3,1,0.8,1.2,1.4c0.2,0.7,0.2,1.3-0.2,1.9
					c-0.3,0.6-0.8,1-1.5,1.2c-0.4,0.1-0.8,0.2-1.3,0.1C153.9,69.1,153.5,69,153.2,68.8z"/>
			</g>
		</g>
	</g>
	<g>
		
			<image overflow="visible" opacity="0.3" width="85" height="12" xlink:href="BE37D19B.png"  transform="matrix(1 0 0 1 262.5809 46.524)">
		</image>
		<g>
			<g>
				<path fill="#FFFFFF" d="M265.7,48.9v1.9h3.8v1.9h-3.8v2.9h-2.4v-8.5h6.7v1.9H265.7z"/>
				<path fill="#FFFFFF" d="M272.9,55.2c-0.7-0.4-1.3-0.9-1.7-1.6c-0.4-0.7-0.6-1.4-0.6-2.3c0-0.8,0.2-1.6,0.6-2.3
					c0.4-0.7,1-1.2,1.7-1.6c0.7-0.4,1.5-0.6,2.4-0.6s1.7,0.2,2.4,0.6c0.7,0.4,1.3,0.9,1.7,1.6s0.6,1.4,0.6,2.3
					c0,0.8-0.2,1.6-0.6,2.3c-0.4,0.7-1,1.2-1.7,1.6s-1.5,0.6-2.4,0.6S273.6,55.6,272.9,55.2z M276.5,53.5c0.3-0.2,0.6-0.5,0.8-0.9
					c0.2-0.4,0.3-0.8,0.3-1.3s-0.1-0.9-0.3-1.3s-0.5-0.7-0.8-0.9c-0.3-0.2-0.7-0.3-1.2-0.3s-0.8,0.1-1.2,0.3
					c-0.3,0.2-0.6,0.5-0.8,0.9c-0.2,0.4-0.3,0.8-0.3,1.3s0.1,0.9,0.3,1.3c0.2,0.4,0.5,0.7,0.8,0.9c0.3,0.2,0.7,0.3,1.2,0.3
					S276.2,53.7,276.5,53.5z"/>
				<path fill="#FFFFFF" d="M285.1,53.3h-1.3v2.3h-2.4v-8.5h3.9c0.8,0,1.4,0.1,2,0.4c0.6,0.3,1,0.6,1.3,1.1c0.3,0.5,0.5,1,0.5,1.7
					c0,0.6-0.1,1.2-0.4,1.6c-0.3,0.5-0.7,0.8-1.2,1.1l1.8,2.7h-2.6L285.1,53.3z M286.2,49.3c-0.3-0.2-0.6-0.3-1.1-0.3h-1.3v2.5h1.3
					c0.5,0,0.9-0.1,1.1-0.3c0.3-0.2,0.4-0.5,0.4-0.9S286.4,49.5,286.2,49.3z"/>
				<path fill="#FFFFFF" d="M291.3,55.5c-0.6-0.2-1.2-0.4-1.6-0.7l0.8-1.8c0.4,0.3,0.8,0.5,1.3,0.6s1,0.2,1.5,0.2
					c0.9,0,1.4-0.2,1.4-0.7c0-0.2-0.1-0.4-0.4-0.5c-0.3-0.1-0.7-0.2-1.3-0.4c-0.6-0.1-1.2-0.3-1.6-0.4s-0.8-0.4-1.1-0.8
					c-0.3-0.3-0.5-0.8-0.5-1.4c0-0.5,0.1-1,0.4-1.4s0.7-0.7,1.3-1c0.6-0.2,1.3-0.4,2.1-0.4c0.6,0,1.1,0.1,1.7,0.2
					c0.5,0.1,1,0.3,1.4,0.6l-0.7,1.8c-0.8-0.4-1.6-0.7-2.4-0.7c-0.5,0-0.8,0.1-1,0.2c-0.2,0.1-0.3,0.3-0.3,0.6
					c0,0.2,0.1,0.4,0.4,0.5c0.3,0.1,0.7,0.2,1.3,0.4c0.6,0.1,1.2,0.3,1.6,0.4c0.4,0.2,0.8,0.4,1.1,0.8s0.5,0.8,0.5,1.4
					c0,0.5-0.1,1-0.4,1.4s-0.7,0.7-1.3,1c-0.6,0.2-1.3,0.4-2.1,0.4C292.6,55.8,292,55.7,291.3,55.5z"/>
				<path fill="#FFFFFF" d="M303.9,54h-3.6l-0.7,1.7h-2.5l3.8-8.5h2.4l3.8,8.5h-2.5L303.9,54z M303.2,52.2l-1.1-2.7l-1.1,2.7H303.2z
					"/>
				<path fill="#FFFFFF" d="M313.4,51.2h2.1v3.5c-0.5,0.3-1,0.6-1.7,0.8s-1.3,0.3-1.9,0.3c-0.9,0-1.7-0.2-2.4-0.6s-1.3-0.9-1.7-1.6
					c-0.4-0.7-0.6-1.4-0.6-2.3c0-0.9,0.2-1.6,0.6-2.3c0.4-0.7,1-1.2,1.7-1.6s1.5-0.6,2.4-0.6c0.8,0,1.5,0.1,2.1,0.4s1.2,0.7,1.6,1.2
					l-1.5,1.4c-0.6-0.6-1.3-0.9-2.1-0.9c-0.7,0-1.3,0.2-1.8,0.7c-0.4,0.4-0.7,1-0.7,1.8c0,0.5,0.1,0.9,0.3,1.3
					c0.2,0.4,0.5,0.7,0.9,0.9c0.4,0.2,0.8,0.3,1.3,0.3c0.5,0,0.9-0.1,1.3-0.3V51.2z"/>
				<path fill="#FFFFFF" d="M323.9,53.7v1.9H317v-8.5h6.7v1.9h-4.3v1.4h3.8v1.8h-3.8v1.6H323.9z"/>
				<path fill="#FFFFFF" d="M330.9,47.1l1.5,2.3l1.5-2.3h2.8l-2.8,4.1l3,4.5h-2.8l-1.7-2.5l-1.7,2.5H328l3-4.3l-2.8-4.2H330.9z"/>
				<path fill="#FFFFFF" d="M344.8,54h-1.3v1.6h-2.3V54h-4.5v-1.6l3.8-5.3h2.5l-3.5,5h1.7v-1.4h2.3v1.4h1.3V54z"/>
			</g>
		</g>
	</g>
	<g>
		
			<image overflow="visible" opacity="0.3" width="84" height="12" xlink:href="BE37D196.png"  transform="matrix(1 0 0 1 13.5809 46.524)">
		</image>
		<g>
			<g>
				<path fill="#FFFFFF" d="M16.8,48.9v1.9h3.8v1.9h-3.8v2.9h-2.4v-8.5h6.7v1.9H16.8z"/>
				<path fill="#FFFFFF" d="M24,55.2c-0.7-0.4-1.3-0.9-1.7-1.6c-0.4-0.7-0.6-1.4-0.6-2.3c0-0.8,0.2-1.6,0.6-2.3
					c0.4-0.7,1-1.2,1.7-1.6c0.7-0.4,1.5-0.6,2.4-0.6s1.7,0.2,2.4,0.6c0.7,0.4,1.3,0.9,1.7,1.6s0.6,1.4,0.6,2.3
					c0,0.8-0.2,1.6-0.6,2.3c-0.4,0.7-1,1.2-1.7,1.6s-1.5,0.6-2.4,0.6S24.7,55.6,24,55.2z M27.6,53.5c0.3-0.2,0.6-0.5,0.8-0.9
					c0.2-0.4,0.3-0.8,0.3-1.3s-0.1-0.9-0.3-1.3s-0.5-0.7-0.8-0.9c-0.3-0.2-0.7-0.3-1.2-0.3s-0.8,0.1-1.2,0.3
					c-0.3,0.2-0.6,0.5-0.8,0.9c-0.2,0.4-0.3,0.8-0.3,1.3s0.1,0.9,0.3,1.3c0.2,0.4,0.5,0.7,0.8,0.9c0.3,0.2,0.7,0.3,1.2,0.3
					S27.2,53.7,27.6,53.5z"/>
				<path fill="#FFFFFF" d="M36.1,53.3h-1.3v2.3h-2.4v-8.5h3.9c0.8,0,1.4,0.1,2,0.4c0.6,0.3,1,0.6,1.3,1.1c0.3,0.5,0.5,1,0.5,1.7
					c0,0.6-0.1,1.2-0.4,1.6c-0.3,0.5-0.7,0.8-1.2,1.1l1.8,2.7h-2.6L36.1,53.3z M37.3,49.3C37,49.1,36.6,49,36.2,49h-1.3v2.5h1.3
					c0.5,0,0.9-0.1,1.1-0.3c0.3-0.2,0.4-0.5,0.4-0.9S37.5,49.5,37.3,49.3z"/>
				<path fill="#FFFFFF" d="M42.4,55.5c-0.6-0.2-1.2-0.4-1.6-0.7l0.8-1.8c0.4,0.3,0.8,0.5,1.3,0.6s1,0.2,1.5,0.2
					c0.9,0,1.4-0.2,1.4-0.7c0-0.2-0.1-0.4-0.4-0.5c-0.3-0.1-0.7-0.2-1.3-0.4c-0.6-0.1-1.2-0.3-1.6-0.4s-0.8-0.4-1.1-0.8
					c-0.3-0.3-0.5-0.8-0.5-1.4c0-0.5,0.1-1,0.4-1.4s0.7-0.7,1.3-1c0.6-0.2,1.3-0.4,2.1-0.4c0.6,0,1.1,0.1,1.7,0.2
					c0.5,0.1,1,0.3,1.4,0.6l-0.7,1.8c-0.8-0.4-1.6-0.7-2.4-0.7c-0.5,0-0.8,0.1-1,0.2c-0.2,0.1-0.3,0.3-0.3,0.6
					c0,0.2,0.1,0.4,0.4,0.5c0.3,0.1,0.7,0.2,1.3,0.4c0.6,0.1,1.2,0.3,1.6,0.4c0.4,0.2,0.8,0.4,1.1,0.8s0.5,0.8,0.5,1.4
					c0,0.5-0.1,1-0.4,1.4s-0.7,0.7-1.3,1c-0.6,0.2-1.3,0.4-2.1,0.4C43.7,55.8,43,55.7,42.4,55.5z"/>
				<path fill="#FFFFFF" d="M55,54h-3.6l-0.7,1.7h-2.5l3.8-8.5h2.4l3.8,8.5h-2.5L55,54z M54.3,52.2l-1.1-2.7l-1.1,2.7H54.3z"/>
				<path fill="#FFFFFF" d="M64.4,51.2h2.1v3.5c-0.5,0.3-1,0.6-1.7,0.8s-1.3,0.3-1.9,0.3c-0.9,0-1.7-0.2-2.4-0.6s-1.3-0.9-1.7-1.6
					c-0.4-0.7-0.6-1.4-0.6-2.3c0-0.9,0.2-1.6,0.6-2.3c0.4-0.7,1-1.2,1.7-1.6s1.5-0.6,2.4-0.6c0.8,0,1.5,0.1,2.1,0.4s1.2,0.7,1.6,1.2
					l-1.5,1.4c-0.6-0.6-1.3-0.9-2.1-0.9c-0.7,0-1.3,0.2-1.8,0.7c-0.4,0.4-0.7,1-0.7,1.8c0,0.5,0.1,0.9,0.3,1.3
					c0.2,0.4,0.5,0.7,0.9,0.9c0.4,0.2,0.8,0.3,1.3,0.3c0.5,0,0.9-0.1,1.3-0.3V51.2z"/>
				<path fill="#FFFFFF" d="M74.9,53.7v1.9h-6.8v-8.5h6.7v1.9h-4.3v1.4h3.8v1.8h-3.8v1.6H74.9z"/>
				<path fill="#FFFFFF" d="M82,47.1l1.5,2.3l1.5-2.3h2.8L85,51.2l3,4.5h-2.8l-1.7-2.5l-1.7,2.5H79l3-4.3l-2.8-4.2H82z"/>
				<path fill="#FFFFFF" d="M94.5,51.4c0.4,0.4,0.6,1,0.6,1.6c0,0.5-0.1,1-0.4,1.4c-0.3,0.4-0.7,0.8-1.2,1c-0.6,0.3-1.2,0.4-2.1,0.4
					c-0.6,0-1.2-0.1-1.8-0.2c-0.6-0.1-1.1-0.4-1.5-0.6l0.9-1.8c0.3,0.2,0.7,0.4,1.1,0.5c0.4,0.1,0.8,0.2,1.2,0.2
					c0.4,0,0.7-0.1,1-0.2c0.2-0.2,0.4-0.4,0.4-0.7c0-0.6-0.4-0.8-1.3-0.8h-1v-1.5l1.5-1.6h-3.4v-1.9h6.2v1.5l-1.8,1.9
					C93.6,50.6,94.2,50.9,94.5,51.4z"/>
			</g>
		</g>
	</g>
</g>
</svg>
