<?xml version="1.0" encoding="utf-8"?>
<!-- Generator: Adobe Illustrator 18.0.0, SVG Export Plug-In . SVG Version: 6.00 Build 0)  -->
<!DOCTYPE svg PUBLIC "-//W3C//DTD SVG 1.1//EN" "http://www.w3.org/Graphics/SVG/1.1/DTD/svg11.dtd">
<svg version="1.1" id="Layer_1" xmlns="http://www.w3.org/2000/svg" xmlns:xlink="http://www.w3.org/1999/xlink" x="0px" y="0px"
	 viewBox="0 0 183.4 283" enable-background="new 0 0 183.4 283" xml:space="preserve">
<g>
	<g>
		<g opacity="0.2">
			<path d="M179.3,280.9l0.7-1c0.2,0.2,0.5,0.4,0.8,0.5c0.3,0.1,0.6,0.2,0.9,0.2c0.4,0,0.7-0.1,1-0.3s0.4-0.5,0.4-0.8
				c0-0.4-0.1-0.7-0.4-0.9c-0.3-0.2-0.7-0.3-1.2-0.3h-0.5l-0.3-0.7l1.4-1.6c0.1-0.1,0.2-0.2,0.3-0.3s0.2-0.2,0.2-0.2l0.1-0.1v0
				c-0.2,0-0.4,0-0.7,0h-2.2v-1.2h4.6v0.9l-1.8,2.1c0.6,0.1,1,0.3,1.4,0.7c0.4,0.4,0.6,0.9,0.6,1.5c0,0.7-0.2,1.3-0.7,1.7
				c-0.5,0.5-1.1,0.7-1.9,0.7c-0.5,0-0.9-0.1-1.3-0.3C180,281.5,179.6,281.3,179.3,280.9z"/>
		</g>
		<g>
			<g>
				<path fill="#F66BC6" d="M178.3,279.9l0.7-1c0.2,0.2,0.5,0.4,0.8,0.5c0.3,0.1,0.6,0.2,0.9,0.2c0.4,0,0.7-0.1,1-0.3
					s0.4-0.5,0.4-0.8c0-0.4-0.1-0.7-0.4-0.9c-0.3-0.2-0.7-0.3-1.2-0.3h-0.5l-0.3-0.7l1.4-1.6c0.1-0.1,0.2-0.2,0.3-0.3
					s0.2-0.2,0.2-0.2l0.1-0.1v0c-0.2,0-0.4,0-0.7,0h-2.2v-1.2h4.6v0.9l-1.8,2.1c0.6,0.1,1,0.3,1.4,0.7c0.4,0.4,0.6,0.9,0.6,1.5
					c0,0.7-0.2,1.3-0.7,1.7c-0.5,0.5-1.1,0.7-1.9,0.7c-0.5,0-0.9-0.1-1.3-0.3C179,280.5,178.6,280.3,178.3,279.9z"/>
			</g>
		</g>
	</g>
	<g>
		<g>
			<g opacity="0.2">
				<circle cx="19" cy="265.1" r="17.8"/>
			</g>
			<g>
				<circle fill="#00B0C2" cx="17.8" cy="263.9" r="17.8"/>
			</g>
		</g>
		<g>
			<g opacity="0.2">
				<circle cx="89.7" cy="265.1" r="17.8"/>
			</g>
			<g>
				<circle fill="#00B0C2" cx="88.5" cy="263.9" r="17.8"/>
			</g>
		</g>
		<g>
			<g opacity="0.2">
				<circle cx="39" cy="64.1" r="8.4"/>
			</g>
			<g>
				<circle fill="#00B0C2" cx="37.8" cy="62.9" r="8.4"/>
			</g>
		</g>
		<g>
			<g opacity="0.2">
				<circle cx="88.8" cy="64.1" r="8.4"/>
			</g>
			<g>
				<circle fill="#F66BC6" cx="87.5" cy="62.9" r="8.4"/>
			</g>
		</g>
		<g>
			<g opacity="0.2">
				<circle fill="none" stroke="#000000" stroke-width="1.0043" stroke-miterlimit="10" cx="138.5" cy="64.1" r="8.4"/>
			</g>
			<g>
				<circle fill="none" stroke="#AC9BFB" stroke-width="1.0043" stroke-miterlimit="10" cx="137.3" cy="62.9" r="8.4"/>
			</g>
		</g>
		<g>
			<g opacity="0.2">
				<circle cx="160.4" cy="265.1" r="17.8"/>
			</g>
			<g>
				<circle fill="#F66BC6" cx="159.2" cy="263.9" r="17.8"/>
			</g>
		</g>
		<g>
			<g opacity="0.2">
				<path d="M131,177.4H48.4c-3.3,0-6-2.7-6-6v-29.6c0-3.3,2.7-6,6-6H131c3.3,0,6,2.7,6,6v29.6C137,174.7,134.3,177.4,131,177.4z"/>
			</g>
			<g>
				<path fill="#00B0C2" d="M129.8,176.2H47.2c-3.3,0-6-2.7-6-6v-29.6c0-3.3,2.7-6,6-6h82.6c3.3,0,6,2.7,6,6v29.6
					C135.8,173.5,133.1,176.2,129.8,176.2z"/>
			</g>
		</g>
		<g>
			<g opacity="0.2">
				<path d="M37.1,284.2v-1.4h2v-5l0-0.6h0c-0.1,0.1-0.2,0.3-0.4,0.5l-0.7,0.7l-1-1l2.3-2.2h1.4v7.6h2v1.4H37.1z"/>
			</g>
			<g>
				<g>
					<path fill="#00B0C2" d="M35.9,283v-1.4h2v-5l0-0.6h0c-0.1,0.1-0.2,0.3-0.4,0.5l-0.7,0.7l-1-1L38,274h1.4v7.6h2v1.4H35.9z"/>
				</g>
			</g>
		</g>
		<g>
			<g opacity="0.2">
				<path d="M108.3,282.2c-0.1-0.3-0.1-0.6-0.1-0.8c0-0.4,0.1-0.8,0.2-1.2c0.2-0.4,0.4-0.7,0.6-1c0.2-0.3,0.5-0.5,0.8-0.8
					s0.6-0.5,0.9-0.7c0.3-0.2,0.6-0.4,0.8-0.6s0.4-0.4,0.6-0.6c0.2-0.2,0.2-0.5,0.2-0.7c0-0.4-0.1-0.7-0.4-0.9
					c-0.3-0.2-0.6-0.3-1-0.3c-0.3,0-0.6,0.1-0.9,0.3c-0.3,0.2-0.5,0.5-0.7,0.8l-1.2-0.8c0.3-0.5,0.7-1,1.2-1.3
					c0.5-0.3,1.1-0.5,1.8-0.5c0.8,0,1.5,0.2,2.1,0.7c0.6,0.5,0.8,1.1,0.8,1.9c0,0.4-0.1,0.8-0.2,1.1c-0.1,0.3-0.3,0.6-0.6,0.9
					s-0.5,0.5-0.8,0.7c-0.3,0.2-0.6,0.4-0.9,0.6c-0.3,0.2-0.6,0.4-0.8,0.6c-0.2,0.2-0.4,0.4-0.6,0.6c-0.2,0.2-0.2,0.4-0.2,0.7h4.2
					v1.4H108.3z"/>
			</g>
			<g>
				<g>
					<path fill="#00B0C2" d="M107.1,281c-0.1-0.3-0.1-0.6-0.1-0.8c0-0.4,0.1-0.8,0.2-1.2c0.2-0.4,0.4-0.7,0.6-1
						c0.2-0.3,0.5-0.5,0.8-0.8s0.6-0.5,0.9-0.7c0.3-0.2,0.6-0.4,0.8-0.6s0.4-0.4,0.6-0.6c0.2-0.2,0.2-0.5,0.2-0.7
						c0-0.4-0.1-0.7-0.4-0.9c-0.3-0.2-0.6-0.3-1-0.3c-0.3,0-0.6,0.1-0.9,0.3c-0.3,0.2-0.5,0.5-0.7,0.8l-1.2-0.8
						c0.3-0.5,0.7-1,1.2-1.3c0.5-0.3,1.1-0.5,1.8-0.5c0.8,0,1.5,0.2,2.1,0.7c0.6,0.5,0.8,1.1,0.8,1.9c0,0.4-0.1,0.8-0.2,1.1
						c-0.1,0.3-0.3,0.6-0.6,0.9s-0.5,0.5-0.8,0.7c-0.3,0.2-0.6,0.4-0.9,0.6c-0.3,0.2-0.6,0.4-0.8,0.6c-0.2,0.2-0.4,0.4-0.6,0.6
						c-0.2,0.2-0.2,0.4-0.2,0.7h4.2v1.4H107.1z"/>
				</g>
			</g>
		</g>
		<g>
			<g opacity="0.2">
				<path fill="none" stroke="#000000" stroke-width="1.0043" stroke-miterlimit="10" d="M140.8,38.3H40c-2.3,0-4.1-1.8-4.1-4.1V5.8
					c0-2.3,1.8-4.1,4.1-4.1h100.7c2.3,0,4.1,1.8,4.1,4.1v28.4C144.9,36.5,143.1,38.3,140.8,38.3z"/>
			</g>
			<g>
				<g>
					<path fill="none" stroke="#AC9BFB" stroke-width="1.0043" stroke-miterlimit="10" d="M139.6,37.1H38.8c-2.3,0-4.1-1.8-4.1-4.1
						V4.6c0-2.3,1.8-4.1,4.1-4.1h100.7c2.3,0,4.1,1.8,4.1,4.1V33C143.7,35.3,141.8,37.1,139.6,37.1z"/>
				</g>
			</g>
		</g>
		<g>
			<g opacity="0.2">
				<path d="M73,14.4h3.4v11.9H73V14.4z"/>
				<path d="M78.7,14.4h5.6c1.3,0,2.5,0.2,3.5,0.7c1,0.5,1.8,1.2,2.4,2.1c0.6,0.9,0.8,1.9,0.8,3.2s-0.3,2.3-0.8,3.2
					c-0.6,0.9-1.3,1.6-2.4,2.1c-1,0.5-2.2,0.7-3.5,0.7h-5.6V14.4z M84.2,23.6c1,0,1.8-0.3,2.5-0.9c0.6-0.6,0.9-1.4,0.9-2.4
					c0-1-0.3-1.8-0.9-2.4c-0.6-0.6-1.4-0.9-2.5-0.9h-2.1v6.5H84.2z"/>
				<path stroke="#000000" stroke-width="0.4976" stroke-miterlimit="10" d="M104.3,20.7l-4.1-2.6v7.9h-2.4v-8l-4.1,2.6v-2.5
					l5.3-3.6l5.4,3.6V20.7z"/>
			</g>
			<g>
				<g>
					<path fill="#AC9BFB" d="M71.8,13.2h3.4v11.9h-3.4V13.2z"/>
					<path fill="#AC9BFB" d="M77.5,13.2h5.6c1.3,0,2.5,0.2,3.5,0.7c1,0.5,1.8,1.2,2.4,2.1c0.6,0.9,0.8,1.9,0.8,3.2s-0.3,2.3-0.8,3.2
						c-0.6,0.9-1.3,1.6-2.4,2.1c-1,0.5-2.2,0.7-3.5,0.7h-5.6V13.2z M83,22.4c1,0,1.8-0.3,2.5-0.9c0.6-0.6,0.9-1.4,0.9-2.4
						c0-1-0.3-1.8-0.9-2.4c-0.6-0.6-1.4-0.9-2.5-0.9h-2.1v6.5H83z"/>
					<path fill="#AC9BFB" stroke="#AC9BFB" stroke-width="0.4976" stroke-miterlimit="10" d="M103.1,19.5L99,17v7.9h-2.4v-8
						l-4.1,2.6V17l5.3-3.6l5.4,3.6V19.5z"/>
				</g>
			</g>
		</g>
		<g>
			<g>
				<g opacity="0.2">
					<path d="M26.5,271.5c-4.5,0-9,0-13.6,0c0,0,0,0-0.1,0c-0.9-0.2-1.4-0.8-1.4-1.7c0-3.8,0-4.7,0-8.5c0-0.3,0.1-0.5,0.2-0.8
						c0.3-0.7,0.9-1,1.6-1c1.6,0,3.1,0,4.7,0c0.1,0,0.3,0,0.4-0.1c1.3-0.7,2.7-1.5,4-2.2c0.2-0.1,0.4-0.2,0.7-0.3c0.1,0,0.2,0,0.3,0
						c0.4,0.1,0.6,0.4,0.8,0.8c0.3,0.6,0.6,1.1,0.9,1.7c0.1,0.1,0.1,0.1,0.3,0.1c0.3,0,0.6,0,0.9,0c1.1,0,1.8,0.7,1.8,1.8
						c0,1.2,0,1.3,0,2.4c0,0.1,0,0.1,0,0.2c0.3,0,0.6,0,0.8,0c0,1.4,0,2.8,0,4.3c-0.3,0-0.5,0-0.8,0c0,0.1,0,0.1,0,0.2
						c0,1,0,0.2,0,1.3c0,0.5-0.2,1-0.6,1.4C27.1,271.3,26.8,271.4,26.5,271.5z M16.9,260.3C16.9,260.3,16.9,260.3,16.9,260.3
						c-0.1,0-0.1,0-0.2,0c-1.2,0-2.3,0-3.5,0c-0.7,0-1.1,0.4-1.1,1.1c0,3.8,0,4.6,0,8.4c0,0.7,0.4,1.1,1.1,1.1c4.3,0,8.6,0,12.9,0
						c0.7,0,1.1-0.4,1.1-1.1c0-1,0-0.2,0-1.2c0-0.1,0-0.1,0-0.2c-0.8,0-1.6,0-2.4,0c-0.3,0-0.6-0.1-0.9-0.2c-0.6-0.3-1.3-1-1.2-2.1
						c0.1-1,0.9-1.9,1.9-2c0.8,0,1.6,0,2.4,0c0.1,0,0.1,0,0.2,0c0-1.1,0-1.1,0-2.2c-0.1,0-0.2,0-0.2,0c-4.5,0-9,0-13.5,0
						c-0.1,0-0.2,0-0.3,0c-0.2,0-0.2-0.2-0.2-0.3c0-0.2,0.1-0.3,0.2-0.3c0.1,0,0.1,0,0.2,0c0.3,0,0.6,0,0.9,0
						c0.6,0.1,1.2-0.1,1.7-0.5C16.4,260.5,16.7,260.4,16.9,260.3z M28.1,264.7c-1.1,0-2.2,0-3.3,0c-1,0-1.6,0.9-1.3,1.9
						c0.2,0.6,0.7,1,1.4,1c1,0,2.1,0,3.1,0c0,0,0.1,0,0.1,0C28.1,266.6,28.1,265.7,28.1,264.7z M25.5,260.3c0.2,0.3,0.3,0.6,0.5,0.8
						c0,0,0.1,0.1,0.1,0.1c0.4,0,0.8,0,1.2,0c-0.1-0.5-0.4-0.9-0.9-0.9C26.1,260.2,25.8,260.3,25.5,260.3z"/>
				</g>
				<g>
					<path fill="#FFFFFF" d="M25.3,270.3c-4.5,0-9,0-13.6,0c0,0,0,0-0.1,0c-0.9-0.2-1.4-0.8-1.4-1.7c0-3.8,0-4.7,0-8.5
						c0-0.3,0.1-0.5,0.2-0.8c0.3-0.7,0.9-1,1.6-1c1.6,0,3.1,0,4.7,0c0.1,0,0.3,0,0.4-0.1c1.3-0.7,2.7-1.5,4-2.2
						c0.2-0.1,0.4-0.2,0.7-0.3c0.1,0,0.2,0,0.3,0c0.4,0.1,0.6,0.4,0.8,0.8c0.3,0.6,0.6,1.1,0.9,1.7c0.1,0.1,0.1,0.1,0.3,0.1
						c0.3,0,0.6,0,0.9,0c1.1,0,1.8,0.7,1.8,1.8c0,1.2,0,1.3,0,2.4c0,0.1,0,0.1,0,0.2c0.3,0,0.6,0,0.8,0c0,1.4,0,2.8,0,4.3
						c-0.3,0-0.5,0-0.8,0c0,0.1,0,0.1,0,0.2c0,1,0,0.2,0,1.3c0,0.5-0.2,1-0.6,1.4C25.9,270.1,25.6,270.2,25.3,270.3z M15.7,259.1
						C15.7,259.1,15.7,259.1,15.7,259.1c-0.1,0-0.1,0-0.2,0c-1.2,0-2.3,0-3.5,0c-0.7,0-1.1,0.4-1.1,1.1c0,3.8,0,4.6,0,8.4
						c0,0.7,0.4,1.1,1.1,1.1c4.3,0,8.6,0,12.9,0c0.7,0,1.1-0.4,1.1-1.1c0-1,0-0.2,0-1.2c0-0.1,0-0.1,0-0.2c-0.8,0-1.6,0-2.4,0
						c-0.3,0-0.6-0.1-0.9-0.2c-0.6-0.3-1.3-1-1.2-2.1c0.1-1,0.9-1.9,1.9-2c0.8,0,1.6,0,2.4,0c0.1,0,0.1,0,0.2,0c0-1.1,0-1.1,0-2.2
						c-0.1,0-0.2,0-0.2,0c-4.5,0-9,0-13.5,0c-0.1,0-0.2,0-0.3,0c-0.2,0-0.2-0.2-0.2-0.3c0-0.2,0.1-0.3,0.2-0.3c0.1,0,0.1,0,0.2,0
						c0.3,0,0.6,0,0.9,0c0.6,0.1,1.2-0.1,1.7-0.5C15.2,259.3,15.5,259.2,15.7,259.1z M26.9,263.5c-1.1,0-2.2,0-3.3,0
						c-1,0-1.6,0.9-1.3,1.9c0.2,0.6,0.7,1,1.4,1c1,0,2.1,0,3.1,0c0,0,0.1,0,0.1,0C26.9,265.4,26.9,264.5,26.9,263.5z M24.3,259.1
						c0.2,0.3,0.3,0.6,0.5,0.8c0,0,0.1,0.1,0.1,0.1c0.4,0,0.8,0,1.2,0c-0.1-0.5-0.4-0.9-0.9-0.9C24.9,259,24.6,259.1,24.3,259.1z"/>
				</g>
			</g>
			<g>
				<g opacity="0.2">
					<path d="M25.9,266.2c0,0.4-0.3,0.7-0.7,0.7c-0.4,0-0.7-0.3-0.7-0.7c0-0.4,0.3-0.7,0.7-0.7C25.6,265.4,25.9,265.8,25.9,266.2z"
						/>
				</g>
				<g>
					<path fill="#FFFFFF" d="M24.7,265c0,0.4-0.3,0.7-0.7,0.7c-0.4,0-0.7-0.3-0.7-0.7c0-0.4,0.3-0.7,0.7-0.7
						C24.3,264.2,24.7,264.6,24.7,265z"/>
				</g>
			</g>
		</g>
		<g>
			<g>
				<g opacity="0.2">
					<path d="M97.7,271.5c-4.5,0-9,0-13.6,0c0,0,0,0-0.1,0c-0.9-0.2-1.4-0.8-1.4-1.7c0-3.8,0-4.7,0-8.5c0-0.3,0.1-0.5,0.2-0.8
						c0.3-0.7,0.9-1,1.6-1c1.6,0,3.1,0,4.7,0c0.1,0,0.3,0,0.4-0.1c1.3-0.7,2.7-1.5,4-2.2c0.2-0.1,0.4-0.2,0.7-0.3c0.1,0,0.2,0,0.3,0
						c0.4,0.1,0.6,0.4,0.8,0.8c0.3,0.6,0.6,1.1,0.9,1.7c0.1,0.1,0.1,0.1,0.3,0.1c0.3,0,0.6,0,0.9,0c1.1,0,1.8,0.7,1.8,1.8
						c0,1.2,0,1.3,0,2.4c0,0.1,0,0.1,0,0.2c0.3,0,0.6,0,0.8,0c0,1.4,0,2.8,0,4.3c-0.3,0-0.5,0-0.8,0c0,0.1,0,0.1,0,0.2
						c0,1,0,0.2,0,1.3c0,0.5-0.2,1-0.6,1.4C98.3,271.3,98,271.4,97.7,271.5z M88.1,260.3C88,260.3,88,260.3,88.1,260.3
						c-0.1,0-0.1,0-0.2,0c-1.2,0-2.3,0-3.5,0c-0.7,0-1.1,0.4-1.1,1.1c0,3.8,0,4.6,0,8.4c0,0.7,0.4,1.1,1.1,1.1c4.3,0,8.6,0,12.9,0
						c0.7,0,1.1-0.4,1.1-1.1c0-1,0-0.2,0-1.2c0-0.1,0-0.1,0-0.2c-0.8,0-1.6,0-2.4,0c-0.3,0-0.6-0.1-0.9-0.2c-0.6-0.3-1.3-1-1.2-2.1
						c0.1-1,0.9-1.9,1.9-2c0.8,0,1.6,0,2.4,0c0.1,0,0.1,0,0.2,0c0-1.1,0-1.1,0-2.2c-0.1,0-0.2,0-0.2,0c-4.5,0-9,0-13.5,0
						c-0.1,0-0.2,0-0.3,0c-0.2,0-0.2-0.2-0.2-0.3c0-0.2,0.1-0.3,0.2-0.3c0.1,0,0.1,0,0.2,0c0.3,0,0.6,0,0.9,0
						c0.6,0.1,1.2-0.1,1.7-0.5C87.6,260.5,87.8,260.4,88.1,260.3z M99.3,264.7c-1.1,0-2.2,0-3.3,0c-1,0-1.6,0.9-1.3,1.9
						c0.2,0.6,0.7,1,1.4,1c1,0,2.1,0,3.1,0c0,0,0.1,0,0.1,0C99.3,266.6,99.3,265.7,99.3,264.7z M96.7,260.3c0.2,0.3,0.3,0.6,0.5,0.8
						c0,0,0.1,0.1,0.1,0.1c0.4,0,0.8,0,1.2,0c-0.1-0.5-0.4-0.9-0.9-0.9C97.3,260.2,97,260.3,96.7,260.3z"/>
				</g>
				<g>
					<path fill="#FFFFFF" d="M96.5,270.3c-4.5,0-9,0-13.6,0c0,0,0,0-0.1,0c-0.9-0.2-1.4-0.8-1.4-1.7c0-3.8,0-4.7,0-8.5
						c0-0.3,0.1-0.5,0.2-0.8c0.3-0.7,0.9-1,1.6-1c1.6,0,3.1,0,4.7,0c0.1,0,0.3,0,0.4-0.1c1.3-0.7,2.7-1.5,4-2.2
						c0.2-0.1,0.4-0.2,0.7-0.3c0.1,0,0.2,0,0.3,0c0.4,0.1,0.6,0.4,0.8,0.8c0.3,0.6,0.6,1.1,0.9,1.7c0.1,0.1,0.1,0.1,0.3,0.1
						c0.3,0,0.6,0,0.9,0c1.1,0,1.8,0.7,1.8,1.8c0,1.2,0,1.3,0,2.4c0,0.1,0,0.1,0,0.2c0.3,0,0.6,0,0.8,0c0,1.4,0,2.8,0,4.3
						c-0.3,0-0.5,0-0.8,0c0,0.1,0,0.1,0,0.2c0,1,0,0.2,0,1.3c0,0.5-0.2,1-0.6,1.4C97.1,270.1,96.8,270.2,96.5,270.3z M86.8,259.1
						C86.8,259.1,86.8,259.1,86.8,259.1c-0.1,0-0.1,0-0.2,0c-1.2,0-2.3,0-3.5,0c-0.7,0-1.1,0.4-1.1,1.1c0,3.8,0,4.6,0,8.4
						c0,0.7,0.4,1.1,1.1,1.1c4.3,0,8.6,0,12.9,0c0.7,0,1.1-0.4,1.1-1.1c0-1,0-0.2,0-1.2c0-0.1,0-0.1,0-0.2c-0.8,0-1.6,0-2.4,0
						c-0.3,0-0.6-0.1-0.9-0.2c-0.6-0.3-1.3-1-1.2-2.1c0.1-1,0.9-1.9,1.9-2c0.8,0,1.6,0,2.4,0c0.1,0,0.1,0,0.2,0c0-1.1,0-1.1,0-2.2
						c-0.1,0-0.2,0-0.2,0c-4.5,0-9,0-13.5,0c-0.1,0-0.2,0-0.3,0c-0.2,0-0.2-0.2-0.2-0.3c0-0.2,0.1-0.3,0.2-0.3c0.1,0,0.1,0,0.2,0
						c0.3,0,0.6,0,0.9,0c0.6,0.1,1.2-0.1,1.7-0.5C86.4,259.3,86.6,259.2,86.8,259.1z M98.1,263.5c-1.1,0-2.2,0-3.3,0
						c-1,0-1.6,0.9-1.3,1.9c0.2,0.6,0.7,1,1.4,1c1,0,2.1,0,3.1,0c0,0,0.1,0,0.1,0C98.1,265.4,98.1,264.5,98.1,263.5z M95.5,259.1
						c0.2,0.3,0.3,0.6,0.5,0.8c0,0,0.1,0.1,0.1,0.1c0.4,0,0.8,0,1.2,0c-0.1-0.5-0.4-0.9-0.9-0.9C96.1,259,95.8,259.1,95.5,259.1z"/>
				</g>
			</g>
			<g>
				<g opacity="0.2">
					<path d="M97,266.2c0,0.4-0.3,0.7-0.7,0.7c-0.4,0-0.7-0.3-0.7-0.7c0-0.4,0.3-0.7,0.7-0.7C96.7,265.4,97,265.8,97,266.2z"/>
				</g>
				<g>
					<path fill="#FFFFFF" d="M95.8,265c0,0.4-0.3,0.7-0.7,0.7c-0.4,0-0.7-0.3-0.7-0.7c0-0.4,0.3-0.7,0.7-0.7
						C95.5,264.2,95.8,264.6,95.8,265z"/>
				</g>
			</g>
		</g>
		<g>
			<g opacity="0.2">
				<path d="M96.2,91.6c-4.5,0-9,0-13.6,0c0,0,0,0-0.1,0c-0.9-0.2-1.4-0.8-1.4-1.7c0-3.8,0-4.7,0-8.5c0-0.3,0.1-0.5,0.2-0.8
					c0.3-0.7,0.9-1,1.6-1c1.6,0,3.1,0,4.7,0c0.1,0,0.3,0,0.4-0.1c1.3-0.7,2.7-1.5,4-2.2c0.2-0.1,0.4-0.2,0.7-0.3c0.1,0,0.2,0,0.3,0
					c0.4,0.1,0.6,0.4,0.8,0.8c0.3,0.6,0.6,1.1,0.9,1.7c0.1,0.1,0.1,0.1,0.3,0.1c0.3,0,0.6,0,0.9,0c1.1,0,1.8,0.7,1.8,1.8
					c0,1.2,0,1.3,0,2.4c0,0.1,0,0.1,0,0.2c0.3,0,0.6,0,0.8,0c0,1.4,0,2.8,0,4.3c-0.3,0-0.5,0-0.8,0c0,0.1,0,0.1,0,0.2
					c0,1,0,0.2,0,1.3c0,0.5-0.2,1-0.6,1.4C96.8,91.4,96.5,91.5,96.2,91.6z M86.6,80.4C86.6,80.4,86.6,80.3,86.6,80.4
					c-0.1,0-0.1,0-0.2,0c-1.2,0-2.3,0-3.5,0c-0.7,0-1.1,0.4-1.1,1.1c0,3.8,0,4.6,0,8.4c0,0.7,0.4,1.1,1.1,1.1c4.3,0,8.6,0,12.9,0
					c0.7,0,1.1-0.4,1.1-1.1c0-1,0-0.2,0-1.2c0-0.1,0-0.1,0-0.2c-0.8,0-1.6,0-2.4,0c-0.3,0-0.6-0.1-0.9-0.2c-0.6-0.3-1.3-1-1.2-2.1
					c0.1-1,0.9-1.9,1.9-2c0.8,0,1.6,0,2.4,0c0.1,0,0.1,0,0.2,0c0-1.1,0-1.1,0-2.2c-0.1,0-0.2,0-0.2,0c-4.5,0-9,0-13.5,0
					c-0.1,0-0.2,0-0.3,0c-0.2,0-0.2-0.2-0.2-0.3c0-0.2,0.1-0.3,0.2-0.3c0.1,0,0.1,0,0.2,0c0.3,0,0.6,0,0.9,0
					c0.6,0.1,1.2-0.1,1.7-0.5C86.1,80.6,86.4,80.5,86.6,80.4z M97.9,84.8c-1.1,0-2.2,0-3.3,0c-1,0-1.6,0.9-1.3,1.9
					c0.2,0.6,0.7,1,1.4,1c1,0,2.1,0,3.1,0c0,0,0.1,0,0.1,0C97.9,86.7,97.9,85.7,97.9,84.8z M95.3,80.3c0.2,0.3,0.3,0.6,0.5,0.8
					c0,0,0.1,0.1,0.1,0.1c0.4,0,0.8,0,1.2,0c-0.1-0.5-0.4-0.9-0.9-0.9C95.8,80.3,95.6,80.3,95.3,80.3z"/>
				<path d="M95.6,86.3c0,0.4-0.3,0.7-0.7,0.7c-0.4,0-0.7-0.3-0.7-0.7c0-0.4,0.3-0.7,0.7-0.7C95.3,85.5,95.6,85.8,95.6,86.3z"/>
			</g>
			<g>
				<g>
					<path fill="#F66BC6" d="M95,90.4c-4.5,0-9,0-13.6,0c0,0,0,0-0.1,0c-0.9-0.2-1.4-0.8-1.4-1.7c0-3.8,0-4.7,0-8.5
						c0-0.3,0.1-0.5,0.2-0.8c0.3-0.7,0.9-1,1.6-1c1.6,0,3.1,0,4.7,0c0.1,0,0.3,0,0.4-0.1c1.3-0.7,2.7-1.5,4-2.2
						c0.2-0.1,0.4-0.2,0.7-0.3c0.1,0,0.2,0,0.3,0c0.4,0.1,0.6,0.4,0.8,0.8c0.3,0.6,0.6,1.1,0.9,1.7c0.1,0.1,0.1,0.1,0.3,0.1
						c0.3,0,0.6,0,0.9,0c1.1,0,1.8,0.7,1.8,1.8c0,1.2,0,1.3,0,2.4c0,0.1,0,0.1,0,0.2c0.3,0,0.6,0,0.8,0c0,1.4,0,2.8,0,4.3
						c-0.3,0-0.5,0-0.8,0c0,0.1,0,0.1,0,0.2c0,1,0,0.2,0,1.3c0,0.5-0.2,1-0.6,1.4C95.6,90.2,95.3,90.3,95,90.4z M85.4,79.2
						C85.4,79.1,85.4,79.1,85.4,79.2c-0.1,0-0.1,0-0.2,0c-1.2,0-2.3,0-3.5,0c-0.7,0-1.1,0.4-1.1,1.1c0,3.8,0,4.6,0,8.4
						c0,0.7,0.4,1.1,1.1,1.1c4.3,0,8.6,0,12.9,0c0.7,0,1.1-0.4,1.1-1.1c0-1,0-0.2,0-1.2c0-0.1,0-0.1,0-0.2c-0.8,0-1.6,0-2.4,0
						c-0.3,0-0.6-0.1-0.9-0.2c-0.6-0.3-1.3-1-1.2-2.1c0.1-1,0.9-1.9,1.9-2c0.8,0,1.6,0,2.4,0c0.1,0,0.1,0,0.2,0c0-1.1,0-1.1,0-2.2
						c-0.1,0-0.2,0-0.2,0c-4.5,0-9,0-13.5,0c-0.1,0-0.2,0-0.3,0c-0.2,0-0.2-0.2-0.2-0.3c0-0.2,0.1-0.3,0.2-0.3c0.1,0,0.1,0,0.2,0
						c0.3,0,0.6,0,0.9,0c0.6,0.1,1.2-0.1,1.7-0.5C84.9,79.4,85.2,79.3,85.4,79.2z M96.7,83.6c-1.1,0-2.2,0-3.3,0
						c-1,0-1.6,0.9-1.3,1.9c0.2,0.6,0.7,1,1.4,1c1,0,2.1,0,3.1,0c0,0,0.1,0,0.1,0C96.7,85.5,96.7,84.5,96.7,83.6z M94.1,79.1
						c0.2,0.3,0.3,0.6,0.5,0.8c0,0,0.1,0.1,0.1,0.1c0.4,0,0.8,0,1.2,0c-0.1-0.5-0.4-0.9-0.9-0.9C94.6,79.1,94.4,79.1,94.1,79.1z"/>
					<path fill="#F66BC6" d="M94.4,85.1c0,0.4-0.3,0.7-0.7,0.7c-0.4,0-0.7-0.3-0.7-0.7c0-0.4,0.3-0.7,0.7-0.7
						C94.1,84.3,94.4,84.6,94.4,85.1z"/>
				</g>
			</g>
		</g>
		<g>
			<g opacity="0.2">
				<path d="M82.6,151.1h3v10.4h-3V151.1z"/>
				<path d="M87.6,151.1h4.9c1.1,0,2.2,0.2,3,0.6s1.6,1,2.1,1.8c0.5,0.8,0.7,1.7,0.7,2.8s-0.2,2-0.7,2.8c-0.5,0.8-1.2,1.4-2.1,1.8
					s-1.9,0.6-3,0.6h-4.9V151.1z M92.5,159.2c0.9,0,1.6-0.3,2.2-0.8c0.5-0.5,0.8-1.2,0.8-2.1s-0.3-1.6-0.8-2.1
					c-0.5-0.5-1.3-0.8-2.2-0.8h-1.9v5.7H92.5z"/>
			</g>
			<g>
				<g>
					<path fill="#FFFFFF" d="M81.4,149.9h3v10.4h-3V149.9z"/>
					<path fill="#FFFFFF" d="M86.4,149.9h4.9c1.1,0,2.2,0.2,3,0.6s1.6,1,2.1,1.8c0.5,0.8,0.7,1.7,0.7,2.8s-0.2,2-0.7,2.8
						c-0.5,0.8-1.2,1.4-2.1,1.8s-1.9,0.6-3,0.6h-4.9V149.9z M91.3,158c0.9,0,1.6-0.3,2.2-0.8c0.5-0.5,0.8-1.2,0.8-2.1
						s-0.3-1.6-0.8-2.1c-0.5-0.5-1.3-0.8-2.2-0.8h-1.9v5.7H91.3z"/>
				</g>
			</g>
		</g>
		<g>
			<g opacity="0.2">
				<line fill="none" stroke="#000000" stroke-width="1.4104" stroke-miterlimit="10" x1="24.9" y1="248.1" x2="57.2" y2="189.9"/>
				<polygon points="59.4,194.3 63.2,179 52.2,190.3 				"/>
			</g>
			<g>
				<g>
					<line fill="none" stroke="#00B0C2" stroke-width="1.4104" stroke-miterlimit="10" x1="23.7" y1="246.9" x2="56" y2="188.7"/>
					<g>
						<polygon fill="#00B0C2" points="58.2,193.1 62,177.8 51,189.1 						"/>
					</g>
				</g>
			</g>
		</g>
		<g>
			<g opacity="0.2">
				
					<line fill="none" stroke="#000000" stroke-width="1.4104" stroke-miterlimit="10" x1="160.7" y1="248.1" x2="159.9" y2="169.3"/>
			</g>
			<g>
				
					<line fill="none" stroke="#FF5FAC" stroke-width="1.4104" stroke-miterlimit="10" x1="159.5" y1="246.9" x2="158.7" y2="168.1"/>
			</g>
		</g>
		<g>
			<g opacity="0.2">
				
					<line fill="none" stroke="#000000" stroke-width="1.4104" stroke-miterlimit="10" x1="155.4" y1="141.7" x2="101.5" y2="104.7"/>
				<polygon points="106.2,102.9 91.2,97.6 101.5,109.7 				"/>
			</g>
			<g>
				<g>
					
						<line fill="none" stroke="#FF5FAC" stroke-width="1.4104" stroke-miterlimit="10" x1="154.2" y1="140.5" x2="100.3" y2="103.5"/>
					<g>
						<polygon fill="#FF5FAC" points="105,101.7 90,96.4 100.3,108.5 						"/>
					</g>
				</g>
			</g>
		</g>
		<g>
			<g opacity="0.2">
				<line fill="none" stroke="#000000" stroke-width="1.4104" stroke-miterlimit="10" x1="88.8" y1="248.1" x2="88.4" y2="191.5"/>
				<polygon points="92.5,194.2 88.3,179 84.3,194.3 				"/>
			</g>
			<g>
				<g>
					<line fill="none" stroke="#00B0C2" stroke-width="1.4104" stroke-miterlimit="10" x1="87.6" y1="246.9" x2="87.2" y2="190.3"/>
					<g>
						<polygon fill="#00B0C2" points="91.3,193 87.1,177.8 83.1,193.1 						"/>
					</g>
				</g>
			</g>
		</g>
		<g>
			<g>
				<g opacity="0.2">
					<path d="M170.3,264C170.3,264,170.3,264,170.3,264c-0.2,1.3-0.5,2.6-1.2,3.7c-0.7,1.2-1.7,2.3-2.9,3.1c-0.9,0.6-2,1-3.1,1.2
						c-0.8,0.1-1.5,0.1-2.3,0.1c0,0,0.1,0,0.1,0c-0.1,0-0.3,0-0.4,0c-0.3,0-0.6-0.1-0.9-0.2c-0.5-0.1-1-0.4-1.5-0.6
						c-0.4-0.2-0.8-0.5-1.1-0.8c0.5-0.3,1-0.6,1.4-0.9c-0.1-0.1-0.3-0.2-0.4-0.2c-2.1-1.2-4.2-2.3-6.3-3.5c0,0.2,0,0.3,0,0.5
						c0.1,2.4,0.1,4.8,0.2,7.2c0.1-0.1,0.3-0.2,0.4-0.3c0.4-0.2,0.8-0.5,1.2-0.7c1.3,0.9,2.7,1.6,4.3,2c1.4,0.3,2.8,0.3,4.1,0.1
						c2.3-0.3,4.4-1.6,6-3.3c0.5-0.5,0.9-1.1,1.2-1.7c0.4-0.6,0.7-1.4,0.9-2.1c0.2-0.7,0.3-1.4,0.4-2.1
						C170.4,264.9,170.4,264.5,170.3,264z"/>
				</g>
				<g>
					<path fill="#FFFFFF" d="M169.1,262.8C169.1,262.8,169.1,262.8,169.1,262.8c-0.2,1.3-0.5,2.6-1.2,3.7c-0.7,1.2-1.7,2.3-2.9,3.1
						c-0.9,0.6-2,1-3.1,1.2c-0.8,0.1-1.5,0.1-2.3,0.1c0,0,0.1,0,0.1,0c-0.1,0-0.3,0-0.4,0c-0.3,0-0.6-0.1-0.9-0.2
						c-0.5-0.1-1-0.4-1.5-0.6c-0.4-0.2-0.8-0.5-1.1-0.8c0.5-0.3,1-0.6,1.4-0.9c-0.1-0.1-0.3-0.2-0.4-0.2c-2.1-1.2-4.2-2.3-6.3-3.5
						c0,0.2,0,0.3,0,0.5c0.1,2.4,0.1,4.8,0.2,7.2c0.1-0.1,0.3-0.2,0.4-0.3c0.4-0.2,0.8-0.5,1.2-0.7c1.3,0.9,2.7,1.6,4.3,2
						c1.4,0.3,2.8,0.3,4.1,0.1c2.3-0.3,4.4-1.6,6-3.3c0.5-0.5,0.9-1.1,1.2-1.7c0.4-0.6,0.7-1.4,0.9-2.1c0.2-0.7,0.3-1.4,0.4-2.1
						C169.2,263.7,169.2,263.3,169.1,262.8z"/>
				</g>
			</g>
			<g>
				<g opacity="0.2">
					<path d="M154.5,259.8c0.8-0.5,1.8-0.9,2.8-1.1c0.8-0.1,1.6-0.1,2.4-0.1c0,0-0.1,0-0.1,0c0.1,0,0.2,0,0.3,0
						c0.3,0,0.6,0.1,0.9,0.2c0.6,0.1,1.1,0.4,1.6,0.6c0.4,0.2,0.8,0.5,1.2,0.8c-0.5,0.3-1,0.6-1.4,0.9c0.1,0.1,0.3,0.2,0.4,0.2
						c2.1,1.2,4.2,2.3,6.3,3.5c0-0.2,0-0.3,0-0.5c-0.1-2.4-0.1-4.8-0.2-7.2c-0.1,0.1-0.3,0.2-0.4,0.3c-0.4,0.2-0.8,0.5-1.2,0.7
						c-1.4-1-2.8-1.7-4.5-2c-1.4-0.3-3-0.3-4.4,0c-1.3,0.3-2.5,0.8-3.6,1.5c-0.8,0.5-1.4,1.1-2.1,1.8c-1,1.1-1.7,2.4-2.1,3.8
						c-0.2,0.7-0.3,1.4-0.4,2.1c0,0.5,0,0.9,0,1.4c0-0.1,0-0.1,0-0.2c0.2-1.3,0.6-2.6,1.3-3.8C152.3,261.5,153.3,260.5,154.5,259.8z
						"/>
				</g>
				<g>
					<path fill="#FFFFFF" d="M153.3,258.6c0.8-0.5,1.8-0.9,2.8-1.1c0.8-0.1,1.6-0.1,2.4-0.1c0,0-0.1,0-0.1,0c0.1,0,0.2,0,0.3,0
						c0.3,0,0.6,0.1,0.9,0.2c0.6,0.1,1.1,0.4,1.6,0.6c0.4,0.2,0.8,0.5,1.2,0.8c-0.5,0.3-1,0.6-1.4,0.9c0.1,0.1,0.3,0.2,0.4,0.2
						c2.1,1.2,4.2,2.3,6.3,3.5c0-0.2,0-0.3,0-0.5c-0.1-2.4-0.1-4.8-0.2-7.2c-0.1,0.1-0.3,0.2-0.4,0.3c-0.4,0.2-0.8,0.5-1.2,0.7
						c-1.4-1-2.8-1.7-4.5-2c-1.4-0.3-3-0.3-4.4,0c-1.3,0.3-2.5,0.8-3.6,1.5c-0.8,0.5-1.4,1.1-2.1,1.8c-1,1.1-1.7,2.4-2.1,3.8
						c-0.2,0.7-0.3,1.4-0.4,2.1c0,0.5,0,0.9,0,1.4c0-0.1,0-0.1,0-0.2c0.2-1.3,0.6-2.6,1.3-3.8C151,260.3,152.1,259.3,153.3,258.6z"
						/>
				</g>
			</g>
		</g>
		<g>
			<g opacity="0.2">
				<path d="M170.8,153C170.8,153,170.8,153,170.8,153c-0.2,1.4-0.5,2.6-1.2,3.8c-0.7,1.2-1.7,2.4-2.9,3.1c-0.9,0.6-1.9,1-3,1.2
					c-0.8,0.1-1.5,0.1-2.3,0.1c0,0,0.1,0,0.1,0c-0.1,0-0.3,0-0.4,0c-0.3,0-0.6-0.1-0.9-0.2c-0.5-0.2-1-0.4-1.5-0.6
					c-0.4-0.2-0.8-0.5-1.1-0.8c0.5-0.3,1-0.6,1.4-0.9c-0.1-0.1-0.3-0.2-0.4-0.2c-2.1-1.2-4.2-2.4-6.2-3.5c0,0.2,0,0.3,0,0.5
					c0.1,2.4,0.1,4.9,0.2,7.3c0.1-0.1,0.3-0.2,0.4-0.3c0.4-0.2,0.8-0.5,1.2-0.7c1.3,0.9,2.7,1.7,4.3,2c1.4,0.3,2.7,0.3,4.1,0.1
					c2.3-0.3,4.4-1.6,5.9-3.4c0.5-0.5,0.9-1.1,1.2-1.8c0.4-0.6,0.7-1.4,0.9-2.2c0.2-0.7,0.3-1.4,0.3-2.1
					C170.8,153.9,170.8,153.5,170.8,153z"/>
				<path d="M155.1,148.7c0.8-0.5,1.8-0.9,2.7-1.1c0.8-0.1,1.6-0.1,2.4-0.1c0,0-0.1,0-0.1,0c0.1,0,0.2,0,0.3,0
					c0.3,0,0.6,0.1,0.9,0.2c0.6,0.1,1.1,0.4,1.6,0.6c0.4,0.2,0.8,0.5,1.2,0.8c-0.5,0.3-1,0.6-1.4,0.9c0.1,0.1,0.3,0.2,0.4,0.2
					c2.1,1.2,4.2,2.4,6.3,3.5c0-0.2,0-0.3,0-0.5c-0.1-2.4-0.1-4.9-0.2-7.3c-0.1,0.1-0.3,0.2-0.4,0.3c-0.4,0.2-0.8,0.5-1.2,0.7
					c-1.3-1-2.8-1.7-4.4-2c-1.4-0.3-2.9-0.3-4.3,0c-1.3,0.3-2.5,0.8-3.5,1.5c-0.8,0.5-1.4,1.2-2,1.8c-1,1.1-1.6,2.5-2,3.9
					c-0.2,0.7-0.3,1.4-0.3,2.1c0,0.5,0,0.9,0,1.4c0-0.1,0-0.1,0-0.2c0.2-1.4,0.6-2.6,1.3-3.8C152.9,150.5,153.9,149.5,155.1,148.7z"
					/>
			</g>
			<g>
				<g>
					<path fill="#F66BC6" d="M169.6,151.8C169.6,151.8,169.6,151.8,169.6,151.8c-0.2,1.4-0.5,2.6-1.2,3.8c-0.7,1.2-1.7,2.4-2.9,3.1
						c-0.9,0.6-1.9,1-3,1.2c-0.8,0.1-1.5,0.1-2.3,0.1c0,0,0.1,0,0.1,0c-0.1,0-0.3,0-0.4,0c-0.3,0-0.6-0.1-0.9-0.2
						c-0.5-0.2-1-0.4-1.5-0.6c-0.4-0.2-0.8-0.5-1.1-0.8c0.5-0.3,1-0.6,1.4-0.9c-0.1-0.1-0.3-0.2-0.4-0.2c-2.1-1.2-4.2-2.4-6.2-3.5
						c0,0.2,0,0.3,0,0.5c0.1,2.4,0.1,4.9,0.2,7.3c0.1-0.1,0.3-0.2,0.4-0.3c0.4-0.2,0.8-0.5,1.2-0.7c1.3,0.9,2.7,1.7,4.3,2
						c1.4,0.3,2.7,0.3,4.1,0.1c2.3-0.3,4.4-1.6,5.9-3.4c0.5-0.5,0.9-1.1,1.2-1.8c0.4-0.6,0.7-1.4,0.9-2.2c0.2-0.7,0.3-1.4,0.3-2.1
						C169.6,152.7,169.6,152.3,169.6,151.8z"/>
					<path fill="#F66BC6" d="M153.9,147.5c0.8-0.5,1.8-0.9,2.7-1.1c0.8-0.1,1.6-0.1,2.4-0.1c0,0-0.1,0-0.1,0c0.1,0,0.2,0,0.3,0
						c0.3,0,0.6,0.1,0.9,0.2c0.6,0.1,1.1,0.4,1.6,0.6c0.4,0.2,0.8,0.5,1.2,0.8c-0.5,0.3-1,0.6-1.4,0.9c0.1,0.1,0.3,0.2,0.4,0.2
						c2.1,1.2,4.2,2.4,6.3,3.5c0-0.2,0-0.3,0-0.5c-0.1-2.4-0.1-4.9-0.2-7.3c-0.1,0.1-0.3,0.2-0.4,0.3c-0.4,0.2-0.8,0.5-1.2,0.7
						c-1.3-1-2.8-1.7-4.4-2c-1.4-0.3-2.9-0.3-4.3,0c-1.3,0.3-2.5,0.8-3.5,1.5c-0.8,0.5-1.4,1.2-2,1.8c-1,1.1-1.6,2.5-2,3.9
						c-0.2,0.7-0.3,1.4-0.3,2.1c0,0.5,0,0.9,0,1.4c0-0.1,0-0.1,0-0.2c0.2-1.4,0.6-2.6,1.3-3.8C151.7,149.3,152.7,148.3,153.9,147.5z
						"/>
				</g>
			</g>
		</g>
	</g>
</g>
</svg>
