<?xml version="1.0" encoding="utf-8"?>
<!-- Generator: Adobe Illustrator 18.0.0, SVG Export Plug-In . SVG Version: 6.00 Build 0)  -->
<!DOCTYPE svg PUBLIC "-//W3C//DTD SVG 1.1//EN" "http://www.w3.org/Graphics/SVG/1.1/DTD/svg11.dtd">
<svg version="1.1" id="Layer_1" xmlns="http://www.w3.org/2000/svg" xmlns:xlink="http://www.w3.org/1999/xlink" x="0px" y="0px"
	 width="236.5px" height="360.8px" viewBox="0 0 236.5 360.8" enable-background="new 0 0 236.5 360.8" xml:space="preserve">
<g>
	<g opacity="0.2">
		<g>
			<circle cx="42.8" cy="98.7" r="19.2"/>
		</g>
	</g>
	<g opacity="0.2">
		<g>
			<circle cx="119.3" cy="98.7" r="19.2"/>
		</g>
	</g>
	<g opacity="0.2">
		<g>
			<path d="M207.5,44.7H33.6c-4.4,0-7.9-3.5-7.9-7.9V9.9c0-4.4,3.5-7.9,7.9-7.9h173.8c4.4,0,7.9,3.5,7.9,7.9v26.9
				C215.4,41.1,211.9,44.7,207.5,44.7z"/>
		</g>
	</g>
	<g opacity="0.2">
		<g>
			<g>
				<g>
					<g>
						<circle cx="24.7" cy="337.2" r="23.6"/>
					</g>
				</g>
				<g>
					<g>
						<circle cx="118.7" cy="337.2" r="23.6"/>
					</g>
				</g>
				<g>
					<g>
						<circle cx="212.8" cy="337.2" r="23.6"/>
					</g>
				</g>
			</g>
		</g>
	</g>
	<g opacity="0.2">
		<g>
			<path d="M200.7,282.4H39c-4.7,0-8.5-3.8-8.5-8.5v-48.6c0-4.7,3.8-8.5,8.5-8.5h161.7c4.7,0,8.5,3.8,8.5,8.5v48.6
				C209.2,278.6,205.4,282.4,200.7,282.4z"/>
		</g>
	</g>
	<g opacity="0.2">
		<g>
			<g>
				<path fill="#FFFFFF" d="M117.8,92.9c-0.2,0-0.4-0.2-0.4-0.4l-0.1-4c0-0.2,0.2-0.4,0.4-0.4c0,0,0,0,0,0c0.2,0,0.4,0.2,0.4,0.4
					l0.1,4C118.2,92.7,118,92.9,117.8,92.9C117.8,92.9,117.8,92.9,117.8,92.9z M117.6,84.9c-0.2,0-0.4-0.2-0.4-0.4l-0.1-4
					c0-0.2,0.2-0.4,0.4-0.4c0,0,0,0,0,0c0.2,0,0.4,0.2,0.4,0.4l0.1,4C118,84.7,117.8,84.9,117.6,84.9
					C117.6,84.9,117.6,84.9,117.6,84.9z M117.4,76.9c-0.2,0-0.4-0.2-0.4-0.4l-0.1-4c0-0.2,0.2-0.4,0.4-0.4c0.2,0,0.4,0.2,0.4,0.4
					l0.1,4C117.8,76.7,117.7,76.9,117.4,76.9C117.5,76.9,117.5,76.9,117.4,76.9z M117.3,68.9c-0.2,0-0.4-0.2-0.4-0.4l-0.1-4
					c0-0.2,0.2-0.4,0.4-0.4c0.2,0,0.4,0.2,0.4,0.4l0.1,4C117.7,68.8,117.5,68.9,117.3,68.9C117.3,68.9,117.3,68.9,117.3,68.9z
					 M117.1,61c-0.2,0-0.4-0.2-0.4-0.4l-0.1-4c0-0.2,0.2-0.4,0.4-0.4c0.3,0,0.4,0.2,0.4,0.4l0.1,4C117.5,60.8,117.3,61,117.1,61
					C117.1,61,117.1,61,117.1,61z M116.9,53c-0.2,0-0.4-0.2-0.4-0.4l-0.1-4c0-0.2,0.2-0.4,0.4-0.4c0,0,0,0,0,0
					c0.2,0,0.4,0.2,0.4,0.4l0.1,4C117.3,52.8,117.2,53,116.9,53C116.9,53,116.9,53,116.9,53z M116.8,45c-0.2,0-0.4-0.2-0.4-0.4
					l0-2.1c0-0.2,0.2-0.4,0.4-0.4c0,0,0,0,0,0c0.2,0,0.4,0.2,0.4,0.4l0,2.1C117.1,44.8,117,45,116.8,45C116.8,45,116.8,45,116.8,45z
					"/>
			</g>
		</g>
		<g>
			<g>
				<path fill="#FFFFFF" d="M34.9,86c-0.1,0-0.3-0.1-0.3-0.2c-0.1-0.2,0-0.4,0.2-0.5l3.5-1.9c0.2-0.1,0.4,0,0.5,0.2
					c0.1,0.2,0,0.4-0.2,0.5L35.1,86C35,86,34.9,86,34.9,86z M41.9,82.3c-0.1,0-0.3-0.1-0.3-0.2c-0.1-0.2,0-0.4,0.2-0.5l3.5-1.9
					c0.2-0.1,0.4,0,0.5,0.2s0,0.4-0.2,0.5l-3.5,1.9C42.1,82.3,42,82.3,41.9,82.3z M49,78.6c-0.1,0-0.3-0.1-0.3-0.2
					c-0.1-0.2,0-0.4,0.2-0.5l3.5-1.9c0.2-0.1,0.4,0,0.5,0.2s0,0.4-0.2,0.5l-3.5,1.9C49.1,78.6,49.1,78.6,49,78.6z M56.1,74.8
					c-0.1,0-0.3-0.1-0.3-0.2c-0.1-0.2,0-0.4,0.2-0.5l3.5-1.9c0.2-0.1,0.4,0,0.5,0.2c0.1,0.2,0,0.4-0.2,0.5l-3.5,1.9
					C56.2,74.8,56.1,74.8,56.1,74.8z M63.1,71.1c-0.1,0-0.3-0.1-0.3-0.2c-0.1-0.2,0-0.4,0.2-0.5l3.5-1.9c0.2-0.1,0.4,0,0.5,0.2
					c0.1,0.2,0,0.4-0.2,0.5l-3.5,1.9C63.2,71.1,63.2,71.1,63.1,71.1z M70.2,67.4c-0.1,0-0.3-0.1-0.3-0.2c-0.1-0.2,0-0.4,0.2-0.5
					l3.5-1.9c0.2-0.1,0.4,0,0.5,0.2c0.1,0.2,0,0.4-0.2,0.5l-3.5,1.9C70.3,67.4,70.2,67.4,70.2,67.4z M77.2,63.7
					c-0.1,0-0.3-0.1-0.3-0.2c-0.1-0.2,0-0.4,0.2-0.5l3.5-1.9c0.2-0.1,0.4,0,0.5,0.2s0,0.4-0.2,0.5l-3.5,1.9
					C77.4,63.7,77.3,63.7,77.2,63.7z M84.3,60c-0.1,0-0.3-0.1-0.3-0.2c-0.1-0.2,0-0.4,0.2-0.5l3.5-1.9c0.2-0.1,0.4,0,0.5,0.2
					c0.1,0.2,0,0.4-0.2,0.5l-3.5,1.9C84.4,59.9,84.4,60,84.3,60z M91.3,56.2c-0.1,0-0.3-0.1-0.3-0.2c-0.1-0.2,0-0.4,0.2-0.5l3.5-1.9
					c0.2-0.1,0.4,0,0.5,0.2c0.1,0.2,0,0.4-0.2,0.5l-3.5,1.9C91.5,56.2,91.4,56.2,91.3,56.2z M98.4,52.5c-0.1,0-0.3-0.1-0.3-0.2
					c-0.1-0.2,0-0.4,0.2-0.5l3.5-1.9c0.2-0.1,0.4,0,0.5,0.2c0.1,0.2,0,0.4-0.2,0.5l-3.5,1.9C98.5,52.5,98.5,52.5,98.4,52.5z
					 M105.5,48.8c-0.1,0-0.3-0.1-0.3-0.2c-0.1-0.2,0-0.4,0.2-0.5l3.5-1.9c0.2-0.1,0.4,0,0.5,0.2c0.1,0.2,0,0.4-0.2,0.5l-3.5,1.9
					C105.6,48.8,105.5,48.8,105.5,48.8z M112.5,45.1c-0.1,0-0.3-0.1-0.3-0.2c-0.1-0.2,0-0.4,0.2-0.5l3.5-1.9c0.2-0.1,0.4,0,0.5,0.2
					c0.1,0.2,0,0.4-0.2,0.5l-3.5,1.9C112.6,45.1,112.6,45.1,112.5,45.1z"/>
			</g>
		</g>
		<g>
			<g>
				<path fill="#FFFFFF" d="M189.1,79.5c-0.1,0-0.1,0-0.2,0l-3.6-1.8c-0.2-0.1-0.3-0.3-0.2-0.5c0.1-0.2,0.3-0.3,0.5-0.2l3.6,1.8
					c0.2,0.1,0.3,0.3,0.2,0.5C189.4,79.4,189.3,79.5,189.1,79.5z M182,75.9c-0.1,0-0.1,0-0.2,0l-3.6-1.8c-0.2-0.1-0.3-0.3-0.2-0.5
					c0.1-0.2,0.3-0.3,0.5-0.2l3.6,1.8c0.2,0.1,0.3,0.3,0.2,0.5C182.3,75.8,182.2,75.9,182,75.9z M174.9,72.3c-0.1,0-0.1,0-0.2,0
					l-3.6-1.8c-0.2-0.1-0.3-0.3-0.2-0.5c0.1-0.2,0.3-0.3,0.5-0.2l3.6,1.8c0.2,0.1,0.3,0.3,0.2,0.5C175.2,72.2,175,72.3,174.9,72.3z
					 M167.8,68.7c-0.1,0-0.1,0-0.2,0l-3.6-1.8c-0.2-0.1-0.3-0.3-0.2-0.5c0.1-0.2,0.3-0.3,0.5-0.2l3.6,1.8c0.2,0.1,0.3,0.3,0.2,0.5
					C168.1,68.6,167.9,68.7,167.8,68.7z M160.7,65.1c-0.1,0-0.1,0-0.2,0l-3.6-1.8c-0.2-0.1-0.3-0.3-0.2-0.5c0.1-0.2,0.3-0.3,0.5-0.2
					l3.6,1.8c0.2,0.1,0.3,0.3,0.2,0.5C160.9,65,160.8,65.1,160.7,65.1z M153.5,61.5c-0.1,0-0.1,0-0.2,0l-3.6-1.8
					c-0.2-0.1-0.3-0.3-0.2-0.5c0.1-0.2,0.3-0.3,0.5-0.2l3.6,1.8c0.2,0.1,0.3,0.3,0.2,0.5C153.8,61.4,153.7,61.5,153.5,61.5z
					 M146.4,57.8c-0.1,0-0.1,0-0.2,0l-3.6-1.8c-0.2-0.1-0.3-0.3-0.2-0.5c0.1-0.2,0.3-0.3,0.5-0.2l3.6,1.8c0.2,0.1,0.3,0.3,0.2,0.5
					C146.7,57.8,146.6,57.8,146.4,57.8z M139.3,54.2c-0.1,0-0.1,0-0.2,0l-3.6-1.8c-0.2-0.1-0.3-0.3-0.2-0.5c0.1-0.2,0.3-0.3,0.5-0.2
					l3.6,1.8c0.2,0.1,0.3,0.3,0.2,0.5C139.6,54.2,139.5,54.2,139.3,54.2z M132.2,50.6c-0.1,0-0.1,0-0.2,0l-3.6-1.8
					c-0.2-0.1-0.3-0.3-0.2-0.5c0.1-0.2,0.3-0.3,0.5-0.2l3.6,1.8c0.2,0.1,0.3,0.3,0.2,0.5C132.5,50.6,132.3,50.6,132.2,50.6z
					 M125.1,47c-0.1,0-0.1,0-0.2,0l-3.6-1.8c-0.2-0.1-0.3-0.3-0.2-0.5c0.1-0.2,0.3-0.3,0.5-0.2l3.6,1.8c0.2,0.1,0.3,0.3,0.2,0.5
					C125.4,46.9,125.2,47,125.1,47z M118,43.4c-0.1,0-0.1,0-0.2,0l-1.2-0.6c-0.2-0.1-0.3-0.3-0.2-0.5c0.1-0.2,0.3-0.3,0.5-0.2
					l1.2,0.6c0.2,0.1,0.3,0.3,0.2,0.5C118.2,43.3,118.1,43.4,118,43.4z"/>
			</g>
		</g>
	</g>
	<g>
		<g>
			<g>
				<circle fill="#00B0C2" cx="41.1" cy="97.2" r="19.2"/>
			</g>
		</g>
		<g>
			<g>
				<circle fill="#00B0C2" cx="117.6" cy="97.2" r="19.2"/>
			</g>
		</g>
		<g>
			<g>
				<path fill="#AC9BFB" d="M205.2,42.7H31.4c-4.4,0-7.9-3.5-7.9-7.9V7.9C23.5,3.5,27,0,31.4,0h173.8c4.4,0,7.9,3.5,7.9,7.9v26.9
					C213.1,39.1,209.6,42.7,205.2,42.7z"/>
			</g>
		</g>
		<g>
			<g>
				<g>
					<g>
						<g>
							<circle fill="#00B0C2" cx="23.6" cy="336.1" r="23.6"/>
						</g>
					</g>
					<g>
						<g>
							<circle fill="#00B0C2" cx="117.6" cy="336.1" r="23.6"/>
						</g>
					</g>
					<g>
						<g>
							<circle fill="#FF5FAC" cx="211.7" cy="336.1" r="23.6"/>
						</g>
					</g>
				</g>
			</g>
		</g>
		<g>
			<g>
				<path fill="#00B0C2" d="M198.4,280.4H36.7c-4.7,0-8.5-3.8-8.5-8.5v-48.6c0-4.7,3.8-8.5,8.5-8.5h161.7c4.7,0,8.5,3.8,8.5,8.5
					v48.6C206.9,276.6,203.1,280.4,198.4,280.4z"/>
			</g>
		</g>
		<g>
			<g>
				<circle fill="#00B0C2" cx="41.1" cy="97.2" r="19.2"/>
			</g>
		</g>
		<g>
			<g>
				<circle fill="#00B0C2" cx="117.6" cy="97.2" r="19.2"/>
			</g>
		</g>
		<g opacity="0.2">
			<g>
				<g>
					<path d="M195.6,118.4c-10.9,0-19.7-8.8-19.7-19.7c0-10.9,8.8-19.7,19.7-19.7c10.9,0,19.7,8.8,19.7,19.7
						C215.3,109.5,206.5,118.4,195.6,118.4z M195.6,79.9c-10.3,0-18.7,8.4-18.7,18.7s8.4,18.7,18.7,18.7c10.3,0,18.7-8.4,18.7-18.7
						S205.9,79.9,195.6,79.9z"/>
				</g>
			</g>
		</g>
		<g>
			<g>
				<path fill="#AC9BFB" d="M194.2,117c-10.9,0-19.7-8.8-19.7-19.7s8.8-19.7,19.7-19.7s19.7,8.8,19.7,19.7S205.1,117,194.2,117z
					 M194.2,78.5c-10.3,0-18.7,8.4-18.7,18.7s8.4,18.7,18.7,18.7s18.7-8.4,18.7-18.7S204.5,78.5,194.2,78.5z"/>
			</g>
		</g>
		<g>
			<g>
				<path fill="#AC9BFB" d="M205.2,42.7H31.4c-4.4,0-7.9-3.5-7.9-7.9V7.9C23.5,3.5,27,0,31.4,0h173.8c4.4,0,7.9,3.5,7.9,7.9v26.9
					C213.1,39.1,209.6,42.7,205.2,42.7z"/>
			</g>
		</g>
		<g>
			<g>
				<g>
					<path fill="#FFFFFF" d="M107.3,14.1h3.8v13.7h-3.8V14.1z"/>
				</g>
				<g>
					<path fill="#FFFFFF" d="M113.9,14.1h6.5c1.6,0,2.8,0.3,4,0.8c1.1,0.6,2.1,1.4,2.7,2.4c0.7,1,1,2.3,1,3.7s-0.3,2.5-1,3.7
						c-0.7,1-1.6,1.8-2.7,2.4c-1.1,0.6-2.5,0.8-4,0.8h-6.5V14.1z M120.3,24.7c1.1,0,2.1-0.3,2.8-1s1.1-1.6,1.1-2.7s-0.4-2.1-1.1-2.7
						c-0.7-0.7-1.7-1-2.8-1h-2.4v7.5h2.4V24.7z"/>
				</g>
			</g>
		</g>
		<g>
			<g>
				<g>
					<path fill="#FFFFFF" d="M107.8,89.9h3.8v13.7h-3.8V89.9z"/>
				</g>
				<g>
					<path fill="#FFFFFF" d="M114.5,89.9h6.5c1.6,0,2.8,0.3,4,0.8c1.1,0.6,2.1,1.4,2.7,2.4c0.7,1,1,2.3,1,3.7c0,1.4-0.3,2.5-1,3.7
						c-0.7,1-1.6,1.8-2.7,2.4s-2.5,0.8-4,0.8h-6.5V89.9z M120.8,100.5c1.1,0,2.1-0.3,2.8-1c0.7-0.7,1.1-1.6,1.1-2.7
						c0-1.1-0.4-2.1-1.1-2.7c-0.7-0.7-1.7-1-2.8-1h-2.4v7.5h2.4V100.5z"/>
				</g>
			</g>
		</g>
		<g>
			<g>
				<g>
					<path fill="#FFFFFF" d="M32.7,90.3h3.8V104h-3.8V90.3z"/>
				</g>
				<g>
					<path fill="#FFFFFF" d="M39.3,90.3h6.5c1.6,0,2.8,0.3,4,0.8c1.1,0.6,2.1,1.4,2.7,2.4c0.7,1,1,2.3,1,3.7c0,1.4-0.3,2.5-1,3.7
						c-0.7,1-1.6,1.8-2.7,2.4s-2.5,0.8-4,0.8h-6.5V90.3z M45.7,100.9c1.1,0,2.1-0.3,2.8-1c0.7-0.7,1.1-1.6,1.1-2.7
						c0-1.1-0.4-2.1-1.1-2.7c-0.7-0.7-1.7-1-2.8-1h-2.4v7.5h2.4V100.9z"/>
				</g>
			</g>
		</g>
	</g>
	<g opacity="0.2">
		<g>
			<g>
				<path fill="#FFFFFF" d="M117.8,330.5c-0.2,0-0.4-0.2-0.4-0.4l-0.1-4c0-0.2,0.2-0.4,0.4-0.4c0,0,0,0,0,0c0.2,0,0.4,0.2,0.4,0.4
					l0.1,4C118.2,330.4,118,330.5,117.8,330.5C117.8,330.5,117.8,330.5,117.8,330.5z M117.6,322.6c-0.2,0-0.4-0.2-0.4-0.4l-0.1-4
					c0-0.2,0.2-0.4,0.4-0.4c0,0,0,0,0,0c0.2,0,0.4,0.2,0.4,0.4l0.1,4C118,322.4,117.8,322.6,117.6,322.6
					C117.6,322.6,117.6,322.6,117.6,322.6z M117.4,314.6c-0.2,0-0.4-0.2-0.4-0.4l-0.1-4c0-0.2,0.2-0.4,0.4-0.4
					c0.2,0,0.4,0.2,0.4,0.4l0.1,4C117.8,314.4,117.7,314.6,117.4,314.6C117.5,314.6,117.5,314.6,117.4,314.6z M117.3,306.6
					c-0.2,0-0.4-0.2-0.4-0.4l-0.1-4c0-0.2,0.2-0.4,0.4-0.4c0.2,0,0.4,0.2,0.4,0.4l0.1,4C117.7,306.4,117.5,306.6,117.3,306.6
					C117.3,306.6,117.3,306.6,117.3,306.6z M117.1,298.6c-0.2,0-0.4-0.2-0.4-0.4l-0.1-4c0-0.2,0.2-0.4,0.4-0.4
					c0.3,0,0.4,0.2,0.4,0.4l0.1,4C117.5,298.5,117.3,298.6,117.1,298.6C117.1,298.6,117.1,298.6,117.1,298.6z M116.9,290.7
					c-0.2,0-0.4-0.2-0.4-0.4l-0.1-4c0-0.2,0.2-0.4,0.4-0.4c0,0,0,0,0,0c0.2,0,0.4,0.2,0.4,0.4l0.1,4
					C117.3,290.5,117.2,290.6,116.9,290.7C116.9,290.7,116.9,290.7,116.9,290.7z M116.8,282.7c-0.2,0-0.4-0.2-0.4-0.4l0-2.1
					c0-0.2,0.2-0.4,0.4-0.4c0,0,0,0,0,0c0.2,0,0.4,0.2,0.4,0.4l0,2.1C117.1,282.5,117,282.7,116.8,282.7
					C116.8,282.7,116.8,282.7,116.8,282.7z"/>
			</g>
		</g>
		<g>
			<g>
				<path fill="#FFFFFF" d="M34.9,323.7c-0.1,0-0.3-0.1-0.3-0.2c-0.1-0.2,0-0.4,0.2-0.5l3.5-1.9c0.2-0.1,0.4,0,0.5,0.2
					c0.1,0.2,0,0.4-0.2,0.5l-3.5,1.9C35,323.7,34.9,323.7,34.9,323.7z M41.9,320c-0.1,0-0.3-0.1-0.3-0.2c-0.1-0.2,0-0.4,0.2-0.5
					l3.5-1.9c0.2-0.1,0.4,0,0.5,0.2c0.1,0.2,0,0.4-0.2,0.5l-3.5,1.9C42.1,319.9,42,320,41.9,320z M49,316.2c-0.1,0-0.3-0.1-0.3-0.2
					c-0.1-0.2,0-0.4,0.2-0.5l3.5-1.9c0.2-0.1,0.4,0,0.5,0.2c0.1,0.2,0,0.4-0.2,0.5l-3.5,1.9C49.1,316.2,49.1,316.2,49,316.2z
					 M56.1,312.5c-0.1,0-0.3-0.1-0.3-0.2c-0.1-0.2,0-0.4,0.2-0.5l3.5-1.9c0.2-0.1,0.4,0,0.5,0.2c0.1,0.2,0,0.4-0.2,0.5l-3.5,1.9
					C56.2,312.5,56.1,312.5,56.1,312.5z M63.1,308.8c-0.1,0-0.3-0.1-0.3-0.2c-0.1-0.2,0-0.4,0.2-0.5l3.5-1.9c0.2-0.1,0.4,0,0.5,0.2
					c0.1,0.2,0,0.4-0.2,0.5l-3.5,1.9C63.2,308.8,63.2,308.8,63.1,308.8z M70.2,305.1c-0.1,0-0.3-0.1-0.3-0.2c-0.1-0.2,0-0.4,0.2-0.5
					l3.5-1.9c0.2-0.1,0.4,0,0.5,0.2c0.1,0.2,0,0.4-0.2,0.5l-3.5,1.9C70.3,305.1,70.2,305.1,70.2,305.1z M77.2,301.3
					c-0.1,0-0.3-0.1-0.3-0.2c-0.1-0.2,0-0.4,0.2-0.5l3.5-1.9c0.2-0.1,0.4,0,0.5,0.2c0.1,0.2,0,0.4-0.2,0.5l-3.5,1.9
					C77.4,301.3,77.3,301.3,77.2,301.3z M84.3,297.6c-0.1,0-0.3-0.1-0.3-0.2c-0.1-0.2,0-0.4,0.2-0.5l3.5-1.9c0.2-0.1,0.4,0,0.5,0.2
					c0.1,0.2,0,0.4-0.2,0.5l-3.5,1.9C84.4,297.6,84.4,297.6,84.3,297.6z M91.3,293.9c-0.1,0-0.3-0.1-0.3-0.2c-0.1-0.2,0-0.4,0.2-0.5
					l3.5-1.9c0.2-0.1,0.4,0,0.5,0.2c0.1,0.2,0,0.4-0.2,0.5l-3.5,1.9C91.5,293.9,91.4,293.9,91.3,293.9z M98.4,290.2
					c-0.1,0-0.3-0.1-0.3-0.2c-0.1-0.2,0-0.4,0.2-0.5l3.5-1.9c0.2-0.1,0.4,0,0.5,0.2c0.1,0.2,0,0.4-0.2,0.5l-3.5,1.9
					C98.5,290.2,98.5,290.2,98.4,290.2z M105.5,286.5c-0.1,0-0.3-0.1-0.3-0.2c-0.1-0.2,0-0.4,0.2-0.5l3.5-1.9c0.2-0.1,0.4,0,0.5,0.2
					c0.1,0.2,0,0.4-0.2,0.5l-3.5,1.9C105.6,286.5,105.5,286.5,105.5,286.5z M112.5,282.7c-0.1,0-0.3-0.1-0.3-0.2
					c-0.1-0.2,0-0.4,0.2-0.5l3.5-1.9c0.2-0.1,0.4,0,0.5,0.2c0.1,0.2,0,0.4-0.2,0.5l-3.5,1.9C112.6,282.7,112.6,282.7,112.5,282.7z"
					/>
			</g>
		</g>
		<g>
			<g>
				<path fill="#FFFFFF" d="M195.5,319.5c-0.1,0-0.1,0-0.2,0l-3.6-1.8c-0.2-0.1-0.3-0.3-0.2-0.5c0.1-0.2,0.3-0.3,0.5-0.2l3.6,1.8
					c0.2,0.1,0.3,0.3,0.2,0.5C195.7,319.4,195.6,319.5,195.5,319.5z M188.3,315.9c-0.1,0-0.1,0-0.2,0l-3.6-1.8
					c-0.2-0.1-0.3-0.3-0.2-0.5s0.3-0.3,0.5-0.2l3.6,1.8c0.2,0.1,0.3,0.3,0.2,0.5C188.6,315.9,188.5,315.9,188.3,315.9z M181.2,312.4
					c-0.1,0-0.1,0-0.2,0l-3.6-1.8c-0.2-0.1-0.3-0.3-0.2-0.5s0.3-0.3,0.5-0.2l3.6,1.8c0.2,0.1,0.3,0.3,0.2,0.5
					C181.4,312.3,181.3,312.4,181.2,312.4z M174,308.9c-0.1,0-0.1,0-0.2,0l-3.6-1.8c-0.2-0.1-0.3-0.3-0.2-0.5
					c0.1-0.2,0.3-0.3,0.5-0.2l3.6,1.8c0.2,0.1,0.3,0.3,0.2,0.5C174.3,308.8,174.2,308.9,174,308.9z M166.9,305.3c-0.1,0-0.1,0-0.2,0
					l-3.6-1.8c-0.2-0.1-0.3-0.3-0.2-0.5c0.1-0.2,0.3-0.3,0.5-0.2l3.6,1.8c0.2,0.1,0.3,0.3,0.2,0.5
					C167.1,305.2,167,305.3,166.9,305.3z M159.7,301.8c-0.1,0-0.1,0-0.2,0L156,300c-0.2-0.1-0.3-0.3-0.2-0.5s0.3-0.3,0.5-0.2
					l3.6,1.8c0.2,0.1,0.3,0.3,0.2,0.5C160,301.7,159.9,301.8,159.7,301.8z M152.6,298.2c-0.1,0-0.1,0-0.2,0l-3.6-1.8
					c-0.2-0.1-0.3-0.3-0.2-0.5c0.1-0.2,0.3-0.3,0.5-0.2l3.6,1.8c0.2,0.1,0.3,0.3,0.2,0.5C152.8,298.1,152.7,298.2,152.6,298.2z
					 M145.4,294.7c-0.1,0-0.1,0-0.2,0l-3.6-1.8c-0.2-0.1-0.3-0.3-0.2-0.5c0.1-0.2,0.3-0.3,0.5-0.2l3.6,1.8c0.2,0.1,0.3,0.3,0.2,0.5
					C145.7,294.6,145.6,294.7,145.4,294.7z M138.3,291.1c-0.1,0-0.1,0-0.2,0l-3.6-1.8c-0.2-0.1-0.3-0.3-0.2-0.5
					c0.1-0.2,0.3-0.3,0.5-0.2l3.6,1.8c0.2,0.1,0.3,0.3,0.2,0.5C138.6,291.1,138.4,291.1,138.3,291.1z M131.1,287.6
					c-0.1,0-0.1,0-0.2,0l-3.6-1.8c-0.2-0.1-0.3-0.3-0.2-0.5c0.1-0.2,0.3-0.3,0.5-0.2l3.6,1.8c0.2,0.1,0.3,0.3,0.2,0.5
					C131.4,287.5,131.3,287.6,131.1,287.6z M124,284c-0.1,0-0.1,0-0.2,0l-3.6-1.8c-0.2-0.1-0.3-0.3-0.2-0.5c0.1-0.2,0.3-0.3,0.5-0.2
					l3.6,1.8c0.2,0.1,0.3,0.3,0.2,0.5C124.3,284,124.1,284,124,284z M116.8,280.5c-0.1,0-0.1,0-0.2,0l0,0c-0.2-0.1-0.3-0.3-0.2-0.5
					c0.1-0.2,0.3-0.3,0.5-0.2c0.2,0.1,0.3,0.3,0.2,0.5C117.1,280.4,117,280.5,116.8,280.5z"/>
			</g>
		</g>
	</g>
	<g>
		<g>
			<g>
				<g>
					<g>
						<circle fill="#00B0C2" cx="23.6" cy="336.1" r="23.6"/>
					</g>
				</g>
				<g>
					<g>
						<circle fill="#00B0C2" cx="117.6" cy="336.1" r="23.6"/>
					</g>
				</g>
				<g>
					<g>
						<circle fill="#FF5FAC" cx="211.7" cy="336.1" r="23.6"/>
					</g>
				</g>
			</g>
		</g>
	</g>
	<g>
		<g>
			<path fill="#00B0C2" d="M198.4,280.4H36.7c-4.7,0-8.5-3.8-8.5-8.5v-48.6c0-4.7,3.8-8.5,8.5-8.5h161.7c4.7,0,8.5,3.8,8.5,8.5v48.6
				C206.9,276.6,203.1,280.4,198.4,280.4z"/>
		</g>
	</g>
	<g opacity="0.2">
		<g>
			<g>
				<path d="M129.7,140.1L129.7,140.1c-0.3,1.8-0.7,3.5-1.6,5.2c-1,1.7-2.3,3.3-4,4.2c-1.3,0.8-2.7,1.4-4.1,1.7
					c-1,0.1-2.1,0.1-3.1,0.1h0.1c-0.1,0-0.3,0-0.4,0c-0.4,0-0.8-0.1-1.3-0.3c-0.7-0.1-1.4-0.4-2.1-0.8c-0.6-0.3-1-0.7-1.6-1
					c0.7-0.4,1.3-0.8,2-1.3c-0.1-0.1-0.4-0.3-0.6-0.3c-2.8-1.6-5.7-3.3-8.5-4.8c0,0.3,0,0.4,0,0.7c0,3.4,0.1,6.6,0.1,10
					c0.1-0.1,0.4-0.3,0.6-0.3c0.6-0.3,1-0.7,1.6-1c1.7,1.3,3.7,2.3,5.8,2.7c1.8,0.4,3.7,0.4,5.7,0.1c3.1-0.4,5.9-2.3,8.2-4.7
					c0.7-0.7,1.1-1.6,1.7-2.4c0.6-0.8,1-2,1.1-3c0.3-1,0.4-2,0.4-3C129.8,141.4,129.8,140.7,129.7,140.1z"/>
			</g>
			<g>
				<path d="M108.4,134.2c1.1-0.7,2.4-1.3,3.8-1.4c1.1-0.1,2.1-0.1,3.3-0.1h-0.1c0.1,0,0.3,0,0.3,0c0.4,0,0.8,0.1,1.1,0.3
					c0.7,0.1,1.6,0.4,2.1,0.8c0.6,0.3,1.1,0.7,1.6,1.1c-0.7,0.4-1.3,0.8-2,1.3c0.1,0.1,0.4,0.3,0.6,0.3c2.8,1.6,5.7,3.3,8.6,4.8
					c0-0.3,0-0.4,0-0.7c-0.1-3.4-0.1-6.6-0.3-10c-0.1,0.1-0.4,0.3-0.6,0.3c-0.6,0.3-1,0.7-1.6,1c-1.8-1.3-3.8-2.4-6.1-2.8
					c-2-0.4-4-0.4-5.9,0c-1.7,0.4-3.4,1.1-4.8,2.1c-1,0.7-2,1.6-2.8,2.5c-1.3,1.4-2.3,3.4-2.8,5.2c-0.3,1-0.4,2-0.4,3
					c0,0.7,0,1.3,0,2c0-0.1,0-0.1,0-0.3c0.3-1.8,0.8-3.7,1.7-5.2C105.3,136.6,106.7,135.2,108.4,134.2z"/>
			</g>
		</g>
	</g>
	<g>
		<g>
			<g>
				<path fill="#FF5FAC" d="M128.9,139.3L128.9,139.3c-0.3,1.8-0.7,3.5-1.6,5.2c-1,1.7-2.3,3.3-4,4.2c-1.3,0.8-2.7,1.4-4.1,1.7
					c-1,0.1-2.1,0.1-3.1,0.1h0.1c-0.1,0-0.3,0-0.4,0c-0.4,0-0.8-0.1-1.3-0.3c-0.7-0.1-1.4-0.4-2.1-0.8c-0.6-0.3-1-0.7-1.6-1
					c0.7-0.4,1.3-0.8,2-1.3c-0.1-0.1-0.4-0.3-0.6-0.3c-2.8-1.6-5.7-3.3-8.5-4.8c0,0.3,0,0.4,0,0.7c0,3.4,0.1,6.6,0.1,10
					c0.1-0.1,0.4-0.3,0.6-0.3c0.6-0.3,1-0.7,1.6-1c1.7,1.3,3.7,2.3,5.8,2.7c1.8,0.4,3.7,0.4,5.7,0.1c3.1-0.4,5.9-2.3,8.2-4.7
					c0.7-0.7,1.1-1.6,1.7-2.4c0.6-0.8,1-2,1.1-3c0.3-1,0.4-2,0.4-3C129,140.5,129,139.8,128.9,139.3z"/>
			</g>
			<g>
				<path fill="#FF5FAC" d="M107.5,133.3c1.1-0.7,2.4-1.3,3.8-1.4c1.1-0.1,2.1-0.1,3.3-0.1h-0.1c0.1,0,0.3,0,0.3,0
					c0.4,0,0.8,0.1,1.1,0.3c0.7,0.1,1.6,0.4,2.1,0.8c0.6,0.3,1.1,0.7,1.6,1.1c-0.7,0.4-1.3,0.8-2,1.3c0.1,0.1,0.4,0.3,0.6,0.3
					c2.8,1.6,5.7,3.3,8.6,4.8c0-0.3,0-0.4,0-0.7c-0.1-3.4-0.1-6.6-0.3-10c-0.1,0.1-0.4,0.3-0.6,0.3c-0.6,0.3-1,0.7-1.6,1
					c-1.8-1.3-3.8-2.4-6.1-2.8c-2-0.4-4-0.4-5.9,0c-1.7,0.4-3.4,1.1-4.8,2.1c-1,0.7-2,1.6-2.8,2.5c-1.3,1.4-2.3,3.4-2.8,5.2
					c-0.3,1-0.4,2-0.4,3c0,0.7,0,1.3,0,2c0-0.1,0-0.1,0-0.3c0.3-1.8,0.8-3.7,1.7-5.2C104.4,135.7,105.8,134.3,107.5,133.3z"/>
			</g>
		</g>
	</g>
	<g>
		<g>
			<g>
				<path fill="#FFFFFF" d="M99.4,233.7h6.7v24.1h-6.7V233.7z"/>
			</g>
			<g>
				<path fill="#FFFFFF" d="M111.1,233.7h11.4c2.7,0,5,0.5,7,1.5c2,1,3.7,2.5,4.7,4.2c1.2,1.7,1.7,4,1.7,6.5c0,2.5-0.5,4.5-1.7,6.5
					c-1.2,1.7-2.7,3.2-4.7,4.2c-2,1-4.5,1.5-7,1.5h-11.4V233.7z M122.3,252.4c2,0,3.7-0.5,5-1.7c1.2-1.2,2-2.7,2-4.7
					c0-2-0.7-3.7-2-4.7c-1.2-1.2-3-1.7-5-1.7H118v13.2h4.2V252.4z"/>
			</g>
		</g>
	</g>
	<polygon fill="#FFFFFF" points="143.6,21.6 143.2,21.4 143.2,18.3 137.1,14.2 137.1,14.2 131,18.3 130.9,18.3 130.9,21.5 
		135.6,18.5 135.6,27.6 138.6,27.6 138.6,18.6 143.1,21.4 143.1,21.6 	"/>
	<g opacity="0.2">
		<g>
			<g>
				<path d="M226.9,334.5L226.9,334.5c-0.3,1.8-0.7,3.5-1.6,5.2c-1,1.7-2.3,3.3-4,4.2c-1.3,0.8-2.7,1.4-4.1,1.7
					c-1,0.1-2.1,0.1-3.1,0.1h0.1c-0.1,0-0.3,0-0.4,0c-0.4,0-0.8-0.1-1.3-0.3c-0.7-0.1-1.4-0.4-2.1-0.8c-0.6-0.3-1-0.7-1.6-1
					c0.7-0.4,1.3-0.8,2-1.3c-0.1-0.1-0.4-0.3-0.6-0.3c-2.8-1.6-5.7-3.3-8.5-4.8c0,0.3,0,0.4,0,0.7c0,3.4,0.1,6.6,0.1,10
					c0.1-0.1,0.4-0.3,0.6-0.3c0.6-0.3,1-0.7,1.6-1c1.7,1.3,3.7,2.3,5.8,2.7c1.8,0.4,3.7,0.4,5.7,0.1c3.1-0.4,5.9-2.3,8.2-4.7
					c0.7-0.7,1.1-1.6,1.7-2.4c0.6-0.8,1-2,1.1-3c0.3-1,0.4-2,0.4-3C227.1,335.7,227.1,335,226.9,334.5z"/>
			</g>
			<g>
				<path d="M205.6,328.5c1.1-0.7,2.4-1.3,3.8-1.4c1.1-0.1,2.1-0.1,3.3-0.1h-0.1c0.1,0,0.3,0,0.3,0c0.4,0,0.8,0.1,1.1,0.3
					c0.7,0.1,1.6,0.4,2.1,0.8c0.6,0.3,1.1,0.7,1.6,1.1c-0.7,0.4-1.3,0.8-2,1.3c0.1,0.1,0.4,0.3,0.6,0.3c2.8,1.6,5.7,3.3,8.6,4.8
					c0-0.3,0-0.4,0-0.7c-0.1-3.4-0.1-6.6-0.3-10c-0.1,0.1-0.4,0.3-0.6,0.3c-0.6,0.3-1,0.7-1.6,1c-1.8-1.3-3.8-2.4-6.1-2.8
					c-2-0.4-4-0.4-5.9,0c-1.7,0.4-3.4,1.1-4.8,2.1c-1,0.7-2,1.6-2.8,2.5c-1.3,1.4-2.3,3.4-2.8,5.2c-0.3,1-0.4,2-0.4,3
					c0,0.7,0,1.3,0,2c0-0.1,0-0.1,0-0.3c0.3-1.8,0.8-3.7,1.7-5.2C202.5,330.9,203.9,329.5,205.6,328.5z"/>
			</g>
		</g>
	</g>
	<g>
		<g>
			<g>
				<path fill="#FFFFFF" d="M226.1,333.6L226.1,333.6c-0.3,1.8-0.7,3.5-1.6,5.2c-1,1.7-2.3,3.3-4,4.2c-1.3,0.8-2.7,1.4-4.1,1.7
					c-1,0.1-2.1,0.1-3.1,0.1h0.1c-0.1,0-0.3,0-0.4,0c-0.4,0-0.8-0.1-1.3-0.3c-0.7-0.1-1.4-0.4-2.1-0.8c-0.6-0.3-1-0.7-1.6-1
					c0.7-0.4,1.3-0.8,2-1.3c-0.1-0.1-0.4-0.3-0.6-0.3c-2.8-1.6-5.7-3.3-8.5-4.8c0,0.3,0,0.4,0,0.7c0,3.4,0.1,6.6,0.1,10
					c0.1-0.1,0.4-0.3,0.6-0.3c0.6-0.3,1-0.7,1.6-1c1.7,1.3,3.7,2.3,5.8,2.7c1.8,0.4,3.7,0.4,5.7,0.1c3.1-0.4,5.9-2.3,8.2-4.7
					c0.7-0.7,1.1-1.6,1.7-2.4c0.6-0.8,1-2,1.1-3c0.3-1,0.4-2,0.4-3C226.2,334.9,226.2,334.2,226.1,333.6z"/>
			</g>
			<g>
				<path fill="#FFFFFF" d="M204.7,327.7c1.1-0.7,2.4-1.3,3.8-1.4c1.1-0.1,2.1-0.1,3.3-0.1h-0.1c0.1,0,0.3,0,0.3,0
					c0.4,0,0.8,0.1,1.1,0.3c0.7,0.1,1.6,0.4,2.1,0.8c0.6,0.3,1.1,0.7,1.6,1.1c-0.7,0.4-1.3,0.8-2,1.3c0.1,0.1,0.4,0.3,0.6,0.3
					c2.8,1.6,5.7,3.3,8.6,4.8c0-0.3,0-0.4,0-0.7c-0.1-3.4-0.1-6.6-0.3-10c-0.1,0.1-0.4,0.3-0.6,0.3c-0.6,0.3-1,0.7-1.6,1
					c-1.8-1.3-3.8-2.4-6.1-2.8c-2-0.4-4-0.4-5.9,0c-1.7,0.4-3.4,1.1-4.8,2.1c-1,0.7-2,1.6-2.8,2.5c-1.3,1.4-2.3,3.4-2.8,5.2
					c-0.3,1-0.4,2-0.4,3c0,0.7,0,1.3,0,2c0-0.1,0-0.1,0-0.3c0.3-1.8,0.8-3.7,1.7-5.2C201.6,330.1,203,328.7,204.7,327.7z"/>
			</g>
		</g>
	</g>
</g>
</svg>
