<?xml version="1.0" encoding="utf-8"?>
<!-- Generator: Adobe Illustrator 18.0.0, SVG Export Plug-In . SVG Version: 6.00 Build 0)  -->
<!DOCTYPE svg PUBLIC "-//W3C//DTD SVG 1.1//EN" "http://www.w3.org/Graphics/SVG/1.1/DTD/svg11.dtd">
<svg version="1.1" id="Layer_1" xmlns="http://www.w3.org/2000/svg" xmlns:xlink="http://www.w3.org/1999/xlink" x="0px" y="0px"
	 width="30px" height="30px" viewBox="0 0 30 30" enable-background="new 0 0 30 30" xml:space="preserve">
<g>
	<g opacity="0.2">
		<circle cx="15.4" cy="15.4" r="14"/>
	</g>
	<g>
		<circle fill="#00B0C2" cx="14.6" cy="14.6" r="14"/>
	</g>
</g>
<path fill="#FFFFFF" d="M21.7,22.6c-4.8,0-9.5,0-14.3,0c0,0,0,0-0.1,0c-0.9-0.2-1.4-0.8-1.4-1.8c0-4,0-4.9,0-8.9
	c0-0.3,0.1-0.5,0.2-0.8c0.3-0.7,0.9-1,1.7-1c1.7,0,3.3,0,4.9,0c0.1,0,0.3,0,0.4-0.1c1.3-0.7,2.8-1.5,4.1-2.3
	c0.2-0.1,0.4-0.2,0.7-0.3c0.1,0,0.2,0,0.3,0c0.4,0.1,0.7,0.4,0.9,0.8c0.3,0.6,0.6,1.1,1,1.8c0.1,0.1,0.1,0.2,0.3,0.1
	c0.3,0,0.6,0,0.9,0c1.1,0,1.9,0.7,1.9,1.9c0,1.2,0,1.3,0,2.6c0,0.1,0,0.1,0,0.2c0.3,0,0.6,0,0.8,0c0,1.5,0,3,0,4.4
	c-0.3,0-0.6,0-0.8,0c0,0.1,0,0.1,0,0.2c0,1.1,0,0.2,0,1.3c0,0.6-0.2,1-0.6,1.4C22.3,22.4,22,22.5,21.7,22.6z M11.6,10.8L11.6,10.8
	c-0.1,0-0.1,0-0.2,0c-1.2,0-2.4,0-3.6,0c-0.7,0-1.1,0.4-1.1,1.1c0,3.9,0,4.9,0,8.8c0,0.7,0.4,1.1,1.1,1.1c4.5,0,9,0,13.5,0
	c0.7,0,1.1-0.4,1.1-1.1c0-1,0-0.2,0-1.3c0-0.1,0-0.1,0-0.2c-0.8,0-1.7,0-2.5,0c-0.3,0-0.6-0.1-0.9-0.2c-0.6-0.3-1.3-1-1.2-2.3
	c0.1-1,0.9-2.1,2-2.1c0.8,0,1.7,0,2.5,0c0.1,0,0.1,0,0.2,0c0-1.1,0-1.1,0-2.3c-0.1,0-0.2,0-0.2,0c-4.8,0-9.4,0-14.1,0
	c-0.1,0-0.2,0-0.3,0c-0.2,0-0.2-0.2-0.2-0.3c0-0.2,0.1-0.3,0.2-0.3c0.1,0,0.1,0,0.2,0c0.3,0,0.6,0,0.9,0c0.7,0.1,1.2-0.1,1.9-0.5
	C11.1,11.1,11.4,10.9,11.6,10.8z M23.4,15.5c-1.1,0-2.3,0-3.5,0c-1,0-1.7,1-1.3,2c0.2,0.6,0.7,1,1.4,1c1.1,0,2.2,0,3.3,0h0.1
	C23.4,17.4,23.4,16.5,23.4,15.5z M20.7,10.8c0.2,0.3,0.3,0.6,0.5,0.8l0.1,0.1c0.4,0,0.8,0,1.2,0c-0.1-0.5-0.4-0.9-0.9-0.9
	C21.3,10.8,21,10.8,20.7,10.8z M21,17c0,0.4-0.3,0.8-0.7,0.8s-0.8-0.3-0.8-0.8c0-0.4,0.3-0.8,0.8-0.8C20.7,16.2,21,16.6,21,17z"/>
</svg>
