<?xml version="1.0" encoding="utf-8"?>
<!-- Generator: Adobe Illustrator 18.0.0, SVG Export Plug-In . SVG Version: 6.00 Build 0)  -->
<!DOCTYPE svg PUBLIC "-//W3C//DTD SVG 1.1//EN" "http://www.w3.org/Graphics/SVG/1.1/DTD/svg11.dtd">
<svg version="1.1" id="Layer_1" xmlns="http://www.w3.org/2000/svg" xmlns:xlink="http://www.w3.org/1999/xlink" x="0px" y="0px"
	 width="30px" height="30px" viewBox="0 0 30 30" enable-background="new 0 0 30 30" xml:space="preserve">
<g>
	<g opacity="0.2">
		<circle cx="15" cy="15.5" r="14"/>
	</g>
	<g>
		<circle fill="#FF5FAC" cx="14.2" cy="14.7" r="14"/>
	</g>
</g>
<g>
	<path fill="#FFFFFF" d="M23.8,13.3C23.8,13.3,23.8,13.4,23.8,13.3c-0.2,1.3-0.5,2.6-1.1,3.6c-0.7,1.2-1.6,2.3-2.7,3
		c-0.9,0.6-1.9,1-2.9,1.1c-0.8,0.1-1.4,0.1-2.2,0.1h0.1c-0.1,0-0.3,0-0.4,0c-0.3,0-0.6-0.1-0.9-0.2c-0.5-0.2-0.9-0.4-1.4-0.6
		c-0.4-0.2-0.8-0.5-1-0.8c0.5-0.3,0.9-0.6,1.3-0.9c-0.1-0.1-0.3-0.2-0.4-0.2c-2-1.1-4-2.3-6-3.4c0,0.2,0,0.3,0,0.5
		c0.1,2.4,0.1,4.7,0.2,7c0.1-0.1,0.3-0.2,0.4-0.3c0.4-0.2,0.8-0.5,1.1-0.7c1.2,0.9,2.6,1.6,4.1,1.9c1.3,0.3,2.7,0.3,4,0.1
		c2.2-0.3,4.2-1.6,5.7-3.2c0.5-0.5,0.9-1.1,1.1-1.7c0.4-0.6,0.7-1.4,0.9-2.1c0.2-0.7,0.3-1.3,0.4-2.1C23.8,14.2,23.8,13.7,23.8,13.3
		z"/>
	<path fill="#FFFFFF" d="M8.9,9.2c0.8-0.5,1.7-0.9,2.7-1c0.8-0.1,1.5-0.1,2.3-0.1h-0.1c0.1,0,0.2,0,0.3,0c0.3,0,0.6,0.1,0.9,0.2
		c0.6,0.1,1,0.4,1.5,0.6c0.4,0.2,0.8,0.5,1.1,0.8c-0.5,0.3-0.9,0.6-1.3,0.9c0.1,0.1,0.3,0.2,0.4,0.2c2,1.1,4,2.3,6,3.4
		c0-0.2,0-0.3,0-0.5c-0.1-2.4-0.1-4.7-0.2-7c-0.1,0.1-0.3,0.2-0.4,0.3c-0.4,0.2-0.8,0.5-1.1,0.7c-1.3-0.9-2.7-1.6-4.3-2
		c-1.3-0.3-2.8-0.3-4.2,0C11.1,5.8,10,6.3,9,6.9C8.2,7.4,7.6,8.1,7,8.7c-0.9,1-1.6,2.4-2,3.7c-0.2,0.7-0.3,1.3-0.4,2.1
		c0,0.5,0,0.9,0,1.3c0-0.1,0-0.1,0-0.2c0.2-1.3,0.6-2.6,1.2-3.7C6.7,10.9,7.6,9.9,8.9,9.2z"/>
</g>
</svg>
