<?xml version="1.0" encoding="utf-8"?>
<!-- Generator: Adobe Illustrator 24.0.1, SVG Export Plug-In . SVG Version: 6.00 Build 0)  -->
<svg version="1.1" id="Layer_1" xmlns="http://www.w3.org/2000/svg" xmlns:xlink="http://www.w3.org/1999/xlink" x="0px" y="0px"
	 viewBox="0 0 1021.1 190" enable-background="new 0 0 1021.1 190" xml:space="preserve">
<g id="Layer_1_2_">
	<polygon fill="#231F3A" points="1021.4,169.7 1020.8,12.6 831.6,40.2 686.7,14.8 511.1,49.7 337.4,21 143.2,49 0,8 0,173.2 
		186.4,161.3 333.4,170.5 512,157.2 682.1,167.9 877.2,156.6 	"/>
	<polygon fill="#231F3A" points="0,0 144.2,44.4 144.2,55.2 0,16.1 	"/>
	<polygon fill="#231F3A" points="337.5,18.5 337.5,23.1 144.2,55.2 144.2,44.4 	"/>
	<polygon fill="#231F3A" points="687.6,9.9 832.9,34.6 832.9,45.4 687,17.4 	"/>
	<polygon fill="#231F3A" points="1020.8,1.1 1020.8,12.6 832.9,45.4 832.9,34.6 	"/>
	<polygon fill="#231F3A" points="687.6,9.9 510.7,44.4 510.7,55.2 687,17.4 	"/>
	<polygon fill="#231F3A" points="337.5,18.5 337.5,23.1 510.7,55.2 510.7,44.4 	"/>
	<polygon fill="#231F3A" points="0,171.2 0,175.5 186.4,162.9 186.4,158.6 	"/>
	<polygon fill="#231F3A" points="333.6,169 333.6,172.3 186.4,162.9 186.4,158.6 	"/>
	<polygon fill="#231F3A" points="682.3,166.8 682.3,168.6 877.2,158.6 877.2,154.3 	"/>
	<polygon fill="#231F3A" points="1021.4,169.7 1021.4,175.8 877.2,158.6 877.2,154.3 	"/>
	<polygon fill="#231F3A" points="682.3,166.8 682.3,168.6 512.7,159.5 512.7,154.6 	"/>
	<polygon fill="#231F3A" points="512.7,154.6 512.7,159.5 333.6,172.3 333.6,169 	"/>
</g>
<g id="Layer_1_1_">
	<polygon fill="#231F3A" points="1021.4,169.7 1020.8,12.6 831.6,40.2 686.7,14.8 511.1,49.7 337.4,21 143.2,49 0,8 0,173.2 
		186.4,161.3 333.4,170.5 512,157.2 682.1,167.9 877.2,156.6 	"/>
	<polygon fill="#282341" points="0,0 144.2,44.4 144.2,55.2 0,16.1 	"/>
	<polygon fill="#302B4B" points="337.5,18.5 337.5,23.1 144.2,55.2 144.2,44.4 	"/>
	<polygon fill="#282341" points="687.6,9.9 832.9,34.6 832.9,45.4 687,17.4 	"/>
	<polygon fill="#302B4B" points="1020.8,1.1 1020.8,12.6 832.9,45.4 832.9,34.6 	"/>
	<polygon fill="#302B4B" points="687.6,9.9 510.7,44.4 510.7,55.2 687,17.4 	"/>
	<polygon fill="#282341" points="337.5,18.5 337.5,23.1 510.7,55.2 510.7,44.4 	"/>
	<polygon fill="#302B4B" points="0,171.2 0,175.5 186.4,162.9 186.4,158.6 	"/>
	<polygon fill="#282341" points="333.6,169 333.6,172.3 186.4,162.9 186.4,158.6 	"/>
	<polygon fill="#302B4B" points="682.3,166.8 682.3,168.6 877.2,158.6 877.2,154.3 	"/>
	<polygon fill="#282341" points="1021.4,169.7 1021.4,175.8 877.2,158.6 877.2,154.3 	"/>
	<polygon fill="#282341" points="682.3,166.8 682.3,168.6 512.7,159.5 512.7,154.6 	"/>
	<polygon fill="#302B4B" points="512.7,154.6 512.7,159.5 333.6,172.3 333.6,169 	"/>
</g>
<rect y="114" fill="#231F3A" width="1021.4" height="76"/>
</svg>
