<?xml version="1.0" encoding="UTF-8" standalone="no"?>
<svg
   xmlns:dc="http://purl.org/dc/elements/1.1/"
   xmlns:cc="http://web.resource.org/cc/"
   xmlns:rdf="http://www.w3.org/1999/02/22-rdf-syntax-ns#"
   xmlns:svg="http://www.w3.org/2000/svg"
   xmlns="http://www.w3.org/2000/svg"
   xmlns:sodipodi="http://sodipodi.sourceforge.net/DTD/sodipodi-0.dtd"
   xmlns:inkscape="http://www.inkscape.org/namespaces/inkscape"
   version="1.1"
   baseProfile="full"
   id="Roundel of the Italian Air Force"
   width="600"
   height="600"
   sodipodi:version="0.32"
   inkscape:version="0.44+devel"
   sodipodi:docname="Azerbaijan Air Force roundel.svg"
   sodipodi:docbase="C:\Documents and Settings\Flanker\Desktop">
  <metadata
     id="metadata12">
    <rdf:RDF>
      <cc:Work
         rdf:about="">
        <dc:format>image/svg+xml</dc:format>
        <dc:type
           rdf:resource="http://purl.org/dc/dcmitype/StillImage" />
      </cc:Work>
    </rdf:RDF>
  </metadata>
  <defs
     id="defs10" />
  <sodipodi:namedview
     inkscape:window-height="736"
     inkscape:window-width="967"
     inkscape:pageshadow="2"
     inkscape:pageopacity="0.0"
     guidetolerance="10.0"
     gridtolerance="10.0"
     objecttolerance="10.0"
     borderopacity="1.0"
     bordercolor="#666666"
     pagecolor="#ffffff"
     id="base"
     inkscape:zoom="0.62833333"
     inkscape:cx="300"
     inkscape:cy="349.3878"
     inkscape:window-x="238"
     inkscape:window-y="67"
     inkscape:current-layer="g5459" />
  <g
     transform="matrix(2,0,0,2,-300,0)"
     id="g5459">
    <path
       style="fill:#008ccc"
       d="M 300 0 C 169.45995 5.974511e-014 58.339049 83.520393 17.125 200 L 582.875 200 C 541.66095 83.520393 430.54005 -5.2753006e-014 300 0 z "
       transform="matrix(0.5,0,0,0.5,150,0)"
       id="blue stripe" />
    <path
       style="fill:#d12421"
       d="M 17.125 200 C 6.0558866 231.28365 -6.5171429e-017 264.94005 0 300 C 0 335.05995 6.0558866 368.71635 17.125 400 L 582.875 400 C 593.94411 368.71635 600 335.05995 600 300 C 600 264.94005 593.94411 231.28365 582.875 200 L 17.125 200 z "
       transform="matrix(0.5,0,0,0.5,150,0)"
       id="red stripe" />
    <path
       style="fill:#009645"
       d="M 17.125 400 C 58.339049 516.47961 169.45995 600 300 600 C 430.54005 600 541.66095 516.47961 582.875 400 L 17.125 400 z "
       transform="matrix(0.5,0,0,0.5,150,0)"
       id="green stripe" />
    <g
       id="white crescent"
       transform="translate(10,0)">
      <circle
         r="42"
         cy="150"
         cx="280"
         id="white circle"
         sodipodi:cx="280"
         sodipodi:cy="150"
         sodipodi:rx="42"
         sodipodi:ry="42"
         style="fill:white" />
      <circle
         r="35"
         cy="150"
         cx="291"
         id="red circle"
         sodipodi:cx="291"
         sodipodi:cy="150"
         sodipodi:rx="35"
         sodipodi:ry="35"
         style="fill:#d12421" />
    </g>
    <polygon
       transform="translate(310,127.5)"
       points="17.859375,11.294922 22.5,0 27.141602,11.294922 38.410156,6.590332 33.705078,17.858398 45,22.5 33.705078,27.141602 38.410156,38.411133 27.141602,33.706055 22.5,45.000977 17.859375,33.706055 6.5908203,38.411133 11.295898,27.141602 0,22.5 11.295898,17.858398 6.5908203,6.5898438 17.859375,11.294922 "
       id="white star"
       style="fill:white" />
  </g>
</svg>
