<?xml version="1.0" encoding="utf-8"?>
<!-- Generator: Adobe Illustrator 24.0.1, SVG Export Plug-In . SVG Version: 6.00 Build 0)  -->
<svg version="1.1" id="Layer_1" xmlns="http://www.w3.org/2000/svg" xmlns:xlink="http://www.w3.org/1999/xlink" x="0px" y="0px"
	 viewBox="0 0 881.1 990.7" enable-background="new 0 0 881.1 990.7" xml:space="preserve">
<g>
	<path d="M434.6,1.3L379,9.6c0,0-76,31.5-114,47.3h0.1l-46.5,35.5c-14,0-28-0.2-42-0.4l-53.4-29.4l-10.7-6.8L59.8,13.7l-29.9-1.4
		C22.5,16.6,15,20.6,7.7,24.9c0,16.9-0.2,50.6-0.2,50.6l0.7,34.8L50,204.2h0.1l35,140.7l0.1-0.1L54.3,463.6l-5.4,77l29.8,106.3
		l66.6,74.6L246.4,764l-4.6,42.9h-0.1c0,0-0.4,26.7-0.4,40l0.3,0.2c18.7,18.9,60.9,60.3,60.9,60.3l20.6,23.9l17.9,32.1l93.6,21.1
		l0,0l93.6-21.1l17.9-32.1l20.6-23.9c0,0,42.2-41.4,60.9-60.3l0.3-0.2c0-13.3-0.4-40-0.4-40h-0.1l-4.6-42.9l101.1-42.5l66.6-74.6
		l29.8-106.3l-5.4-77L784,344.8l0.1,0.1l35-140.7h0.1l41.8-93.9l0.7-34.8c0,0-0.2-33.7-0.2-50.6c-7.3-4.3-14.8-8.3-22.2-12.6
		l-29.9,1.4l-52.7,42.1L746,62.6L692.6,92c-14,0.2-28,0.4-42,0.4l-46.5-35.5h0.1c-38-15.8-114-47.3-114-47.3S453.1,4.1,434.6,1.3
		L434.6,1.3z"/>
</g>
<polygon fill="#884386" points="538.7,764.1 540,817.1 465.9,862.9 435.2,885.6 435.3,810 435.3,797 "/>
<polygon fill="#884386" points="331.8,764.1 330.5,817.1 404.6,862.9 435.2,885.6 435.2,810 435.2,797 "/>
<g>
	<path fill="#030107" d="M425.7,69.5l-74.2,42.4l-86.5-55c38-15.8,76-31.7,114-47.3c18.5-2.9,37.1-5.5,55.6-8.3v156.2l-66.9,43.1
		L425.7,69.5z"/>
</g>
<g>
	<path fill="#0C0124" d="M59.5,38L32.4,52.7l-6.2,48.5L7.5,75.5c0,0,0.2-33.7,0.2-50.6c7.3-4.3,14.8-8.3,22.2-12.6L59.5,38z"/>
</g>
<g>
	<polygon fill="#FFEECC" points="300.2,472.4 266.6,459.3 239.5,456.9 309,495.5 311.9,492.9 	"/>
	<polygon fill="#FFEECC" points="226.8,455.8 218.3,455 225.3,488.1 256,512.4 290.8,512 296.5,506.8 309,495.5 239.5,456.9 	"/>
</g>
<g>
	<path fill="#331A34" d="M59.8,13.7c-9.5-0.3-20.4-1.2-29.9-1.4l121.2,105.2l-38.6-61.7L59.8,13.7z"/>
</g>
<g>
	<polygon fill="#FFEECC" points="642.5,455.8 629.8,456.9 560.3,495.5 572.8,506.8 578.5,512 613.3,512.4 644,488.1 651,455 	"/>
	<polyline fill="#FFEECC" points="629.8,456.9 602.7,459.3 569.1,472.4 557.4,492.9 560.3,495.5 	"/>
</g>
<g>
	<polygon fill="#0F0B16" points="151.1,117.5 136.7,216 129.9,133.7 93.9,83.9 103.8,123.8 87.2,138.7 26.2,101.2 32.4,52.7 
		59.5,38 	"/>
</g>
<g>
	<polygon fill="#0E080F" points="112.5,55.8 123.2,62.6 175.4,103.4 200.9,108.9 182,126.3 151.1,117.5 	"/>
</g>
<g>
	<polygon fill="#212121" points="199.6,152.9 218.6,92.4 265.1,56.9 351.5,111.9 270.3,158.4 	"/>
</g>
<g>
	<path fill="#282438" d="M200.8,108.9l-25.5-5.5l-52.1-40.8L176.6,92c14,0.2,28,0.4,42,0.4L200.8,108.9z"/>
</g>
<g>
	<polygon fill="#22252D" points="425.7,69.5 367.7,200.6 308.1,235.3 270.3,158.4 	"/>
</g>
<g>
	<path fill="#291324" d="M95.1,196c-14.9,3.2-30,5.6-45.1,8.2L8.2,110.3L7.5,75.5L95.1,196z"/>
</g>
<g>
	<polygon fill="#19152D" points="129.9,133.7 132.6,166.5 87.2,138.7 103.8,123.8 93.9,83.9 	"/>
</g>
<g>
	<polygon fill="#0B0A1A" points="144.8,160.7 218.6,92.4 199.6,152.9 136.7,216 	"/>
</g>
<g>
	<polygon fill="#150B2A" points="95.1,196 26.2,101.2 132.6,166.5 136.7,216 	"/>
</g>
<g>
	<polygon fill="#2A283E" points="182,126.3 144.8,160.7 151.1,117.5 	"/>
</g>
<g>
	<polygon fill="#382D47" points="199.6,152.9 270.3,158.4 136.7,216 	"/>
</g>
<g>
	<polygon points="136.7,216 270.3,158.4 337.9,295.4 	"/>
	<polygon points="311,670 339.1,594.9 330.2,552.1 363.6,527.6 366,604.7 345.8,656.8 347.6,705.3 	"/>
</g>
<g>
	<path fill="#201243" d="M434.6,157.5v106.2l-77.1,70c-9.4-18.1-18.1-35.1-25.4-50l35.6-83.1L434.6,157.5z"/>
</g>
<g>
	<path fill="#301B3A" d="M50.1,204.2c15-2.6,30.1-5,45-8.2l41.6,20L85.1,344.9L50.1,204.2z"/>
</g>
<g>
	<polygon fill="#2C2554" points="332.1,283.7 308.1,235.3 367.7,200.6 	"/>
</g>
<g>
	<polygon fill="#131021" points="240.3,256.9 136.7,216 85.1,344.9 	"/>
</g>
<g>
	<polygon fill="#2C2C3E" points="113.6,328.7 240.3,256.9 337.9,295.4 357.5,333.7 218.8,294.9 141.7,351.7 108.2,433.4 	"/>
</g>
<g>
	<polygon fill="#2D1754" points="389.5,450.9 357.5,333.7 434.6,263.7 434.6,481.2 	"/>
</g>
<g>
	<polygon fill="#000001" points="162.9,391.1 108.2,433.4 141.7,351.7 218.8,294.9 270.2,309.3 290.4,390.6 248.9,335.1 
		188.4,341.8 	"/>
</g>
<g>
	<polygon fill="#2C1E31" points="270.2,309.3 357.5,333.7 329.5,440.3 290.4,390.6 	"/>
</g>
<g>
	<polygon fill="#461D65" points="85.1,344.9 113.6,328.7 109.1,415.5 68.8,442.1 74.8,477.2 54.3,463.6 	"/>
</g>
<g>
	<polygon fill="#030305" points="329.5,440.3 357.5,333.7 389.5,450.9 353.9,468.2 	"/>
</g>
<g>
	<polygon fill="#1A1321" points="188.4,341.8 248.9,335.1 329.5,440.3 283.1,447.8 259,430.2 254.3,409.3 203.6,365.7 161.2,435.9 
		155.5,477.2 138.3,438.9 	"/>
</g>
<g>
	<polygon fill="#292C4F" points="161.2,435.9 203.6,365.7 254.3,409.3 259,430.2 199,385.1 155.5,477.2 	"/>
</g>
<g>
	<path fill="#9D52A2" d="M186.7,442.8L170,502.6l-14.5-25.4l43.5-92.1l47.1,35.4l-29.1,1.8L186.7,442.8z"/>
</g>
<g>
	<polygon fill="#8B659B" points="142.6,554.2 155.5,477.2 138.3,438.9 162.9,391.1 108.2,433.4 	"/>
</g>
<g>
	<polygon fill="#382645" points="68.8,442.1 109.1,415.5 103.6,556.8 121.3,576.2 100.7,628.1 	"/>
</g>
<g>
	<polygon fill="#6F3E4D" points="283.1,447.8 246.1,420.5 217,422.3 186.7,442.8 268.6,450.1 	"/>
</g>
<g>
	<polygon fill="#4D307D" points="103.6,556.8 108.2,433.4 142.6,554.2 208.7,672.1 	"/>
</g>
<g>
	<polygon fill="#2F1012" points="300.1,472.4 266.6,459.3 194.6,453 197.9,464.2 186.7,442.8 268.6,450.1 307.4,468.7 311.9,492.9 	
		"/>
</g>
<g>
	<polygon fill="#E6A97E" points="186.7,442.8 215.2,497.3 252.8,523.7 304.3,523.4 316.9,504.8 328.8,519.9 303.3,532.4 
		236.6,536.4 186.9,492.6 	"/>
</g>
<g>
	<polygon fill="#291A28" points="362,477.4 363.6,527.6 330.2,552.1 333.7,526.1 328.2,478.6 268.6,450.1 329.5,440.3 	"/>
</g>
<g>
	<polygon fill="#4D2D65" points="306.5,553.2 245,568 170,502.6 186.7,442.8 186.9,492.6 236.6,536.4 303.3,532.4 328.8,519.9 	"/>
</g>
<g>
	<polygon fill="#0B0B25" points="434.6,481.2 434.6,570.7 398.1,560.6 363.6,527.6 362,477.4 353.9,468.2 389.5,450.9 	"/>
</g>
<g>
	<polygon fill="#FFFBFD" points="194.6,453 209.7,454.3 222.2,492.4 255,517.5 311.3,517.6 304.3,523.4 252.8,523.7 215.2,497.3 
		197.9,464.2 	"/>
</g>
<g>
	<polygon fill="#8E252A" points="255,517.5 222.2,492.4 209.7,454.3 218.3,455 225.3,488.1 255.8,512.2 290.8,512 288.9,517.2 	"/>
</g>
<g>
	<polygon fill="#FFCD5C" points="296.5,506.8 290.8,512 256,512.4 225.3,488.1 218.3,455 226.8,455.8 227.1,468 	"/>
</g>
<g>
	<path fill="#FFEECC" d="M266.6,459.3l33.6,13.1l11.7,20.5l-2.9,2.6l-69.5-38.6L266.6,459.3z"/>
</g>
<g>
	<polygon fill="#4E2C6F" points="48.9,540.6 54.3,463.6 74.8,477.2 100.7,628.1 	"/>
</g>
<g>
	<polygon fill="#5D242D" points="311.9,492.9 307.4,468.7 328.2,478.6 333.7,526.1 316.9,504.8 	"/>
</g>
<g>
	<polygon fill="#7B5697" points="168.1,540.9 156.2,533.8 155.5,477.2 170,502.6 	"/>
</g>
<g>
	<polygon fill="#8484D1" points="142.6,554.2 155.5,477.2 156.2,533.8 208.7,672.1 	"/>
</g>
<g>
	<polygon fill="#AB5108" points="288.9,517.2 290.8,512 311.9,492.9 316.9,504.8 311.3,517.6 	"/>
</g>
<g>
	<polygon fill="#3A2A37" points="168.1,540.9 170,502.6 245,568 235.7,599.2 	"/>
</g>
<g>
	<path fill="#603059" d="M325.8,584.9c-6.5-10.6-19.4-31.7-19.4-31.7l22.4-33.3l4.9,6.2L325.8,584.9z"/>
</g>
<g>
	<polygon fill="#210F3E" points="434.6,628.1 434.6,570.7 398.1,560.6 363.6,527.6 366,604.7 	"/>
</g>
<g>
	<polygon fill="#613191" points="156.2,533.8 168.1,540.9 218.6,616 288.7,603.7 269.6,671 208.7,672.1 	"/>
</g>
<g>
	<polygon fill="#291B42" points="145.3,721.5 78.7,646.9 48.9,540.6 100.7,628.1 	"/>
</g>
<g>
	<polygon fill="#461B63" points="235.7,599.2 168.1,540.9 218.6,616 339.1,594.9 330.2,552.1 325.8,584.9 	"/>
</g>
<g>
	<polygon fill="#8B3796" points="306.5,553.2 325.8,584.9 235.7,599.2 245,568 	"/>
</g>
<g>
	<polygon fill="#5C297F" points="100.7,628.1 121.3,576.2 208.7,672.1 227.4,717.6 	"/>
</g>
<g>
	<polygon fill="#40136A" points="339.1,594.9 288.7,603.7 269.6,671 311,670 	"/>
</g>
<g>
	<polygon fill="#301251" points="383.7,742.9 406,787.6 397.1,784.8 348.5,729.8 345.8,656.8 366,604.7 	"/>
</g>
<g>
	<polygon fill="#1D0F29" points="434.6,628.1 434.6,796.7 406,787.6 383.7,742.9 366,604.7 	"/>
</g>
<g>
	<polygon fill="#291547" points="145.3,721.5 246.4,764 227.4,717.6 100.7,628.1 	"/>
</g>
<g>
	<polygon fill="#150826" points="348.5,729.8 347.6,705.3 311,670 288.7,785.5 	"/>
</g>
<g>
	<path fill="#381274" d="M311,670l-64.6,94l23.2-93L311,670z"/>
</g>
<g>
	<polygon fill="#5C52BE" points="208.7,672.1 269.6,671 246.4,764 	"/>
</g>
<g>
	<polygon fill="#4E0E79" points="241.8,806.9 288.7,785.5 311,670 246.4,764 	"/>
</g>
<g>
	<polygon fill="#350F46" points="331.2,763.8 397.1,784.8 348.5,729.8 288.7,785.5 358.9,869.7 434.6,893.1 434.6,885.3 404,862.6 
		329.9,816.8 	"/>
</g>
<g>
	<polygon fill="#641046" points="404,862.6 329.9,816.8 331.2,763.8 343.8,811.6 	"/>
</g>
<g>
	<polygon fill="#853A74" points="340.3,787.1 331.2,763.8 434.6,796.7 434.6,809.7 	"/>
</g>
<g>
	<polygon fill="#5A1259" points="331.2,763.8 343.8,811.6 346.7,805.9 340.3,787.1 	"/>
</g>
<g>
	<path fill="#5A1584" d="M288.7,785.5l12.8,98.4l-60.1-37c0-13.3,0.4-40,0.4-40L288.7,785.5z"/>
</g>
<g>
	<polygon fill="#3F0A5D" points="294,825.9 288.7,785.5 358.9,869.7 434.6,893.1 353,877.5 	"/>
</g>
<g>
	<polygon fill="#884386" points="376,809.7 352.7,806.1 340.3,787.1 434.6,809.7 434.6,885.3 404,862.6 407.4,851.6 	"/>
</g>
<g>
	<path fill="#CD8ED4" d="M407.4,851.6l-35-39.3l-21.4-3.8l-10.7-21.4l12.4,19l23.2,3.5L407.4,851.6z"/>
</g>
<g>
	<polygon fill="#10080E" points="407.4,851.6 404,862.6 343.8,811.6 346.7,805.9 340.3,787.1 351,808.5 372.4,812.3 	"/>
</g>
<g>
	<polygon fill="#3F0C51" points="434.6,893.1 434.6,919.6 410.6,926 301.4,883.9 294,825.9 353,877.5 	"/>
</g>
<g>
	<path fill="#470A6C" d="M301.4,883.9l1.1,23.5c0,0-42.5-41.7-61.1-60.5L301.4,883.9z"/>
</g>
<g>
	<path fill="#250831" d="M410.6,926l-87.4,5.3l-20.7-23.9l-1.1-23.5L410.6,926z"/>
</g>
<g>
	<polygon fill="#1A0710" points="434.6,919.6 434.6,936.7 385.7,943.1 323.1,931.3 410.6,926 	"/>
</g>
<g>
	<polygon fill="#611A91" points="434.6,928.5 434.6,933.5 419.5,933.2 405.8,927.4 	"/>
</g>
<g>
	<path fill="#200735" d="M384.6,952.9l50,8.8v22.8L341,963.4l-17.9-32.1L384.6,952.9z"/>
</g>
<g>
	<polygon fill="#380840" points="385.7,943.1 434.6,936.7 434.6,961.7 384.6,952.9 323.1,931.3 	"/>
</g>
<g>
	<g>
		<path fill="#030107" d="M501.5,200.6l-66.9-43.1V1.3c18.5,2.8,37.1,5.4,55.6,8.3c38,15.6,76,31.5,114,47.3l-86.5,55l-74.2-42.4
			L501.5,200.6z"/>
	</g>
	<g>
		<path fill="#0C0124" d="M839.3,12.3c7.4,4.3,14.9,8.3,22.2,12.6c0,16.9,0.2,50.6,0.2,50.6L843,101.2l-6.2-48.5L809.7,38
			L839.3,12.3z"/>
	</g>
	<g>
		<path fill="#331A34" d="M756.7,55.8l-38.6,61.7L839.3,12.3c-9.5,0.2-20.4,1.1-29.9,1.4L756.7,55.8z"/>
	</g>
	<g>
		<polygon fill="#0F0B16" points="809.7,38 836.8,52.7 843,101.2 782,138.7 765.4,123.8 775.3,83.9 739.3,133.7 732.5,216 
			718.1,117.5 		"/>
	</g>
	<g>
		<polygon fill="#0E080F" points="718.1,117.5 687.2,126.3 668.3,108.9 693.8,103.4 746,62.6 756.7,55.8 		"/>
	</g>
	<g>
		<polygon fill="#212121" points="598.9,158.4 517.7,111.9 604.1,56.9 650.6,92.4 669.6,152.9 		"/>
	</g>
	<g>
		<path fill="#282438" d="M650.6,92.4c14,0,28-0.2,42-0.4L746,62.6l-52.1,40.8l-25.5,5.5L650.6,92.4z"/>
	</g>
	<g>
		<polygon fill="#22252D" points="598.9,158.4 561.1,235.3 501.5,200.6 443.5,69.5 		"/>
	</g>
	<g>
		<path fill="#291324" d="M861.7,75.5l-0.7,34.8l-41.8,93.9c-15.1-2.6-30.2-5-45.1-8.2L861.7,75.5z"/>
	</g>
	<g>
		<polygon fill="#19152D" points="775.3,83.9 765.4,123.8 782,138.7 736.6,166.5 739.3,133.7 		"/>
	</g>
	<g>
		<polygon fill="#0B0A1A" points="732.5,216 669.6,152.9 650.6,92.4 724.4,160.7 		"/>
	</g>
	<g>
		<polygon fill="#150B2A" points="732.5,216 736.6,166.5 843,101.2 774.1,196 		"/>
	</g>
	<g>
		<polygon fill="#2A283E" points="718.1,117.5 724.4,160.7 687.2,126.3 		"/>
	</g>
	<g>
		<polygon fill="#382D47" points="732.5,216 598.9,158.4 669.6,152.9 		"/>
	</g>
	<g>
		<polygon points="531.3,295.4 598.9,158.4 732.5,216 		"/>
		<polygon points="521.6,705.3 523.4,656.8 503.2,604.7 505.6,527.6 539,552.1 530.1,594.9 558.2,670 		"/>
	</g>
	<g>
		<path fill="#201243" d="M501.5,200.6l35.6,83.1c-7.3,14.9-16,31.9-25.4,50l-77.1-70V157.5L501.5,200.6z"/>
	</g>
	<g>
		<path fill="#301B3A" d="M784.1,344.9L732.5,216l41.6-20c14.9,3.2,30,5.6,45,8.2L784.1,344.9z"/>
	</g>
	<g>
		<polygon fill="#2C2554" points="501.5,200.6 561.1,235.3 537.1,283.7 		"/>
	</g>
	<g>
		<polygon fill="#131021" points="784.1,344.9 732.5,216 628.9,256.9 		"/>
	</g>
	<g>
		<polygon fill="#2C2C3E" points="761,433.4 727.5,351.7 650.4,294.9 511.7,333.7 531.3,295.4 628.9,256.9 755.6,328.7 		"/>
	</g>
	<g>
		<polygon fill="#2D1754" points="434.6,481.2 434.6,263.7 511.7,333.7 479.7,450.9 		"/>
	</g>
	<g>
		<polygon fill="#000001" points="680.8,341.8 620.3,335.1 578.8,390.6 599,309.3 650.4,294.9 727.5,351.7 761,433.4 706.3,391.1 		
			"/>
	</g>
	<g>
		<polygon fill="#2C1E31" points="578.8,390.6 539.7,440.3 511.7,333.7 599,309.3 		"/>
	</g>
	<g>
		<polygon fill="#461D65" points="814.9,463.6 794.4,477.2 800.4,442.1 760.1,415.5 755.6,328.7 784.1,344.9 		"/>
	</g>
	<g>
		<polygon fill="#030305" points="515.3,468.2 479.7,450.9 511.7,333.7 539.7,440.3 		"/>
	</g>
	<g>
		<polygon fill="#1A1321" points="730.9,438.9 713.7,477.2 708,435.9 665.6,365.7 614.9,409.3 610.2,430.2 586.1,447.8 539.7,440.3 
			620.3,335.1 680.8,341.8 		"/>
	</g>
	<g>
		<polygon fill="#292C4F" points="713.7,477.2 670.2,385.1 610.2,430.2 614.9,409.3 665.6,365.7 708,435.9 		"/>
	</g>
	<g>
		<path fill="#9D52A2" d="M652.2,422.3l-29.1-1.8l47.1-35.4l43.5,92.1l-14.5,25.4l-16.7-59.8L652.2,422.3z"/>
	</g>
	<g>
		<polygon fill="#8B659B" points="761,433.4 706.3,391.1 730.9,438.9 713.7,477.2 726.6,554.2 		"/>
	</g>
	<g>
		<polygon fill="#382645" points="768.5,628.1 747.9,576.2 765.6,556.8 760.1,415.5 800.4,442.1 		"/>
	</g>
	<g>
		<polygon fill="#6F3E4D" points="600.6,450.1 682.5,442.8 652.2,422.3 623.1,420.5 586.1,447.8 		"/>
	</g>
	<g>
		<polygon fill="#4D307D" points="660.5,672.1 726.6,554.2 761,433.4 765.6,556.8 		"/>
	</g>
	<g>
		<polygon fill="#2F1012" points="557.3,492.9 561.8,468.7 600.6,450.1 682.5,442.8 671.3,464.2 674.6,453 602.6,459.3 569.1,472.4 
					"/>
	</g>
	<g>
		<polygon fill="#E6A97E" points="682.3,492.6 632.6,536.4 565.9,532.4 540.4,519.9 552.3,504.8 564.9,523.4 616.4,523.7 654,497.3 
			682.5,442.8 		"/>
	</g>
	<g>
		<polygon fill="#291A28" points="539.7,440.3 600.6,450.1 541,478.6 535.5,526.1 539,552.1 505.6,527.6 507.2,477.4 		"/>
	</g>
	<g>
		<polygon fill="#4D2D65" points="540.4,519.9 565.9,532.4 632.6,536.4 682.3,492.6 682.5,442.8 699.2,502.6 624.2,568 562.7,553.2 
					"/>
	</g>
	<g>
		<polygon fill="#0B0B25" points="479.7,450.9 515.3,468.2 507.2,477.4 505.6,527.6 471.1,560.6 434.6,570.7 434.6,481.2 		"/>
	</g>
	<g>
		<polygon fill="#FFFBFD" points="671.3,464.2 654,497.3 616.4,523.7 564.9,523.4 557.9,517.6 614.2,517.5 647,492.4 659.5,454.3 
			674.6,453 		"/>
	</g>
	<g>
		<polygon fill="#8E252A" points="580.3,517.2 578.4,512 613.4,512.2 643.9,488.1 650.9,455 659.5,454.3 647,492.4 614.2,517.5 		
			"/>
	</g>
	<g>
		<polygon fill="#FFCD5C" points="642.1,468 642.4,455.8 650.9,455 643.9,488.1 613.2,512.4 578.4,512 572.7,506.8 		"/>
	</g>
	<g>
		<polygon fill="#FFDD8F" points="572.7,506.8 560.2,495.5 629.7,456.9 642.4,455.8 642.1,468 		"/>
	</g>
	<g>
		<path fill="#FFEECC" d="M629.7,456.9l-69.5,38.6l-2.9-2.6l11.7-20.5l33.6-13.1L629.7,456.9z"/>
	</g>
	<g>
		<polygon fill="#4E2C6F" points="768.5,628.1 794.4,477.2 814.9,463.6 820.3,540.6 		"/>
	</g>
	<g>
		<polygon fill="#5D242D" points="552.3,504.8 535.5,526.1 541,478.6 561.8,468.7 557.3,492.9 		"/>
	</g>
	<g>
		<polygon fill="#7B5697" points="699.2,502.6 713.7,477.2 713,533.8 701.1,540.9 		"/>
	</g>
	<g>
		<polygon fill="#8484D1" points="660.5,672.1 713,533.8 713.7,477.2 726.6,554.2 		"/>
	</g>
	<g>
		<polygon fill="#AB5108" points="557.9,517.6 552.3,504.8 557.3,492.9 578.4,512 580.3,517.2 		"/>
	</g>
	<g>
		<polygon fill="#3A2A37" points="633.5,599.2 624.2,568 699.2,502.6 701.1,540.9 		"/>
	</g>
	<g>
		<path fill="#603059" d="M535.5,526.1l4.9-6.2l22.4,33.3c0,0-12.9,21.1-19.4,31.7L535.5,526.1z"/>
	</g>
	<g>
		<polygon fill="#210F3E" points="503.2,604.7 505.6,527.6 471.1,560.6 434.6,570.7 434.6,628.1 		"/>
	</g>
	<g>
		<polygon fill="#613191" points="660.5,672.1 599.6,671 580.5,603.7 650.6,616 701.1,540.9 713,533.8 		"/>
	</g>
	<g>
		<polygon fill="#291B42" points="768.5,628.1 820.3,540.6 790.5,646.9 723.9,721.5 		"/>
	</g>
	<g>
		<polygon fill="#461B63" points="543.4,584.9 539,552.1 530.1,594.9 650.6,616 701.1,540.9 633.5,599.2 		"/>
	</g>
	<g>
		<polygon fill="#8B3796" points="624.2,568 633.5,599.2 543.4,584.9 562.7,553.2 		"/>
	</g>
	<g>
		<polygon fill="#5C297F" points="641.8,717.6 660.5,672.1 747.9,576.2 768.5,628.1 		"/>
	</g>
	<g>
		<polygon fill="#40136A" points="558.2,670 599.6,671 580.5,603.7 530.1,594.9 		"/>
	</g>
	<g>
		<polygon fill="#301251" points="503.2,604.7 523.4,656.8 520.7,729.8 472.1,784.8 463.2,787.6 485.5,742.9 		"/>
	</g>
	<g>
		<polygon fill="#1D0F29" points="503.2,604.7 485.5,742.9 463.2,787.6 434.6,796.7 434.6,628.1 		"/>
	</g>
	<g>
		<polygon fill="#291547" points="768.5,628.1 641.8,717.6 622.8,764 723.9,721.5 		"/>
	</g>
	<g>
		<polygon fill="#150826" points="580.5,785.5 558.2,670 521.6,705.3 520.7,729.8 		"/>
	</g>
	<g>
		<path fill="#381274" d="M599.6,671l23.2,93l-64.6-94L599.6,671z"/>
	</g>
	<g>
		<polygon fill="#5C52BE" points="622.8,764 599.6,671 660.5,672.1 		"/>
	</g>
	<g>
		<polygon fill="#4E0E79" points="622.8,764 558.2,670 580.5,785.5 627.4,806.9 		"/>
	</g>
	<g>
		<polygon fill="#350F46" points="539.3,816.8 465.2,862.6 434.6,885.3 434.6,893.1 510.3,869.7 580.5,785.5 520.7,729.8 
			472.1,784.8 538,763.8 		"/>
	</g>
	<g>
		<polygon fill="#641046" points="525.4,811.6 538,763.8 539.3,816.8 465.2,862.6 		"/>
	</g>
	<g>
		<polygon fill="#853A74" points="434.6,809.7 434.6,796.7 538,763.8 528.9,787.1 		"/>
	</g>
	<g>
		<polygon fill="#5A1259" points="528.9,787.1 522.5,805.9 525.4,811.6 538,763.8 		"/>
	</g>
	<g>
		<path fill="#5A1584" d="M627.5,806.9c0,0,0.4,26.7,0.4,40l-60.1,37l12.8-98.4L627.5,806.9z"/>
	</g>
	<g>
		<polygon fill="#3F0A5D" points="516.2,877.5 434.6,893.1 510.3,869.7 580.5,785.5 575.2,825.9 		"/>
	</g>
	<g>
		<polygon fill="#884386" points="461.8,851.6 465.2,862.6 434.6,885.3 434.6,809.7 528.9,787.1 516.5,806.1 493.2,809.7 		"/>
	</g>
	<g>
		<path fill="#CD8ED4" d="M493.3,809.6l23.2-3.5l12.4-19l-10.7,21.4l-21.4,3.8l-35,39.3L493.3,809.6z"/>
	</g>
	<g>
		<polygon fill="#10080E" points="496.8,812.3 518.2,808.5 528.9,787.1 522.5,805.9 525.4,811.6 465.2,862.6 461.8,851.6 		"/>
	</g>
	<g>
		<polygon fill="#3F0C51" points="516.2,877.5 575.2,825.9 567.8,883.9 458.6,926 434.6,919.6 434.6,893.1 		"/>
	</g>
	<g>
		<path fill="#470A6C" d="M627.8,846.9c-18.6,18.8-61.1,60.5-61.1,60.5l1.1-23.5L627.8,846.9z"/>
	</g>
	<g>
		<path fill="#250831" d="M567.8,883.9l-1.1,23.5L546,931.3l-87.4-5.3L567.8,883.9z"/>
	</g>
	<g>
		<polygon fill="#1A0710" points="458.6,926 546.1,931.3 483.5,943.1 434.6,936.7 434.6,919.6 		"/>
	</g>
	<g>
		<polygon fill="#611A91" points="463.4,927.4 449.7,933.2 434.6,933.5 434.6,928.5 		"/>
	</g>
	<g>
		<path fill="#200735" d="M546.1,931.3l-17.9,32.1l-93.6,21.1v-22.8l50-8.8L546.1,931.3z"/>
	</g>
	<g>
		<polygon fill="#380840" points="546.1,931.3 484.6,952.9 434.6,961.7 434.6,936.7 483.5,943.1 		"/>
	</g>
</g>
<path opacity="0.2" enable-background="new    " d="M490.2,9.6c38,15.6,76,31.5,114,47.3h-0.1l46.5,35.5c14,0,28-0.2,42-0.4
	L746,62.6l10.7-6.8l52.7-42.1l29.9-1.4c7.4,4.3,14.9,8.3,22.2,12.6c0,16.9,0.2,50.6,0.2,50.6l-0.7,34.8l-41.8,93.9h-0.1l-35,140.7
	l-0.1-0.1l30.9,118.8l5.4,77l-29.8,106.3l-66.6,74.6L622.8,764l4.6,42.9h0.1c0,0,0.4,26.7,0.4,40l-0.3,0.2
	c-18.7,18.9-60.9,60.3-60.9,60.3l-20.6,23.9l-17.9,32.1l-93.6,21.1V1.3C453.1,4.1,471.7,6.7,490.2,9.6z"/>
<line opacity="0.2" enable-background="new    " x1="492.7" y1="806.1" x2="516" y2="809.7"/>
<g>
	<polygon fill="#FFDD8F" points="227.1,468 226.8,455.8 239.5,456.9 309,495.5 296.5,506.8 	"/>
</g>
</svg>
