<?xml version="1.0" encoding="utf-8"?>
<!-- Generator: Adobe Illustrator 24.0.1, SVG Export Plug-In . SVG Version: 6.00 Build 0)  -->
<svg version="1.1" xmlns="http://www.w3.org/2000/svg" xmlns:xlink="http://www.w3.org/1999/xlink" x="0px" y="0px"
	 viewBox="0 0 310.8 284.8" enable-background="new 0 0 310.8 284.8" xml:space="preserve">
<g id="Layer_2">
</g>
<g id="Layer_1">
</g>
<g id="Layer_3">
	<circle fill="none" stroke="#FFFFFF" stroke-width="2" stroke-miterlimit="10" cx="40.3" cy="253" r="29.3"/>
	<circle fill="none" stroke="#FFFFFF" stroke-width="2" stroke-miterlimit="10" cx="120.2" cy="253" r="29.3"/>
	<circle fill="none" stroke="#FFFFFF" stroke-width="2" stroke-miterlimit="10" cx="200.2" cy="253" r="29.3"/>
	<circle fill="none" stroke="#FFFFFF" stroke-width="2" stroke-miterlimit="10" cx="280.1" cy="253" r="29.3"/>
	<circle fill="none" stroke="#FFFFFF" stroke-width="2" stroke-miterlimit="10" cx="40.3" cy="172.5" r="29.3"/>
	<circle fill="none" stroke="#FFFFFF" stroke-width="2" stroke-miterlimit="10" cx="280.1" cy="172.5" r="29.3"/>
	<path fill="none" stroke="#FFFFFF" stroke-width="2" stroke-miterlimit="10" stroke-dasharray="7" d="M250.8,173.1h-39
		c-6.4,0-11.6,5.2-11.6,11.6v39"/>
	<path fill="none" stroke="#FFFFFF" stroke-width="2" stroke-miterlimit="10" stroke-dasharray="7" d="M69.6,173.1h39
		c6.4,0,11.6,5.2,11.6,11.6v39"/>
	
		<line fill="none" stroke="#FFFFFF" stroke-width="2" stroke-miterlimit="10" stroke-dasharray="7" x1="280.1" y1="201.9" x2="280.1" y2="223.7"/>
	
		<line fill="none" stroke="#FFFFFF" stroke-width="2" stroke-miterlimit="10" stroke-dasharray="7" x1="40.3" y1="201.9" x2="40.3" y2="223.7"/>
	<path fill="none" stroke="#FFFFFF" stroke-width="2" stroke-miterlimit="10" stroke-dasharray="7" d="M40.3,111.6h226.5
		c7.3,0,13.3,6,13.3,13.3v18.3"/>
	
		<line fill="none" stroke="#FFFFFF" stroke-width="2" stroke-miterlimit="10" stroke-dasharray="7" x1="40.3" y1="80.5" x2="40.3" y2="143.2"/>
	<circle fill="#E3882D" cx="40.3" cy="40.6" r="39.9"/>
	<g>
		<path fill="#FFFFFF" d="M32.8,54.1v-4.7h4.9V32.8c-1.5,0.5-3.2,0.9-5,1.3v-4.9c1.9-0.4,4.1-1.1,6.7-2H43v22.2h4.9v4.7H32.8z"/>
	</g>
	
		<polyline fill="none" stroke="#FFFFFF" stroke-width="2" stroke-linecap="round" stroke-linejoin="round" stroke-miterlimit="10" points="
		50.8,172.5 40,162.3 29.1,172.5 	"/>
	
		<polyline fill="none" stroke="#FFFFFF" stroke-width="2" stroke-linecap="round" stroke-linejoin="round" stroke-miterlimit="10" points="
		50.8,183.4 40,173.1 29.1,183.4 	"/>
	
		<polyline fill="none" stroke="#FFFFFF" stroke-width="2" stroke-linecap="round" stroke-linejoin="round" stroke-miterlimit="10" points="
		290.1,172.5 279.3,162.3 268.4,172.5 	"/>
	
		<polyline fill="none" stroke="#FFFFFF" stroke-width="2" stroke-linecap="round" stroke-linejoin="round" stroke-miterlimit="10" points="
		290.1,183.4 279.3,173.1 268.4,183.4 	"/>
	<g>
		<path fill="none" stroke="#FFFFFF" stroke-width="2" stroke-miterlimit="10" d="M289.2,243.9c-2.3-2.3-5.6-3.8-9.1-3.8
			c-7.1,0-12.9,5.8-12.9,12.9c0,7.1,5.8,12.9,12.9,12.9c5.8,0,10.7-3.8,12.3-9.1"/>
		<polygon fill="#FFFFFF" points="293.8,248.4 289.4,247.8 285.1,247.1 288.6,243.5 292.2,239.8 293,244.1 		"/>
	</g>
	<g>
		<path fill="none" stroke="#FFFFFF" stroke-miterlimit="10" d="M210.1,244.1h-23.4v18.1c0,1.1,0.9,2,2,2h21.4c1.1,0,2-0.9,2-2
			v-16.1C212.1,245,211.2,244.1,210.1,244.1z"/>
		<path fill="none" stroke="#FFFFFF" stroke-miterlimit="10" d="M207.5,257.4h4.6v-6.2h-4.6c-1.7,0-3.1,1.4-3.1,3.1l0,0
			C204.4,256,205.8,257.4,207.5,257.4z"/>
		<rect x="190" y="247.7" fill="#9896A6" stroke="#FFFFFF" stroke-miterlimit="10" width="1" height="2"/>
		<rect x="190" y="252.7" fill="#9896A6" stroke="#FFFFFF" stroke-miterlimit="10" width="1" height="2"/>
		<rect x="190" y="257.7" fill="#9896A6" stroke="#FFFFFF" stroke-miterlimit="10" width="1" height="2"/>
		<path fill="none" stroke="#FFFFFF" stroke-miterlimit="10" d="M207.8,240.2h-18.3c-1.5,0-2.8,1.2-2.8,2.8v1.2h23.9v-1.2
			C210.6,241.4,209.3,240.2,207.8,240.2z"/>
	</g>
	<g>
		<path fill="none" stroke="#FFFFFF" stroke-miterlimit="10" d="M130.2,244.1h-23.4v18.1c0,1.1,0.9,2,2,2h21.4c1.1,0,2-0.9,2-2
			v-16.1C132.2,245,131.3,244.1,130.2,244.1z"/>
		<path fill="none" stroke="#FFFFFF" stroke-miterlimit="10" d="M127.6,257.4h4.6v-6.2h-4.6c-1.7,0-3.1,1.4-3.1,3.1l0,0
			C124.5,256,125.9,257.4,127.6,257.4z"/>
		<rect x="110.1" y="247.7" fill="#9896A6" stroke="#FFFFFF" stroke-miterlimit="10" width="1" height="2"/>
		<rect x="110.1" y="252.7" fill="#9896A6" stroke="#FFFFFF" stroke-miterlimit="10" width="1" height="2"/>
		<rect x="110.1" y="257.7" fill="#9896A6" stroke="#FFFFFF" stroke-miterlimit="10" width="1" height="2"/>
		<path fill="none" stroke="#FFFFFF" stroke-miterlimit="10" d="M127.9,240.2h-18.3c-1.5,0-2.8,1.2-2.8,2.8v1.2h23.9v-1.2
			C130.7,241.4,129.4,240.2,127.9,240.2z"/>
	</g>
	<g>
		<path fill="none" stroke="#FFFFFF" stroke-miterlimit="10" d="M49.8,244.1H26.4v18.1c0,1.1,0.9,2,2,2h21.4c1.1,0,2-0.9,2-2v-16.1
			C51.8,245,50.9,244.1,49.8,244.1z"/>
		<path fill="none" stroke="#FFFFFF" stroke-miterlimit="10" d="M47.3,257.4h4.6v-6.2h-4.6c-1.7,0-3.1,1.4-3.1,3.1l0,0
			C44.1,256,45.5,257.4,47.3,257.4z"/>
		<rect x="29.7" y="247.7" fill="#9896A6" stroke="#FFFFFF" stroke-miterlimit="10" width="1" height="2"/>
		<rect x="29.7" y="252.7" fill="#9896A6" stroke="#FFFFFF" stroke-miterlimit="10" width="1" height="2"/>
		<rect x="29.7" y="257.7" fill="#9896A6" stroke="#FFFFFF" stroke-miterlimit="10" width="1" height="2"/>
		<path fill="none" stroke="#FFFFFF" stroke-miterlimit="10" d="M47.5,240.2H29.2c-1.5,0-2.8,1.2-2.8,2.8v1.2h23.9v-1.2
			C50.3,241.4,49.1,240.2,47.5,240.2z"/>
	</g>
</g>
</svg>
