<?xml version="1.0" encoding="utf-8"?>
<!-- Generator: Adobe Illustrator 24.0.1, SVG Export Plug-In . SVG Version: 6.00 Build 0)  -->
<svg version="1.1" xmlns="http://www.w3.org/2000/svg" xmlns:xlink="http://www.w3.org/1999/xlink" x="0px" y="0px"
	 viewBox="0 0 322.1 226.1" enable-background="new 0 0 322.1 226.1" xml:space="preserve">
<g id="Layer_2">
</g>
<g id="Layer_1">
</g>
<g id="Layer_3">
	
		<line fill="none" stroke="#FFFFFF" stroke-width="2" stroke-miterlimit="10" stroke-dasharray="7" x1="160.6" y1="112" x2="160.6" y2="143.3"/>
	<g>
		<path fill="#FFFFFF" d="M280.5,138.8h-2v-7h2V138.8z M278.5,124.9c-0.1-2.2-0.7-4.3-1.9-6.1l1.7-1.1c1.4,2.1,2.1,4.6,2.2,7.1
			L278.5,124.9z M271.9,114.5c-1.8-0.9-3.7-1.4-5.7-1.4l-0.6,0l0-2l0.6,0c2.3,0,4.6,0.6,6.6,1.6L271.9,114.5z M258.6,113.1l-7,0l0-2
			l7,0L258.6,113.1z M244.6,113.1l-7,0l0-2l7,0L244.6,113.1z M230.6,113.1l-7,0l0-2l7,0L230.6,113.1z M216.6,113.1l-7,0l0-2l7,0
			L216.6,113.1z M202.6,113l-7,0l0-2l7,0L202.6,113z M188.6,113l-7,0l0-2l7,0L188.6,113z M174.6,113l-7,0l0-2l7,0L174.6,113z
			 M161.6,113l-8,0l0-2l8,0L161.6,113z M146.6,113l-7,0l0-2l7,0L146.6,113z M132.6,113l-7,0l0-2l7,0L132.6,113z M118.6,113l-7,0l0-2
			l7,0L118.6,113z M104.6,113l-7,0l0-2l7,0L104.6,113z M90.6,113l-7,0l0-2l7,0L90.6,113z M76.6,113l-7,0l0-2l7,0L76.6,113z
			 M62.6,113l-7,0l0-2l7,0L62.6,113z M48.6,113l-7,0l0-2l7,0L48.6,113z"/>
	</g>
	<circle fill="#E3882D" cx="41.6" cy="40.7" r="39.9"/>
	<g>
		<g>
			<path fill="#FFFFFF" d="M34.1,54.1v-4.7H39V32.9c-1.5,0.5-3.2,0.9-5,1.3v-4.9c1.9-0.4,4.1-1.1,6.7-2h3.6v22.2h4.9v4.7H34.1z"/>
		</g>
	</g>
	<g>
		<path fill="none" stroke="#FFFFFF" stroke-width="2" stroke-miterlimit="10" d="M289.4,174.5c-2.3-2.3-5.6-3.8-9.1-3.8
			c-7.1,0-12.9,5.8-12.9,12.9c0,7.1,5.8,12.9,12.9,12.9c5.8,0,10.7-3.8,12.3-9.1"/>
		<polygon fill="#FFFFFF" points="294,179 289.6,178.3 285.3,177.7 288.8,174 292.4,170.4 293.2,174.7 		"/>
	</g>
	<circle fill="none" stroke="#FFFFFF" stroke-width="2" stroke-miterlimit="10" cx="41.6" cy="182.9" r="39"/>
	<circle fill="none" stroke="#FFFFFF" stroke-width="2" stroke-miterlimit="10" cx="160.4" cy="182.9" r="39"/>
	<circle fill="none" stroke="#FFFFFF" stroke-width="2" stroke-miterlimit="10" cx="281.4" cy="182.9" r="39"/>
	<g>
		<path fill="none" stroke="#FFFFFF" stroke-miterlimit="10" d="M170.4,174h-23.4v18.1c0,1.1,0.9,2,2,2h21.4c1.1,0,2-0.9,2-2V176
			C172.4,174.9,171.5,174,170.4,174z"/>
		<path fill="none" stroke="#FFFFFF" stroke-miterlimit="10" d="M167.8,187.3h4.6V181h-4.6c-1.7,0-3.1,1.4-3.1,3.1v0
			C164.6,185.9,166,187.3,167.8,187.3z"/>
		<rect x="150.2" y="177.6" fill="#9896A6" stroke="#FFFFFF" stroke-miterlimit="10" width="1" height="2"/>
		<rect x="150.2" y="182.6" fill="#9896A6" stroke="#FFFFFF" stroke-miterlimit="10" width="1" height="2"/>
		<rect x="150.2" y="187.6" fill="#9896A6" stroke="#FFFFFF" stroke-miterlimit="10" width="1" height="2"/>
		<path fill="none" stroke="#FFFFFF" stroke-miterlimit="10" d="M168.1,170.1h-18.3c-1.5,0-2.8,1.2-2.8,2.8v1.2h23.9v-1.2
			C170.8,171.3,169.6,170.1,168.1,170.1z"/>
	</g>
	<g>
		<path fill="none" stroke="#FFFFFF" stroke-miterlimit="10" d="M51.1,174H27.7v18.1c0,1.1,0.9,2,2,2h21.4c1.1,0,2-0.9,2-2V176
			C53.1,174.9,52.2,174,51.1,174z"/>
		<path fill="none" stroke="#FFFFFF" stroke-miterlimit="10" d="M48.5,187.3h4.6V181h-4.6c-1.7,0-3.1,1.4-3.1,3.1v0
			C45.4,185.9,46.8,187.3,48.5,187.3z"/>
		<rect x="31" y="177.6" fill="#9896A6" stroke="#FFFFFF" stroke-miterlimit="10" width="1" height="2"/>
		<rect x="31" y="182.6" fill="#9896A6" stroke="#FFFFFF" stroke-miterlimit="10" width="1" height="2"/>
		<rect x="31" y="187.6" fill="#9896A6" stroke="#FFFFFF" stroke-miterlimit="10" width="1" height="2"/>
		<path fill="none" stroke="#FFFFFF" stroke-miterlimit="10" d="M48.8,170.1H30.5c-1.5,0-2.8,1.2-2.8,2.8v1.2h23.9v-1.2
			C51.6,171.3,50.3,170.1,48.8,170.1z"/>
	</g>
	
		<line fill="none" stroke="#FFFFFF" stroke-width="2" stroke-miterlimit="10" stroke-dasharray="7" x1="41.6" y1="80.6" x2="41.6" y2="143.3"/>
</g>
</svg>
