<?xml version="1.0" encoding="utf-8"?>
<!-- Generator: Adobe Illustrator 24.0.1, SVG Export Plug-In . SVG Version: 6.00 Build 0)  -->
<svg version="1.1" id="Layer_1" xmlns="http://www.w3.org/2000/svg" xmlns:xlink="http://www.w3.org/1999/xlink" x="0px" y="0px"
	 viewBox="0 0 1920 618.5" enable-background="new 0 0 1920 618.5" xml:space="preserve">
<g id="Layer_2_1_" display="none">
	
		<image display="inline" overflow="visible" enable-background="new    " width="1920" height="600" xlink:href="../../../../Downloads/Telegram Desktop/тут все/line.png"  transform="matrix(1 0 0 1 0 19.0159)">
	</image>
</g>
<g id="Layer_3">
	
		<linearGradient id="SVGID_1_" gradientUnits="userSpaceOnUse" x1="960" y1="575.7964" x2="960" y2="43.4983" gradientTransform="matrix(1 0 0 -1 0 640.0317)">
		<stop  offset="0" style="stop-color:#302C4C"/>
		<stop  offset="1" style="stop-color:#313131;stop-opacity:0"/>
	</linearGradient>
	<polygon fill="url(#SVGID_1_)" points="0,399.4 212,343 382,356 1510,127 1679,140.7 1759,88.7 1920,50.1 1920,618.5 0,618.5 	"/>
</g>
<g id="Layer_1_1_">
	<polyline fill="none" stroke="#302C4C" stroke-width="4" stroke-miterlimit="10" points="1920,50.1 1759,88.7 1679,140.7 1510,127 
		382,356 212,343 0,399.4 	"/>
	<circle fill="#A3AADB" cx="212" cy="343" r="6"/>
	<circle fill="#A3AADB" cx="382" cy="356" r="6"/>
	<g>
		<rect x="211" y="369" fill="#A3AADB" width="2" height="2"/>
		<rect x="211" y="377" fill="#A3AADB" width="2" height="2"/>
		<rect x="211" y="385" fill="#A3AADB" width="2" height="2"/>
		<rect x="211" y="393" fill="#A3AADB" width="2" height="2"/>
		<rect x="211" y="401" fill="#A3AADB" width="2" height="2"/>
		<rect x="211" y="417" fill="#A3AADB" width="2" height="2"/>
		<rect x="211" y="409" fill="#A3AADB" width="2" height="2"/>
		<rect x="211" y="425" fill="#A3AADB" width="2" height="2"/>
		<rect x="211" y="433" fill="#A3AADB" width="2" height="2"/>
		<rect x="211" y="441" fill="#A3AADB" width="2" height="2"/>
		<rect x="211" y="449" fill="#A3AADB" width="2" height="2"/>
	</g>
	<circle fill="#A3AADB" cx="1759" cy="88.7" r="6"/>
	<g>
		<rect x="1758" y="114.7" fill="#A3AADB" width="2" height="2"/>
		<rect x="1758" y="122.7" fill="#A3AADB" width="2" height="2"/>
		<rect x="1758" y="130.7" fill="#A3AADB" width="2" height="2"/>
		<rect x="1758" y="138.7" fill="#A3AADB" width="2" height="2"/>
		<rect x="1758" y="146.7" fill="#A3AADB" width="2" height="2"/>
		<rect x="1758" y="162.7" fill="#A3AADB" width="2" height="2"/>
		<rect x="1758" y="154.7" fill="#A3AADB" width="2" height="2"/>
		<rect x="1758" y="170.7" fill="#A3AADB" width="2" height="2"/>
		<rect x="1758" y="178.7" fill="#A3AADB" width="2" height="2"/>
		<rect x="1758" y="186.7" fill="#A3AADB" width="2" height="2"/>
		<rect x="1758" y="194.7" fill="#A3AADB" width="2" height="2"/>
	</g>
	<g>
		<rect x="381" y="248" fill="#A3AADB" width="2" height="2"/>
		<rect x="381" y="256" fill="#A3AADB" width="2" height="2"/>
		<rect x="381" y="264" fill="#A3AADB" width="2" height="2"/>
		<rect x="381" y="272" fill="#A3AADB" width="2" height="2"/>
		<rect x="381" y="280" fill="#A3AADB" width="2" height="2"/>
		<rect x="381" y="296" fill="#A3AADB" width="2" height="2"/>
		<rect x="381" y="288" fill="#A3AADB" width="2" height="2"/>
		<rect x="381" y="304" fill="#A3AADB" width="2" height="2"/>
		<rect x="381" y="312" fill="#A3AADB" width="2" height="2"/>
		<rect x="381" y="320" fill="#A3AADB" width="2" height="2"/>
		<rect x="381" y="328" fill="#A3AADB" width="2" height="2"/>
	</g>
	<circle fill="#A3AADB" cx="1510" cy="127" r="6"/>
	<g>
		<rect x="1509" y="19" fill="#A3AADB" width="2" height="2"/>
		<rect x="1509" y="27" fill="#A3AADB" width="2" height="2"/>
		<rect x="1509" y="35" fill="#A3AADB" width="2" height="2"/>
		<rect x="1509" y="43" fill="#A3AADB" width="2" height="2"/>
		<rect x="1509" y="51" fill="#A3AADB" width="2" height="2"/>
		<rect x="1509" y="59.1" fill="#A3AADB" width="2" height="2"/>
		<rect x="1509" y="67" fill="#A3AADB" width="2" height="2"/>
		<rect x="1509" y="75" fill="#A3AADB" width="2" height="2"/>
		<rect x="1509" y="83" fill="#A3AADB" width="2" height="2"/>
		<rect x="1509" y="91" fill="#A3AADB" width="2" height="2"/>
		<rect x="1509" y="99" fill="#A3AADB" width="2" height="2"/>
	</g>
</g>
<text transform="matrix(1 0 0 1 198.8672 468.4832)" fill="#A3AADB" font-family="'NeuronAngled-Bold'" font-size="12px">id780</text>
<text transform="matrix(1 0 0 1 369.0373 238.0097)" fill="#A3AADB" font-family="'NeuronAngled-Bold'" font-size="12px">id461</text>
<text transform="matrix(1 0 0 1 1497.021 9.0293)" fill="#A3AADB" font-family="'NeuronAngled-Bold'" font-size="12px">id208</text>
<text transform="matrix(1 0 0 1 1743.5023 214.2596)" fill="#A3AADB" font-family="'NeuronAngled-Bold'" font-size="12px">id1205</text>
</svg>
