<svg version="1" xmlns="http://www.w3.org/2000/svg" width="341.333" height="341.333" viewBox="0 0 256.000000 256.000000"><path d="M125.9 1.4c-.2.2-3 .7-6.2 1-8.3 1-33.6 11.7-41.2 17.5-5.3 4-6.6 4.6-11.4 4.7-4.6.1-6.5-.5-13.4-4.3-4.4-2.5-11.1-7-15-10C30.8 4 26.3 2.7 21.1 5.4c-2.9 1.5-3.1 2-3.2 7.4-.3 15.1 0 16.8 3.7 24.8 6.6 14.2 7.5 16.8 10.1 27.4 1.3 5.8 2.7 11.5 2.9 12.7.2 1.2.9 3.4 1.4 4.8.5 1.4.7 2.5.5 2.5-.2 0 0 1.1.5 2.4.5 1.5.5 3.8-.1 6.1-.6 2.1-1.2 4.5-1.4 5.4-.3.9-1.2 4.3-2.1 7.6-.9 3.3-1.8 6.8-2 7.8-.2 1-.6 2.8-1 3.9-2 6.5-1.8 23.5.4 30.8 2.7 8.8 4.3 14.9 4.2 15.5-.2.9 3 5.5 6.4 9.2 12.7 13.8 12.5 13.7 25.3 18.9l12.3 4.9-.5 11-.5 11 10.4 10.3c5.7 5.6 11.4 12.3 12.7 14.7 1.9 3.6 5 6.3 6.6 5.7.2 0 1.7.4 3.5.9s4.4 1.1 5.8 1.4c5.1 1 7.2 1.4 8.8 1.9.9.3 7.3-.7 14.2-2.2l12.4-2.8 2.3-4.5c1.3-2.4 7.1-9.2 12.9-15l10.6-10.7-.4-10.7c-.2-8.8 0-10.9 1.2-11.5.8-.5 6.5-2.9 12.7-5.5 10.5-4.4 11.5-5.1 17.7-11.9 7.8-8.6 11-12.6 11.2-14 .1-.6 1.6-6.3 3.4-12.6 1.8-6.3 3.3-12.6 3.3-14 0-7.4-.8-16.2-2-21.5-.8-3.3-1.6-6.9-1.9-8-.2-1.1-1.5-5.9-2.8-10.8l-2.4-8.7 4.8-19.3c2.7-10.5 5.5-20.6 6.4-22.2 7.5-15.2 8.7-18.8 8.7-27.5.1-14.2.2-13.8-3.2-15.6-5.2-2.6-9.8-1.4-17.5 4.8-11.2 9-20.8 14-27.7 14.3-5.4.2-6 0-12-4.4-8-6.1-31.3-16-41.7-17.7-8.5-1.5-9.5-1.6-10.1-1z"/></svg>