<?xml version="1.0"?>
<svg xmlns="http://www.w3.org/2000/svg" id="Layer_1" data-name="Layer 1" viewBox="0 0 512 512" width="512px" height="512px" class=""><g><script xmlns="" type="text/javascript" src="chrome-extension://gjdneabihbmcpobmfhcnljaojmgoihfk/js/vendor.js" class="active-path" style=""/><title class="active-path">Withdrwal</title><path d="M488.925,59H23.075C18.657,59,15,62.21,15,66.629V294.378C15,298.8,18.657,302,23.075,302H127V445.371c0,4.419,3.834,7.629,8.252,7.629h241.5c4.418,0,8.252-3.21,8.252-7.629V302H488.925c4.418,0,8.075-3.2,8.075-7.622V66.629C497,62.21,493.343,59,488.925,59ZM127,212H83V149h44Zm54,225H143V400h6.4c17.579,0,31.6,14.649,31.6,32.229Zm188,0H329v-5.225C329,414.2,343.761,400,361.34,400H369Zm0-53h-7.66c-26.4,0-48.34,21.374-48.34,47.775V437H197v-4.771c0-26.4-21.2-48.229-47.6-48.229H143V149H369Zm112-98H385V228h52.164c4.418,0,7.836-3.97,7.836-8.388V141.4c0-4.418-3.418-8.4-7.836-8.4H74.836C70.418,133,67,136.977,67,141.4v78.217C67,224.03,70.418,228,74.836,228H127v58H31V75H481Zm-96-74V149h44v63Z" data-original="#000000" class="active-path" fill="#FFFFFF"/><path d="M256,332.992a84.305,84.305,0,1,0-84.306-84.3A84.4,84.4,0,0,0,256,332.992Zm0-152.61a68.305,68.305,0,1,1-68.306,68.305A68.383,68.383,0,0,1,256,180.382Z" data-original="#000000" class="active-path" fill="#FFFFFF"/><path d="M257.15,284.092a7.234,7.234,0,0,0-2.3,0,13.22,13.22,0,0,1-12.058-13.15,8,8,0,0,0-16,0A29.253,29.253,0,0,0,248,299.027V305a8,8,0,0,0,16,0v-5.973a29.2,29.2,0,0,0-8-57.293,13.209,13.209,0,1,1,13.208-13.209,8,8,0,1,0,16,0A29.254,29.254,0,0,0,264,200.44V196a8,8,0,0,0-16,0v4.44a29.205,29.205,0,0,0,8,57.294,13.2,13.2,0,0,1,1.15,26.358Z" data-original="#000000" class="active-path" fill="#FFFFFF"/></g> </svg>
