<?xml version="1.0"?>
<svg xmlns="http://www.w3.org/2000/svg" xmlns:xlink="http://www.w3.org/1999/xlink" version="1.1" id="Capa_1" x="0px" y="0px" viewBox="0 0 501.208 501.208" style="enable-background:new 0 0 501.208 501.208;" xml:space="preserve" width="512px" height="512px" class=""><g><script xmlns="" type="text/javascript" src="chrome-extension://gjdneabihbmcpobmfhcnljaojmgoihfk/js/vendor.js" class="active-path" style=""/><g>
	<g>
		<path d="M490.336,460.548c-5.784-20.256-22.208-35.408-42.856-39.528l-42.176-8.432c12.088-4.28,23.392-10.728,33.24-19.232    l-10.456-12.112c-15.96,13.776-36.368,21.36-57.48,21.36c-48.52,0-88-39.48-88-88c0-48.52,39.48-88,88-88c48.52,0,88,39.48,88,88    c0,20.28-6.704,39.344-19.4,55.128l12.472,10.032c14.784-18.392,22.928-41.528,22.928-65.16c0-57.344-46.656-104-104-104    c-11.584,0-22.688,1.984-33.104,5.496c-3.232-1.312-6.576-2.392-10.024-3.08l-42.176-8.432    c12.088-4.28,23.392-10.728,33.24-19.232l-10.456-12.112c-15.96,13.776-36.368,21.36-57.48,21.36c-48.52,0-88-39.48-88-88    s39.48-88,88-88s88,39.48,88,88c0,20.28-6.704,39.344-19.4,55.128l12.472,10.032c14.784-18.392,22.928-41.528,22.928-65.16    c0-57.344-46.656-104-104-104s-104,46.656-104,104c0,45.208,29.04,83.656,69.408,97.96l-42.28,8.456    c-3.448,0.688-6.792,1.76-10.032,3.08c-10.408-3.512-21.512-5.496-33.096-5.496c-57.344,0-104,46.656-104,104    c0,45.208,29.04,83.656,69.408,97.96l-42.272,8.456c-20.656,4.128-37.08,19.272-42.864,39.528L0,498.604h240h21.208h240    L490.336,460.548z M370.608,418.604c3.832,0,7.632-0.28,11.408-0.704l-11.408,22.816l-11.384-22.768    C362.968,418.356,366.76,418.604,370.608,418.604z M234.608,209.244c5.232,0.816,10.544,1.36,16,1.36    c5.392,0,10.728-0.496,16-1.32v1.32c0,8.824-7.176,16-16,16c-8.824,0-16-7.176-16-16V209.244z M220.192,220.044    c4.056,13.024,16.08,22.56,30.416,22.56s26.36-9.536,30.416-22.56l34.016,6.8c-17.92,11.384-32.168,28.024-40.432,47.824v-0.064    h-48v0.064c-8.264-19.792-22.512-36.432-40.432-47.824L220.192,220.044z M200.856,482.604l-6.488-25.936l-15.52,3.872    l5.512,22.064H76.856l5.512-22.064l-15.52-3.872l-6.488,25.936H21.216l5.048-17.664c4.136-14.472,15.864-25.28,30.616-28.232    l43.312-8.664c4.056,13.024,16.08,22.56,30.416,22.56s26.36-9.536,30.416-22.56l43.32,8.664    c14.752,2.952,26.48,13.768,30.616,28.232l5.04,17.664H200.856z M114.608,418.604v-1.36c5.232,0.816,10.544,1.36,16,1.36    c5.392,0,10.728-0.496,16-1.32v1.32c0,8.824-7.176,16-16,16C121.784,434.604,114.608,427.428,114.608,418.604z M250.88,460.548    l-0.272,0.944l-0.272-0.944c-5.784-20.256-22.208-35.408-42.856-39.528l-42.176-8.432c12.088-4.28,23.392-10.728,33.24-19.232    l-10.456-12.112c-15.96,13.776-36.368,21.36-57.48,21.36c-48.52,0-88-39.48-88-88c0-48.52,39.48-88,88-88s88,39.48,88,88    c0,20.28-6.704,39.344-19.4,55.128l12.472,10.032c14.784-18.392,22.928-41.528,22.928-65.16c0-8.272-1.072-16.28-2.904-24h37.816    c-1.84,7.72-2.912,15.728-2.912,24c0,45.208,29.04,83.656,69.408,97.96l-42.272,8.456    C273.088,425.14,256.664,440.292,250.88,460.548z M440.856,482.604l-6.488-25.936l-15.52,3.872l5.512,22.064H316.856l5.512-22.064    l-15.52-3.872l-6.488,25.936h-39.152l5.048-17.664c4.136-14.472,15.864-25.28,30.616-28.232l48.944-9.784l24.792,49.568    l24.784-49.576l48.944,9.784c14.752,2.952,26.48,13.768,30.616,28.232L480,482.604H440.856z" data-original="#000000" class="active-path" fill="#FFFFFF"/>
	</g>
</g><g>
	<g>
		<path d="M42.608,18.604c-13.232,0-24,10.768-24,24c0,10.416,6.712,19.216,16,22.528v73.472h16V65.132    c9.288-3.312,16-12.112,16-22.528C66.608,29.372,55.84,18.604,42.608,18.604z M42.608,50.604c-4.408,0-8-3.584-8-8s3.592-8,8-8    s8,3.584,8,8S47.016,50.604,42.608,50.604z" data-original="#000000" class="active-path" fill="#FFFFFF"/>
	</g>
</g><g>
	<g>
		<path d="M98.608,132.076V58.604h-16v73.472c-9.288,3.312-16,12.112-16,22.528c0,13.232,10.768,24,24,24s24-10.768,24-24    C114.608,144.188,107.896,135.388,98.608,132.076z M90.608,162.604c-4.408,0-8-3.584-8-8s3.592-8,8-8s8,3.584,8,8    S95.016,162.604,90.608,162.604z" data-original="#000000" class="active-path" fill="#FFFFFF"/>
	</g>
</g><g>
	<g>
		<path d="M410.608,18.604c-13.232,0-24,10.768-24,24c0,10.416,6.712,19.216,16,22.528v73.472h16V65.132    c9.288-3.312,16-12.112,16-22.528C434.608,29.372,423.84,18.604,410.608,18.604z M410.608,50.604c-4.408,0-8-3.584-8-8    s3.592-8,8-8c4.408,0,8,3.584,8,8S415.016,50.604,410.608,50.604z" data-original="#000000" class="active-path" fill="#FFFFFF"/>
	</g>
</g><g>
	<g>
		<path d="M466.608,132.076V58.604h-16v73.472c-9.288,3.312-16,12.112-16,22.528c0,13.232,10.768,24,24,24s24-10.768,24-24    C482.608,144.188,475.896,135.388,466.608,132.076z M458.608,162.604c-4.408,0-8-3.584-8-8s3.592-8,8-8c4.408,0,8,3.584,8,8    S463.016,162.604,458.608,162.604z" data-original="#000000" class="active-path" fill="#FFFFFF"/>
	</g>
</g><g>
	<g>
		<path d="M370.608,306.604c-8.824,0-16-7.176-16-16c0-8.824,7.176-16,16-16c8.824,0,16,7.176,16,16h16    c0-14.872-10.24-27.288-24-30.864v-17.136h-16v17.136c-13.76,3.576-24,15.992-24,30.864c0,17.648,14.352,32,32,32    c8.824,0,16,7.176,16,16c0,8.824-7.176,16-16,16c-8.824,0-16-7.176-16-16h-16c0,14.872,10.24,27.288,24,30.864v17.136h16v-17.136    c13.76-3.576,24-15.992,24-30.864C402.608,320.956,388.256,306.604,370.608,306.604z" data-original="#000000" class="active-path" fill="#FFFFFF"/>
	</g>
</g><g>
	<g>
		<rect x="426.608" y="306.604" width="16" height="16" data-original="#000000" class="active-path" fill="#FFFFFF"/>
	</g>
</g><g>
	<g>
		<rect x="298.608" y="306.604" width="16" height="16" data-original="#000000" class="active-path" fill="#FFFFFF"/>
	</g>
</g><g>
	<g>
		<path d="M130.608,306.604c-8.824,0-16-7.176-16-16c0-8.824,7.176-16,16-16c8.824,0,16,7.176,16,16h16    c0-14.872-10.24-27.288-24-30.864v-17.136h-16v17.136c-13.76,3.576-24,15.992-24,30.864c0,17.648,14.352,32,32,32    c8.824,0,16,7.176,16,16c0,8.824-7.176,16-16,16c-8.824,0-16-7.176-16-16h-16c0,14.872,10.24,27.288,24,30.864v17.136h16v-17.136    c13.76-3.576,24-15.992,24-30.864C162.608,320.956,148.256,306.604,130.608,306.604z" data-original="#000000" class="active-path" fill="#FFFFFF"/>
	</g>
</g><g>
	<g>
		<rect x="186.608" y="306.604" width="16" height="16" data-original="#000000" class="active-path" fill="#FFFFFF"/>
	</g>
</g><g>
	<g>
		<rect x="58.608" y="306.604" width="16" height="16" data-original="#000000" class="active-path" fill="#FFFFFF"/>
	</g>
</g><g>
	<g>
		<path d="M250.608,98.604c-8.824,0-16-7.176-16-16s7.176-16,16-16c8.824,0,16,7.176,16,16h16c0-14.872-10.24-27.288-24-30.864    V34.604h-16V51.74c-13.76,3.576-24,15.992-24,30.864c0,17.648,14.352,32,32,32c8.824,0,16,7.176,16,16s-7.176,16-16,16    c-8.824,0-16-7.176-16-16h-16c0,14.872,10.24,27.288,24,30.864v17.136h16v-17.136c13.76-3.576,24-15.992,24-30.864    C282.608,112.956,268.256,98.604,250.608,98.604z" data-original="#000000" class="active-path" fill="#FFFFFF"/>
	</g>
</g><g>
	<g>
		<rect x="306.608" y="98.604" width="16" height="16" data-original="#000000" class="active-path" fill="#FFFFFF"/>
	</g>
</g><g>
	<g>
		<rect x="178.608" y="98.604" width="16" height="16" data-original="#000000" class="active-path" fill="#FFFFFF"/>
	</g>
</g></g> </svg>
