<?xml version="1.0"?>
<svg xmlns="http://www.w3.org/2000/svg" height="512px" viewBox="0 -16 512 512" width="512px" class=""><g><script xmlns="" type="text/javascript" src="chrome-extension://gjdneabihbmcpobmfhcnljaojmgoihfk/js/vendor.js" class="active-path" style=""/><path d="m266 390c0 5.523438-4.476562 10-10 10s-10-4.476562-10-10 4.476562-10 10-10 10 4.476562 10 10zm0 0" data-original="#000000" class="active-path" fill="#FFFFFF"/><path d="m479 300c0-33.085938-26.914062-60-60-60s-60 26.914062-60 60 26.914062 60 60 60 60-26.914062 60-60zm-60 40c-22.054688 0-40-17.945312-40-40s17.945312-40 40-40 40 17.945312 40 40-17.945312 40-40 40zm0 0" data-original="#000000" class="active-path" fill="#FFFFFF"/><path d="m419 360c-25.199219 0-50.328125 10.460938-67.445312 27.421875-22.53125-29.609375-57.273438-47.421875-95.554688-47.421875-36.660156 0-72.183594 16.726562-95.550781 47.421875-17.121094-16.957031-42.246094-27.421875-67.449219-27.421875-50.410156 0-93 41.214844-93 90v20c0 5.523438 4.476562 10 10 10h492c5.523438 0 10-4.476562 10-10v-20c0-48.785156-42.589844-90-93-90zm-399 90c0-37.945312 33.429688-70 73-70 21.652344 0 43.125 9.59375 56.417969 24.84375-8.789063 16.976562-13.417969 35.898438-13.417969 55.15625h-116zm236-90c55.644531 0 100 45.148438 100 100h-200c0-55.582031 45.261719-100 100-100zm236 100h-116c0-19.257812-4.628906-38.179688-13.417969-55.15625 13.292969-15.25 34.765625-24.84375 56.417969-24.84375 39.570312 0 73 32.054688 73 70zm0 0" data-original="#000000" class="active-path" fill="#FFFFFF"/><path d="m153 300c0-33.085938-26.914062-60-60-60s-60 26.914062-60 60 26.914062 60 60 60 60-26.914062 60-60zm-60 40c-22.054688 0-40-17.945312-40-40s17.945312-40 40-40 40 17.945312 40 40-17.945312 40-40 40zm0 0" data-original="#000000" class="active-path" fill="#FFFFFF"/><path d="m336 260c0-44.113281-35.886719-80-80-80s-80 35.886719-80 80 35.886719 80 80 80 80-35.886719 80-80zm-80 60c-33.085938 0-60-26.914062-60-60s26.914062-60 60-60 60 26.914062 60 60-26.914062 60-60 60zm0 0" data-original="#000000" class="active-path" fill="#FFFFFF"/><path d="m335.140625 58.160156c-1.175781-3.621094-4.304687-6.257812-8.074219-6.804687l-43.132812-6.261719-19.3125-39.484375c-1.675782-3.433594-5.160156-5.609375-8.980469-5.609375s-7.304687 2.175781-8.984375 5.605469l-19.308594 39.488281-43.132812 6.257812c-3.769532.546876-6.898438 3.1875-8.074219 6.808594s-.195313 7.59375 2.53125 10.25l31.234375 30.441406-7.371094 42.988282c-.644531 3.75.898438 7.542968 3.980469 9.777344 3.0625 2.226562 7.140625 2.542968 10.53125.761718l38.59375-20.292968 38.609375 20.292968c3.367188 1.773438 7.449219 1.476563 10.53125-.761718 3.078125-2.238282 4.621094-6.027344 3.976562-9.78125l-7.378906-42.984376 31.230469-30.441406c2.726563-2.65625 3.707031-6.628906 2.53125-10.25zm-51.492187 30.039063c-2.355469 2.296875-3.433594 5.609375-2.875 8.851562l4.839843 28.199219-25.320312-13.3125c-2.914063-1.53125-6.394531-1.53125-9.308594 0l-25.3125 13.3125 4.835937-28.199219c.554688-3.246093-.523437-6.554687-2.878906-8.851562l-20.484375-19.964844 28.300781-4.109375c3.273438-.472656 6.097657-2.535156 7.546876-5.503906l12.648437-25.859375 12.644531 25.859375c1.453125 2.972656 4.277344 5.03125 7.546875 5.503906l28.304688 4.109375zm0 0" data-original="#000000" class="active-path" fill="#FFFFFF"/><path d="m484.609375 133.109375c-1.175781-3.621094-4.304687-6.257813-8.074219-6.804687l-29.222656-4.246094-13.066406-26.484375c-1.683594-3.414063-5.15625-5.574219-8.964844-5.574219 0 0 0 0-.003906 0-3.804688 0-7.28125 2.160156-8.964844 5.574219l-13.074219 26.484375-29.226562 4.246094c-3.765625.546874-6.894531 3.183593-8.070313 6.804687-1.179687 3.621094-.199218 7.59375 2.527344 10.25l21.144531 20.621094-4.992187 29.101562c-.640625 3.75.898437 7.539063 3.980468 9.777344 3.078126 2.238281 7.160157 2.535156 10.527344.765625l26.148438-13.738281 26.140625 13.738281c3.367187 1.769531 7.453125 1.472656 10.53125-.765625 3.078125-2.234375 4.617187-6.027344 3.976562-9.777344l-4.992187-29.101562 21.148437-20.621094c2.726563-2.65625 3.703125-6.628906 2.527344-10.25zm-41.398437 20.222656c-2.359376 2.296875-3.433594 5.605469-2.875 8.847657l2.453124 14.3125-12.855468-6.753907c-2.914063-1.53125-6.394532-1.53125-9.304688 0l-12.867187 6.757813 2.457031-14.316406c.554688-3.242188-.519531-6.550782-2.875-8.847657l-10.40625-10.148437 14.378906-2.085938c3.257813-.472656 6.074219-2.519531 7.53125-5.46875l6.429688-13.027344 6.425781 13.023438c1.457031 2.953125 4.273437 5 7.53125 5.472656l14.378906 2.085938zm0 0" data-original="#000000" class="active-path" fill="#FFFFFF"/><path d="m144.609375 133.109375c-1.175781-3.621094-4.304687-6.257813-8.074219-6.804687l-29.222656-4.246094-13.066406-26.484375c-1.683594-3.414063-5.15625-5.574219-8.964844-5.574219s-7.285156 2.160156-8.96875 5.574219l-13.074219 26.484375-29.226562 4.246094c-3.765625.546874-6.894531 3.183593-8.070313 6.804687-1.179687 3.621094-.199218 7.59375 2.527344 10.25l21.144531 20.621094-4.988281 29.101562c-.644531 3.75.898438 7.539063 3.976562 9.777344 3.078126 2.238281 7.160157 2.535156 10.53125.765625l26.144532-13.738281 26.140625 13.738281c3.390625 1.78125 7.46875 1.460938 10.53125-.765625 3.078125-2.234375 4.621093-6.027344 3.976562-9.777344l-4.992187-29.101562 21.148437-20.621094c2.726563-2.65625 3.703125-6.628906 2.527344-10.25zm-41.402344 20.222656c-2.355469 2.296875-3.429687 5.605469-2.875 8.847657l2.457031 14.3125-12.859374-6.753907c-2.910157-1.53125-6.390626-1.53125-9.300782 0l-12.871094 6.757813 2.457032-14.316406c.558594-3.242188-.519532-6.550782-2.875-8.847657l-10.40625-10.148437 14.382812-2.085938c3.253906-.472656 6.070313-2.519531 7.527344-5.46875l6.429688-13.027344 6.425781 13.023438c1.457031 2.953125 4.273437 5 7.53125 5.472656l14.378906 2.085938zm0 0" data-original="#000000" class="active-path" fill="#FFFFFF"/><path d="m299.820312 393.09375c-4.617187-3.035156-10.816406-1.75-13.847656 2.867188-3.035156 4.613281-1.75 10.8125 2.867188 13.847656 9.246094 6.074218 16.636718 14.542968 21.371094 24.488281 2.367187 4.980469 8.328124 7.109375 13.324218 4.730469 4.988282-2.371094 7.105469-8.339844 4.734375-13.324219-6.304687-13.25-16.144531-24.527344-28.449219-32.609375zm0 0" data-original="#000000" class="active-path" fill="#FFFFFF"/></g> </svg>
