<?xml version="1.0"?>
<svg xmlns="http://www.w3.org/2000/svg" id="Layer_5" enable-background="new 0 0 64 64" height="512px" viewBox="0 0 64 64" width="512px" class=""><g><script xmlns="" type="text/javascript" src="chrome-extension://gjdneabihbmcpobmfhcnljaojmgoihfk/js/vendor.js" class="active-path" style=""/><path d="m58 11h-15c0-5.514-4.486-10-10-10s-10 4.486-10 10h-17c-2.757 0-5 2.243-5 5v30c0 2.757 2.243 5 5 5h17.382l-2 4h-1.382c-2.757 0-5 2.243-5 5v3h34v-3c0-2.757-2.243-5-5-5h-1.382l-2-4h17.382c2.757 0 5-2.243 5-5v-30c0-2.757-2.243-5-5-5zm-25-8c4.411 0 8 3.589 8 8 0 1.893-.665 3.633-1.768 5.005-.792-.986-1.796-1.763-2.931-2.278 1.034-.918 1.699-2.24 1.699-3.727 0-2.757-2.243-5-5-5s-5 2.243-5 5c0 1.487.665 2.809 1.699 3.726-1.135.516-2.139 1.293-2.931 2.278-1.104-1.371-1.768-3.111-1.768-5.004 0-4.411 3.589-8 8-8zm-14 26c-2.206 0-4-1.794-4-4s1.794-4 4-4 4 1.794 4 4-1.794 4-4 4zm7.929 8h-15.858c.486-3.388 3.408-6 6.929-6h2c3.521 0 6.442 2.612 6.929 6zm-5.756-17.587c-.675-.263-1.406-.413-2.173-.413-3.309 0-6 2.691-6 6 0 1.796.797 3.406 2.051 4.506-3.517 1.225-6.051 4.565-6.051 8.494v1h20v-1c0-1.053-.191-2.06-.525-3h7.366c1.547 3.527 5.068 6 9.159 6 5.514 0 10-4.486 10-10s-4.486-10-10-10-10 4.486-10 10c0 .685.07 1.354.202 2h-7.723c-1.08-1.61-2.668-2.846-4.53-3.494 1.254-1.1 2.051-2.71 2.051-4.506 0-1.803-.803-3.419-2.066-4.52l2.719-2.719c1.829 1.985 4.441 3.239 7.347 3.239 3.261 0 6.154-1.577 7.981-4h16.019v26h-35.586l-1.414-1.414c-.372-.372-.888-.586-1.414-.586h-11.586v-24h16.586zm23.827 15.587c1.897 0 3.667.899 4.792 2.391-1.337 1.005-2.993 1.609-4.792 1.609s-3.455-.604-4.792-1.609c1.125-1.492 2.895-2.391 4.792-2.391zm-3-5c0-1.654 1.346-3 3-3s3 1.346 3 3-1.346 3-3 3-3-1.346-3-3zm6.301 3.726c1.034-.917 1.699-2.239 1.699-3.726 0-2.757-2.243-5-5-5s-5 2.243-5 5c0 1.487.665 2.809 1.699 3.726-1.135.516-2.139 1.292-2.931 2.278-1.104-1.371-1.768-3.111-1.768-5.004 0-4.411 3.589-8 8-8s8 3.589 8 8c0 1.893-.664 3.633-1.768 5.004-.792-.985-1.796-1.762-2.931-2.278zm-15.301-18.726c1.897 0 3.667.899 4.792 2.391-1.337 1.005-2.993 1.609-4.792 1.609s-3.455-.604-4.792-1.61c1.125-1.491 2.895-2.39 4.792-2.39zm-3-5c0-1.654 1.346-3 3-3s3 1.346 3 3-1.346 3-3 3-3-1.346-3-3zm14 47c1.654 0 3 1.346 3 3v1h-30v-1c0-1.654 1.346-3 3-3zm-20.382-2 2-4h12.764l2 4zm37.382-9c0 1.654-1.346 3-3 3h-52c-1.654 0-3-1.346-3-3v-30c0-1.654 1.346-3 3-3h17.202c.142.696.36 1.364.639 2h-16.841c-1.103 0-2 .897-2 2v24c0 1.103.897 2 2 2h11.586l1.414 1.414c.372.372.888.586 1.414.586h35.586c1.103 0 2-.897 2-2v-26c0-1.103-.897-2-2-2h-14.841c.279-.636.497-1.304.639-2h15.202c1.654 0 3 1.346 3 3z" data-original="#000000" class="active-path" fill="#FFFFFF"/><path d="m7 45h2v2h-2z" data-original="#000000" class="active-path" fill="#FFFFFF"/><path d="m11 45h2v2h-2z" data-original="#000000" class="active-path" fill="#FFFFFF"/><path d="m15 45h2v2h-2z" data-original="#000000" class="active-path" fill="#FFFFFF"/><path d="m9 19h2v2h-2z" data-original="#000000" class="active-path" fill="#FFFFFF"/><path d="m9 23h2v2h-2z" data-original="#000000" class="active-path" fill="#FFFFFF"/><path d="m9 27h2v2h-2z" data-original="#000000" class="active-path" fill="#FFFFFF"/></g> </svg>
