<?xml version="1.0" encoding="utf-8"?>
<!-- Generator: Adobe Illustrator 18.0.0, SVG Export Plug-In . SVG Version: 6.00 Build 0)  -->
<!DOCTYPE svg PUBLIC "-//W3C//DTD SVG 1.1//EN" "http://www.w3.org/Graphics/SVG/1.1/DTD/svg11.dtd">
<svg version="1.1" id="Layer_1" xmlns="http://www.w3.org/2000/svg" xmlns:xlink="http://www.w3.org/1999/xlink" x="0px" y="0px"
	 viewBox="0 0 287 248.8" enable-background="new 0 0 287 248.8" xml:space="preserve">
<g>
	<g>
		<g>
			<g opacity="0.2">
				<g>
					<g>
						
							<line fill="none" stroke="#FFFFFF" stroke-width="0.9189" stroke-linecap="round" stroke-linejoin="round" stroke-miterlimit="10" stroke-dasharray="2.8716,2.8716" x1="142" y1="190.5" x2="142" y2="136.7"/>
					</g>
					<g>
						
							<line fill="none" stroke="#FFFFFF" stroke-width="0.9189" stroke-linecap="round" stroke-linejoin="round" stroke-miterlimit="10" stroke-dasharray="2.8716,2.8716" x1="100.8" y1="195.2" x2="142" y2="149.8"/>
					</g>
					<g>
						
							<line fill="none" stroke="#FFFFFF" stroke-width="0.9189" stroke-linecap="round" stroke-linejoin="round" stroke-miterlimit="10" stroke-dasharray="2.8716,2.8716" x1="183.3" y1="194.7" x2="142" y2="149.8"/>
					</g>
				</g>
			</g>
			<g>
				<g>
					<g>
						<g>
							<g opacity="0.25">
								<circle cx="93.2" cy="205.3" r="12.6"/>
							</g>
							<g>
								<circle fill="#00B0C2" cx="91.7" cy="203.8" r="12.6"/>
							</g>
						</g>
						<g>
							<g opacity="0.25">
								<circle cx="143.5" cy="205.3" r="12.6"/>
							</g>
							<g>
								<circle fill="#00B0C2" cx="142" cy="203.8" r="12.6"/>
							</g>
						</g>
						<g>
							<g opacity="0.25">
								<circle fill="none" stroke="#000000" stroke-width="0.9123" stroke-miterlimit="10" cx="192.9" cy="204.8" r="12.6"/>
							</g>
							<g>
								<circle fill="none" stroke="#00B0C2" stroke-width="0.9123" stroke-miterlimit="10" cx="191.9" cy="203.8" r="12.6"/>
							</g>
						</g>
					</g>
				</g>
			</g>
		</g>
	</g>
	<g>
		<g opacity="0.25">
			<path d="M194.6,161.3H90.6c-3.3,0-6-2.7-6-6v-46.6c0-3.3,2.7-6,6-6h103.9c3.3,0,6,2.7,6,6v46.6
				C200.6,158.6,197.9,161.3,194.6,161.3z"/>
		</g>
		<g>
			<g>
				<path fill="#00B0C2" d="M193.1,159.8H89.1c-3.3,0-6-2.7-6-6v-46.6c0-3.3,2.7-6,6-6h103.9c3.3,0,6,2.7,6,6v46.6
					C199.1,157.1,196.4,159.8,193.1,159.8z"/>
			</g>
		</g>
	</g>
</g>
<g>
	
		<image overflow="visible" opacity="0.25" enable-background="new    " width="14" height="18" xlink:href="../svp_instruction/84F9B64.png"  transform="matrix(0.9369 0 0 0.9369 -135.2533 111.7645)">
	</image>
	<g>
		<g>
			<path fill="#FFFFFF" d="M136.5,135.3h3v-5.8c0-0.5,0-1.1,0-1.1l0,0c0,0-0.2,0.4-0.6,0.7l-0.8,0.8l-2-2.1l3.8-3.6h3v11.1h3v3h-9.4
				V135.3z"/>
		</g>
	</g>
</g>
<g>
	<g opacity="0.3">
		
			<path fill="none" stroke="#000000" stroke-width="0.9123" stroke-linecap="round" stroke-linejoin="round" stroke-miterlimit="10" d="
			M278.3,245H11.5c-2.7,0-4.9-2.2-4.9-4.9V10.6c0-2.7,2.2-4.9,4.9-4.9h266.8c2.7,0,4.9,2.2,4.9,4.9v229.6
			C283.2,242.9,281,245,278.3,245z"/>
	</g>
	<g>
		
			<path fill="none" stroke="#29ABE2" stroke-width="0.9123" stroke-linecap="round" stroke-linejoin="round" stroke-miterlimit="10" d="
			M277.3,244H10.5c-2.7,0-4.9-2.2-4.9-4.9V9.6c0-2.7,2.2-4.9,4.9-4.9h266.8c2.7,0,4.9,2.2,4.9,4.9v229.6
			C282.2,241.9,280,244,277.3,244z"/>
	</g>
</g>
<g>
	<g opacity="0.23">
		<path d="M199.8,203.4L199.8,203.4c-0.1,0.9-0.3,1.8-0.8,2.5c-0.5,0.8-1.1,1.6-1.9,2.1c-0.6,0.4-1.3,0.7-2,0.8
			c-0.5,0.1-1,0.1-1.5,0.1c0,0,0,0,0.1,0c-0.1,0-0.2,0-0.2,0c-0.2,0-0.4-0.1-0.6-0.1c-0.3-0.1-0.7-0.2-1-0.4
			c-0.3-0.1-0.5-0.3-0.7-0.5c0.3-0.2,0.6-0.4,1-0.6c-0.1-0.1-0.2-0.1-0.3-0.2c-1.4-0.8-2.8-1.6-4.2-2.4c0,0.1,0,0.2,0,0.3
			c0,1.6,0.1,3.3,0.1,4.9c0.1-0.1,0.2-0.1,0.3-0.2c0.3-0.2,0.5-0.3,0.8-0.5c0.9,0.6,1.8,1.1,2.9,1.4c0.9,0.2,1.8,0.2,2.7,0.1
			c1.5-0.2,2.9-1.1,4-2.3c0.3-0.4,0.6-0.8,0.8-1.2c0.3-0.4,0.5-1,0.6-1.5s0.2-0.9,0.2-1.4C199.8,204,199.8,203.7,199.8,203.4z"/>
		<path d="M189.3,200.5c0.6-0.3,1.2-0.6,1.8-0.7c0.5-0.1,1.1-0.1,1.6-0.1c0,0,0,0-0.1,0c0.1,0,0.1,0,0.2,0c0.2,0,0.4,0.1,0.6,0.1
			c0.4,0.1,0.7,0.2,1.1,0.4c0.3,0.2,0.5,0.3,0.8,0.5c-0.3,0.2-0.6,0.4-1,0.6c0.1,0.1,0.2,0.1,0.3,0.2c1.4,0.8,2.8,1.6,4.2,2.4
			c0-0.1,0-0.2,0-0.3c0-1.6-0.1-3.3-0.1-4.9c-0.1,0.1-0.2,0.1-0.3,0.2c-0.3,0.2-0.5,0.3-0.8,0.5c-0.9-0.7-1.9-1.1-3-1.4
			c-1-0.2-2-0.2-2.9,0c-0.9,0.2-1.6,0.5-2.4,1c-0.5,0.3-1,0.8-1.4,1.2c-0.6,0.7-1.1,1.7-1.4,2.6c-0.1,0.5-0.2,0.9-0.2,1.4
			c0,0.3,0,0.6,0,0.9V205c0.1-0.9,0.4-1.8,0.9-2.6C187.8,201.7,188.5,201,189.3,200.5z"/>
	</g>
	<g>
		<g>
			<path fill="#F66BC6" d="M198.9,202.5L198.9,202.5c-0.1,0.9-0.3,1.8-0.8,2.5c-0.5,0.8-1.1,1.6-1.9,2.1c-0.6,0.4-1.3,0.7-2,0.8
				c-0.5,0.1-1,0.1-1.5,0.1c0,0,0,0,0.1,0c-0.1,0-0.2,0-0.2,0c-0.2,0-0.4-0.1-0.6-0.1c-0.3-0.1-0.7-0.2-1-0.4
				c-0.3-0.1-0.5-0.3-0.7-0.5c0.3-0.2,0.6-0.4,1-0.6c-0.1-0.1-0.2-0.1-0.3-0.2c-1.4-0.8-2.8-1.6-4.2-2.4c0,0.1,0,0.2,0,0.3
				c0,1.6,0.1,3.3,0.1,4.9c0.1-0.1,0.2-0.1,0.3-0.2c0.3-0.2,0.5-0.3,0.8-0.5c0.9,0.6,1.8,1.1,2.9,1.4c0.9,0.2,1.8,0.2,2.7,0.1
				c1.5-0.2,2.9-1.1,4-2.3c0.3-0.4,0.6-0.8,0.8-1.2c0.3-0.4,0.5-1,0.6-1.5c0.1-0.5,0.2-0.9,0.2-1.4
				C199,203.2,198.9,202.8,198.9,202.5z"/>
			<path fill="#F66BC6" d="M188.4,199.6c0.6-0.3,1.2-0.6,1.8-0.7c0.5-0.1,1.1-0.1,1.6-0.1c0,0,0,0-0.1,0c0.1,0,0.1,0,0.2,0
				c0.2,0,0.4,0.1,0.6,0.1c0.4,0.1,0.7,0.2,1.1,0.4c0.3,0.2,0.5,0.3,0.8,0.5c-0.3,0.2-0.6,0.4-1,0.6c0.1,0.1,0.2,0.1,0.3,0.2
				c1.4,0.8,2.8,1.6,4.2,2.4c0-0.1,0-0.2,0-0.3c0-1.6-0.1-3.3-0.1-4.9c-0.1,0.1-0.2,0.1-0.3,0.2c-0.3,0.2-0.5,0.3-0.8,0.5
				c-0.9-0.7-1.9-1.1-3-1.4c-1-0.2-2-0.2-2.9,0c-0.9,0.2-1.6,0.5-2.4,1c-0.5,0.3-1,0.8-1.4,1.2c-0.6,0.7-1.1,1.7-1.4,2.6
				c-0.1,0.5-0.2,0.9-0.2,1.4c0,0.3,0,0.6,0,0.9v-0.1c0.1-0.9,0.4-1.8,0.9-2.6C186.9,200.8,187.6,200.1,188.4,199.6z"/>
		</g>
	</g>
</g>
<g>
	<g>
		<g>
			<g>
				<g>
					<path opacity="0.58" fill="#FFFFFF" enable-background="new    " d="M183.4,49.2h1.4l1.6,1.6l-1.6,1.6h-1.4l1.6-1.6L183.4,49.2
						z M181.9,50.7l-1.6,1.6h1.4l1.6-1.6l-1.6-1.6h-1.4L181.9,50.7z M178.9,50.7l-1.6,1.6h1.4l1.6-1.6l-1.6-1.6h-1.4L178.9,50.7z
						 M175.8,50.7l-1.6,1.6h1.4l1.6-1.6l-1.6-1.6h-1.4L175.8,50.7z M172.7,50.7l-1.6,1.6h1.4l1.6-1.6l-1.6-1.6h-1.4L172.7,50.7z
						 M169.6,50.7l-1.6,1.6h1.4l1.6-1.6l-1.6-1.6H168L169.6,50.7z M166.5,50.7l-1.6,1.6h1.4l1.6-1.6l-1.6-1.6h-1.4L166.5,50.7z
						 M163.5,50.7l-1.6,1.6h1.4l1.6-1.6l-1.6-1.6h-1.4L163.5,50.7z M160.4,50.7l-1.6,1.6h1.4l1.6-1.6l-1.6-1.6h-1.4L160.4,50.7z
						 M157.3,50.7l-1.6,1.6h1.4l1.6-1.6l-1.6-1.6h-1.4L157.3,50.7z"/>
					<path fill="#29ABE2" d="M242.2,61.9l-4.4,4.4h4l4.4-4.4l-4.4-4.4h-4L242.2,61.9z M233.6,61.9l-4.4,4.4h4l4.4-4.4l-4.4-4.4h-4
						L233.6,61.9z M225,61.9l-4.4,4.4h4l4.4-4.4l-4.4-4.4h-4L225,61.9z M216.3,61.9l-4.4,4.4h4l4.4-4.4l-4.4-4.4h-4L216.3,61.9z
						 M207.7,61.9l-4.4,4.4h4l4.4-4.4l-4.4-4.4h-4L207.7,61.9z M199,61.9l-4.4,4.4h4l4.4-4.4l-4.4-4.4h-4L199,61.9z M190.5,61.9
						l-4.4,4.4h4l4.4-4.4l-4.4-4.4h-4L190.5,61.9z M181.9,61.9l-4.4,4.4h4l4.4-4.4l-4.4-4.4h-4L181.9,61.9z M173.2,61.9l-4.4,4.4h4
						l4.4-4.4l-4.4-4.4h-4L173.2,61.9z"/>
				</g>
			</g>
			<g>
				<g>
					<g>
						<g opacity="0.2">
							<path d="M66.7,41.1c-2.2,0-3.3,1.1-3.3,3.3v0.7h2.4c0.4,0,0.6,0.1,0.9,0.4c0.3,0.3,0.4,0.6,0.4,0.9c0,0.4-0.1,0.6-0.4,0.9
								c-0.3,0.3-0.6,0.4-0.9,0.4h-2.4v9c0,0.2-0.1,0.3-0.1,0.5c-0.1,0.1-0.1,0.3-0.3,0.4c-0.1,0.1-0.3,0.2-0.4,0.3
								C62.5,58,62.3,58,62.1,58c-0.2,0-0.3-0.1-0.5-0.1c-0.1-0.1-0.3-0.1-0.4-0.3c-0.1-0.1-0.2-0.3-0.3-0.4
								c-0.1-0.1-0.1-0.3-0.1-0.5v-9h-0.6c-0.4,0-0.7-0.1-0.9-0.4c-0.3-0.3-0.4-0.6-0.4-0.9c0-0.4,0.1-0.7,0.4-0.9
								c0.3-0.3,0.6-0.4,0.9-0.4h0.6v-0.6c0-3.9,1.9-5.8,5.8-5.8c0.4,0,0.6,0.1,0.9,0.4c0.3,0.3,0.4,0.5,0.4,0.9s-0.1,0.6-0.4,0.9
								C67.3,41,67,41.1,66.7,41.1z"/>
							<path d="M82.2,51.2c0,1.9-0.7,3.5-1.9,4.8c-1.3,1.3-3,1.9-4.8,1.9c-1.9,0-3.5-0.6-4.8-1.9c-1.3-1.3-1.9-2.9-1.9-4.8
								c0-1.9,0.6-3.5,1.9-4.8s2.9-1.9,4.8-1.9c1.8,0,3.5,0.7,4.8,1.9c0.6,0.6,1.1,1.4,1.5,2.2C82.1,49.4,82.2,50.2,82.2,51.2z
								 M75.6,46.9c-0.6,0-1.1,0.1-1.7,0.3c-0.5,0.3-0.9,0.5-1.3,0.9c-0.4,0.4-0.7,0.8-0.9,1.3c-0.3,0.5-0.3,1.1-0.3,1.6
								c0,0.6,0.1,1.1,0.3,1.6c0.3,0.5,0.5,0.9,0.9,1.3c0.4,0.4,0.8,0.7,1.3,0.9c0.5,0.3,1.1,0.3,1.7,0.3s1.1-0.1,1.6-0.3
								c0.5-0.3,0.9-0.5,1.3-0.9c0.4-0.4,0.7-0.8,0.9-1.3c0.3-0.5,0.3-1.1,0.3-1.6c0-0.6-0.1-1.1-0.3-1.6c-0.3-0.5-0.5-0.9-0.9-1.3
								c-0.4-0.4-0.8-0.7-1.3-0.9C76.8,47,76.2,46.9,75.6,46.9z"/>
							<path d="M86.7,45.7V46c0.6-0.5,1.3-0.9,1.9-1.1c0.7-0.3,1.4-0.4,2.3-0.4c0.4,0,0.8,0,1.1,0.1c0.4,0.1,0.8,0.1,1.1,0.3
								c0.3,0.1,0.6,0.3,0.9,0.5c0.3,0.2,0.3,0.5,0.3,0.8c0,0.2-0.1,0.3-0.1,0.5c-0.1,0.1-0.2,0.3-0.3,0.4c-0.1,0.1-0.3,0.2-0.4,0.3
								c-0.1,0.1-0.3,0.1-0.5,0.1c-0.1,0-0.3-0.1-0.5-0.1c-0.5-0.2-1.1-0.3-1.6-0.3s-1.1,0.1-1.6,0.3c-0.5,0.3-0.9,0.5-1.3,0.9
								c-0.4,0.4-0.7,0.8-0.9,1.3c-0.3,0.5-0.3,1.1-0.3,1.6v5.5c0,0.4-0.1,0.6-0.4,0.9c-0.3,0.3-0.6,0.4-0.9,0.4
								c-0.4,0-0.6-0.1-0.9-0.4c-0.3-0.3-0.4-0.6-0.4-0.9v-11c0-0.4,0.1-0.6,0.4-0.9c0.3-0.3,0.6-0.4,0.9-0.4c0.4,0,0.6,0.1,0.9,0.4
								C86.6,45,86.7,45.3,86.7,45.7z"/>
							<path d="M98.3,51.5c-0.8-0.3-1.3-0.6-1.6-0.9l0,0c-0.6-0.6-0.9-1.3-0.9-2.2c0-0.6,0.2-1.2,0.5-1.6c0.3-0.5,0.8-0.9,1.3-1.3
								c0.5-0.4,1.1-0.6,1.8-0.8s1.3-0.3,1.9-0.3c2,0,3.7,0.8,5.1,2.4c0.2,0.2,0.3,0.4,0.3,0.8c0,0.4-0.1,0.7-0.4,0.9
								c-0.3,0.3-0.6,0.4-0.9,0.4c-0.3,0-0.5-0.1-0.6-0.2c-0.2-0.1-0.4-0.3-0.5-0.4c-0.8-0.8-1.8-1.3-3-1.3c-1.1,0-2.1,0.4-2.8,1.1
								c-0.1,0.1-0.2,0.3-0.2,0.5c0,0.3,0.1,0.4,0.3,0.4l5.7,1.9c0.8,0.3,1.3,0.6,1.6,0.9l0,0c0.6,0.6,0.9,1.3,0.9,2.2
								c0,0.6-0.2,1.2-0.5,1.7c-0.3,0.5-0.8,0.9-1.3,1.3c-0.5,0.4-1.1,0.6-1.8,0.8c-0.6,0.2-1.3,0.3-1.9,0.3c-2,0-3.8-0.8-5.1-2.4
								c-0.3-0.4-0.3-0.6-0.3-0.9c0-0.4,0.1-0.7,0.4-0.9c0.3-0.3,0.6-0.4,0.9-0.4c0.3,0,0.5,0.1,0.7,0.3c0.2,0.1,0.4,0.3,0.5,0.4
								c0.8,0.8,1.8,1.3,3,1.3c1.1,0,2.1-0.4,2.8-1.1c0.1-0.1,0.2-0.3,0.2-0.5c0-0.3-0.1-0.4-0.3-0.4L98.3,51.5z"/>
							<path d="M119.5,56.6v-0.3c-0.6,0.5-1.3,0.9-1.9,1.1c-0.7,0.3-1.4,0.4-2.3,0.4c-1.9,0-3.5-0.6-4.8-1.9
								c-1.3-1.3-1.9-2.9-1.9-4.8c0-1.9,0.6-3.5,1.9-4.8c1.3-1.3,2.9-1.9,4.8-1.9c1.8,0,3.5,0.7,4.8,1.9c1.3,1.3,1.9,2.9,1.9,4.8
								v5.5c0,0.4-0.1,0.6-0.4,0.9c-0.3,0.3-0.6,0.4-0.9,0.4c-0.4,0-0.6-0.1-0.9-0.4C119.7,57.3,119.5,57,119.5,56.6z M115.3,46.9
								c-0.6,0-1.1,0.1-1.7,0.3c-0.5,0.3-0.9,0.5-1.3,0.9c-0.4,0.4-0.7,0.8-0.9,1.3c-0.3,0.5-0.3,1.1-0.3,1.6c0,0.6,0.1,1.1,0.3,1.6
								c0.3,0.5,0.5,0.9,0.9,1.3c0.4,0.4,0.8,0.7,1.3,0.9c0.5,0.3,1.1,0.3,1.7,0.3c0.6,0,1.1-0.1,1.6-0.3c0.5-0.3,0.9-0.5,1.3-0.9
								c0.4-0.4,0.7-0.8,0.9-1.3c0.3-0.5,0.3-1.1,0.3-1.6c0-0.6-0.1-1.1-0.3-1.6c-0.3-0.5-0.5-0.9-0.9-1.3c-0.4-0.4-0.8-0.7-1.3-0.9
								C116.5,47,115.9,46.9,115.3,46.9z"/>
							<path d="M135,56.4c-1.2,1-2.6,1.5-4.2,1.5c-1.9,0-3.5-0.6-4.8-1.9c-1.3-1.3-1.9-2.9-1.9-4.8c0-1.9,0.6-3.5,1.9-4.8
								s2.9-1.9,4.8-1.9c1.8,0,3.5,0.7,4.8,1.9c1.3,1.3,1.9,2.9,1.9,4.8v6.7c0,0.6-0.1,1.1-0.3,1.6s-0.4,1-0.8,1.4
								c-0.3,0.4-0.7,0.8-1.1,1.2c-0.4,0.4-0.9,0.6-1.4,0.9c-0.5,0.3-1,0.4-1.6,0.6c-0.6,0.1-1.1,0.2-1.6,0.2
								c-0.6,0-1.3-0.1-1.9-0.3c-0.6-0.2-1.2-0.4-1.8-0.8c-0.6-0.3-1.1-0.7-1.5-1.2c-0.4-0.5-0.9-1-1.2-1.6
								c-0.1-0.2-0.2-0.4-0.2-0.7c0-0.4,0.1-0.7,0.4-0.9c0.3-0.3,0.6-0.4,0.9-0.4c0.3,0,0.4,0.1,0.6,0.2c0.1,0.1,0.4,0.4,0.6,0.8
								c0.3,0.4,0.5,0.7,0.8,0.9c0.9,0.9,2,1.4,3.3,1.4c1.3,0,2.4-0.4,3.3-1.4c0.6-0.7,0.8-1.3,0.8-1.9L135,56.4L135,56.4z
								 M130.8,46.9c-0.6,0-1.1,0.1-1.7,0.3c-0.5,0.3-0.9,0.5-1.3,0.9c-0.4,0.4-0.7,0.8-0.9,1.3c-0.3,0.5-0.3,1.1-0.3,1.6
								c0,0.6,0.1,1.1,0.3,1.6c0.3,0.5,0.5,0.9,0.9,1.3c0.4,0.4,0.8,0.7,1.3,0.9c0.5,0.3,1.1,0.3,1.7,0.3s1.1-0.1,1.6-0.3
								c0.5-0.3,0.9-0.5,1.3-0.9c0.4-0.4,0.7-0.8,0.9-1.3c0.3-0.5,0.3-1.1,0.3-1.6c0-0.6-0.1-1.1-0.3-1.6c-0.3-0.5-0.5-0.9-0.9-1.3
								c-0.4-0.4-0.8-0.7-1.3-0.9S131.3,46.9,130.8,46.9z"/>
							<path d="M149.6,54.1c0.4,0,0.7,0.1,0.9,0.4c0.3,0.3,0.4,0.6,0.4,0.9c0,0.4-0.1,0.6-0.4,0.9c-1.3,1.1-2.7,1.6-4.4,1.6
								c-1.9,0-3.5-0.6-4.8-1.9c-1.3-1.3-1.9-2.9-1.9-4.8c0-1.9,0.6-3.5,1.9-4.8s2.9-1.9,4.8-1.9c1.8,0,3.5,0.7,4.8,1.9
								c0.6,0.6,1.1,1.4,1.5,2.2c0.3,0.8,0.5,1.7,0.5,2.6c0,0.4-0.1,0.7-0.4,0.9c-0.3,0.3-0.6,0.4-0.9,0.4h-9.5
								c0.1,0.4,0.3,0.8,0.6,1.2s0.6,0.7,0.9,0.9c0.4,0.3,0.8,0.4,1.2,0.6c0.4,0.1,0.9,0.2,1.3,0.2c0.5,0,1-0.1,1.4-0.3
								c0.4-0.2,0.9-0.4,1.3-0.8C149,54.2,149.3,54.1,149.6,54.1z M150.2,49.9c-0.1-0.4-0.3-0.8-0.6-1.2c-0.3-0.4-0.6-0.7-0.9-0.9
								c-0.4-0.3-0.8-0.4-1.2-0.6c-0.4-0.1-0.9-0.2-1.3-0.2c-0.4,0-0.9,0.1-1.3,0.2c-0.4,0.1-0.8,0.4-1.2,0.6
								c-0.4,0.2-0.7,0.6-0.9,0.9c-0.3,0.4-0.4,0.8-0.6,1.2H150.2z"/>
						</g>
						<g>
							<g>
								<path fill="#FFFFFF" d="M65.4,39.9c-2.2,0-3.3,1.1-3.3,3.3v0.6h2.4c0.4,0,0.6,0.1,0.9,0.4c0.3,0.3,0.4,0.6,0.4,0.9
									c0,0.4-0.1,0.6-0.4,0.9c-0.3,0.3-0.6,0.4-0.9,0.4h-2.4v9c0,0.2-0.1,0.3-0.1,0.5c-0.1,0.1-0.1,0.3-0.3,0.4
									c-0.1,0.1-0.3,0.2-0.4,0.3s-0.3,0.1-0.5,0.1s-0.3-0.1-0.5-0.1c-0.1-0.1-0.3-0.1-0.4-0.3c-0.1-0.1-0.2-0.3-0.3-0.4
									c-0.1-0.1-0.1-0.3-0.1-0.5v-9H59c-0.4,0-0.7-0.1-0.9-0.4c-0.3-0.3-0.4-0.6-0.4-0.9c0-0.4,0.1-0.7,0.4-0.9
									c0.3-0.3,0.6-0.4,0.9-0.4h0.6v-0.6c0-3.9,1.9-5.8,5.8-5.8c0.4,0,0.6,0.1,0.9,0.4c0.3,0.3,0.4,0.5,0.4,0.9
									c0,0.4-0.1,0.6-0.4,0.9C66.1,39.7,65.8,39.9,65.4,39.9z"/>
								<path fill="#FFFFFF" d="M81,49.9c0,1.9-0.7,3.5-1.9,4.8c-1.3,1.3-3,1.9-4.8,1.9c-1.9,0-3.5-0.6-4.8-1.9
									c-1.3-1.3-1.9-2.9-1.9-4.8c0-1.9,0.6-3.5,1.9-4.8c1.3-1.3,2.9-1.9,4.8-1.9c1.8,0,3.5,0.7,4.8,1.9c0.6,0.6,1.1,1.4,1.5,2.2
									C80.9,48.1,81,49,81,49.9z M74.4,45.7c-0.6,0-1.1,0.1-1.7,0.3c-0.5,0.3-0.9,0.5-1.3,0.9c-0.4,0.4-0.7,0.8-0.9,1.3
									c-0.3,0.5-0.3,1.1-0.3,1.6c0,0.5,0.1,1.1,0.3,1.6c0.3,0.5,0.5,0.9,0.9,1.3c0.4,0.4,0.8,0.7,1.3,0.9c0.5,0.3,1.1,0.3,1.7,0.3
									s1.1-0.1,1.6-0.3c0.5-0.3,0.9-0.5,1.3-0.9c0.4-0.4,0.7-0.8,0.9-1.3c0.3-0.5,0.3-1.1,0.3-1.6c0-0.5-0.1-1.1-0.3-1.6
									c-0.3-0.5-0.5-0.9-0.9-1.3c-0.4-0.4-0.8-0.7-1.3-0.9S74.9,45.7,74.4,45.7z"/>
								<path fill="#FFFFFF" d="M85.4,44.4v0.3c0.6-0.5,1.3-0.9,1.9-1.1c0.7-0.3,1.4-0.4,2.3-0.4c0.4,0,0.8,0,1.1,0.1
									c0.4,0.1,0.8,0.1,1.1,0.3c0.3,0.1,0.6,0.3,0.9,0.5c0.3,0.2,0.3,0.5,0.3,0.8c0,0.2-0.1,0.3-0.1,0.5c-0.1,0.1-0.2,0.3-0.3,0.4
									c-0.1,0.1-0.3,0.2-0.4,0.3s-0.3,0.1-0.5,0.1c-0.1,0-0.3-0.1-0.5-0.1c-0.5-0.2-1.1-0.3-1.6-0.3c-0.5,0-1.1,0.1-1.6,0.3
									c-0.5,0.3-0.9,0.5-1.3,0.9c-0.4,0.4-0.7,0.8-0.9,1.3c-0.3,0.5-0.3,1.1-0.3,1.6v5.5c0,0.4-0.1,0.6-0.4,0.9
									c-0.3,0.3-0.6,0.4-0.9,0.4c-0.4,0-0.6-0.1-0.9-0.4c-0.3-0.3-0.4-0.6-0.4-0.9v-11c0-0.4,0.1-0.6,0.4-0.9
									c0.3-0.3,0.6-0.4,0.9-0.4c0.4,0,0.6,0.1,0.9,0.4C85.3,43.8,85.4,44,85.4,44.4z"/>
								<path fill="#FFFFFF" d="M97,50.2c-0.8-0.3-1.3-0.6-1.6-0.9l0,0c-0.6-0.6-0.9-1.3-0.9-2.2c0-0.6,0.2-1.2,0.5-1.6
									c0.3-0.5,0.8-0.9,1.3-1.3s1.1-0.6,1.8-0.8c0.7-0.2,1.2-0.3,1.8-0.3c2,0,3.7,0.8,5.1,2.4c0.2,0.2,0.3,0.4,0.3,0.8
									s-0.1,0.7-0.4,0.9c-0.3,0.3-0.6,0.4-0.9,0.4c-0.3,0-0.5-0.1-0.6-0.2c-0.2-0.1-0.4-0.3-0.5-0.4c-0.8-0.8-1.8-1.3-3-1.3
									c-1.1,0-2.1,0.4-2.8,1.1c-0.1,0.1-0.2,0.3-0.2,0.5c0,0.3,0.1,0.4,0.3,0.4l5.7,1.9c0.8,0.3,1.3,0.6,1.6,0.9l0,0
									c0.6,0.6,0.9,1.3,0.9,2.2c0,0.6-0.2,1.2-0.5,1.7c-0.3,0.5-0.8,0.9-1.3,1.3c-0.5,0.4-1.1,0.6-1.8,0.8
									c-0.7,0.2-1.3,0.3-1.9,0.3c-2,0-3.8-0.8-5.1-2.4c-0.2-0.3-0.3-0.5-0.3-0.8c0-0.4,0.1-0.7,0.4-0.9c0.3-0.3,0.6-0.4,0.9-0.4
									c0.3,0,0.5,0.1,0.7,0.3c0.2,0.1,0.4,0.3,0.5,0.4c0.8,0.8,1.8,1.3,3,1.3c1.1,0,2.1-0.4,2.8-1.1c0.1-0.1,0.2-0.3,0.2-0.5
									c0-0.3-0.1-0.4-0.3-0.4L97,50.2z"/>
								<path fill="#FFFFFF" d="M118.3,55.4v-0.3c-0.6,0.5-1.3,0.9-1.9,1.1c-0.7,0.3-1.4,0.4-2.3,0.4c-1.9,0-3.5-0.6-4.8-1.9
									c-1.3-1.3-1.9-2.9-1.9-4.8c0-1.9,0.6-3.5,1.9-4.8c1.3-1.3,2.9-1.9,4.8-1.9c1.8,0,3.5,0.7,4.8,1.9c1.3,1.3,1.9,2.9,1.9,4.8
									v5.5c0,0.4-0.1,0.6-0.4,0.9c-0.3,0.3-0.6,0.4-0.9,0.4c-0.4,0-0.6-0.1-0.9-0.4C118.4,56,118.3,55.8,118.3,55.4z M114.1,45.7
									c-0.6,0-1.1,0.1-1.7,0.3c-0.5,0.3-0.9,0.5-1.3,0.9c-0.4,0.4-0.7,0.8-0.9,1.3c-0.3,0.5-0.3,1.1-0.3,1.6
									c0,0.5,0.1,1.1,0.3,1.6c0.3,0.5,0.5,0.9,0.9,1.3c0.4,0.4,0.8,0.7,1.3,0.9c0.5,0.3,1.1,0.3,1.7,0.3s1.1-0.1,1.6-0.3
									c0.5-0.3,0.9-0.5,1.3-0.9c0.4-0.4,0.7-0.8,0.9-1.3c0.3-0.5,0.3-1.1,0.3-1.6c0-0.5-0.1-1.1-0.3-1.6c-0.3-0.5-0.5-0.9-0.9-1.3
									c-0.4-0.4-0.8-0.7-1.3-0.9C115.2,45.8,114.6,45.7,114.1,45.7z"/>
								<path fill="#FFFFFF" d="M133.7,55.1c-1.2,1-2.6,1.5-4.2,1.5c-1.9,0-3.5-0.6-4.8-1.9c-1.3-1.3-1.9-2.9-1.9-4.8
									c0-1.9,0.6-3.5,1.9-4.8c1.3-1.3,2.9-1.9,4.8-1.9c1.8,0,3.5,0.7,4.8,1.9c1.3,1.3,1.9,2.9,1.9,4.8v6.7c0,0.6-0.1,1.1-0.3,1.6
									c-0.2,0.5-0.4,1-0.8,1.4c-0.3,0.4-0.7,0.8-1.1,1.2c-0.4,0.4-0.9,0.6-1.4,0.9c-0.5,0.3-1,0.4-1.6,0.6
									c-0.6,0.2-1.1,0.2-1.6,0.2c-0.6,0-1.3-0.1-1.9-0.3s-1.2-0.4-1.8-0.8c-0.6-0.3-1.1-0.7-1.5-1.2c-0.4-0.5-0.9-1-1.2-1.6
									c-0.1-0.2-0.2-0.4-0.2-0.7c0-0.4,0.1-0.7,0.4-0.9c0.3-0.3,0.6-0.4,0.9-0.4c0.3,0,0.4,0.1,0.6,0.2c0.1,0.1,0.4,0.4,0.6,0.8
									c0.3,0.4,0.5,0.7,0.8,0.9c0.9,0.9,2,1.4,3.3,1.4c1.3,0,2.4-0.4,3.3-1.4c0.6-0.7,0.8-1.3,0.8-1.9L133.7,55.1L133.7,55.1z
									 M129.5,45.7c-0.6,0-1.1,0.1-1.7,0.3c-0.5,0.3-0.9,0.5-1.3,0.9c-0.4,0.4-0.7,0.8-0.9,1.3c-0.3,0.5-0.3,1.1-0.3,1.6
									c0,0.5,0.1,1.1,0.3,1.6c0.3,0.5,0.5,0.9,0.9,1.3c0.4,0.4,0.8,0.7,1.3,0.9c0.5,0.3,1.1,0.3,1.7,0.3s1.1-0.1,1.6-0.3
									c0.5-0.3,0.9-0.5,1.3-0.9c0.4-0.4,0.7-0.8,0.9-1.3c0.3-0.5,0.3-1.1,0.3-1.6c0-0.5-0.1-1.1-0.3-1.6c-0.3-0.5-0.5-0.9-0.9-1.3
									c-0.4-0.4-0.8-0.7-1.3-0.9C130.7,45.8,130.1,45.7,129.5,45.7z"/>
								<path fill="#FFFFFF" d="M148.3,52.9c0.4,0,0.7,0.1,0.9,0.4c0.3,0.3,0.4,0.6,0.4,0.9c0,0.4-0.1,0.6-0.4,0.9
									c-1.3,1.1-2.7,1.6-4.4,1.6c-1.9,0-3.5-0.6-4.8-1.9s-1.9-2.9-1.9-4.8s0.6-3.5,1.9-4.8c1.3-1.3,2.9-1.9,4.8-1.9
									c1.8,0,3.5,0.7,4.8,1.9c0.6,0.6,1.1,1.4,1.5,2.2c0.3,0.8,0.5,1.7,0.5,2.6c0,0.4-0.1,0.7-0.4,0.9c-0.3,0.3-0.6,0.4-0.9,0.4
									h-9.5c0.1,0.4,0.3,0.8,0.6,1.2c0.3,0.4,0.6,0.7,0.9,0.9c0.4,0.3,0.8,0.4,1.2,0.6c0.4,0.1,0.9,0.2,1.3,0.2
									c0.5,0,1-0.1,1.4-0.3c0.4-0.2,0.9-0.4,1.3-0.8C147.8,52.9,148,52.9,148.3,52.9z M148.9,48.7c-0.1-0.4-0.3-0.8-0.6-1.2
									c-0.3-0.4-0.6-0.7-0.9-0.9c-0.4-0.3-0.8-0.4-1.2-0.6c-0.4-0.1-0.9-0.2-1.3-0.2s-0.9,0.1-1.3,0.2c-0.4,0.1-0.8,0.4-1.2,0.6
									c-0.4,0.3-0.7,0.6-0.9,0.9c-0.3,0.4-0.4,0.8-0.6,1.2H148.9z"/>
							</g>
						</g>
					</g>
				</g>
			</g>
		</g>
		<g>
			
				<radialGradient id="SVGID_1_" cx="10084.0693" cy="-8561.9893" r="8.2466" gradientTransform="matrix(-1.6737 0 0 0.1905 16984.168 1691.3864)" gradientUnits="userSpaceOnUse">
				<stop  offset="0" style="stop-color:#FF0000"/>
				<stop  offset="0.8486" style="stop-color:#FF0500;stop-opacity:0"/>
			</radialGradient>
			<ellipse fill="url(#SVGID_1_)" cx="106.7" cy="60.2" rx="13.8" ry="1.6"/>
			
				<radialGradient id="SVGID_2_" cx="4547.5571" cy="-8561.9893" r="8.2459" gradientTransform="matrix(-3.4884 0 0 0.1905 15930.0098 1691.3864)" gradientUnits="userSpaceOnUse">
				<stop  offset="0" style="stop-color:#FF0000"/>
				<stop  offset="0.8486" style="stop-color:#FF0500;stop-opacity:0"/>
			</radialGradient>
			<ellipse fill="url(#SVGID_2_)" cx="66.2" cy="60.2" rx="28.7" ry="1.6"/>
			
				<radialGradient id="SVGID_3_" cx="5283.519" cy="-16043.1133" r="8.2599" gradientTransform="matrix(-3.1321 0 0 0.1216 16612.2207 2010.5863)" gradientUnits="userSpaceOnUse">
				<stop  offset="0" style="stop-color:#FF0000"/>
				<stop  offset="0.8486" style="stop-color:#FF0500;stop-opacity:0"/>
			</radialGradient>
			<ellipse fill="url(#SVGID_3_)" cx="63.8" cy="59.9" rx="25.9" ry="1"/>
			
				<radialGradient id="SVGID_4_" cx="6891.9663" cy="-10664.2871" r="8.2425" gradientTransform="matrix(-2.3623 0 0 0.1606 16378.8232 1772.8)" gradientUnits="userSpaceOnUse">
				<stop  offset="0" style="stop-color:#C40006"/>
				<stop  offset="0.9892" style="stop-color:#FF0500;stop-opacity:0"/>
			</radialGradient>
			<ellipse fill="url(#SVGID_4_)" cx="98.3" cy="60" rx="19.5" ry="1.3"/>
		</g>
	</g>
	<g>
		<g opacity="0.26">
			<path d="M142.9,66.7l-4-3.6c-0.2-0.2-0.3-0.4-0.3-0.6c0-0.1,0.1-0.3,0.1-0.4c0.1-0.1,0.1-0.3,0.3-0.3c0.1-0.1,0.3-0.2,0.4-0.2
				c0.1-0.1,0.3-0.1,0.5-0.1c0.4,0,0.7,0.1,0.9,0.3l3.7,3.5l3.7-3.5c0.3-0.2,0.6-0.3,0.9-0.3c0.2,0,0.4,0,0.5,0.1
				c0.1,0.1,0.3,0.1,0.4,0.2c0.1,0.1,0.2,0.2,0.3,0.3c0.1,0.1,0.1,0.3,0.1,0.4c0,0.3-0.1,0.4-0.3,0.6l-4,3.6l4,3.7
				c0.2,0.2,0.3,0.4,0.3,0.6c0,0.1-0.1,0.3-0.1,0.4c-0.1,0.1-0.2,0.3-0.3,0.3c-0.1,0.1-0.3,0.2-0.4,0.2c-0.1,0-0.3,0.1-0.5,0.1
				c-0.4,0-0.6-0.1-0.9-0.3l-3.7-3.5l-3.8,3.5c-0.3,0.2-0.6,0.3-0.9,0.3c-0.2,0-0.4,0-0.5-0.1c-0.1-0.1-0.3-0.1-0.4-0.2
				c-0.1-0.1-0.2-0.2-0.3-0.3c-0.1-0.1-0.1-0.3-0.1-0.4c0-0.3,0.1-0.4,0.3-0.6L142.9,66.7z"/>
			<path d="M153.2,60.7c0-0.6,0.1-1.1,0.4-1.6c0.3-0.5,0.6-0.9,1.1-1.3c0.4-0.4,1-0.6,1.6-0.8c0.6-0.2,1.3-0.3,1.9-0.3
				c0.6,0,1.3,0.1,1.9,0.3c0.6,0.2,1.1,0.5,1.6,0.9c0.4,0.4,0.8,0.8,1.1,1.3c0.3,0.5,0.4,1,0.4,1.5c0,1.1-0.5,2-1.5,2.8
				c1.6,1,2.4,2.3,2.4,3.8c0,0.6-0.1,1.3-0.4,1.8c-0.3,0.6-0.8,1.1-1.3,1.5c-0.6,0.4-1.2,0.8-1.9,1c-0.7,0.3-1.5,0.4-2.3,0.4
				c-0.8,0-1.6-0.1-2.3-0.4c-0.7-0.3-1.3-0.6-1.9-1c-0.6-0.4-0.9-0.9-1.3-1.5c-0.3-0.6-0.4-1.2-0.4-1.8c0-0.3,0.1-0.5,0.4-0.8
				c0.3-0.2,0.6-0.3,0.9-0.3c0.4,0,0.7,0.1,0.9,0.3c0.3,0.2,0.4,0.4,0.4,0.8s0.1,0.8,0.3,1.1c0.2,0.3,0.4,0.6,0.7,0.8
				c0.3,0.3,0.6,0.4,1.1,0.6c0.4,0.1,0.9,0.2,1.3,0.2s0.9-0.1,1.3-0.2c0.4-0.1,0.8-0.3,1.1-0.6s0.6-0.5,0.7-0.8
				c0.2-0.3,0.3-0.7,0.3-1s-0.1-0.7-0.3-1s-0.4-0.6-0.7-0.8c-0.3-0.3-0.6-0.4-1.1-0.6c-0.4-0.1-0.9-0.2-1.3-0.2
				c-0.4,0-0.7-0.1-0.9-0.3c-0.3-0.2-0.4-0.4-0.4-0.7c0-0.3,0.1-0.5,0.4-0.8c0.3-0.2,0.6-0.3,0.9-0.3c0.3,0,0.6-0.1,0.9-0.1
				c0.3-0.1,0.6-0.3,0.8-0.4c0.2-0.2,0.4-0.4,0.5-0.6c0.1-0.3,0.2-0.5,0.2-0.8s-0.1-0.5-0.2-0.8c-0.1-0.3-0.3-0.4-0.5-0.6
				c-0.3-0.2-0.5-0.3-0.8-0.4c-0.3-0.1-0.6-0.1-0.9-0.1s-0.6,0.1-0.9,0.1c-0.3,0.1-0.6,0.3-0.8,0.4c-0.3,0.2-0.4,0.4-0.5,0.6
				c-0.1,0.3-0.2,0.5-0.2,0.8s-0.1,0.5-0.4,0.7c-0.3,0.2-0.6,0.3-0.9,0.3c-0.3,0-0.6-0.1-0.9-0.3C153.4,61.3,153.2,61,153.2,60.7z"
				/>
		</g>
		<g>
			<g>
				<path fill="#F66BC6" d="M142.2,66.1l-4-3.6c-0.2-0.2-0.3-0.4-0.3-0.6c0-0.1,0.1-0.3,0.1-0.4c0.1-0.1,0.1-0.3,0.3-0.3
					c0.1-0.1,0.3-0.2,0.4-0.2c0.1-0.1,0.3-0.1,0.5-0.1c0.4,0,0.7,0.1,0.9,0.3l3.7,3.5l3.7-3.5c0.3-0.2,0.6-0.3,0.9-0.3
					c0.2,0,0.4,0,0.5,0.1s0.3,0.1,0.4,0.2c0.1,0.1,0.2,0.2,0.3,0.3c0.1,0.1,0.1,0.3,0.1,0.4c0,0.3-0.1,0.4-0.3,0.6l-4,3.6l4,3.7
					c0.2,0.2,0.3,0.4,0.3,0.6c0,0.1-0.1,0.3-0.1,0.4c-0.1,0.1-0.2,0.3-0.3,0.3c-0.1,0.1-0.3,0.2-0.4,0.2s-0.3,0.1-0.5,0.1
					c-0.4,0-0.6-0.1-0.9-0.3l-3.7-3.5l-3.8,3.5c-0.3,0.2-0.6,0.3-0.9,0.3c-0.2,0-0.4,0-0.5-0.1c-0.1-0.1-0.3-0.1-0.4-0.2
					s-0.2-0.2-0.3-0.3c-0.1-0.1-0.1-0.3-0.1-0.4c0-0.3,0.1-0.4,0.3-0.6L142.2,66.1z"/>
				<path fill="#F66BC6" d="M152.6,60.1c0-0.6,0.1-1.1,0.4-1.6c0.3-0.5,0.6-0.9,1.1-1.3c0.4-0.4,1-0.6,1.6-0.8
					c0.6-0.2,1.3-0.3,1.9-0.3c0.7,0,1.3,0.1,1.9,0.3c0.6,0.2,1.1,0.5,1.6,0.9c0.4,0.4,0.8,0.8,1.1,1.3c0.3,0.5,0.4,1,0.4,1.5
					c0,1.1-0.5,2-1.5,2.8c1.6,1,2.4,2.3,2.4,3.8c0,0.6-0.1,1.3-0.4,1.8c-0.3,0.6-0.8,1.1-1.3,1.5c-0.6,0.4-1.2,0.8-1.9,1
					c-0.7,0.3-1.5,0.4-2.3,0.4s-1.6-0.1-2.3-0.4c-0.7-0.3-1.3-0.6-1.9-1s-0.9-0.9-1.3-1.5c-0.3-0.6-0.4-1.2-0.4-1.8
					c0-0.3,0.1-0.5,0.4-0.8c0.3-0.2,0.6-0.3,0.9-0.3s0.7,0.1,0.9,0.3c0.3,0.2,0.4,0.4,0.4,0.8s0.1,0.8,0.3,1.1
					c0.2,0.3,0.4,0.6,0.7,0.8c0.3,0.3,0.6,0.4,1.1,0.6c0.4,0.1,0.9,0.2,1.3,0.2c0.4,0,0.9-0.1,1.3-0.2c0.4-0.1,0.8-0.3,1.1-0.6
					c0.3-0.3,0.6-0.5,0.7-0.8c0.2-0.3,0.3-0.7,0.3-1s-0.1-0.7-0.3-1s-0.4-0.6-0.7-0.8c-0.3-0.3-0.6-0.4-1.1-0.6
					c-0.4-0.1-0.9-0.2-1.3-0.2s-0.7-0.1-0.9-0.3c-0.2-0.2-0.4-0.4-0.4-0.7s0.1-0.5,0.4-0.8c0.3-0.2,0.6-0.3,0.9-0.3s0.6-0.1,0.9-0.1
					c0.3-0.1,0.6-0.3,0.8-0.4c0.2-0.2,0.4-0.4,0.5-0.6c0.1-0.3,0.2-0.5,0.2-0.8s-0.1-0.5-0.2-0.8s-0.3-0.4-0.5-0.6
					c-0.3-0.2-0.5-0.3-0.8-0.4c-0.3-0.1-0.6-0.1-0.9-0.1c-0.3,0-0.6,0.1-0.9,0.1c-0.3,0.1-0.6,0.3-0.8,0.4c-0.3,0.2-0.4,0.4-0.5,0.6
					c-0.1,0.3-0.2,0.5-0.2,0.8s-0.1,0.5-0.4,0.7c-0.3,0.2-0.6,0.3-0.9,0.3s-0.6-0.1-0.9-0.3C152.8,60.7,152.6,60.3,152.6,60.1z"/>
			</g>
		</g>
	</g>
</g>
</svg>
