<?xml version="1.0" encoding="utf-8"?>
<!-- Generator: Adobe Illustrator 18.0.0, SVG Export Plug-In . SVG Version: 6.00 Build 0)  -->
<!DOCTYPE svg PUBLIC "-//W3C//DTD SVG 1.1//EN" "http://www.w3.org/Graphics/SVG/1.1/DTD/svg11.dtd">
<svg version="1.1" id="Layer_1" xmlns="http://www.w3.org/2000/svg" xmlns:xlink="http://www.w3.org/1999/xlink" x="0px" y="0px"
	 width="344.9px" height="299px" viewBox="2335.5 350.7 344.9 299" enable-background="new 2335.5 350.7 344.9 299"
	 xml:space="preserve">
<g>
	<g>
		<g>
			<g>
				<g>
					<g>
						<g>
							<path opacity="0.58" fill="#FFFFFF" enable-background="new    " d="M2556.7,406.9h1.7l2,2l-2,2h-1.7l2-2L2556.7,406.9z
								 M2554.9,408.8l-2,2h1.7l2-2l-2-2h-1.7L2554.9,408.8z M2551.1,408.8l-2,2h1.7l2-2l-2-2h-1.7L2551.1,408.8z M2547.3,408.8
								l-2,2h1.7l2-2l-2-2h-1.7L2547.3,408.8z M2543.4,408.8l-2,2h1.7l2-2l-2-2h-1.7L2543.4,408.8z M2539.6,408.8l-2,2h1.7l2-2l-2-2
								h-1.7L2539.6,408.8z M2535.7,408.8l-2,2h1.7l2-2l-2-2h-1.7L2535.7,408.8z M2532,408.8l-2,2h1.7l2-2l-2-2h-1.7L2532,408.8z
								 M2528.1,408.8l-2,2h1.7l2-2l-2-2h-1.7L2528.1,408.8z M2524.3,408.8l-2,2h1.7l2-2l-2-2h-1.7L2524.3,408.8z"/>
							<path opacity="0.2" enable-background="new    " d="M2630.5,423.1l-5.5,5.5h4.9l5.5-5.5l-5.5-5.5h-4.9L2630.5,423.1z
								 M2619.9,423.1l-5.5,5.5h4.9l5.5-5.5l-5.5-5.5h-4.9L2619.9,423.1z M2609.2,423.1l-5.5,5.5h4.9l5.5-5.5l-5.5-5.5h-4.9
								L2609.2,423.1z M2598.4,423.1l-5.5,5.5h4.9l5.5-5.5l-5.5-5.5h-4.9L2598.4,423.1z M2587.7,423.1l-5.5,5.5h4.9l5.5-5.5
								l-5.5-5.5h-4.9L2587.7,423.1z M2576.9,423.1l-5.5,5.5h4.9l5.5-5.5l-5.5-5.5h-4.9L2576.9,423.1z M2566.3,423.1l-5.5,5.5h4.9
								l5.5-5.5l-5.5-5.5h-4.9L2566.3,423.1z M2555.6,423.1l-5.5,5.5h4.9l5.5-5.5l-5.5-5.5h-4.9L2555.6,423.1z M2544.8,423.1
								l-5.5,5.5h4.9l5.5-5.5l-5.5-5.5h-4.9L2544.8,423.1z"/>
							<g>
								<g enable-background="new    ">
									<path fill="#F66BC6" d="M2504.6,428.4l-5-4.7c-0.2-0.2-0.3-0.5-0.3-0.9c0-0.2,0-0.3,0.1-0.5c0.1-0.1,0.2-0.3,0.3-0.4
										c0.1-0.1,0.3-0.2,0.5-0.3c0.2-0.1,0.4-0.1,0.6-0.1c0.5,0,0.9,0.1,1.2,0.4l4.7,4.4l4.7-4.4c0.3-0.3,0.7-0.4,1.2-0.4
										c0.2,0,0.4,0,0.6,0.1c0.2,0.1,0.3,0.1,0.5,0.3c0.1,0.1,0.2,0.2,0.3,0.4c0.1,0.1,0.1,0.3,0.1,0.5c0,0.3-0.1,0.5-0.4,0.9
										l-5,4.7l5.1,4.7c0.2,0.2,0.3,0.4,0.3,0.7c0,0.2,0,0.3-0.1,0.5c-0.1,0.1-0.2,0.3-0.3,0.4c-0.1,0.1-0.3,0.2-0.5,0.3
										c-0.2,0.1-0.4,0.1-0.6,0.1c-0.4,0-0.9-0.1-1.2-0.4l-4.7-4.4l-4.8,4.4c-0.3,0.2-0.7,0.4-1.2,0.4c-0.2,0-0.4,0-0.6-0.1
										c-0.2-0.1-0.3-0.1-0.5-0.3c-0.1-0.1-0.2-0.2-0.3-0.4c-0.1-0.1-0.1-0.3-0.1-0.5c0-0.3,0.1-0.5,0.3-0.7L2504.6,428.4z"/>
									<path fill="#F66BC6" d="M2527.3,434v-3.6h-9c-0.4,0-0.9-0.1-1.2-0.3s-0.4-0.5-0.4-0.9s0.1-0.5,0.3-0.7l10.6-12
										c0.1-0.2,0.3-0.3,0.5-0.4c0.2-0.1,0.5-0.1,0.7-0.1s0.4,0,0.6,0.1c0.2,0.1,0.3,0.1,0.5,0.3c0.1,0.1,0.2,0.2,0.3,0.4
										c0.1,0.1,0.1,0.3,0.1,0.5V428h1.9c0.4,0,0.9,0.1,1.2,0.3c0.3,0.2,0.4,0.5,0.4,0.9c0,0.3-0.1,0.6-0.4,0.9
										c-0.3,0.2-0.7,0.3-1.2,0.3h-1.9v3.6c0,0.3-0.1,0.6-0.4,0.9c-0.3,0.2-0.7,0.3-1.2,0.3s-0.9-0.1-1.2-0.3
										C2527.5,434.6,2527.3,434.3,2527.3,434z M2527.3,427.9v-6.6l-5.9,6.6H2527.3z"/>
								</g>
							</g>
							<path fill="#29ABE2" d="M2629.7,422.7l-5.5,5.5h4.9l5.5-5.5l-5.5-5.5h-4.9L2629.7,422.7z M2619,422.7l-5.5,5.5h4.9l5.5-5.5
								l-5.5-5.5h-4.9L2619,422.7z M2608.3,422.7l-5.5,5.5h4.9l5.5-5.5l-5.5-5.5h-4.9L2608.3,422.7z M2597.5,422.7l-5.5,5.5h4.9
								l5.5-5.5l-5.5-5.5h-4.9L2597.5,422.7z M2586.8,422.7l-5.5,5.5h4.9l5.5-5.5l-5.5-5.5h-4.9L2586.8,422.7z M2576,422.7l-5.5,5.5
								h4.9l5.5-5.5l-5.5-5.5h-4.9L2576,422.7z M2565.4,422.7l-5.5,5.5h4.9l5.5-5.5l-5.5-5.5h-4.9L2565.4,422.7z M2554.9,422.7
								l-5.5,5.5h4.9l5.5-5.5l-5.5-5.5h-4.9L2554.9,422.7z M2544.1,422.7l-5.5,5.5h4.9l5.5-5.5l-5.5-5.5h-4.9L2544.1,422.7z"/>
						</g>
					</g>
					<g>
						<g>
							<g>
								<g opacity="0.2">
									<path d="M2411.8,396.9c-2.8,0-4.1,1.4-4.1,4.1v0.9h3c0.5,0,0.7,0.1,1.1,0.5c0.3,0.3,0.5,0.7,0.5,1.1c0,0.5-0.1,0.7-0.5,1.1
										c-0.3,0.3-0.7,0.5-1.1,0.5h-3v11.2c0,0.2-0.1,0.3-0.1,0.6c-0.1,0.1-0.1,0.3-0.3,0.5c-0.1,0.1-0.3,0.2-0.5,0.3
										c-0.2,0.1-0.3,0.1-0.6,0.1c-0.2,0-0.3-0.1-0.6-0.1c-0.1-0.1-0.3-0.1-0.5-0.3c-0.1-0.1-0.2-0.3-0.3-0.5
										c-0.1-0.1-0.1-0.3-0.1-0.6v-11.1h-0.7c-0.5,0-0.9-0.1-1.1-0.5c-0.3-0.3-0.5-0.7-0.5-1.1c0-0.5,0.1-0.9,0.5-1.1
										c0.3-0.3,0.7-0.5,1.1-0.5h0.7v-0.7c0-4.8,2.4-7.2,7.2-7.2c0.5,0,0.7,0.1,1.1,0.5c0.3,0.3,0.5,0.6,0.5,1.1
										c0,0.5-0.1,0.7-0.5,1.1C2412.5,396.7,2412.1,396.9,2411.8,396.9z"/>
									<path d="M2431,409.4c0,2.4-0.9,4.4-2.4,6c-1.6,1.6-3.7,2.4-6,2.4c-2.4,0-4.4-0.7-6-2.4c-1.6-1.6-2.4-3.6-2.4-6
										c0-2.4,0.7-4.4,2.4-6c1.6-1.6,3.6-2.4,6-2.4c2.2,0,4.4,0.9,6,2.4c0.7,0.7,1.4,1.7,1.8,2.8
										C2430.9,407.2,2431,408.1,2431,409.4z M2422.8,404.1c-0.7,0-1.4,0.1-2.1,0.3c-0.6,0.3-1.1,0.6-1.6,1.1
										c-0.5,0.5-0.9,1-1.1,1.6c-0.3,0.6-0.3,1.4-0.3,2c0,0.7,0.1,1.4,0.3,2c0.3,0.6,0.6,1.1,1.1,1.6c0.5,0.5,1,0.9,1.6,1.1
										c0.6,0.3,1.4,0.3,2.1,0.3c0.7,0,1.4-0.1,2-0.3c0.6-0.3,1.1-0.6,1.6-1.1c0.5-0.5,0.9-1,1.1-1.6c0.3-0.6,0.3-1.4,0.3-2
										c0-0.7-0.1-1.4-0.3-2c-0.3-0.6-0.6-1.1-1.1-1.6c-0.5-0.5-1-0.9-1.6-1.1C2424.3,404.2,2423.6,404.1,2422.8,404.1z"/>
									<path d="M2436.6,402.6v0.3c0.7-0.6,1.6-1.1,2.4-1.4c0.9-0.3,1.7-0.5,2.9-0.5c0.5,0,1,0,1.4,0.1c0.5,0.1,1,0.1,1.4,0.3
										c0.3,0.1,0.7,0.3,1.1,0.6c0.3,0.2,0.3,0.6,0.3,1c0,0.2-0.1,0.3-0.1,0.6c-0.1,0.1-0.2,0.3-0.3,0.5c-0.1,0.1-0.3,0.2-0.5,0.3
										s-0.3,0.1-0.6,0.1c-0.1,0-0.3-0.1-0.6-0.1c-0.6-0.2-1.4-0.3-2-0.3c-0.6,0-1.4,0.1-2,0.3c-0.6,0.3-1.1,0.6-1.6,1.1
										c-0.5,0.5-0.9,1-1.1,1.6c-0.3,0.6-0.3,1.4-0.3,2v6.8c0,0.5-0.1,0.7-0.5,1.1c-0.3,0.3-0.7,0.5-1.1,0.5
										c-0.5,0-0.7-0.1-1.1-0.5c-0.3-0.3-0.5-0.7-0.5-1.1v-13.7c0-0.5,0.1-0.7,0.5-1.1c0.3-0.3,0.7-0.5,1.1-0.5
										c0.5,0,0.7,0.1,1.1,0.5C2436.5,401.7,2436.6,402,2436.6,402.6z"/>
									<path d="M2451,409.7c-1-0.3-1.6-0.7-2-1.1l0,0c-0.7-0.7-1.1-1.6-1.1-2.8c0-0.7,0.2-1.5,0.6-2c0.3-0.6,1-1.1,1.6-1.6
										c0.6-0.5,1.4-0.7,2.2-1c0.9-0.2,1.6-0.3,2.4-0.3c2.5,0,4.6,1,6.3,3c0.2,0.2,0.3,0.5,0.3,1c0,0.5-0.1,0.9-0.5,1.1
										c-0.3,0.3-0.7,0.5-1.1,0.5s-0.6-0.1-0.7-0.2c-0.2-0.1-0.5-0.3-0.6-0.5c-1-1-2.2-1.6-3.7-1.6c-1.4,0-2.6,0.5-3.5,1.4
										c-0.1,0.1-0.2,0.3-0.2,0.6s0.1,0.5,0.3,0.5l7.1,2.4c1,0.3,1.6,0.7,2,1.1l0,0c0.7,0.7,1.1,1.6,1.1,2.8
										c0,0.7-0.2,1.5-0.6,2.1c-0.3,0.6-1,1.1-1.6,1.6c-0.6,0.5-1.4,0.7-2.2,1c-0.7,0.2-1.6,0.3-2.4,0.3c-2.5,0-4.7-1-6.3-3
										c-0.3-0.5-0.3-0.7-0.3-1.1c0-0.5,0.1-0.9,0.5-1.1c0.3-0.3,0.7-0.5,1.1-0.5s0.6,0.1,0.9,0.3c0.2,0.1,0.5,0.3,0.6,0.5
										c1,1,2.2,1.6,3.7,1.6c1.4,0,2.6-0.5,3.5-1.4c0.1-0.1,0.2-0.3,0.2-0.6s-0.1-0.5-0.3-0.5L2451,409.7z"/>
									<path d="M2477.3,416.1v-0.3c-0.7,0.6-1.6,1.1-2.4,1.4c-0.9,0.3-1.7,0.5-2.9,0.5c-2.4,0-4.4-0.7-6-2.4
										c-1.6-1.6-2.4-3.6-2.4-6c0-2.4,0.7-4.4,2.4-6c1.6-1.6,3.6-2.4,6-2.4c2.2,0,4.4,0.9,6,2.4c1.6,1.6,2.4,3.6,2.4,6v6.8
										c0,0.5-0.1,0.7-0.5,1.1c-0.3,0.3-0.7,0.5-1.1,0.5c-0.5,0-0.7-0.1-1.1-0.5C2477.6,417,2477.3,416.6,2477.3,416.1z
										 M2472.1,404.1c-0.7,0-1.4,0.1-2.1,0.3c-0.6,0.3-1.1,0.6-1.6,1.1c-0.5,0.5-0.9,1-1.1,1.6c-0.3,0.6-0.3,1.4-0.3,2
										c0,0.7,0.1,1.4,0.3,2c0.3,0.6,0.6,1.1,1.1,1.6c0.5,0.5,1,0.9,1.6,1.1c0.6,0.3,1.4,0.3,2.1,0.3c0.7,0,1.4-0.1,2-0.3
										c0.6-0.3,1.1-0.6,1.6-1.1c0.5-0.5,0.9-1,1.1-1.6c0.3-0.6,0.3-1.4,0.3-2c0-0.7-0.1-1.4-0.3-2c-0.3-0.6-0.6-1.1-1.1-1.6
										c-0.5-0.5-1-0.9-1.6-1.1C2473.6,404.2,2472.8,404.1,2472.1,404.1z"/>
									<path d="M2496.6,415.8c-1.5,1.3-3.2,1.8-5.2,1.8c-2.4,0-4.4-0.7-6-2.4s-2.4-3.6-2.4-6c0-2.4,0.7-4.4,2.4-6
										c1.6-1.6,3.6-2.4,6-2.4c2.2,0,4.4,0.9,6,2.4c1.6,1.6,2.4,3.6,2.4,6v8.3c0,0.7-0.1,1.4-0.3,2c-0.2,0.6-0.5,1.3-1,1.7
										c-0.3,0.5-0.9,1-1.4,1.5c-0.5,0.5-1.1,0.7-1.7,1.1c-0.6,0.3-1.3,0.5-2,0.7c-0.7,0.1-1.4,0.2-2,0.2c-0.7,0-1.6-0.1-2.4-0.3
										c-0.7-0.2-1.5-0.5-2.2-1c-0.7-0.3-1.4-0.9-1.8-1.5c-0.4-0.6-1.1-1.3-1.5-2c-0.1-0.2-0.2-0.5-0.2-0.9c0-0.5,0.1-0.9,0.5-1.1
										c0.3-0.3,0.7-0.5,1.1-0.5s0.5,0.1,0.7,0.2c0.1,0.1,0.5,0.5,0.7,1c0.3,0.5,0.6,0.9,1,1.1c1.1,1.1,2.5,1.7,4.1,1.7
										c1.6,0,3-0.5,4.1-1.7c0.7-0.9,1-1.6,1-2.4L2496.6,415.8L2496.6,415.8z M2491.3,404.1c-0.7,0-1.4,0.1-2.1,0.3
										c-0.6,0.3-1.1,0.6-1.6,1.1c-0.5,0.5-0.9,1-1.1,1.6c-0.3,0.6-0.3,1.4-0.3,2c0,0.7,0.1,1.4,0.3,2c0.3,0.6,0.6,1.1,1.1,1.6
										c0.5,0.5,1,0.9,1.6,1.1c0.6,0.3,1.4,0.3,2.1,0.3c0.7,0,1.4-0.1,2-0.3c0.6-0.3,1.1-0.6,1.6-1.1c0.5-0.5,0.9-1,1.1-1.6
										c0.3-0.6,0.3-1.4,0.3-2c0-0.7-0.1-1.4-0.3-2c-0.3-0.6-0.6-1.1-1.1-1.6c-0.5-0.5-1-0.9-1.6-1.1
										C2492.7,404.2,2492,404.1,2491.3,404.1z"/>
									<path d="M2514.8,412.9c0.5,0,0.9,0.1,1.1,0.5c0.3,0.3,0.5,0.7,0.5,1.1c0,0.5-0.1,0.7-0.5,1.1c-1.6,1.4-3.3,2-5.5,2
										c-2.4,0-4.4-0.7-6-2.4c-1.6-1.6-2.4-3.6-2.4-6c0-2.4,0.7-4.4,2.4-6c1.6-1.6,3.6-2.4,6-2.4c2.2,0,4.4,0.9,6,2.4
										c0.7,0.7,1.4,1.7,1.8,2.8c0.3,1,0.6,2.1,0.6,3.2c0,0.5-0.1,0.9-0.5,1.1c-0.3,0.3-0.7,0.5-1.1,0.5h-11.8
										c0.1,0.5,0.3,1,0.7,1.5c0.3,0.5,0.7,0.9,1.1,1.1c0.5,0.3,1,0.5,1.5,0.7c0.5,0.1,1.1,0.2,1.6,0.2c0.6,0,1.3-0.1,1.7-0.3
										c0.5-0.2,1.1-0.5,1.6-1C2514,413.1,2514.3,412.9,2514.8,412.9z M2515.4,407.8c-0.1-0.5-0.3-1-0.7-1.5
										c-0.3-0.5-0.7-0.9-1.1-1.1c-0.5-0.3-1-0.5-1.5-0.7c-0.5-0.1-1.1-0.2-1.6-0.2s-1.1,0.1-1.6,0.2c-0.5,0.1-1,0.5-1.5,0.7
										s-0.9,0.7-1.1,1.1c-0.3,0.5-0.5,1-0.7,1.5H2515.4z"/>
								</g>
								<g>
									<g>
										<path fill="#FFFFFF" d="M2410.2,395.4c-2.8,0-4.1,1.4-4.1,4.1v0.7h3c0.5,0,0.7,0.1,1.1,0.5c0.3,0.3,0.5,0.7,0.5,1.1
											c0,0.5-0.1,0.7-0.5,1.1c-0.3,0.3-0.7,0.5-1.1,0.5h-3v11.1c0,0.2-0.1,0.3-0.1,0.6c-0.1,0.1-0.1,0.3-0.3,0.5
											c-0.1,0.1-0.3,0.2-0.5,0.3c-0.1,0.1-0.3,0.1-0.6,0.1c-0.2,0-0.3-0.1-0.6-0.1c-0.1-0.1-0.3-0.1-0.5-0.3
											c-0.1-0.1-0.2-0.3-0.3-0.5c-0.1-0.1-0.1-0.3-0.1-0.6v-11.1h-0.6c-0.5,0-0.9-0.1-1.1-0.5c-0.3-0.3-0.5-0.7-0.5-1.1
											c0-0.5,0.1-0.9,0.5-1.1c0.3-0.3,0.7-0.5,1.1-0.5h0.7v-0.7c0-4.8,2.4-7.2,7.2-7.2c0.5,0,0.7,0.1,1.1,0.5
											c0.3,0.3,0.5,0.6,0.5,1.1c0,0.4-0.1,0.7-0.5,1.1C2411,395.1,2410.7,395.4,2410.2,395.4z"/>
										<path fill="#FFFFFF" d="M2429.5,407.8c0,2.4-0.9,4.4-2.4,6c-1.6,1.6-3.7,2.4-6,2.4c-2.4,0-4.4-0.7-6-2.4
											c-1.6-1.6-2.4-3.6-2.4-6c0-2.4,0.7-4.4,2.4-6c1.6-1.6,3.6-2.4,6-2.4c2.2,0,4.4,0.9,6,2.4c0.7,0.7,1.4,1.7,1.8,2.8
											C2429.4,405.6,2429.5,406.6,2429.5,407.8z M2421.3,402.6c-0.7,0-1.4,0.1-2.1,0.3c-0.6,0.3-1.1,0.6-1.6,1.1
											c-0.5,0.5-0.9,1-1.1,1.6c-0.3,0.6-0.3,1.4-0.3,2c0,0.6,0.1,1.4,0.3,2c0.3,0.6,0.6,1.1,1.1,1.6c0.5,0.5,1,0.9,1.6,1.1
											c0.6,0.3,1.4,0.3,2.1,0.3c0.7,0,1.4-0.1,2-0.3c0.6-0.3,1.1-0.6,1.6-1.1c0.5-0.5,0.9-1,1.1-1.6c0.3-0.6,0.3-1.4,0.3-2
											c0-0.6-0.1-1.4-0.3-2c-0.3-0.6-0.6-1.1-1.1-1.6c-0.5-0.5-1-0.9-1.6-1.1S2422,402.6,2421.3,402.6z"/>
										<path fill="#FFFFFF" d="M2435,401v0.3c0.7-0.6,1.6-1.1,2.4-1.4c0.9-0.3,1.7-0.5,2.9-0.5c0.5,0,1,0,1.4,0.1
											c0.5,0.1,1,0.1,1.4,0.3c0.3,0.1,0.7,0.3,1.1,0.6c0.3,0.2,0.3,0.6,0.3,1c0,0.2-0.1,0.3-0.1,0.6c-0.1,0.1-0.2,0.3-0.3,0.5
											c-0.1,0.1-0.3,0.2-0.5,0.3c-0.1,0.1-0.3,0.1-0.6,0.1c-0.1,0-0.3-0.1-0.6-0.1c-0.6-0.2-1.4-0.3-2-0.3s-1.4,0.1-2,0.3
											c-0.6,0.3-1.1,0.6-1.6,1.1c-0.5,0.5-0.9,1-1.1,1.6c-0.3,0.6-0.3,1.4-0.3,2v6.8c0,0.5-0.1,0.7-0.5,1.1
											c-0.3,0.3-0.7,0.5-1.1,0.5c-0.5,0-0.7-0.1-1.1-0.5c-0.3-0.3-0.5-0.7-0.5-1.1v-13.7c0-0.5,0.1-0.7,0.5-1.1
											c0.3-0.3,0.7-0.5,1.1-0.5c0.5,0,0.7,0.1,1.1,0.5C2434.9,400.2,2435,400.4,2435,401z"/>
										<path fill="#FFFFFF" d="M2449.4,408.1c-1-0.3-1.6-0.7-2-1.1l0,0c-0.7-0.7-1.1-1.6-1.1-2.8c0-0.7,0.2-1.5,0.6-2
											c0.3-0.6,1-1.1,1.6-1.6c0.6-0.5,1.4-0.7,2.2-1c0.9-0.2,1.5-0.3,2.2-0.3c2.5,0,4.6,1,6.3,3c0.2,0.2,0.3,0.5,0.3,1
											c0,0.5-0.1,0.9-0.5,1.1c-0.3,0.3-0.7,0.5-1.1,0.5s-0.6-0.1-0.7-0.2c-0.2-0.1-0.5-0.3-0.6-0.5c-1-1-2.2-1.6-3.7-1.6
											c-1.4,0-2.6,0.5-3.5,1.4c-0.1,0.1-0.2,0.3-0.2,0.6c0,0.3,0.1,0.5,0.3,0.5l7.1,2.4c1,0.3,1.6,0.7,2,1.1l0,0
											c0.7,0.7,1.1,1.6,1.1,2.8c0,0.7-0.2,1.5-0.6,2.1c-0.3,0.6-1,1.1-1.6,1.6c-0.6,0.5-1.4,0.7-2.2,1c-0.9,0.2-1.6,0.3-2.4,0.3
											c-2.5,0-4.7-1-6.3-3c-0.2-0.3-0.3-0.6-0.3-1c0-0.5,0.1-0.9,0.5-1.1c0.3-0.3,0.7-0.5,1.1-0.5c0.3,0,0.6,0.1,0.9,0.3
											c0.2,0.1,0.5,0.3,0.6,0.5c1,1,2.2,1.6,3.7,1.6c1.4,0,2.6-0.5,3.5-1.4c0.1-0.1,0.2-0.3,0.2-0.6c0-0.3-0.1-0.5-0.3-0.5
											L2449.4,408.1z"/>
										<path fill="#FFFFFF" d="M2475.8,414.6v-0.3c-0.7,0.6-1.6,1.1-2.4,1.4c-0.9,0.3-1.7,0.5-2.9,0.5c-2.4,0-4.4-0.7-6-2.4
											c-1.6-1.6-2.4-3.6-2.4-6c0-2.4,0.7-4.4,2.4-6c1.6-1.6,3.6-2.4,6-2.4c2.2,0,4.4,0.9,6,2.4c1.6,1.6,2.4,3.6,2.4,6v6.8
											c0,0.5-0.1,0.7-0.5,1.1c-0.3,0.3-0.7,0.5-1.1,0.5c-0.5,0-0.7-0.1-1.1-0.5C2475.9,415.4,2475.8,415.1,2475.8,414.6z
											 M2470.6,402.6c-0.7,0-1.4,0.1-2.1,0.3c-0.6,0.3-1.1,0.6-1.6,1.1c-0.5,0.5-0.9,1-1.1,1.6c-0.3,0.6-0.3,1.4-0.3,2
											c0,0.6,0.1,1.4,0.3,2c0.3,0.6,0.6,1.1,1.1,1.6c0.5,0.5,1,0.9,1.6,1.1c0.6,0.3,1.4,0.3,2.1,0.3c0.7,0,1.4-0.1,2-0.3
											c0.6-0.3,1.1-0.6,1.6-1.1c0.5-0.5,0.9-1,1.1-1.6c0.3-0.6,0.3-1.4,0.3-2c0-0.6-0.1-1.4-0.3-2c-0.3-0.6-0.6-1.1-1.1-1.6
											c-0.5-0.5-1-0.9-1.6-1.1S2471.2,402.6,2470.6,402.6z"/>
										<path fill="#FFFFFF" d="M2495,414.2c-1.5,1.3-3.2,1.8-5.2,1.8c-2.4,0-4.4-0.7-6-2.4c-1.6-1.6-2.4-3.6-2.4-6
											c0-2.4,0.7-4.4,2.4-6c1.6-1.6,3.6-2.4,6-2.4c2.2,0,4.4,0.9,6,2.4c1.6,1.6,2.4,3.6,2.4,6v8.3c0,0.7-0.1,1.4-0.3,2
											c-0.2,0.6-0.5,1.3-1,1.7c-0.3,0.5-0.9,1-1.4,1.5c-0.5,0.5-1.1,0.7-1.7,1.1c-0.6,0.3-1.3,0.5-2,0.7c-0.7,0.2-1.4,0.2-2,0.2
											c-0.7,0-1.6-0.1-2.4-0.3c-0.7-0.2-1.5-0.5-2.2-1c-0.7-0.3-1.4-0.9-1.8-1.5c-0.5-0.6-1.1-1.3-1.5-2
											c-0.1-0.2-0.2-0.5-0.2-0.9c0-0.5,0.1-0.9,0.5-1.1c0.3-0.3,0.7-0.5,1.1-0.5s0.5,0.1,0.7,0.2c0.1,0.1,0.5,0.5,0.7,1
											c0.3,0.5,0.6,0.9,1,1.1c1.1,1.1,2.5,1.7,4.1,1.7c1.6,0,3-0.5,4.1-1.7c0.7-0.9,1-1.6,1-2.4L2495,414.2L2495,414.2z
											 M2489.7,402.6c-0.7,0-1.4,0.1-2.1,0.3c-0.6,0.3-1.1,0.6-1.6,1.1c-0.5,0.5-0.9,1-1.1,1.6c-0.3,0.6-0.3,1.4-0.3,2
											c0,0.6,0.1,1.4,0.3,2c0.3,0.6,0.6,1.1,1.1,1.6c0.5,0.5,1,0.9,1.6,1.1c0.6,0.3,1.4,0.3,2.1,0.3c0.7,0,1.4-0.1,2-0.3
											c0.6-0.3,1.1-0.6,1.6-1.1c0.5-0.5,0.9-1,1.1-1.6c0.3-0.6,0.3-1.4,0.3-2c0-0.6-0.1-1.4-0.3-2c-0.3-0.6-0.6-1.1-1.1-1.6
											c-0.5-0.5-1-0.9-1.6-1.1C2491.2,402.7,2490.5,402.6,2489.7,402.6z"/>
										<path fill="#FFFFFF" d="M2513.1,411.5c0.5,0,0.9,0.1,1.1,0.5c0.3,0.3,0.5,0.7,0.5,1.1c0,0.5-0.1,0.7-0.5,1.1
											c-1.6,1.4-3.3,2-5.5,2c-2.4,0-4.4-0.7-6-2.4c-1.6-1.6-2.4-3.6-2.4-6c0-2.4,0.7-4.4,2.4-6c1.6-1.6,3.6-2.4,6-2.4
											c2.2,0,4.4,0.9,6,2.4c0.7,0.7,1.4,1.7,1.8,2.8c0.3,1,0.6,2.1,0.6,3.2c0,0.5-0.1,0.9-0.5,1.1c-0.3,0.3-0.7,0.5-1.1,0.5
											h-11.8c0.1,0.5,0.3,1,0.7,1.5c0.3,0.5,0.7,0.9,1.1,1.1c0.5,0.3,1,0.5,1.5,0.7c0.5,0.1,1.1,0.2,1.6,0.2
											c0.6,0,1.3-0.1,1.7-0.3c0.5-0.2,1.1-0.5,1.6-1C2512.5,411.5,2512.7,411.5,2513.1,411.5z M2513.8,406.3
											c-0.1-0.5-0.3-1-0.7-1.5c-0.3-0.5-0.7-0.9-1.1-1.1c-0.5-0.3-1-0.5-1.5-0.7c-0.5-0.1-1.1-0.2-1.6-0.2s-1.1,0.1-1.6,0.2
											c-0.5,0.1-1,0.5-1.5,0.7c-0.5,0.3-0.9,0.7-1.1,1.1c-0.3,0.5-0.5,1-0.7,1.5H2513.8z"/>
									</g>
								</g>
							</g>
						</g>
					</g>
				</g>
				<g>
					
						<radialGradient id="SVGID_1_" cx="9855.3818" cy="-8204.5908" r="0.8079" gradientTransform="matrix(-21.2095 0 0 2.4139 211488.3125 20226.293)" gradientUnits="userSpaceOnUse">
						<stop  offset="0" style="stop-color:#FF0000"/>
						<stop  offset="0.8486" style="stop-color:#FF0500;stop-opacity:0"/>
					</radialGradient>
					<ellipse fill="url(#SVGID_1_)" cx="2461.4" cy="420.5" rx="17.1" ry="2"/>
					
						<radialGradient id="SVGID_2_" cx="4427.459" cy="-8204.5908" r="0.8073" gradientTransform="matrix(-44.2057 0 0 2.4139 198129.8594 20226.293)" gradientUnits="userSpaceOnUse">
						<stop  offset="0" style="stop-color:#FF0000"/>
						<stop  offset="0.8486" style="stop-color:#FF0500;stop-opacity:0"/>
					</radialGradient>
					<ellipse fill="url(#SVGID_2_)" cx="2411.2" cy="420.5" rx="35.6" ry="2"/>
					
						<radialGradient id="SVGID_3_" cx="5149.0054" cy="-15477.4346" r="0.8092" gradientTransform="matrix(-39.6906 0 0 1.5411 206774.9375 24270.9688)" gradientUnits="userSpaceOnUse">
						<stop  offset="0" style="stop-color:#FF0000"/>
						<stop  offset="0.8486" style="stop-color:#FF0500;stop-opacity:0"/>
					</radialGradient>
					<ellipse fill="url(#SVGID_3_)" cx="2408.2" cy="420.2" rx="32.2" ry="1.3"/>
					
						<radialGradient id="SVGID_4_" cx="6726.7051" cy="-10239.2568" r="0.8075" gradientTransform="matrix(-29.9354 0 0 2.035 203817.2969 21257.9844)" gradientUnits="userSpaceOnUse">
						<stop  offset="0" style="stop-color:#C40006"/>
						<stop  offset="0.9892" style="stop-color:#FF0500;stop-opacity:0"/>
					</radialGradient>
					<ellipse fill="url(#SVGID_4_)" cx="2451" cy="420.3" rx="24.2" ry="1.6"/>
				</g>
			</g>
		</g>
		<g>
			<g>
				<g>
					<g>
						<g opacity="0.5">
							<g>
								<g>
									<g>
										<g>
											
												<line fill="none" stroke="#FFFFFF" stroke-linecap="round" stroke-linejoin="round" stroke-miterlimit="10" stroke-dasharray="0.2533,0.2533" x1="2466.2" y1="551.1" x2="2495.7" y2="505.3"/>
										</g>
									</g>
								</g>
								<g>
									<g>
										
											<line fill="none" stroke="#FFFFFF" stroke-linecap="round" stroke-linejoin="round" stroke-miterlimit="10" stroke-dasharray="0.2533,0.2533" x1="2441.9" y1="591.5" x2="2453" y2="577.3"/>
									</g>
								</g>
								<g>
									<g>
										
											<line fill="none" stroke="#FFFFFF" stroke-linecap="round" stroke-linejoin="round" stroke-miterlimit="10" stroke-dasharray="0.2533,0.2533" x1="2544.1" y1="591.3" x2="2554.4" y2="577.7"/>
									</g>
								</g>
								<g>
									<g>
										
											<line fill="none" stroke="#FFFFFF" stroke-linecap="round" stroke-linejoin="round" stroke-miterlimit="10" stroke-dasharray="0.2533,0.2533" x1="2578.2" y1="591.2" x2="2568.1" y2="577.3"/>
									</g>
								</g>
								<g>
									<g>
										<g>
											
												<line fill="none" stroke="#FFFFFF" stroke-linecap="round" stroke-linejoin="round" stroke-miterlimit="10" stroke-dasharray="0.2533,0.2533" x1="2554.4" y1="551.1" x2="2525.9" y2="509.8"/>
										</g>
									</g>
								</g>
								<g>
									<g>
										
											<line fill="none" stroke="#FFFFFF" stroke-linecap="round" stroke-linejoin="round" stroke-miterlimit="10" stroke-dasharray="0.2533,0.2533" x1="2475.5" y1="591.2" x2="2465.3" y2="577.3"/>
									</g>
								</g>
							</g>
						</g>
						<g>
							<g>
								<g opacity="0.25">
									<circle cx="2460" cy="565.2" r="14"/>
								</g>
								<g>
									<circle fill="#00B0C2" cx="2458.9" cy="564.2" r="14"/>
								</g>
							</g>
							<g>
								<g opacity="0.25">
									<circle cx="2562" cy="565.2" r="14"/>
								</g>
								<g>
									<circle fill="#00B0C2" cx="2561.1" cy="564.2" r="14"/>
								</g>
							</g>
							<g>
								<g opacity="0.25">
									<circle cx="2436.4" cy="605.1" r="14"/>
									<circle cx="2483.4" cy="605.1" r="14"/>
								</g>
								<g>
									<g>
										<circle fill="#00B0C2" cx="2435.4" cy="604" r="14"/>
										<circle fill="#00B0C2" cx="2482.5" cy="604" r="14"/>
									</g>
								</g>
							</g>
							<g>
								<g>
									<g>
										<g opacity="0.25">
											<circle cx="2538.6" cy="605.1" r="14"/>
										</g>
										<g>
											<circle fill="#00B0C2" cx="2537.5" cy="604" r="14"/>
										</g>
									</g>
									<g>
										<g opacity="0.25">
											<circle fill="none" stroke="#000000" stroke-width="2" stroke-miterlimit="10" cx="2585.4" cy="604.4" r="14"/>
										</g>
										<g>
											<circle fill="none" stroke="#00B0C2" stroke-miterlimit="10" cx="2584.7" cy="604" r="14"/>
										</g>
									</g>
								</g>
							</g>
						</g>
					</g>
				</g>
			</g>
		</g>
		<g>
			<g opacity="0.25">
				<path d="M2561.2,532.5h-114.7c-4.1,0-7.5-3.3-7.5-7.5v-50.7c0-4.1,3.3-7.5,7.5-7.5h114.7c4.1,0,7.5,3.3,7.5,7.5v50.6
					C2568.7,529.1,2565.2,532.5,2561.2,532.5z"/>
			</g>
			<g>
				<g>
					<path fill="#00B0C2" d="M2560.1,531.4h-114.7c-4.1,0-7.5-3.3-7.5-7.5v-50.7c0-4.1,3.3-7.5,7.5-7.5h114.7c4.1,0,7.5,3.3,7.5,7.5
						v50.7C2567.6,528.1,2564.3,531.4,2560.1,531.4z"/>
				</g>
			</g>
		</g>
		<g>
			<g opacity="0.23">
				<path d="M2593.6,604.6L2593.6,604.6c-0.1,1.1-0.3,2.1-0.9,3c-0.6,1-1.4,1.8-2.2,2.5c-0.7,0.5-1.5,0.9-2.4,1
					c-0.6,0.1-1.3,0.1-1.8,0.1l0,0c-0.1,0-0.2,0-0.2,0c-0.2,0-0.5-0.1-0.7-0.1c-0.3-0.1-0.9-0.2-1.3-0.5c-0.3-0.1-0.6-0.3-0.9-0.6
					c0.3-0.2,0.7-0.5,1.1-0.7c-0.1-0.1-0.2-0.1-0.3-0.2c-1.6-0.9-3.2-1.8-4.9-2.8c0,0.1,0,0.2,0,0.3c0,2,0.1,3.8,0.1,5.9
					c0.1-0.1,0.2-0.1,0.3-0.2c0.2-0.2,0.6-0.3,0.9-0.6c1,0.7,2.1,1.4,3.3,1.6c1.1,0.2,2.1,0.2,3.2,0.1c1.8-0.2,3.5-1.3,4.7-2.6
					c0.3-0.3,0.6-0.9,1-1.4c0.2-0.5,0.6-1.1,0.7-1.7c0.1-0.6,0.2-1.1,0.2-1.7C2593.7,605.4,2593.7,605.1,2593.6,604.6z"/>
				<path d="M2581.3,601.2c0.6-0.3,1.4-0.7,2.1-0.9c0.6-0.1,1.3-0.1,1.8-0.1l0,0c0.1,0,0.1,0,0.2,0c0.2,0,0.5,0.1,0.6,0.1
					c0.5,0.1,0.9,0.2,1.3,0.5c0.3,0.1,0.6,0.3,0.9,0.6c-0.3,0.2-0.7,0.5-1.1,0.7c0.1,0,0.2,0.1,0.3,0.1c1.6,0.9,3.2,1.8,4.9,2.8
					c0-0.1,0-0.2,0-0.3c0-2-0.1-3.8-0.1-5.9c-0.1,0.1-0.2,0.1-0.3,0.2c-0.2,0.2-0.6,0.3-0.9,0.6c-1-0.7-2.2-1.4-3.5-1.6
					c-1.1-0.2-2.4-0.2-3.5,0c-1,0.2-2,0.6-2.9,1.3c-0.6,0.3-1.1,0.9-1.6,1.5c-0.7,0.9-1.3,2-1.6,3c-0.1,0.6-0.2,1.1-0.2,1.7
					c0,0.3,0,0.7,0,1.1v-0.2c0.1-1.1,0.5-2.1,1-3C2579.6,602.7,2580.4,601.8,2581.3,601.2z"/>
			</g>
			<g>
				<g>
					<path fill="#F66BC6" d="M2592.6,603.7L2592.6,603.7c-0.1,1.1-0.3,2.1-0.9,3c-0.6,1-1.4,1.8-2.2,2.5c-0.7,0.5-1.5,0.9-2.4,1
						c-0.6,0.1-1.3,0.1-1.8,0.1l0,0c-0.1,0-0.2,0-0.2,0c-0.2,0-0.5-0.1-0.7-0.1c-0.3-0.1-0.9-0.2-1.3-0.5c-0.3-0.1-0.6-0.3-0.9-0.6
						c0.3-0.2,0.7-0.5,1.1-0.7c-0.1-0.1-0.2-0.1-0.3-0.2c-1.6-0.9-3.2-1.8-4.9-2.8c0,0.1,0,0.2,0,0.3c0,2,0.1,3.8,0.1,5.9
						c0.1-0.1,0.2-0.1,0.3-0.2c0.2-0.2,0.6-0.3,0.9-0.6c1,0.7,2.1,1.4,3.3,1.6c1.1,0.2,2.1,0.2,3.2,0.1c1.8-0.2,3.5-1.3,4.7-2.6
						c0.3-0.3,0.6-0.9,1-1.4c0.2-0.5,0.6-1.1,0.7-1.7c0.1-0.6,0.2-1.1,0.2-1.7C2592.7,604.3,2592.7,604,2592.6,603.7z"/>
					<path fill="#F66BC6" d="M2580.3,600.2c0.6-0.3,1.4-0.7,2.1-0.9c0.6-0.1,1.3-0.1,1.8-0.1l0,0c0.1,0,0.1,0,0.2,0
						c0.2,0,0.5,0.1,0.6,0.1c0.5,0.1,0.9,0.2,1.3,0.5c0.3,0.1,0.6,0.3,0.9,0.6c-0.3,0.2-0.7,0.5-1.1,0.7c0.1,0,0.2,0.1,0.3,0.1
						c1.6,0.9,3.2,1.8,4.9,2.8c0-0.1,0-0.2,0-0.3c0-2-0.1-3.8-0.1-5.9c-0.1,0.1-0.2,0.1-0.3,0.2c-0.2,0.2-0.6,0.3-0.9,0.6
						c-1-0.7-2.2-1.4-3.5-1.6c-1.1-0.2-2.4-0.2-3.5,0c-1,0.2-2,0.6-2.9,1.3c-0.6,0.3-1.1,0.9-1.6,1.5c-0.7,0.9-1.3,2-1.6,3
						c-0.1,0.6-0.2,1.1-0.2,1.7c0,0.3,0,0.7,0,1.1v-0.2c0.1-1.1,0.5-2.1,1-3C2578.5,601.7,2579.2,600.8,2580.3,600.2z"/>
				</g>
			</g>
		</g>
		<g>
			<g>
				<g>
					<path fill="#FFFFFF" d="M2497.1,504h3.7v-7.4c0-0.6,0-1.4,0-1.4l0,0c0,0-0.2,0.5-0.7,0.9l-1,1l-2.5-2.6l4.7-4.5h3.7v13.8h3.7
						v3.7h-11.7V504H2497.1z"/>
				</g>
			</g>
		</g>
		<g opacity="0.3">
			<g enable-background="new    ">
				<path d="M2505.2,429.1l-5-4.7c-0.2-0.2-0.3-0.5-0.3-0.9c0-0.2,0-0.3,0.1-0.5c0.1-0.1,0.2-0.3,0.3-0.4c0.1-0.1,0.3-0.2,0.5-0.3
					c0.2-0.1,0.4-0.1,0.6-0.1c0.5,0,0.9,0.1,1.2,0.4l4.7,4.4l4.7-4.4c0.3-0.3,0.7-0.4,1.2-0.4c0.2,0,0.4,0,0.6,0.1
					c0.2,0.1,0.3,0.1,0.5,0.3c0.1,0.1,0.2,0.2,0.3,0.4c0.1,0.1,0.1,0.3,0.1,0.5c0,0.3-0.1,0.5-0.4,0.9l-5,4.7l5.1,4.7
					c0.2,0.2,0.3,0.4,0.3,0.7c0,0.2,0,0.3-0.1,0.5c-0.1,0.1-0.2,0.3-0.3,0.4c-0.1,0.1-0.3,0.2-0.5,0.3s-0.4,0.1-0.6,0.1
					c-0.4,0-0.9-0.1-1.2-0.4l-4.7-4.4l-4.8,4.4c-0.3,0.2-0.7,0.4-1.2,0.4c-0.2,0-0.4,0-0.6-0.1c-0.2-0.1-0.3-0.1-0.5-0.3
					c-0.1-0.1-0.2-0.2-0.3-0.4c-0.1-0.1-0.1-0.3-0.1-0.5c0-0.3,0.1-0.5,0.3-0.7L2505.2,429.1z"/>
				<path d="M2527.9,434.6V431h-9c-0.4,0-0.9-0.1-1.2-0.3c-0.3-0.2-0.4-0.5-0.4-0.9c0-0.3,0.1-0.5,0.3-0.7l10.6-12
					c0.1-0.2,0.3-0.3,0.5-0.4c0.2-0.1,0.5-0.1,0.7-0.1c0.2,0,0.4,0,0.6,0.1c0.2,0.1,0.3,0.1,0.5,0.3c0.1,0.1,0.2,0.2,0.3,0.4
					c0.1,0.1,0.1,0.3,0.1,0.5v10.7h1.9c0.4,0,0.9,0.1,1.2,0.3c0.3,0.2,0.4,0.5,0.4,0.9c0,0.3-0.1,0.6-0.4,0.9s-0.7,0.3-1.2,0.3h-1.9
					v3.6c0,0.3-0.1,0.6-0.4,0.9s-0.7,0.3-1.2,0.3s-0.9-0.1-1.2-0.3C2528,435.3,2527.9,435,2527.9,434.6z M2527.9,428.5v-6.6
					l-5.9,6.6H2527.9z"/>
			</g>
		</g>
		<g>
			<g enable-background="new    ">
				<path fill="#F66BC6" d="M2504.6,428.4l-5-4.7c-0.2-0.2-0.3-0.5-0.3-0.9c0-0.2,0-0.3,0.1-0.5c0.1-0.1,0.2-0.3,0.3-0.4
					c0.1-0.1,0.3-0.2,0.5-0.3c0.2-0.1,0.4-0.1,0.6-0.1c0.5,0,0.9,0.1,1.2,0.4l4.7,4.4l4.7-4.4c0.3-0.3,0.7-0.4,1.2-0.4
					c0.2,0,0.4,0,0.6,0.1c0.2,0.1,0.3,0.1,0.5,0.3c0.1,0.1,0.2,0.2,0.3,0.4c0.1,0.1,0.1,0.3,0.1,0.5c0,0.3-0.1,0.5-0.4,0.9l-5,4.7
					l5.1,4.7c0.2,0.2,0.3,0.4,0.3,0.7c0,0.2,0,0.3-0.1,0.5c-0.1,0.1-0.2,0.3-0.3,0.4c-0.1,0.1-0.3,0.2-0.5,0.3
					c-0.2,0.1-0.4,0.1-0.6,0.1c-0.4,0-0.9-0.1-1.2-0.4l-4.7-4.4l-4.8,4.4c-0.3,0.2-0.7,0.4-1.2,0.4c-0.2,0-0.4,0-0.6-0.1
					c-0.2-0.1-0.3-0.1-0.5-0.3c-0.1-0.1-0.2-0.2-0.3-0.4c-0.1-0.1-0.1-0.3-0.1-0.5c0-0.3,0.1-0.5,0.3-0.7L2504.6,428.4z"/>
				<path fill="#F66BC6" d="M2527.3,434v-3.6h-9c-0.4,0-0.9-0.1-1.2-0.3s-0.4-0.5-0.4-0.9s0.1-0.5,0.3-0.7l10.6-12
					c0.1-0.2,0.3-0.3,0.5-0.4c0.2-0.1,0.5-0.1,0.7-0.1s0.4,0,0.6,0.1c0.2,0.1,0.3,0.1,0.5,0.3c0.1,0.1,0.2,0.2,0.3,0.4
					c0.1,0.1,0.1,0.3,0.1,0.5V428h1.9c0.4,0,0.9,0.1,1.2,0.3c0.3,0.2,0.4,0.5,0.4,0.9c0,0.3-0.1,0.6-0.4,0.9
					c-0.3,0.2-0.7,0.3-1.2,0.3h-1.9v3.6c0,0.3-0.1,0.6-0.4,0.9c-0.3,0.2-0.7,0.3-1.2,0.3s-0.9-0.1-1.2-0.3
					C2527.5,434.6,2527.3,434.3,2527.3,434z M2527.3,427.9v-6.6l-5.9,6.6H2527.3z"/>
			</g>
		</g>
	</g>
	<g opacity="0.3">
		<path fill="none" stroke="#000000" stroke-width="2" stroke-miterlimit="10" d="M2673.4,648.7h-330.7c-3.3,0-6.1-2.7-6.1-6.1
			V358.2c0-3.3,2.7-6.1,6.1-6.1h330.7c3.3,0,6.1,2.7,6.1,6.1v284.6C2679.5,646.1,2676.7,648.7,2673.4,648.7z"/>
	</g>
	<g>
		<path fill="none" stroke="#29ABE2" stroke-linecap="round" stroke-linejoin="round" stroke-miterlimit="10" d="M2672.8,647.8
			h-330.7c-3.3,0-6.1-2.7-6.1-6.1V357.3c0-3.3,2.7-6.1,6.1-6.1h330.7c3.3,0,6.1,2.7,6.1,6.1v284.6
			C2678.9,645.2,2676.2,647.8,2672.8,647.8z"/>
	</g>
</g>
</svg>
