<?xml version="1.0" encoding="utf-8"?>
<!-- Generator: Adobe Illustrator 18.0.0, SVG Export Plug-In . SVG Version: 6.00 Build 0)  -->
<!DOCTYPE svg PUBLIC "-//W3C//DTD SVG 1.1//EN" "http://www.w3.org/Graphics/SVG/1.1/DTD/svg11.dtd">
<svg version="1.1" id="Layer_1" xmlns="http://www.w3.org/2000/svg" xmlns:xlink="http://www.w3.org/1999/xlink" x="0px" y="0px"
	 viewBox="0 0 48.9 29.2" enable-background="new 0 0 48.9 29.2" xml:space="preserve">
<g>
	<g opacity="0.23">
		<path d="M28.2,12.8c0,0.1,0,0.1,0,0.2c0.3,0.1,0.6,0.2,0.8,0.3c4.4,1.9,8.9,3.8,13.3,5.7c1.1,0.5,1.8,1.3,2,2.5
			c0.2,1.3-0.2,2.3-1.2,3.2c-1,0.8-2.2,1-3.4,0.4C35.2,23,30.6,21,26,19.1c-0.1-0.1-0.2-0.1-0.3-0.2c0,0-0.1,0.1-0.1,0.1
			c0.1,0.5,0.2,1.1,0.4,1.6c0.7,1.9,2,3.2,3.8,4c2.9,1.2,5.8,2.5,8.7,3.7c3.6,1.5,7.7-0.3,9.1-4c1.2-3.4-0.5-7.2-3.9-8.6
			c-2.9-1.2-5.7-2.4-8.6-3.7c-2-0.8-3.9-0.7-5.9,0.2C28.9,12.4,28.5,12.6,28.2,12.8z M20.8,16.9c-0.1-0.1-0.2-0.1-0.3-0.1
			c-2.4-1-4.7-2-7.1-3c-2.3-1-4.6-1.9-6.9-2.9c-1-0.4-1.7-1.2-2-2.3C4.3,7.2,4.7,6.1,5.7,5.3c1-0.8,2.2-1,3.4-0.5
			c1.3,0.5,2.5,1.1,3.7,1.6c3.4,1.4,6.8,2.9,10.2,4.3c0.1,0,0.2,0.1,0.3,0.1c-0.4-2.6-1.7-4.5-4.1-5.5c-2.9-1.3-5.8-2.5-8.7-3.7
			C5.9-0.4,0.9,3,1,8c0.1,2.9,1.5,4.9,4.1,6.1c2.8,1.2,5.6,2.4,8.4,3.6c1.4,0.6,2.8,0.9,4.3,0.6C18.9,18,19.9,17.6,20.8,16.9z
			 M34,17.4c-0.2-0.5-0.6-0.9-1.1-1.1c-1.9-0.8-3.8-1.6-5.7-2.4c-3.2-1.4-6.5-2.7-9.7-4.1c-0.5-0.2-1.1-0.2-1.6,0
			c-0.7,0.4-1.1,1-1.1,1.8c0,0.8,0.5,1.4,1.2,1.7c1.1,0.5,2.3,1,3.4,1.4c2.2,0.9,4.3,1.8,6.5,2.7c1.9,0.8,3.7,1.6,5.6,2.4
			c0.8,0.3,1.6,0.2,2.2-0.4C34.1,19,34.3,18.1,34,17.4z"/>
		<path d="M28.2,12.8c0.3-0.2,0.6-0.4,1-0.6c1.9-1,3.9-1.1,5.9-0.2c2.9,1.2,5.7,2.4,8.6,3.7c3.4,1.4,5.1,5.2,3.9,8.6
			c-1.3,3.7-5.5,5.5-9.1,4c-2.9-1.2-5.8-2.5-8.7-3.7c-1.8-0.8-3.1-2.1-3.8-4c-0.2-0.5-0.3-1-0.4-1.6c0,0,0.1-0.1,0.1-0.1
			c0.1,0.1,0.2,0.2,0.3,0.2c4.6,2,9.2,3.9,13.8,5.9c1.2,0.5,2.3,0.4,3.4-0.4c1-0.8,1.4-1.9,1.2-3.2c-0.2-1.2-0.9-2-2-2.5
			c-4.4-1.9-8.9-3.8-13.3-5.7c-0.3-0.1-0.6-0.2-0.8-0.3C28.2,12.9,28.2,12.9,28.2,12.8z"/>
		<path d="M20.8,16.9c-0.9,0.7-1.8,1.1-2.9,1.3c-1.5,0.3-2.9,0-4.3-0.6c-2.8-1.2-5.6-2.3-8.4-3.6C2.5,12.9,1.1,10.8,1,8
			c-0.1-5,4.9-8.3,9.5-6.4c2.9,1.2,5.8,2.5,8.7,3.7c2.4,1,3.7,2.9,4.1,5.5c-0.1,0-0.2-0.1-0.3-0.1c-3.4-1.4-6.8-2.9-10.2-4.3
			c-1.2-0.5-2.5-1.1-3.7-1.6C7.9,4.3,6.7,4.4,5.7,5.3c-1,0.8-1.4,2-1.1,3.2c0.2,1.1,0.9,1.9,2,2.3c2.3,1,4.6,1.9,6.9,2.9
			c2.4,1,4.7,2,7.1,3C20.6,16.8,20.7,16.8,20.8,16.9z"/>
		<path d="M34,17.4c0.3,0.7,0.1,1.6-0.4,2.1c-0.6,0.6-1.4,0.7-2.2,0.4c-1.9-0.8-3.7-1.6-5.6-2.4c-2.2-0.9-4.3-1.8-6.5-2.7
			c-1.1-0.5-2.3-1-3.4-1.4c-0.8-0.3-1.2-0.9-1.2-1.7c0-0.8,0.4-1.4,1.1-1.8c0.5-0.3,1.1-0.3,1.6,0c3.2,1.4,6.5,2.7,9.7,4.1
			c1.9,0.8,3.8,1.6,5.7,2.4C33.4,16.5,33.8,16.9,34,17.4z"/>
	</g>
	<g>
		<g>
			<path fill="#AE62DF" d="M27.2,11.8c0,0.1,0,0.1,0,0.2c0.3,0.1,0.6,0.2,0.8,0.3c4.4,1.9,8.9,3.8,13.3,5.7c1.1,0.5,1.8,1.3,2,2.5
				c0.2,1.3-0.2,2.3-1.2,3.2c-1,0.8-2.2,1-3.4,0.4C34.2,22,29.6,20,25,18.1c-0.1-0.1-0.2-0.1-0.3-0.2c0,0-0.1,0.1-0.1,0.1
				c0.1,0.5,0.2,1.1,0.4,1.6c0.7,1.9,2,3.2,3.8,4c2.9,1.2,5.8,2.5,8.7,3.7c3.6,1.5,7.7-0.3,9.1-4c1.2-3.4-0.5-7.2-3.9-8.6
				c-2.9-1.2-5.7-2.4-8.6-3.7c-2-0.8-3.9-0.7-5.9,0.2C27.9,11.4,27.5,11.6,27.2,11.8z M19.8,15.9c-0.1-0.1-0.2-0.1-0.3-0.1
				c-2.4-1-4.7-2-7.1-3c-2.3-1-4.6-1.9-6.9-2.9c-1-0.4-1.7-1.2-2-2.3C3.3,6.2,3.7,5.1,4.7,4.3c1-0.8,2.2-1,3.4-0.5
				c1.3,0.5,2.5,1.1,3.7,1.6c3.4,1.4,6.8,2.9,10.2,4.3c0.1,0,0.2,0.1,0.3,0.1c-0.4-2.6-1.7-4.5-4.1-5.5C15.3,3,12.4,1.8,9.5,0.6
				C4.9-1.4-0.1,2,0,7c0.1,2.9,1.5,4.9,4.1,6.1c2.8,1.2,5.6,2.4,8.4,3.6c1.4,0.6,2.8,0.9,4.3,0.6C17.9,17,18.9,16.6,19.8,15.9z
				 M33,16.4c-0.2-0.5-0.6-0.9-1.1-1.1c-1.9-0.8-3.8-1.6-5.7-2.4c-3.2-1.4-6.5-2.7-9.7-4.1c-0.5-0.2-1.1-0.2-1.6,0
				c-0.7,0.4-1.1,1-1.1,1.8c0,0.8,0.5,1.4,1.2,1.7c1.1,0.5,2.3,1,3.4,1.4c2.2,0.9,4.3,1.8,6.5,2.7c1.9,0.8,3.7,1.6,5.6,2.4
				c0.8,0.3,1.6,0.2,2.2-0.4C33.1,18,33.3,17.1,33,16.4z"/>
			<path fill="#AE62DF" d="M27.2,11.8c0.3-0.2,0.6-0.4,1-0.6c1.9-1,3.9-1.1,5.9-0.2c2.9,1.2,5.7,2.4,8.6,3.7
				c3.4,1.4,5.1,5.2,3.9,8.6c-1.3,3.7-5.5,5.5-9.1,4c-2.9-1.2-5.8-2.5-8.7-3.7c-1.8-0.8-3.1-2.1-3.8-4c-0.2-0.5-0.3-1-0.4-1.6
				c0,0,0.1-0.1,0.1-0.1c0.1,0.1,0.2,0.2,0.3,0.2c4.6,2,9.2,3.9,13.8,5.9c1.2,0.5,2.3,0.4,3.4-0.4c1-0.8,1.4-1.9,1.2-3.2
				c-0.2-1.2-0.9-2-2-2.5c-4.4-1.9-8.9-3.8-13.3-5.7c-0.3-0.1-0.6-0.2-0.8-0.3C27.2,11.9,27.2,11.9,27.2,11.8z"/>
			<path fill="#AE62DF" d="M19.8,15.9c-0.9,0.7-1.8,1.1-2.9,1.3c-1.5,0.3-2.9,0-4.3-0.6c-2.8-1.2-5.6-2.3-8.4-3.6
				C1.5,11.9,0.1,9.8,0,7c-0.1-5,4.9-8.3,9.5-6.4c2.9,1.2,5.8,2.5,8.7,3.7c2.4,1,3.7,2.9,4.1,5.5c-0.1,0-0.2-0.1-0.3-0.1
				c-3.4-1.4-6.8-2.9-10.2-4.3c-1.2-0.5-2.5-1.1-3.7-1.6C6.9,3.3,5.7,3.4,4.7,4.3c-1,0.8-1.4,2-1.1,3.2c0.2,1.1,0.9,1.9,2,2.3
				c2.3,1,4.6,1.9,6.9,2.9c2.4,1,4.7,2,7.1,3C19.6,15.8,19.7,15.8,19.8,15.9z"/>
			<path fill="#AE62DF" d="M33,16.4c0.3,0.7,0.1,1.6-0.4,2.1c-0.6,0.6-1.4,0.7-2.2,0.4c-1.9-0.8-3.7-1.6-5.6-2.4
				c-2.2-0.9-4.3-1.8-6.5-2.7c-1.1-0.5-2.3-1-3.4-1.4c-0.8-0.3-1.2-0.9-1.2-1.7c0-0.8,0.4-1.4,1.1-1.8c0.5-0.3,1.1-0.3,1.6,0
				c3.2,1.4,6.5,2.7,9.7,4.1c1.9,0.8,3.8,1.6,5.7,2.4C32.4,15.5,32.8,15.9,33,16.4z"/>
		</g>
	</g>
</g>
</svg>
