<?xml version="1.0" encoding="utf-8"?>
<!-- Generator: Adobe Illustrator 18.0.0, SVG Export Plug-In . SVG Version: 6.00 Build 0)  -->
<!DOCTYPE svg PUBLIC "-//W3C//DTD SVG 1.1//EN" "http://www.w3.org/Graphics/SVG/1.1/DTD/svg11.dtd">
<svg version="1.1" id="Layer_1" xmlns="http://www.w3.org/2000/svg" xmlns:xlink="http://www.w3.org/1999/xlink" x="0px" y="0px"
	 viewBox="0 0 33.1 33.7" enable-background="new 0 0 33.1 33.7" xml:space="preserve">
<g>
	<g opacity="0.23">
		<path d="M16.7,29.4c5.6,0,10.7-3.8,12.2-9.1c1.6-5.4-0.6-11.2-5.4-14.2c-0.4-0.2-0.7-0.4-1.1-0.7c-0.9-0.7-1-1.4-0.5-2.2
			c0.5-0.7,1.1-0.8,2.1-0.3c4.5,2.5,7.3,6.2,8.2,11.3c1.3,7.8-3.1,15-10.6,17.5C11,35.3-0.2,26.3,1.1,15.2c0.2-1.3,0.5-2.6,0.9-3.8
			c0.4-1.4,1.1-1.9,2-1.5c1,0.4,1.3,1.2,0.8,2.5c-0.9,2.5-1,5-0.4,7.5C5.9,25.5,10.9,29.4,16.7,29.4z"/>
		<path d="M5.3,5.1c0.5,0.3,1,0.6,1.5,1c3.8,2.9,7.6,5.8,11.3,8.7c1.2,0.9,1.3,2.6,0.3,3.6c-1,1-2.7,1-3.6-0.2
			c-3.2-4.1-6.2-8.3-9.4-12.4C5.3,5.6,5.2,5.4,5.1,5.2C5.2,5.2,5.2,5.1,5.3,5.1z"/>
		<path d="M19.1,3.4c0,1.3-1.1,2.3-2.4,2.3c-1.4,0-2.4-1.1-2.3-2.5C14.4,2,15.5,1,16.8,1C18.1,1,19.1,2.1,19.1,3.4z"/>
	</g>
	<g>
		<g>
			<path fill="#00C34A" d="M15.7,28.4c5.6,0,10.7-3.8,12.2-9.1c1.6-5.4-0.6-11.2-5.4-14.2c-0.4-0.2-0.7-0.4-1.1-0.7
				c-0.9-0.7-1-1.4-0.5-2.2c0.5-0.7,1.1-0.8,2.1-0.3c4.5,2.5,7.3,6.2,8.2,11.3c1.3,7.8-3.1,15-10.6,17.5C10,34.3-1.2,25.3,0.1,14.2
				c0.2-1.3,0.5-2.6,0.9-3.8c0.4-1.4,1.1-1.9,2-1.5c1,0.4,1.3,1.2,0.8,2.5c-0.9,2.5-1,5-0.4,7.5C4.9,24.5,9.9,28.4,15.7,28.4z"/>
			<path fill="#00C34A" d="M4.3,4.1c0.5,0.3,1,0.6,1.5,1c3.8,2.9,7.6,5.8,11.3,8.7c1.2,0.9,1.3,2.6,0.3,3.6c-1,1-2.7,1-3.6-0.2
				c-3.2-4.1-6.2-8.3-9.4-12.4C4.3,4.6,4.2,4.4,4.1,4.2C4.2,4.2,4.2,4.1,4.3,4.1z"/>
			<path fill="#00C34A" d="M18.1,2.4c0,1.3-1.1,2.3-2.4,2.3c-1.4,0-2.4-1.1-2.3-2.5C13.4,1,14.5,0,15.8,0C17.1,0,18.1,1.1,18.1,2.4z
				"/>
		</g>
	</g>
</g>
</svg>
