<?xml version="1.0" encoding="utf-8"?>
<!-- Generator: Adobe Illustrator 18.0.0, SVG Export Plug-In . SVG Version: 6.00 Build 0)  -->
<!DOCTYPE svg PUBLIC "-//W3C//DTD SVG 1.1//EN" "http://www.w3.org/Graphics/SVG/1.1/DTD/svg11.dtd">
<svg version="1.1" id="Layer_1" xmlns="http://www.w3.org/2000/svg" xmlns:xlink="http://www.w3.org/1999/xlink" x="0px" y="0px"
	 viewBox="0 0 247.6 336.5" enable-background="new 0 0 247.6 336.5" xml:space="preserve">
<g>
	<g>
		<g>
			<g opacity="0.4">
				<g opacity="0.6">
					<g>
						<g>
							
								<line fill="none" stroke="#FFFFFF" stroke-width="1.431" stroke-linecap="round" stroke-linejoin="round" stroke-miterlimit="10" stroke-dasharray="1.8372,3.6743" x1="61.5" y1="221.8" x2="99.3" y2="138.4"/>
						</g>
					</g>
				</g>
				<g opacity="0.6">
					<g>
						<g>
							
								<line fill="none" stroke="#FFFFFF" stroke-width="1.431" stroke-linecap="round" stroke-linejoin="round" x1="26.4" y1="298.3" x2="26.8" y2="297.4"/>
							
								<line fill="none" stroke="#FFFFFF" stroke-width="1.431" stroke-linecap="round" stroke-linejoin="round" stroke-dasharray="1.7303,3.4606" x1="28.1" y1="294.2" x2="43.7" y2="257.6"/>
							
								<line fill="none" stroke="#FFFFFF" stroke-width="1.431" stroke-linecap="round" stroke-linejoin="round" x1="44.4" y1="256" x2="44.7" y2="255.2"/>
						</g>
					</g>
				</g>
				<g opacity="0.6">
					<g>
						<g>
							
								<line fill="none" stroke="#FFFFFF" stroke-width="1.431" stroke-linecap="round" stroke-linejoin="round" x1="156.6" y1="297.9" x2="157" y2="297.1"/>
							
								<line fill="none" stroke="#FFFFFF" stroke-width="1.431" stroke-linecap="round" stroke-linejoin="round" stroke-dasharray="1.9111,3.8222" x1="158.5" y1="293.6" x2="173.3" y2="258.3"/>
							
								<line fill="none" stroke="#FFFFFF" stroke-width="1.431" stroke-linecap="round" stroke-linejoin="round" x1="174" y1="256.6" x2="174.4" y2="255.7"/>
						</g>
					</g>
				</g>
				<g opacity="0.6">
					<g>
						<g>
							
								<line fill="none" stroke="#FFFFFF" stroke-width="1.431" stroke-linecap="round" stroke-linejoin="round" x1="208.9" y1="297.7" x2="208.6" y2="296.9"/>
							
								<line fill="none" stroke="#FFFFFF" stroke-width="1.431" stroke-linecap="round" stroke-linejoin="round" stroke-dasharray="1.9163,3.8326" x1="207.1" y1="293.3" x2="192.7" y2="257.8"/>
							
								<line fill="none" stroke="#FFFFFF" stroke-width="1.431" stroke-linecap="round" stroke-linejoin="round" x1="192" y1="256" x2="191.6" y2="255.2"/>
						</g>
					</g>
				</g>
				<g opacity="0.6">
					<g>
						<g>
							
								<line fill="none" stroke="#FFFFFF" stroke-width="1.431" stroke-linecap="round" stroke-linejoin="round" stroke-miterlimit="10" stroke-dasharray="1.8372,3.6743" x1="174.4" y1="221.7" x2="137.7" y2="144"/>
						</g>
					</g>
				</g>
				<g opacity="0.6">
					<g>
						<g>
							
								<line fill="none" stroke="#FFFFFF" stroke-width="1.431" stroke-linecap="round" stroke-linejoin="round" x1="77.7" y1="297.7" x2="77.3" y2="296.9"/>
							
								<line fill="none" stroke="#FFFFFF" stroke-width="1.431" stroke-linecap="round" stroke-linejoin="round" stroke-dasharray="1.9163,3.8326" x1="75.9" y1="293.3" x2="61.5" y2="257.8"/>
							
								<line fill="none" stroke="#FFFFFF" stroke-width="1.431" stroke-linecap="round" stroke-linejoin="round" x1="60.8" y1="256" x2="60.4" y2="255.2"/>
						</g>
					</g>
				</g>
			</g>
			<g>
				<g opacity="0.2">
					<circle cx="53.3" cy="239.5" r="17.9"/>
				</g>
				<g>
					<circle fill="#AC9BFB" cx="52.3" cy="238.5" r="17.9"/>
				</g>
			</g>
			<g>
				<g opacity="0.2">
					<circle cx="183.7" cy="239.5" r="17.9"/>
				</g>
				<g>
					<circle fill="#AC9BFB" cx="182.7" cy="238.5" r="17.9"/>
				</g>
			</g>
			<g>
				<g opacity="0.2">
					<circle cx="18.9" cy="315.2" r="17.9"/>
					<circle cx="87.7" cy="315.2" r="17.9"/>
				</g>
				<g>
					<g>
						<g>
							<circle fill="#00B0C2" cx="17.9" cy="314.2" r="17.9"/>
						</g>
						<g>
							<circle fill="#00B0C2" cx="86.7" cy="314.2" r="17.9"/>
						</g>
					</g>
				</g>
			</g>
			<g>
				<g opacity="0.2">
					<circle cx="149.3" cy="315.2" r="17.9"/>
					<circle cx="218.1" cy="315.2" r="17.9"/>
				</g>
				<g>
					<g>
						<g>
							<circle fill="#00B0C2" cx="148.3" cy="314.2" r="17.9"/>
						</g>
						<circle fill="#FF5FAC" cx="217.1" cy="314.2" r="17.9"/>
					</g>
				</g>
			</g>
		</g>
		<g>
			<g>
				<g>
					
						<image overflow="visible" opacity="0.2" width="200" height="73" xlink:href="FB39FD72.png"  transform="matrix(1 0 0 1 22.1031 0)">
					</image>
					<g>
						<path fill="none" stroke="#AC9BFB" stroke-width="1.6483" stroke-miterlimit="10" d="M192.6,50.1H37.2c-5,0-9-4-9-9v-28
							c0-5,4-9,9-9h155.4c5,0,9,4,9,9v28C201.6,46.1,197.6,50.1,192.6,50.1z"/>
					</g>
				</g>
			</g>
		</g>
	</g>
	<g>
		
			<image overflow="visible" opacity="0.2" width="11" height="16" xlink:href="FB39FD76.png"  transform="matrix(1 0 0 1 71.1108 247.0077)">
		</image>
		<g>
			<g>
				<path fill="#AC9BFB" d="M77.8,248.1v11.2h-3.2v-8.8h-2.1v-2.4H77.8z"/>
			</g>
		</g>
	</g>
	<g>
		
			<image overflow="visible" opacity="0.2" width="14" height="16" xlink:href="FB39FD71.png"  transform="matrix(1 0 0 1 202.1108 246.0077)">
		</image>
		<g>
			<g>
				<path fill="#AC9BFB" d="M212,256v2.5h-8.7v-2l4.2-3.9c0.4-0.4,0.7-0.7,0.8-1c0.1-0.3,0.2-0.5,0.2-0.8c0-0.4-0.1-0.6-0.4-0.8
					c-0.2-0.2-0.6-0.3-1.1-0.3c-0.4,0-0.8,0.1-1.1,0.3s-0.6,0.5-0.9,0.8l-2.4-1.3c0.4-0.7,1-1.3,1.8-1.7c0.8-0.4,1.7-0.6,2.8-0.6
					c0.9,0,1.6,0.1,2.3,0.4c0.7,0.3,1.2,0.7,1.5,1.2c0.4,0.5,0.6,1.1,0.6,1.8c0,0.6-0.1,1.2-0.4,1.7c-0.3,0.5-0.8,1.1-1.5,1.8
					l-2.1,2H212z"/>
			</g>
		</g>
	</g>
	<g>
		<path fill="#00B0C2" d="M48.4,330.7c0.5,0.6,0.7,1.3,0.7,2.1c0,0.7-0.2,1.3-0.5,1.8c-0.4,0.6-0.9,1-1.6,1.4s-1.6,0.5-2.7,0.5
			c-0.8,0-1.6-0.1-2.3-0.3c-0.8-0.2-1.4-0.5-2-0.8L41,333c0.4,0.3,0.9,0.5,1.5,0.7c0.5,0.2,1.1,0.2,1.6,0.2c0.5,0,1-0.1,1.3-0.3
			c0.3-0.2,0.5-0.5,0.5-0.9c0-0.7-0.6-1.1-1.7-1.1h-1.3v-2l2-2.2h-4.4V325h8.1v2l-2.3,2.5C47.2,329.7,47.9,330.1,48.4,330.7z"/>
	</g>
	<g>
		<path fill="#00B0C2" d="M116,330.1c0.8,0.6,1.1,1.5,1.1,2.6c0,0.7-0.2,1.3-0.5,1.9s-0.9,1-1.6,1.4s-1.6,0.5-2.7,0.5
			c-0.8,0-1.6-0.1-2.3-0.3c-0.8-0.2-1.4-0.5-2-0.8l1.1-2.4c0.4,0.3,0.9,0.5,1.5,0.7c0.5,0.2,1.1,0.2,1.6,0.2s1-0.1,1.3-0.3
			c0.3-0.2,0.5-0.5,0.5-0.9s-0.2-0.7-0.5-0.8c-0.3-0.2-0.9-0.3-1.7-0.3h-3l0.6-6.5h7.1v2.4h-4.5l-0.1,1.6h0.8
			C114.1,329.1,115.2,329.4,116,330.1z"/>
	</g>
	<g>
		<path fill="#00B0C2" d="M180.8,334.1h-1.7v2.1H176v-2.1h-5.9V332l5-7h3.3l-4.6,6.5h2.3v-1.9h3v1.9h1.7V334.1z"/>
	</g>
	<g>
		<path fill="#FF5FAC" d="M245.7,329.5c0.6,0.3,1.1,0.7,1.4,1.2c0.3,0.5,0.5,1.2,0.5,1.8c0,0.8-0.2,1.4-0.6,2s-0.9,1-1.6,1.3
			s-1.4,0.5-2.2,0.5c-1.6,0-2.9-0.5-3.8-1.4c-0.9-0.9-1.4-2.3-1.4-4.1c0-1.3,0.2-2.4,0.7-3.3c0.5-0.9,1.2-1.6,2.1-2.1
			c0.9-0.5,1.9-0.7,3.1-0.7c0.6,0,1.2,0.1,1.8,0.2c0.6,0.1,1.1,0.3,1.5,0.6l-1.2,2.3c-0.5-0.4-1.2-0.6-2.1-0.6c-0.8,0-1.5,0.2-2,0.7
			s-0.8,1.1-0.9,1.9c0.6-0.6,1.5-0.8,2.5-0.8C244.5,329.1,245.1,329.2,245.7,329.5z M244.1,333.8c0.3-0.3,0.4-0.6,0.4-1
			c0-0.4-0.1-0.8-0.4-1c-0.3-0.3-0.7-0.4-1.1-0.4c-0.5,0-0.8,0.1-1.1,0.4c-0.3,0.3-0.4,0.6-0.4,1c0,0.4,0.1,0.8,0.4,1
			c0.3,0.3,0.7,0.4,1.1,0.4C243.5,334.2,243.9,334.1,244.1,333.8z"/>
	</g>
	<path fill="#FFFFFF" d="M57.5,239l-4.2-2.6v8.1h-2.5v-8.1l-4.2,2.6v-2.6l5.4-3.6l5.4,3.6V239z"/>
	<path fill="#FFFFFF" d="M187.6,239l-4.2-2.6v8.1h-2.5v-8.1l-4.2,2.6v-2.6l5.4-3.6l5.4,3.6V239z"/>
	<g>
		<path fill="#FFFFFF" d="M227,313C227,313,227,313.1,227,313c-0.2,1.4-0.5,2.7-1.2,3.8c-0.7,1.3-1.7,2.4-2.9,3.2
			c-0.9,0.6-2,1.1-3.1,1.2c-0.8,0.1-1.5,0.1-2.3,0.1c0,0,0.1,0,0.1,0c-0.1,0-0.3,0-0.4,0c-0.3,0-0.6-0.1-0.9-0.2
			c-0.5-0.2-1-0.4-1.5-0.6c-0.4-0.2-0.8-0.5-1.1-0.8c0.5-0.3,1-0.6,1.4-0.9c-0.1-0.1-0.3-0.2-0.4-0.2c-2.1-1.2-4.2-2.4-6.3-3.6
			c0,0.2,0,0.3,0,0.5c0.1,2.5,0.1,5,0.2,7.4c0.1-0.1,0.3-0.2,0.4-0.3c0.4-0.2,0.8-0.5,1.2-0.7c1.3,1,2.7,1.7,4.3,2
			c1.4,0.3,2.8,0.3,4.2,0.1c2.3-0.3,4.4-1.7,6-3.4c0.5-0.5,0.9-1.2,1.2-1.8c0.4-0.6,0.7-1.5,0.9-2.2c0.2-0.7,0.3-1.4,0.4-2.2
			C227,314,227,313.5,227,313z"/>
		<path fill="#FFFFFF" d="M211.2,308.7c0.8-0.5,1.8-0.9,2.8-1.1c0.8-0.1,1.6-0.1,2.4-0.1c0,0-0.1,0-0.1,0c0.1,0,0.2,0,0.3,0
			c0.3,0,0.6,0.1,0.9,0.2c0.6,0.1,1.1,0.4,1.6,0.6c0.4,0.2,0.8,0.5,1.2,0.8c-0.5,0.3-1,0.6-1.4,0.9c0.1,0.1,0.3,0.2,0.4,0.2
			c2.1,1.2,4.2,2.4,6.3,3.6c0-0.2,0-0.3,0-0.5c-0.1-2.5-0.1-5-0.2-7.4c-0.1,0.1-0.3,0.2-0.4,0.3c-0.4,0.2-0.8,0.5-1.2,0.7
			c-1.4-1-2.8-1.7-4.5-2.1c-1.4-0.3-3-0.3-4.4,0c-1.3,0.3-2.5,0.8-3.6,1.5c-0.8,0.5-1.4,1.2-2.1,1.9c-1,1.1-1.7,2.5-2.1,3.9
			c-0.2,0.7-0.3,1.4-0.4,2.2c0,0.5,0,1,0,1.4c0-0.1,0-0.1,0-0.2c0.2-1.4,0.6-2.7,1.3-3.9C208.9,310.5,209.9,309.4,211.2,308.7z"/>
	</g>
	<g>
		<path fill="#FFFFFF" d="M25.4,320.8c-4.6,0-9.2,0-13.8,0c0,0,0,0-0.1,0c-0.9-0.2-1.4-0.8-1.4-1.7c0-3.9,0-4.7,0-8.6
			c0-0.3,0.1-0.5,0.2-0.8c0.3-0.7,0.9-1,1.6-1c1.6,0,3.2,0,4.7,0c0.1,0,0.3,0,0.4-0.1c1.3-0.7,2.7-1.5,4-2.2
			c0.2-0.1,0.4-0.2,0.7-0.3c0.1,0,0.2,0,0.3,0c0.4,0.1,0.7,0.4,0.9,0.8c0.3,0.6,0.6,1.1,1,1.7c0.1,0.1,0.1,0.2,0.3,0.1
			c0.3,0,0.6,0,0.9,0c1.1,0,1.8,0.7,1.8,1.8c0,1.2,0,1.3,0,2.5c0,0.1,0,0.1,0,0.2c0.3,0,0.6,0,0.8,0c0,1.5,0,2.9,0,4.3
			c-0.3,0-0.6,0-0.8,0c0,0.1,0,0.1,0,0.2c0,1.1,0,0.2,0,1.3c0,0.6-0.2,1-0.6,1.4C26,320.6,25.7,320.7,25.4,320.8z M15.6,309.4
			C15.6,309.4,15.6,309.4,15.6,309.4c-0.1,0-0.1,0-0.2,0c-1.2,0-2.3,0-3.5,0c-0.7,0-1.1,0.4-1.1,1.1c0,3.8,0,4.7,0,8.5
			c0,0.7,0.4,1.1,1.1,1.1c4.4,0,8.7,0,13.1,0c0.7,0,1.1-0.4,1.1-1.1c0-1,0-0.2,0-1.3c0-0.1,0-0.1,0-0.2c-0.8,0-1.6,0-2.4,0
			c-0.3,0-0.6-0.1-0.9-0.2c-0.6-0.3-1.3-1-1.2-2.2c0.1-1,0.9-2,1.9-2c0.8,0,1.6,0,2.4,0c0.1,0,0.1,0,0.2,0c0-1.1,0-1.1,0-2.2
			c-0.1,0-0.2,0-0.2,0c-4.6,0-9.1,0-13.7,0c-0.1,0-0.2,0-0.3,0c-0.2,0-0.2-0.2-0.2-0.3c0-0.2,0.1-0.3,0.2-0.3c0.1,0,0.1,0,0.2,0
			c0.3,0,0.6,0,0.9,0c0.7,0.1,1.2-0.1,1.8-0.5C15.1,309.7,15.4,309.5,15.6,309.4z M27,313.9c-1.1,0-2.2,0-3.4,0c-1,0-1.6,1-1.3,1.9
			c0.2,0.6,0.7,1,1.4,1c1.1,0,2.1,0,3.2,0c0,0,0.1,0,0.1,0C27,315.8,27,314.9,27,313.9z M24.4,309.4c0.2,0.3,0.3,0.6,0.5,0.8
			c0,0,0.1,0.1,0.1,0.1c0.4,0,0.8,0,1.2,0c-0.1-0.5-0.4-0.9-0.9-0.9C25,309.4,24.7,309.4,24.4,309.4z"/>
		<g>
			
				<image overflow="visible" opacity="0.15" width="9" height="10" xlink:href="FB39FD73.png"  transform="matrix(1 0 0 1 21.5963 312.4932)">
			</image>
			<g>
				<path fill="#FFFFFF" d="M24.7,315.4c0,0.4-0.3,0.8-0.7,0.8c-0.4,0-0.8-0.3-0.8-0.8c0-0.4,0.3-0.8,0.8-0.8
					C24.4,314.6,24.7,315,24.7,315.4z"/>
			</g>
		</g>
	</g>
	<g>
		<path fill="#FFFFFF" d="M93.4,320.8c-4.6,0-9.2,0-13.8,0c0,0,0,0-0.1,0c-0.9-0.2-1.4-0.8-1.4-1.7c0-3.9,0-4.7,0-8.6
			c0-0.3,0.1-0.5,0.2-0.8c0.3-0.7,0.9-1,1.6-1c1.6,0,3.2,0,4.7,0c0.1,0,0.3,0,0.4-0.1c1.3-0.7,2.7-1.5,4-2.2
			c0.2-0.1,0.4-0.2,0.7-0.3c0.1,0,0.2,0,0.3,0c0.4,0.1,0.7,0.4,0.9,0.8c0.3,0.6,0.6,1.1,1,1.7c0.1,0.1,0.1,0.2,0.3,0.1
			c0.3,0,0.6,0,0.9,0c1.1,0,1.8,0.7,1.8,1.8c0,1.2,0,1.3,0,2.5c0,0.1,0,0.1,0,0.2c0.3,0,0.6,0,0.8,0c0,1.5,0,2.9,0,4.3
			c-0.3,0-0.6,0-0.8,0c0,0.1,0,0.1,0,0.2c0,1.1,0,0.2,0,1.3c0,0.6-0.2,1-0.6,1.4C94,320.6,93.7,320.7,93.4,320.8z M83.6,309.4
			C83.6,309.4,83.6,309.4,83.6,309.4c-0.1,0-0.1,0-0.2,0c-1.2,0-2.3,0-3.5,0c-0.7,0-1.1,0.4-1.1,1.1c0,3.8,0,4.7,0,8.5
			c0,0.7,0.4,1.1,1.1,1.1c4.4,0,8.7,0,13.1,0c0.7,0,1.1-0.4,1.1-1.1c0-1,0-0.2,0-1.3c0-0.1,0-0.1,0-0.2c-0.8,0-1.6,0-2.4,0
			c-0.3,0-0.6-0.1-0.9-0.2c-0.6-0.3-1.3-1-1.2-2.2c0.1-1,0.9-2,1.9-2c0.8,0,1.6,0,2.4,0c0.1,0,0.1,0,0.2,0c0-1.1,0-1.1,0-2.2
			c-0.1,0-0.2,0-0.2,0c-4.6,0-9.1,0-13.7,0c-0.1,0-0.2,0-0.3,0c-0.2,0-0.2-0.2-0.2-0.3c0-0.2,0.1-0.3,0.2-0.3c0.1,0,0.1,0,0.2,0
			c0.3,0,0.6,0,0.9,0c0.7,0.1,1.2-0.1,1.8-0.5C83.1,309.7,83.4,309.5,83.6,309.4z M95,313.9c-1.1,0-2.2,0-3.4,0c-1,0-1.6,1-1.3,1.9
			c0.2,0.6,0.7,1,1.4,1c1.1,0,2.1,0,3.2,0c0,0,0.1,0,0.1,0C95,315.8,95,314.9,95,313.9z M92.4,309.4c0.2,0.3,0.3,0.6,0.5,0.8
			c0,0,0.1,0.1,0.1,0.1c0.4,0,0.8,0,1.2,0c-0.1-0.5-0.4-0.9-0.9-0.9C93,309.4,92.7,309.4,92.4,309.4z"/>
		<g>
			
				<image overflow="visible" opacity="0.15" width="9" height="10" xlink:href="FB39FD70.png"  transform="matrix(1 0 0 1 89.5963 312.4932)">
			</image>
			<g>
				<path fill="#FFFFFF" d="M92.7,315.4c0,0.4-0.3,0.8-0.7,0.8c-0.4,0-0.8-0.3-0.8-0.8c0-0.4,0.3-0.8,0.8-0.8
					C92.4,314.6,92.7,315,92.7,315.4z"/>
			</g>
		</g>
	</g>
	<g>
		<path fill="#FFFFFF" d="M156.2,320.8c-4.6,0-9.2,0-13.8,0c0,0,0,0-0.1,0c-0.9-0.2-1.4-0.8-1.4-1.7c0-3.9,0-4.7,0-8.6
			c0-0.3,0.1-0.5,0.2-0.8c0.3-0.7,0.9-1,1.6-1c1.6,0,3.2,0,4.7,0c0.1,0,0.3,0,0.4-0.1c1.3-0.7,2.7-1.5,4-2.2
			c0.2-0.1,0.4-0.2,0.7-0.3c0.1,0,0.2,0,0.3,0c0.4,0.1,0.7,0.4,0.9,0.8c0.3,0.6,0.6,1.1,1,1.7c0.1,0.1,0.1,0.2,0.3,0.1
			c0.3,0,0.6,0,0.9,0c1.1,0,1.8,0.7,1.8,1.8c0,1.2,0,1.3,0,2.5c0,0.1,0,0.1,0,0.2c0.3,0,0.6,0,0.8,0c0,1.5,0,2.9,0,4.3
			c-0.3,0-0.6,0-0.8,0c0,0.1,0,0.1,0,0.2c0,1.1,0,0.2,0,1.3c0,0.6-0.2,1-0.6,1.4C156.8,320.6,156.5,320.7,156.2,320.8z M146.4,309.4
			C146.4,309.4,146.4,309.4,146.4,309.4c-0.1,0-0.1,0-0.2,0c-1.2,0-2.3,0-3.5,0c-0.7,0-1.1,0.4-1.1,1.1c0,3.8,0,4.7,0,8.5
			c0,0.7,0.4,1.1,1.1,1.1c4.4,0,8.7,0,13.1,0c0.7,0,1.1-0.4,1.1-1.1c0-1,0-0.2,0-1.3c0-0.1,0-0.1,0-0.2c-0.8,0-1.6,0-2.4,0
			c-0.3,0-0.6-0.1-0.9-0.2c-0.6-0.3-1.3-1-1.2-2.2c0.1-1,0.9-2,1.9-2c0.8,0,1.6,0,2.4,0c0.1,0,0.1,0,0.2,0c0-1.1,0-1.1,0-2.2
			c-0.1,0-0.2,0-0.2,0c-4.6,0-9.1,0-13.7,0c-0.1,0-0.2,0-0.3,0c-0.2,0-0.2-0.2-0.2-0.3c0-0.2,0.1-0.3,0.2-0.3c0.1,0,0.1,0,0.2,0
			c0.3,0,0.6,0,0.9,0c0.7,0.1,1.2-0.1,1.8-0.5C145.9,309.7,146.2,309.5,146.4,309.4z M157.8,313.9c-1.1,0-2.2,0-3.4,0
			c-1,0-1.6,1-1.3,1.9c0.2,0.6,0.7,1,1.4,1c1.1,0,2.1,0,3.2,0c0,0,0.1,0,0.1,0C157.8,315.8,157.8,314.9,157.8,313.9z M155.2,309.4
			c0.2,0.3,0.3,0.6,0.5,0.8c0,0,0.1,0.1,0.1,0.1c0.4,0,0.8,0,1.2,0c-0.1-0.5-0.4-0.9-0.9-0.9C155.8,309.4,155.5,309.4,155.2,309.4z"
			/>
		<g>
			
				<image overflow="visible" opacity="0.15" width="10" height="10" xlink:href="FB39FD7E.png"  transform="matrix(1 0 0 1 151.5963 312.4932)">
			</image>
			<g>
				<path fill="#FFFFFF" d="M155.5,315.4c0,0.4-0.3,0.8-0.7,0.8c-0.4,0-0.8-0.3-0.8-0.8c0-0.4,0.3-0.8,0.8-0.8
					C155.2,314.6,155.5,315,155.5,315.4z"/>
			</g>
		</g>
	</g>
	<path fill="#AC9BFB" d="M103.6,21.2h3.4v12.1h-3.4V21.2z M109.5,21.2h5.7c1.3,0,2.5,0.2,3.5,0.7c1,0.5,1.8,1.2,2.4,2.1
		c0.6,0.9,0.8,2,0.8,3.2s-0.3,2.3-0.8,3.2c-0.6,0.9-1.4,1.6-2.4,2.1c-1,0.5-2.2,0.7-3.5,0.7h-5.7V21.2z M115.1,30.6
		c1,0,1.9-0.3,2.5-0.9c0.6-0.6,0.9-1.4,0.9-2.4c0-1-0.3-1.9-0.9-2.4c-0.6-0.6-1.5-0.9-2.5-0.9h-2.2v6.6H115.1z"/>
	<polygon fill="#AC9BFB" stroke="#AC9BFB" stroke-width="0.5048" stroke-miterlimit="10" points="135.5,27.6 131.3,25 131.3,33.1 
		128.8,33.1 128.8,25 124.7,27.6 124.7,25.1 130,21.4 135.5,25.1 	"/>
	<g>
		
			<image overflow="visible" opacity="0.23" width="27" height="26" xlink:href="FB39FD75.png"  transform="matrix(1 0 0 1 110.868 72.7649)">
		</image>
		<g>
			<g>
				<path fill="#AC9BFB" d="M121.9,81.3C121.9,81.3,122,81.3,121.9,81.3c0.2-0.1,0.3-0.2,0.4-0.4c2.1-2,4.2-4,6.3-6.1
					c0.5-0.5,1.1-0.7,1.8-0.5c0.8,0.2,1.3,0.7,1.5,1.4c0.2,0.8,0,1.4-0.5,2c-2.2,2.1-4.4,4.2-6.5,6.3c-0.1,0.1-0.1,0.1-0.2,0.1
					c0,0,0,0.1,0,0.1c0.3,0,0.6,0.1,1,0.1c1.2,0.1,2.2-0.3,3.1-1.2c1.4-1.3,2.7-2.6,4.1-4c1.7-1.6,1.7-4.4-0.1-6
					c-1.6-1.5-4.1-1.4-5.7,0.1c-1.4,1.3-2.7,2.6-4.1,3.9c-0.9,0.9-1.3,2-1.3,3.3C121.8,80.8,121.9,81.1,121.9,81.3z M122.4,86.4
					c-0.1,0.1-0.1,0.1-0.1,0.1c-1.1,1.1-2.2,2.1-3.3,3.2c-1.1,1-2.2,2.1-3.3,3.1c-0.5,0.5-1.1,0.7-1.7,0.5c-0.8-0.1-1.3-0.6-1.5-1.4
					c-0.2-0.8,0-1.5,0.5-2c0.6-0.6,1.2-1.1,1.8-1.7c1.6-1.5,3.2-3.1,4.8-4.6c0,0,0.1-0.1,0.1-0.1c-1.5-0.4-2.9-0.1-4.1,1
					c-1.4,1.3-2.8,2.7-4.1,4c-2.2,2.1-1.5,5.7,1.3,6.8c1.6,0.6,3.1,0.3,4.4-0.8c1.3-1.3,2.6-2.5,4-3.8c0.7-0.6,1.2-1.4,1.3-2.3
					C122.6,87.7,122.6,87,122.4,86.4z M125.8,79.2c-0.3,0-0.6,0.1-0.9,0.4c-0.9,0.9-1.8,1.7-2.7,2.6c-1.5,1.5-3,2.9-4.6,4.4
					c-0.3,0.2-0.4,0.5-0.4,0.9c0,0.5,0.3,0.9,0.8,1c0.5,0.2,0.9,0.1,1.3-0.3c0.5-0.5,1.1-1,1.6-1.5c1-1,2-2,3.1-3
					c0.9-0.8,1.8-1.7,2.6-2.5c0.4-0.3,0.5-0.8,0.3-1.3C126.7,79.5,126.3,79.2,125.8,79.2z"/>
				<path fill="#AC9BFB" d="M121.9,81.3c0-0.2-0.1-0.5-0.1-0.7c-0.1-1.3,0.3-2.4,1.3-3.3c1.4-1.3,2.7-2.6,4.1-3.9
					c1.6-1.6,4.1-1.6,5.7-0.1c1.7,1.6,1.8,4.3,0.1,6c-1.4,1.3-2.7,2.6-4.1,4c-0.9,0.8-1.9,1.2-3.1,1.2c-0.3,0-0.6-0.1-1-0.1
					c0,0,0-0.1,0-0.1c0.1,0,0.1-0.1,0.2-0.1c2.2-2.1,4.4-4.2,6.5-6.3c0.6-0.5,0.8-1.2,0.5-2c-0.2-0.7-0.7-1.2-1.5-1.4
					c-0.7-0.2-1.3,0-1.8,0.5c-2.1,2-4.2,4-6.3,6.1C122.2,81.1,122.1,81.2,121.9,81.3C122,81.3,121.9,81.3,121.9,81.3z"/>
				<path fill="#AC9BFB" d="M122.4,86.4c0.2,0.7,0.2,1.3,0,1.9c-0.2,0.9-0.7,1.6-1.3,2.3c-1.3,1.3-2.6,2.6-4,3.8
					c-1.3,1.2-2.8,1.5-4.4,0.8c-2.8-1.1-3.5-4.7-1.3-6.8c1.4-1.3,2.7-2.7,4.1-4c1.1-1.1,2.5-1.4,4.1-1c-0.1,0.1-0.1,0.1-0.1,0.1
					c-1.6,1.5-3.2,3.1-4.8,4.6c-0.6,0.6-1.2,1.1-1.8,1.7c-0.6,0.6-0.8,1.2-0.5,2c0.2,0.8,0.8,1.2,1.5,1.4c0.7,0.1,1.3-0.1,1.7-0.5
					c1.1-1,2.2-2.1,3.3-3.1c1.1-1.1,2.2-2.1,3.3-3.2C122.3,86.5,122.3,86.4,122.4,86.4z"/>
				<path fill="#AC9BFB" d="M125.8,79.2c0.5,0,0.9,0.3,1.1,0.7c0.2,0.5,0.1,1-0.3,1.3c-0.9,0.8-1.8,1.7-2.6,2.5c-1,1-2,2-3.1,3
					c-0.5,0.5-1.1,1-1.6,1.5c-0.4,0.3-0.8,0.4-1.3,0.3c-0.5-0.2-0.7-0.5-0.8-1c0-0.4,0.1-0.7,0.4-0.9c1.5-1.5,3-2.9,4.6-4.4
					c0.9-0.9,1.8-1.7,2.7-2.6C125.2,79.3,125.5,79.2,125.8,79.2z"/>
			</g>
		</g>
	</g>
	<g>
		<g>
			<g>
				<g opacity="0.2">
					<path d="M195.7,172.8H34.3c-3.3,0-6-2.7-6-6V126c0-3.3,2.7-6,6-6h161.4c3.3,0,6,2.7,6,6v40.9
						C201.7,170.1,199,172.8,195.7,172.8z"/>
				</g>
				<g>
					<path fill="#00B0C2" d="M194.7,171.8H33.3c-3.3,0-6-2.7-6-6V125c0-3.3,2.7-6,6-6h161.4c3.3,0,6,2.7,6,6v40.9
						C200.7,169.1,198,171.8,194.7,171.8z"/>
				</g>
			</g>
		</g>
	</g>
	<g>
		
			<image overflow="visible" opacity="0.2" width="33" height="27" xlink:href="FB39FD77.png"  transform="matrix(1 0 0 1 103.1108 132.0077)">
		</image>
		<g>
			<g>
				<path fill="#FFFFFF" d="M103.9,155.3v-21.8h4v21.8H103.9z"/>
				<path fill="#FFFFFF" d="M113.2,155.3v-21.8h7.4c3.4,0,6.1,1,8.1,2.9c2,1.9,3,4.6,3,8c0,3.4-1,6.1-3,8c-2,1.9-4.7,2.9-8.1,2.9
					H113.2z M117.1,151.9h3.3c2.3,0,4-0.6,5.3-2c1.3-1.3,1.9-3.2,1.9-5.6c0-2.4-0.6-4.2-2-5.5c-1.3-1.3-3.1-2-5.3-2h-3.3V151.9z"/>
			</g>
		</g>
	</g>
</g>
</svg>
