<?xml version="1.0" encoding="utf-8"?>
<!-- Generator: Adobe Illustrator 18.0.0, SVG Export Plug-In . SVG Version: 6.00 Build 0)  -->
<!DOCTYPE svg PUBLIC "-//W3C//DTD SVG 1.1//EN" "http://www.w3.org/Graphics/SVG/1.1/DTD/svg11.dtd">
<svg version="1.1" id="Layer_1" xmlns="http://www.w3.org/2000/svg" xmlns:xlink="http://www.w3.org/1999/xlink" x="0px" y="0px"
	 width="341.3px" height="119.6px" viewBox="0 0 341.3 119.6" enable-background="new 0 0 341.3 119.6" xml:space="preserve">
<g>
	<g opacity="0.5">
		<path fill="#FFFFFF" d="M72.4,86.9c-0.3,0-0.5-0.2-0.5-0.5v-1c0-0.3,0.2-0.5,0.5-0.5s0.5,0.2,0.5,0.5v1
			C72.9,86.6,72.7,86.9,72.4,86.9z M72.4,82.9c-0.3,0-0.5-0.2-0.5-0.5v-1c0-0.3,0.2-0.5,0.5-0.5s0.5,0.2,0.5,0.5v1
			C72.9,82.6,72.7,82.9,72.4,82.9z M72.4,78.9c-0.3,0-0.5-0.2-0.5-0.5v-1c0-0.3,0.2-0.5,0.5-0.5s0.5,0.2,0.5,0.5v1
			C72.9,78.6,72.7,78.9,72.4,78.9z M72.4,74.9c-0.3,0-0.5-0.2-0.5-0.5v-1c0-0.3,0.2-0.5,0.5-0.5s0.5,0.2,0.5,0.5v1
			C72.9,74.6,72.7,74.9,72.4,74.9z M72.4,70.9c-0.3,0-0.5-0.2-0.5-0.5v-1c0-0.3,0.2-0.5,0.5-0.5s0.5,0.2,0.5,0.5v1
			C72.9,70.6,72.7,70.9,72.4,70.9z M72.4,66.9c-0.3,0-0.5-0.2-0.5-0.5v-1c0-0.3,0.2-0.5,0.5-0.5s0.5,0.2,0.5,0.5v1
			C72.9,66.6,72.7,66.9,72.4,66.9z M72.4,62.9c-0.3,0-0.5-0.2-0.5-0.5v-1c0-0.3,0.2-0.5,0.5-0.5s0.5,0.2,0.5,0.5v1
			C72.9,62.6,72.7,62.9,72.4,62.9z M72.4,58.9c-0.3,0-0.5-0.2-0.5-0.5v-1c0-0.3,0.2-0.5,0.5-0.5s0.5,0.2,0.5,0.5v1
			C72.9,58.6,72.7,58.9,72.4,58.9z M72.4,54.9c-0.3,0-0.5-0.2-0.5-0.5v-1c0-0.3,0.2-0.5,0.5-0.5s0.5,0.2,0.5,0.5v1
			C72.9,54.6,72.7,54.9,72.4,54.9z M72.4,50.9c-0.3,0-0.5-0.2-0.5-0.5v-1c0-0.3,0.2-0.5,0.5-0.5s0.5,0.2,0.5,0.5v1
			C72.9,50.6,72.7,50.9,72.4,50.9z M72.4,46.9c-0.3,0-0.5-0.2-0.5-0.5v-1c0-0.3,0.2-0.5,0.5-0.5s0.5,0.2,0.5,0.5v1
			C72.9,46.6,72.7,46.9,72.4,46.9z"/>
	</g>
	<g opacity="0.5">
		<path fill="#FFFFFF" d="M28.7,93.5c-0.1,0-0.3-0.1-0.4-0.2c-0.2-0.2-0.1-0.5,0.1-0.7l0.8-0.6c0.2-0.2,0.5-0.1,0.7,0.1
			s0.1,0.5-0.1,0.7L29,93.4C28.9,93.5,28.8,93.5,28.7,93.5z M31.8,91c-0.1,0-0.3-0.1-0.4-0.2c-0.2-0.2-0.1-0.5,0.1-0.7l0.8-0.6
			c0.2-0.2,0.5-0.1,0.7,0.1c0.2,0.2,0.1,0.5-0.1,0.7l-0.8,0.6C32,90.9,31.9,91,31.8,91z M34.9,88.5c-0.1,0-0.3-0.1-0.4-0.2
			c-0.2-0.2-0.1-0.5,0.1-0.7l0.8-0.6c0.2-0.2,0.5-0.1,0.7,0.1c0.2,0.2,0.1,0.5-0.1,0.7l-0.8,0.6C35.1,88.4,35,88.5,34.9,88.5z
			 M38,85.9c-0.1,0-0.3-0.1-0.4-0.2c-0.2-0.2-0.1-0.5,0.1-0.7l0.8-0.6c0.2-0.2,0.5-0.1,0.7,0.1c0.2,0.2,0.1,0.5-0.1,0.7l-0.8,0.6
			C38.2,85.9,38.1,85.9,38,85.9z M41.1,83.4c-0.1,0-0.3-0.1-0.4-0.2c-0.2-0.2-0.1-0.5,0.1-0.7l0.8-0.6c0.2-0.2,0.5-0.1,0.7,0.1
			c0.2,0.2,0.1,0.5-0.1,0.7l-0.8,0.6C41.3,83.3,41.2,83.4,41.1,83.4z M44.2,80.9c-0.1,0-0.3-0.1-0.4-0.2c-0.2-0.2-0.1-0.5,0.1-0.7
			l0.8-0.6c0.2-0.2,0.5-0.1,0.7,0.1c0.2,0.2,0.1,0.5-0.1,0.7l-0.8,0.6C44.4,80.8,44.3,80.9,44.2,80.9z M47.3,78.3
			c-0.1,0-0.3-0.1-0.4-0.2c-0.2-0.2-0.1-0.5,0.1-0.7l0.8-0.6c0.2-0.2,0.5-0.1,0.7,0.1c0.2,0.2,0.1,0.5-0.1,0.7l-0.8,0.6
			C47.5,78.3,47.4,78.3,47.3,78.3z M50.4,75.8c-0.1,0-0.3-0.1-0.4-0.2c-0.2-0.2-0.1-0.5,0.1-0.7l0.8-0.6c0.2-0.2,0.5-0.1,0.7,0.1
			s0.1,0.5-0.1,0.7l-0.8,0.6C50.6,75.7,50.5,75.8,50.4,75.8z M53.5,73.3c-0.1,0-0.3-0.1-0.4-0.2c-0.2-0.2-0.1-0.5,0.1-0.7l0.8-0.6
			c0.2-0.2,0.5-0.1,0.7,0.1c0.2,0.2,0.1,0.5-0.1,0.7l-0.8,0.6C53.7,73.2,53.6,73.3,53.5,73.3z M56.6,70.7c-0.1,0-0.3-0.1-0.4-0.2
			C56,70.3,56,70,56.3,69.8l0.8-0.6c0.2-0.2,0.5-0.1,0.7,0.1c0.2,0.2,0.1,0.5-0.1,0.7l-0.8,0.6C56.8,70.7,56.7,70.7,56.6,70.7z
			 M59.7,68.2c-0.1,0-0.3-0.1-0.4-0.2c-0.2-0.2-0.1-0.5,0.1-0.7l0.8-0.6c0.2-0.2,0.5-0.1,0.7,0.1c0.2,0.2,0.1,0.5-0.1,0.7L60,68.1
			C59.9,68.1,59.8,68.2,59.7,68.2z M62.8,65.7c-0.1,0-0.3-0.1-0.4-0.2c-0.2-0.2-0.1-0.5,0.1-0.7l0.8-0.6c0.2-0.2,0.5-0.1,0.7,0.1
			c0.2,0.2,0.1,0.5-0.1,0.7l-0.8,0.6C63,65.6,62.9,65.7,62.8,65.7z M65.9,63.1c-0.1,0-0.3-0.1-0.4-0.2c-0.2-0.2-0.1-0.5,0.1-0.7
			l0.8-0.6c0.2-0.2,0.5-0.1,0.7,0.1c0.2,0.2,0.1,0.5-0.1,0.7L66.2,63C66.1,63.1,66,63.1,65.9,63.1z M69,60.6c-0.1,0-0.3-0.1-0.4-0.2
			c-0.2-0.2-0.1-0.5,0.1-0.7l0.8-0.6c0.2-0.2,0.5-0.1,0.7,0.1c0.2,0.2,0.1,0.5-0.1,0.7l-0.8,0.6C69.2,60.5,69.1,60.6,69,60.6z"/>
	</g>
	<g opacity="0.5">
		<path fill="#FFFFFF" d="M116.2,93c-0.1,0-0.2,0-0.3-0.1l-0.8-0.6c-0.2-0.2-0.3-0.5-0.1-0.7c0.2-0.2,0.5-0.2,0.7-0.1l0.8,0.6
			c0.2,0.2,0.3,0.5,0.1,0.7C116.5,92.9,116.4,93,116.2,93z M113.1,90.5c-0.1,0-0.2,0-0.3-0.1l-0.8-0.6c-0.2-0.2-0.3-0.5-0.1-0.7
			c0.2-0.2,0.5-0.2,0.7-0.1l0.8,0.6c0.2,0.2,0.3,0.5,0.1,0.7C113.4,90.4,113.3,90.5,113.1,90.5z M110,88c-0.1,0-0.2,0-0.3-0.1
			l-0.8-0.6c-0.2-0.2-0.3-0.5-0.1-0.7c0.2-0.2,0.5-0.2,0.7-0.1l0.8,0.6c0.2,0.2,0.3,0.5,0.1,0.7C110.3,87.9,110.1,88,110,88z
			 M106.9,85.5c-0.1,0-0.2,0-0.3-0.1l-0.8-0.6c-0.2-0.2-0.3-0.5-0.1-0.7c0.2-0.2,0.5-0.2,0.7-0.1l0.8,0.6c0.2,0.2,0.3,0.5,0.1,0.7
			C107.2,85.4,107,85.5,106.9,85.5z M103.8,83c-0.1,0-0.2,0-0.3-0.1l-0.8-0.6c-0.2-0.2-0.3-0.5-0.1-0.7c0.2-0.2,0.5-0.2,0.7-0.1
			l0.8,0.6c0.2,0.2,0.3,0.5,0.1,0.7C104,82.9,103.9,83,103.8,83z M100.6,80.5c-0.1,0-0.2,0-0.3-0.1l-0.8-0.6
			c-0.2-0.2-0.3-0.5-0.1-0.7c0.2-0.2,0.5-0.2,0.7-0.1l0.8,0.6c0.2,0.2,0.3,0.5,0.1,0.7C100.9,80.4,100.8,80.5,100.6,80.5z M97.5,78
			c-0.1,0-0.2,0-0.3-0.1l-0.8-0.6c-0.2-0.2-0.3-0.5-0.1-0.7c0.2-0.2,0.5-0.2,0.7-0.1l0.8,0.6c0.2,0.2,0.3,0.5,0.1,0.7
			C97.8,77.9,97.7,78,97.5,78z M94.4,75.5c-0.1,0-0.2,0-0.3-0.1l-0.8-0.6c-0.2-0.2-0.3-0.5-0.1-0.7c0.2-0.2,0.5-0.2,0.7-0.1l0.8,0.6
			c0.2,0.2,0.3,0.5,0.1,0.7C94.7,75.4,94.5,75.5,94.4,75.5z M91.3,73c-0.1,0-0.2,0-0.3-0.1l-0.8-0.6c-0.2-0.2-0.3-0.5-0.1-0.7
			c0.2-0.2,0.5-0.2,0.7-0.1l0.8,0.6c0.2,0.2,0.3,0.5,0.1,0.7C91.6,72.9,91.4,73,91.3,73z M88.1,70.5c-0.1,0-0.2,0-0.3-0.1l-0.8-0.6
			c-0.2-0.2-0.3-0.5-0.1-0.7c0.2-0.2,0.5-0.2,0.7-0.1l0.8,0.6c0.2,0.2,0.3,0.5,0.1,0.7C88.4,70.4,88.3,70.5,88.1,70.5z M85,68
			c-0.1,0-0.2,0-0.3-0.1l-0.8-0.6c-0.2-0.2-0.3-0.5-0.1-0.7c0.2-0.2,0.5-0.2,0.7-0.1l0.8,0.6c0.2,0.2,0.3,0.5,0.1,0.7
			C85.3,67.9,85.2,68,85,68z M81.9,65.5c-0.1,0-0.2,0-0.3-0.1l-0.8-0.6c-0.2-0.2-0.3-0.5-0.1-0.7c0.2-0.2,0.5-0.2,0.7-0.1l0.8,0.6
			c0.2,0.2,0.3,0.5,0.1,0.7C82.2,65.4,82,65.5,81.9,65.5z M78.8,63c-0.1,0-0.2,0-0.3-0.1l-0.8-0.6c-0.2-0.2-0.3-0.5-0.1-0.7
			c0.2-0.2,0.5-0.2,0.7-0.1l0.8,0.6c0.2,0.2,0.3,0.5,0.1,0.7C79.1,62.9,78.9,63,78.8,63z M75.7,60.5c-0.1,0-0.2,0-0.3-0.1l-0.8-0.6
			c-0.2-0.2-0.3-0.5-0.1-0.7c0.2-0.2,0.5-0.2,0.7-0.1l0.8,0.6c0.2,0.2,0.3,0.5,0.1,0.7C76,60.4,75.8,60.5,75.7,60.5z"/>
	</g>
	<g opacity="0.5">
		<path fill="#FFFFFF" d="M255.2,86.9c-0.3,0-0.5-0.2-0.5-0.5v-1c0-0.3,0.2-0.5,0.5-0.5s0.5,0.2,0.5,0.5v1
			C255.7,86.6,255.5,86.9,255.2,86.9z M255.2,82.9c-0.3,0-0.5-0.2-0.5-0.5v-1c0-0.3,0.2-0.5,0.5-0.5s0.5,0.2,0.5,0.5v1
			C255.7,82.6,255.5,82.9,255.2,82.9z M255.2,78.9c-0.3,0-0.5-0.2-0.5-0.5v-1c0-0.3,0.2-0.5,0.5-0.5s0.5,0.2,0.5,0.5v1
			C255.7,78.6,255.5,78.9,255.2,78.9z M255.2,74.9c-0.3,0-0.5-0.2-0.5-0.5v-1c0-0.3,0.2-0.5,0.5-0.5s0.5,0.2,0.5,0.5v1
			C255.7,74.6,255.5,74.9,255.2,74.9z M255.2,70.9c-0.3,0-0.5-0.2-0.5-0.5v-1c0-0.3,0.2-0.5,0.5-0.5s0.5,0.2,0.5,0.5v1
			C255.7,70.6,255.5,70.9,255.2,70.9z M255.2,66.9c-0.3,0-0.5-0.2-0.5-0.5v-1c0-0.3,0.2-0.5,0.5-0.5s0.5,0.2,0.5,0.5v1
			C255.7,66.6,255.5,66.9,255.2,66.9z M255.2,62.9c-0.3,0-0.5-0.2-0.5-0.5v-1c0-0.3,0.2-0.5,0.5-0.5s0.5,0.2,0.5,0.5v1
			C255.7,62.6,255.5,62.9,255.2,62.9z M255.2,58.9c-0.3,0-0.5-0.2-0.5-0.5v-1c0-0.3,0.2-0.5,0.5-0.5s0.5,0.2,0.5,0.5v1
			C255.7,58.6,255.5,58.9,255.2,58.9z M255.2,54.9c-0.3,0-0.5-0.2-0.5-0.5v-1c0-0.3,0.2-0.5,0.5-0.5s0.5,0.2,0.5,0.5v1
			C255.7,54.6,255.5,54.9,255.2,54.9z M255.2,50.9c-0.3,0-0.5-0.2-0.5-0.5v-1c0-0.3,0.2-0.5,0.5-0.5s0.5,0.2,0.5,0.5v1
			C255.7,50.6,255.5,50.9,255.2,50.9z M255.2,46.9c-0.3,0-0.5-0.2-0.5-0.5v-1c0-0.3,0.2-0.5,0.5-0.5s0.5,0.2,0.5,0.5v1
			C255.7,46.6,255.5,46.9,255.2,46.9z"/>
	</g>
	<g opacity="0.5">
		<path fill="#FFFFFF" d="M211.5,93.5c-0.1,0-0.3-0.1-0.4-0.2c-0.2-0.2-0.1-0.5,0.1-0.7l0.8-0.6c0.2-0.2,0.5-0.1,0.7,0.1
			c0.2,0.2,0.1,0.5-0.1,0.7l-0.8,0.6C211.7,93.5,211.6,93.5,211.5,93.5z M214.6,91c-0.1,0-0.3-0.1-0.4-0.2c-0.2-0.2-0.1-0.5,0.1-0.7
			l0.8-0.6c0.2-0.2,0.5-0.1,0.7,0.1c0.2,0.2,0.1,0.5-0.1,0.7l-0.8,0.6C214.8,91,214.7,91,214.6,91z M217.7,88.5
			c-0.1,0-0.3-0.1-0.4-0.2c-0.2-0.2-0.1-0.5,0.1-0.7l0.8-0.6c0.2-0.2,0.5-0.1,0.7,0.1c0.2,0.2,0.1,0.5-0.1,0.7l-0.8,0.6
			C217.9,88.4,217.8,88.5,217.7,88.5z M220.8,85.9c-0.1,0-0.3-0.1-0.4-0.2c-0.2-0.2-0.1-0.5,0.1-0.7l0.8-0.6
			c0.2-0.2,0.5-0.1,0.7,0.1c0.2,0.2,0.1,0.5-0.1,0.7l-0.8,0.6C221,85.9,220.9,85.9,220.8,85.9z M223.9,83.4c-0.1,0-0.3-0.1-0.4-0.2
			c-0.2-0.2-0.1-0.5,0.1-0.7l0.8-0.6c0.2-0.2,0.5-0.1,0.7,0.1c0.2,0.2,0.1,0.5-0.1,0.7l-0.8,0.6C224.1,83.4,224,83.4,223.9,83.4z
			 M227,80.9c-0.1,0-0.3-0.1-0.4-0.2c-0.2-0.2-0.1-0.5,0.1-0.7l0.8-0.6c0.2-0.2,0.5-0.1,0.7,0.1c0.2,0.2,0.1,0.5-0.1,0.7l-0.8,0.6
			C227.2,80.8,227.1,80.9,227,80.9z M230.1,78.3c-0.1,0-0.3-0.1-0.4-0.2c-0.2-0.2-0.1-0.5,0.1-0.7l0.8-0.6c0.2-0.2,0.5-0.1,0.7,0.1
			c0.2,0.2,0.1,0.5-0.1,0.7l-0.8,0.6C230.3,78.3,230.2,78.3,230.1,78.3z M233.2,75.8c-0.1,0-0.3-0.1-0.4-0.2
			c-0.2-0.2-0.1-0.5,0.1-0.7l0.8-0.6c0.2-0.2,0.5-0.1,0.7,0.1c0.2,0.2,0.1,0.5-0.1,0.7l-0.8,0.6C233.4,75.8,233.3,75.8,233.2,75.8z
			 M236.3,73.3c-0.1,0-0.3-0.1-0.4-0.2c-0.2-0.2-0.1-0.5,0.1-0.7l0.8-0.6c0.2-0.2,0.5-0.1,0.7,0.1c0.2,0.2,0.1,0.5-0.1,0.7l-0.8,0.6
			C236.5,73.2,236.4,73.3,236.3,73.3z M239.4,70.8c-0.1,0-0.3-0.1-0.4-0.2c-0.2-0.2-0.1-0.5,0.1-0.7l0.8-0.6
			c0.2-0.2,0.5-0.1,0.7,0.1c0.2,0.2,0.1,0.5-0.1,0.7l-0.8,0.6C239.6,70.7,239.5,70.8,239.4,70.8z M242.5,68.2
			c-0.1,0-0.3-0.1-0.4-0.2c-0.2-0.2-0.1-0.5,0.1-0.7l0.8-0.6c0.2-0.2,0.5-0.1,0.7,0.1c0.2,0.2,0.1,0.5-0.1,0.7l-0.8,0.6
			C242.7,68.2,242.6,68.2,242.5,68.2z M245.6,65.7c-0.1,0-0.3-0.1-0.4-0.2c-0.2-0.2-0.1-0.5,0.1-0.7l0.8-0.6
			c0.2-0.2,0.5-0.1,0.7,0.1s0.1,0.5-0.1,0.7l-0.8,0.6C245.8,65.7,245.7,65.7,245.6,65.7z M248.7,63.2c-0.1,0-0.3-0.1-0.4-0.2
			c-0.2-0.2-0.1-0.5,0.1-0.7l0.8-0.6c0.2-0.2,0.5-0.1,0.7,0.1c0.2,0.2,0.1,0.5-0.1,0.7l-0.8,0.6C248.9,63.1,248.8,63.2,248.7,63.2z
			 M251.8,60.6c-0.1,0-0.3-0.1-0.4-0.2c-0.2-0.2-0.1-0.5,0.1-0.7l0.8-0.6c0.2-0.2,0.5-0.1,0.7,0.1c0.2,0.2,0.1,0.5-0.1,0.7l-0.8,0.6
			C252,60.6,251.9,60.6,251.8,60.6z"/>
	</g>
	<g opacity="0.5">
		<path fill="#FFFFFF" d="M299,93c-0.1,0-0.2,0-0.3-0.1l-0.8-0.6c-0.2-0.2-0.3-0.5-0.1-0.7c0.2-0.2,0.5-0.2,0.7-0.1l0.8,0.6
			c0.2,0.2,0.3,0.5,0.1,0.7C299.3,92.9,299.2,93,299,93z M295.9,90.5c-0.1,0-0.2,0-0.3-0.1l-0.8-0.6c-0.2-0.2-0.3-0.5-0.1-0.7
			c0.2-0.2,0.5-0.2,0.7-0.1l0.8,0.6c0.2,0.2,0.3,0.5,0.1,0.7C296.2,90.4,296,90.5,295.9,90.5z M292.8,88c-0.1,0-0.2,0-0.3-0.1
			l-0.8-0.6c-0.2-0.2-0.3-0.5-0.1-0.7c0.2-0.2,0.5-0.2,0.7-0.1l0.8,0.6c0.2,0.2,0.3,0.5,0.1,0.7C293.1,87.9,292.9,88,292.8,88z
			 M289.7,85.5c-0.1,0-0.2,0-0.3-0.1l-0.8-0.6c-0.2-0.2-0.3-0.5-0.1-0.7c0.2-0.2,0.5-0.2,0.7-0.1l0.8,0.6c0.2,0.2,0.3,0.5,0.1,0.7
			C289.9,85.4,289.8,85.5,289.7,85.5z M286.5,83c-0.1,0-0.2,0-0.3-0.1l-0.8-0.6c-0.2-0.2-0.3-0.5-0.1-0.7c0.2-0.2,0.5-0.2,0.7-0.1
			l0.8,0.6c0.2,0.2,0.3,0.5,0.1,0.7C286.8,82.9,286.7,83,286.5,83z M283.4,80.5c-0.1,0-0.2,0-0.3-0.1l-0.8-0.6
			c-0.2-0.2-0.3-0.5-0.1-0.7c0.2-0.2,0.5-0.2,0.7-0.1l0.8,0.6c0.2,0.2,0.3,0.5,0.1,0.7C283.7,80.4,283.6,80.5,283.4,80.5z M280.3,78
			c-0.1,0-0.2,0-0.3-0.1l-0.8-0.6c-0.2-0.2-0.3-0.5-0.1-0.7c0.2-0.2,0.5-0.2,0.7-0.1l0.8,0.6c0.2,0.2,0.3,0.5,0.1,0.7
			C280.6,77.9,280.4,78,280.3,78z M277.2,75.5c-0.1,0-0.2,0-0.3-0.1l-0.8-0.6c-0.2-0.2-0.3-0.5-0.1-0.7c0.2-0.2,0.5-0.2,0.7-0.1
			l0.8,0.6c0.2,0.2,0.3,0.5,0.1,0.7C277.5,75.4,277.3,75.5,277.2,75.5z M274,73c-0.1,0-0.2,0-0.3-0.1l-0.8-0.6
			c-0.2-0.2-0.3-0.5-0.1-0.7c0.2-0.2,0.5-0.2,0.7-0.1l0.8,0.6c0.2,0.2,0.3,0.5,0.1,0.7C274.3,72.9,274.2,73,274,73z M270.9,70.5
			c-0.1,0-0.2,0-0.3-0.1l-0.8-0.6c-0.2-0.2-0.3-0.5-0.1-0.7c0.2-0.2,0.5-0.2,0.7-0.1l0.8,0.6c0.2,0.2,0.3,0.5,0.1,0.7
			C271.2,70.4,271.1,70.5,270.9,70.5z M267.8,68c-0.1,0-0.2,0-0.3-0.1l-0.8-0.6c-0.2-0.2-0.3-0.5-0.1-0.7c0.2-0.2,0.5-0.2,0.7-0.1
			l0.8,0.6c0.2,0.2,0.3,0.5,0.1,0.7C268.1,67.9,268,68,267.8,68z M264.7,65.5c-0.1,0-0.2,0-0.3-0.1l-0.8-0.6
			c-0.2-0.2-0.3-0.5-0.1-0.7c0.2-0.2,0.5-0.2,0.7-0.1l0.8,0.6c0.2,0.2,0.3,0.5,0.1,0.7C265,65.4,264.8,65.5,264.7,65.5z M261.6,63
			c-0.1,0-0.2,0-0.3-0.1l-0.8-0.6c-0.2-0.2-0.3-0.5-0.1-0.7c0.2-0.2,0.5-0.2,0.7-0.1l0.8,0.6c0.2,0.2,0.3,0.5,0.1,0.7
			C261.9,62.9,261.7,63,261.6,63z M258.4,60.5c-0.1,0-0.2,0-0.3-0.1l-0.8-0.6c-0.2-0.2-0.3-0.5-0.1-0.7c0.2-0.2,0.5-0.2,0.7-0.1
			l0.8,0.6c0.2,0.2,0.3,0.5,0.1,0.7C258.7,60.4,258.6,60.5,258.4,60.5z"/>
	</g>
	<g>
		<g>
			<circle fill="#00B0C2" cx="15.7" cy="104.8" r="14.3"/>
		</g>
	</g>
	<g>
		<g>
			<circle fill="#00B0C2" cx="72.4" cy="104.8" r="14.3"/>
		</g>
	</g>
	<g>
		<g>
			<circle fill="#00B0C2" cx="129.1" cy="104.8" r="14.3"/>
		</g>
	</g>
	<g opacity="0.2">
		<g>
			<path d="M129.2,71.4H14.8c-3.5,0-6.4-2.9-6.4-6.4V19.9c0-3.5,2.9-6.4,6.4-6.4h114.4c3.5,0,6.4,2.9,6.4,6.4v45.2
				C135.6,68.6,132.7,71.4,129.2,71.4z"/>
		</g>
	</g>
	<g opacity="0.2">
		<g>
			<path d="M315.7,71.4H196.4c-2.1,0-4-1.8-4-4v-50c0-2.1,1.8-4,4-4h119.3c2.1,0,4,1.8,4,4v50.2C319.7,69.7,317.9,71.4,315.7,71.4z"
				/>
		</g>
	</g>
	<g>
		<g>
			<path fill="#00B0C2" d="M128,69.7H13.7c-3.5,0-6.4-2.9-6.4-6.4V18.2c0-3.5,2.9-6.4,6.4-6.4H128c3.5,0,6.4,2.9,6.4,6.4v45.2
				C134.5,66.9,131.6,69.7,128,69.7z"/>
		</g>
	</g>
	<g>
		<g>
			<g>
				<path fill="#FFFFFF" d="M64.9,46.7c0-0.6,0.1-1.3,0.3-1.8s0.5-1.1,0.9-1.5c0.3-0.4,0.6-0.8,1-1c0.2-0.2,0.5-0.4,0.9-0.6
					c-1.4-1.1-2-2.4-2-3.8s0.5-2.8,1.6-3.8s2.6-1.6,4.6-1.6c1.8,0,3.3,0.5,4.5,1.5s1.8,2.3,1.8,4c0,1.7-0.8,3.2-2.1,4.8
					c1.7,1.1,2.5,2.5,2.5,4.1s-0.6,2.9-1.9,4.1c-1.3,1.2-2.9,1.7-5,1.7c-2,0-3.8-0.5-5-1.7C65.5,49.8,64.9,48.3,64.9,46.7z
					 M68.6,46.4c0,0.9,0.3,1.6,1,2.3c0.6,0.6,1.4,0.9,2.4,0.9c1,0,1.7-0.2,2.4-0.8c0.6-0.5,1-1.2,1-2c0-0.3-0.1-0.6-0.2-1
					c-0.1-0.3-0.4-0.5-0.9-0.9c-0.4-0.2-0.8-0.4-1-0.6c-0.2-0.2-0.8-0.3-1.4-0.6s-1.1-0.4-1.4-0.6C69.1,44.2,68.6,45.2,68.6,46.4z
					 M73.6,41.5c0.9-1.1,1.4-2.1,1.4-3.2c0-0.8-0.3-1.4-0.9-1.8c-0.5-0.4-1.3-0.6-2.1-0.6c-0.9,0-1.5,0.2-1.9,0.6
					c-0.4,0.4-0.8,1-0.8,1.6c0,0.2,0,0.4,0.1,0.5c0,0.2,0.1,0.3,0.2,0.5s0.2,0.3,0.3,0.4c0.1,0.1,0.2,0.2,0.4,0.4
					c0.2,0.1,0.4,0.2,0.5,0.3c0.1,0.1,0.3,0.2,0.6,0.3c0.3,0.1,0.5,0.2,0.6,0.3c0.1,0,0.3,0.1,0.8,0.3
					C73.3,41.3,73.5,41.4,73.6,41.5z"/>
			</g>
		</g>
	</g>
	<g>
		<g>
			<g>
				<g>
					<g>
						<path fill="#277FAE" d="M198.5,119.6c-8.2,0-14.8-6.6-14.8-14.8S190.3,90,198.5,90s14.8,6.6,14.8,14.8
							S206.6,119.6,198.5,119.6z M198.5,91c-7.6,0-13.8,6.2-13.8,13.8s6.2,13.8,13.8,13.8s13.8-6.2,13.8-13.8S206.1,91,198.5,91z"/>
					</g>
				</g>
				<g>
					<g>
						<path fill="#277FAE" d="M255.2,119.6c-8.2,0-14.8-6.6-14.8-14.8S247,90,255.2,90s14.8,6.6,14.8,14.8S263.4,119.6,255.2,119.6z
							 M255.2,91c-7.6,0-13.8,6.2-13.8,13.8s6.2,13.8,13.8,13.8s13.8-6.2,13.8-13.8S262.8,91,255.2,91z"/>
					</g>
				</g>
				<g>
					<g>
						<path fill="#277FAE" d="M311.9,119.6c-8.2,0-14.8-6.6-14.8-14.8S303.8,90,311.9,90s14.8,6.6,14.8,14.8
							S320.1,119.6,311.9,119.6z M311.9,91c-7.6,0-13.8,6.2-13.8,13.8s6.2,13.8,13.8,13.8s13.8-6.2,13.8-13.8S319.5,91,311.9,91z"/>
					</g>
				</g>
			</g>
		</g>
	</g>
	<g>
		<g>
			<path fill="#277FAE" d="M314.6,69.7H195.3c-2.1,0-4-1.8-4-4v-50c0-2.1,1.8-4,4-4h119.3c2.1,0,4,1.8,4,4v50.2
				C318.6,68,316.7,69.7,314.6,69.7z"/>
		</g>
	</g>
	<g>
		<g>
			<g>
				<path fill="#FFFFFF" d="M249.1,51.8l1.2-3.4c1,0.4,2,0.8,3.1,0.8c1.6,0,2.9-0.5,3.9-1.7c1-1.1,1.6-2.5,1.9-4.2h-0.1
					c-0.3,0.4-1,0.9-1.7,1.1c-0.8,0.3-1.6,0.4-2.4,0.4c-2,0-3.8-0.8-5-2.1c-1.3-1.4-1.9-3.1-1.9-5.2s0.6-3.8,2-5.2s3-2.1,5.2-2.1
					c2.4,0,4.4,1,6,2.8c1.6,1.8,2.5,4.4,2.5,7.5c0,1.2-0.1,2.4-0.4,3.4s-0.6,2.3-1.2,3.3c-0.5,1.1-1.2,1.9-1.9,2.8s-1.7,1.4-2.8,1.9
					c-1.1,0.4-2.4,0.8-3.7,0.8C251.8,52.7,250.3,52.4,249.1,51.8z M255.8,41.6c1,0,1.8-0.2,2.6-0.6c0.8-0.4,1.1-1,1.1-1.7
					c0-1.4-0.4-2.6-1.3-3.7s-1.8-1.6-3-1.6c-1,0-1.8,0.3-2.4,1.1c-0.6,0.6-0.9,1.6-0.9,2.6c0,1.2,0.3,2.1,1.1,2.9
					C253.6,41.1,254.6,41.6,255.8,41.6z"/>
			</g>
		</g>
	</g>
	<path opacity="0.2" d="M307.8,43.5c-2.4-0.4-4.6,0.9-5,3.1c-0.4,2.1,1.3,4.2,3.7,4.6c2.4,0.4,4.6-0.9,5-3.1
		C311.8,45.8,310.1,43.8,307.8,43.5z M309.2,47.7c-0.1,1-1.2,1.7-2.5,1.6c-1.2-0.1-2-1.2-1.8-2.2c0.3-1,1.3-1.7,2.5-1.6
		C308.6,45.6,309.4,46.6,309.2,47.7z M338.5,1.2c-0.8-0.1-1.4,0-2,0.3l-4.2-0.7c-0.1,0-0.1,0-0.1,0c-0.7,0-1.3,0.3-1.7,0.8L326,9.9
		L277,1.8c-0.8,0-1.4,0.3-1.7,0.8c-0.1,0-0.1,0-0.1,0.1v0.1v0.1v0.1v0.1l1.8,18.4c0.1,0.3,0.1,0.5,0.3,0.7c0.3,0.5,0.7,0.9,1.3,1
		l36.6,6.1l-5.9,10.6l-32.7-5.5c-0.8-0.1-1.6,0.5-1.7,1.3s0.4,1.6,1.2,1.7l2,0.4c-2,0.1-3.6,1.4-3.8,3.2c-0.4,2.1,1.3,4.2,3.7,4.6
		c2.4,0.4,4.6-0.9,5-3.1c0.3-1.7-0.8-3.4-2.5-4.2l30,5c0.8,0.1,1.6-0.5,1.7-1.3c0-0.1,0-0.1,0-0.1l21.1-37.8l2.2,0.4
		c0.3,1,1.3,1.8,2.5,2.1c1.7,0.3,3.1-0.7,3.4-2.1C341.5,3.1,340.5,1.6,338.5,1.2z M280.7,42.3c-0.3,1-1.3,1.7-2.5,1.6
		c-1.2-0.1-2-1.2-1.8-2.2c0.3-1,1.3-1.8,2.5-1.6C280.1,40.2,280.8,41.3,280.7,42.3z M309.6,10.1l6.4,1.2l-1.4,2.7l-6.1-1L309.6,10.1
		z M298.9,8.3l7.3,1.2l-1.2,2.9l-6.9-1.2L298.9,8.3z M283.5,21l-2.9-0.4l-0.3-3.3l3.4,0.5L283.5,21z M284,14.8l-3.9-0.7l-0.3-3
		l4.4,0.8L284,14.8z M284.4,9l-4.7-0.8c-0.1,0-0.1,0-0.3,0L279.1,5l5.5,0.9L284.4,9z M292,22.4l-5.1-0.8l0.3-3.1l5.6,0.9L292,22.4z
		 M293.4,16.4l-6.1-1l0.1-2.7l6.7,1L293.4,16.4z M287.6,9.5l0.3-3l7.6,1.3l-0.8,2.9L287.6,9.5z M300.1,23.9l-4.8-0.9l0.8-3l5.4,0.9
		L300.1,23.9z M296.7,16.9l0.7-2.9l6.4,1l-1.2,2.7L296.7,16.9z M308.6,25.2l-5.1-0.8l1.3-3l5.4,0.9L308.6,25.2z M306,18.6l1.2-2.7
		l5.9,0.9l-1.4,2.6L306,18.6z M317.1,26.6l-5.1-0.8l1.6-2.9l5.1,0.8L317.1,26.6z M320.1,20.9l-5.1-0.9l1.4-2.6l5.2,0.9L320.1,20.9z
		 M323.2,15.4l-5.2-0.9l1.4-2.7l5.4,0.9L323.2,15.4z"/>
	<path fill="#FF75B8" d="M307.2,42.6c-2.4-0.4-4.6,0.9-5,3.1c-0.4,2.1,1.3,4.2,3.7,4.6c2.4,0.4,4.6-0.9,5-3.1
		C311.3,45,309.6,42.9,307.2,42.6z M308.7,46.8c-0.1,1-1.2,1.7-2.5,1.6c-1.2-0.1-2-1.2-1.8-2.2c0.3-1,1.3-1.7,2.5-1.6
		C308,44.7,308.8,45.8,308.7,46.8z M338,0.4c-0.8-0.1-1.4,0-2,0.3L331.8,0c-0.1,0-0.1,0-0.1,0c-0.7,0-1.3,0.3-1.7,0.8L325.4,9
		l-48.9-8.1c-0.8,0-1.4,0.3-1.7,0.8c-0.1,0-0.1,0-0.1,0.1V2v0.1v0.1v0.1l1.8,18.4c0.1,0.3,0.1,0.5,0.3,0.7c0.3,0.5,0.7,0.9,1.3,1
		l36.6,6.1l-5.9,10.6l-32.7-5.5c-0.8-0.1-1.6,0.5-1.7,1.3c-0.1,0.8,0.4,1.6,1.2,1.7l2,0.4c-2,0.1-3.6,1.4-3.8,3.2
		c-0.4,2.1,1.3,4.2,3.7,4.6c2.4,0.4,4.6-0.9,5-3.1c0.3-1.7-0.8-3.4-2.5-4.2l30,5c0.8,0.1,1.6-0.5,1.7-1.3c0-0.1,0-0.1,0-0.1
		l21.1-37.8l2.2,0.4c0.3,1,1.3,1.8,2.5,2.1c1.7,0.3,3.1-0.7,3.4-2.1C341,2.2,339.9,0.8,338,0.4z M280.1,41.5c-0.3,1-1.3,1.7-2.5,1.6
		c-1.2-0.1-2-1.2-1.8-2.2c0.3-1,1.3-1.8,2.5-1.6C279.5,39.4,280.3,40.4,280.1,41.5z M309,9.3l6.4,1.2l-1.4,2.7l-6.1-1L309,9.3z
		 M298.3,7.5l7.3,1.2l-1.2,2.9l-6.9-1.2L298.3,7.5z M282.9,20.1l-2.9-0.4l-0.3-3.3l3.4,0.5L282.9,20.1z M283.4,14l-3.9-0.7l-0.3-3
		l4.4,0.8L283.4,14z M283.8,8.1l-4.7-0.8c-0.1,0-0.1,0-0.3,0l-0.3-3.1l5.5,0.9L283.8,8.1z M291.4,21.6l-5.1-0.8l0.3-3.1l5.6,0.9
		L291.4,21.6z M292.8,15.6l-6.1-1l0.1-2.7l6.7,1L292.8,15.6z M287.1,8.6l0.3-3l7.6,1.3l-0.8,2.9L287.1,8.6z M299.5,23l-4.8-0.9
		l0.8-3l5.4,0.9L299.5,23z M296.1,16.1l0.7-2.9l6.4,1L302,17L296.1,16.1z M308,24.3l-5.1-0.8l1.3-3l5.4,0.9L308,24.3z M305.4,17.8
		l1.2-2.7l5.9,0.9l-1.4,2.6L305.4,17.8z M316.5,25.8l-5.1-0.8l1.6-2.9l5.1,0.8L316.5,25.8z M319.5,20l-5.1-0.9l1.4-2.6l5.2,0.9
		L319.5,20z M322.6,14.5l-5.2-0.9l1.4-2.7l5.4,0.9L322.6,14.5z"/>
	<g opacity="0.2">
		<g>
			<g>
				<path d="M50.9,46.5L29.2,8.9c-0.5-0.9-1.4-1.4-2.4-1.4c-1,0-1.8,0.5-2.4,1.4L2.6,46.8c-0.4,0.9-0.4,1.8,0,2.7S4,50.9,5,50.9
					h43.8l0,0c1.5,0,2.7-1.2,2.7-2.7C51.5,47.6,51.2,46.9,50.9,46.5z"/>
			</g>
		</g>
	</g>
	<g>
		<g>
			<g>
				<path fill="#FCD321" d="M48.6,44.8L27,7.2c-0.5-0.9-1.4-1.4-2.4-1.4s-1.8,0.5-2.4,1.4L0.3,45.1c-0.4,0.9-0.4,1.8,0,2.7
					c0.4,0.9,1.4,1.4,2.4,1.4h43.8l0,0c1.5,0,2.7-1.2,2.7-2.7C49.2,45.9,49,45.2,48.6,44.8z"/>
			</g>
		</g>
	</g>
	<g>
		<path fill="#4D4D4D" d="M22.3,43.6c-0.6-0.5-0.9-1.3-0.9-2.1c0-0.9,0.3-1.6,0.9-2.1c0.6-0.5,1.4-0.9,2.3-0.9s1.6,0.3,2.3,0.9
			c0.5,0.5,0.9,1.3,0.9,2.1c0,0.9-0.3,1.6-0.9,2.1c-0.5,0.5-1.3,0.9-2.3,0.9C23.7,44.5,22.9,44.1,22.3,43.6z M21.7,16.6h5.8l-1,18.5
			h-3.9L21.7,16.6z"/>
	</g>
</g>
</svg>
