<?xml version="1.0" encoding="utf-8"?>
<!-- Generator: Adobe Illustrator 18.0.0, SVG Export Plug-In . SVG Version: 6.00 Build 0)  -->
<!DOCTYPE svg PUBLIC "-//W3C//DTD SVG 1.1//EN" "http://www.w3.org/Graphics/SVG/1.1/DTD/svg11.dtd">
<svg version="1.1" id="Layer_1" xmlns="http://www.w3.org/2000/svg" xmlns:xlink="http://www.w3.org/1999/xlink" x="0px" y="0px"
	 viewBox="0 0 302.3 83" enable-background="new 0 0 302.3 83" xml:space="preserve">
<g>
	<g>
		<g>
			<g opacity="0.6">
				<g>
					<g>
						
							<line fill="none" stroke="#FFFFFF" stroke-width="0.4453" stroke-linecap="round" stroke-linejoin="round" stroke-miterlimit="10" stroke-dasharray="0.5049,1.0098" x1="25.3" y1="46.5" x2="40.7" y2="22.7"/>
					</g>
				</g>
			</g>
			<g opacity="0.6">
				<g opacity="0.2">
					
						<line fill="none" stroke="#000000" stroke-width="0.4453" stroke-linecap="round" stroke-linejoin="round" x1="13.7" y1="68.5" x2="13.8" y2="68.3"/>
					
						<line fill="none" stroke="#000000" stroke-width="0.4453" stroke-linecap="round" stroke-linejoin="round" stroke-dasharray="0.5244,1.0487" x1="14.4" y1="67.4" x2="18.9" y2="61.6"/>
					
						<line fill="none" stroke="#000000" stroke-width="0.4453" stroke-linecap="round" stroke-linejoin="round" x1="19.2" y1="61.2" x2="19.4" y2="61"/>
				</g>
				<g>
					<g>
						<g>
							<g>
								
									<line fill="none" stroke="#FFFFFF" stroke-width="0.4453" stroke-linecap="round" stroke-linejoin="round" x1="12.8" y1="67.6" x2="12.9" y2="67.4"/>
								
									<line fill="none" stroke="#FFFFFF" stroke-width="0.4453" stroke-linecap="round" stroke-linejoin="round" stroke-dasharray="0.5244,1.0487" x1="13.6" y1="66.6" x2="18" y2="60.7"/>
								
									<line fill="none" stroke="#FFFFFF" stroke-width="0.4453" stroke-linecap="round" stroke-linejoin="round" x1="18.3" y1="60.3" x2="18.5" y2="60.1"/>
							</g>
						</g>
					</g>
				</g>
			</g>
			<g opacity="0.6">
				<g opacity="0.2">
					
						<line fill="none" stroke="#000000" stroke-width="0.4453" stroke-linecap="round" stroke-linejoin="round" x1="66.7" y1="68.4" x2="66.9" y2="68.1"/>
					
						<line fill="none" stroke="#000000" stroke-width="0.4453" stroke-linecap="round" stroke-linejoin="round" stroke-dasharray="0.499,0.9981" x1="67.5" y1="67.4" x2="71.7" y2="61.8"/>
					
						<line fill="none" stroke="#000000" stroke-width="0.4453" stroke-linecap="round" stroke-linejoin="round" x1="72" y1="61.4" x2="72.2" y2="61.2"/>
				</g>
				<g>
					<g>
						<g>
							<g>
								
									<line fill="none" stroke="#FFFFFF" stroke-width="0.4453" stroke-linecap="round" stroke-linejoin="round" x1="65.8" y1="67.5" x2="66" y2="67.3"/>
								
									<line fill="none" stroke="#FFFFFF" stroke-width="0.4453" stroke-linecap="round" stroke-linejoin="round" stroke-dasharray="0.499,0.9981" x1="66.6" y1="66.5" x2="70.8" y2="60.9"/>
								
									<line fill="none" stroke="#FFFFFF" stroke-width="0.4453" stroke-linecap="round" stroke-linejoin="round" x1="71.2" y1="60.5" x2="71.3" y2="60.3"/>
							</g>
						</g>
					</g>
				</g>
			</g>
			<g opacity="0.6">
				<g opacity="0.2">
					
						<line fill="none" stroke="#000000" stroke-width="0.4453" stroke-linecap="round" stroke-linejoin="round" x1="84.5" y1="68.3" x2="84.4" y2="68.1"/>
					
						<line fill="none" stroke="#000000" stroke-width="0.4453" stroke-linecap="round" stroke-linejoin="round" stroke-dasharray="0.4985,0.997" x1="83.8" y1="67.3" x2="79.7" y2="61.6"/>
					
						<line fill="none" stroke="#000000" stroke-width="0.4453" stroke-linecap="round" stroke-linejoin="round" x1="79.4" y1="61.2" x2="79.2" y2="61"/>
				</g>
				<g>
					<g>
						<g>
							<g>
								
									<line fill="none" stroke="#FFFFFF" stroke-width="0.4453" stroke-linecap="round" stroke-linejoin="round" x1="83.6" y1="67.4" x2="83.5" y2="67.2"/>
								
									<line fill="none" stroke="#FFFFFF" stroke-width="0.4453" stroke-linecap="round" stroke-linejoin="round" stroke-dasharray="0.4985,0.997" x1="82.9" y1="66.4" x2="78.8" y2="60.7"/>
								
									<line fill="none" stroke="#FFFFFF" stroke-width="0.4453" stroke-linecap="round" stroke-linejoin="round" x1="78.5" y1="60.3" x2="78.4" y2="60.1"/>
							</g>
						</g>
					</g>
				</g>
			</g>
			<g opacity="0.6">
				<g>
					<g>
						
							<line fill="none" stroke="#FFFFFF" stroke-width="0.4453" stroke-linecap="round" stroke-linejoin="round" stroke-miterlimit="10" stroke-dasharray="0.5049,1.0098" x1="71.3" y1="46.5" x2="56.4" y2="25"/>
					</g>
				</g>
			</g>
			<g opacity="0.6">
				<g opacity="0.2">
					
						<line fill="none" stroke="#000000" stroke-width="0.4453" stroke-linecap="round" stroke-linejoin="round" x1="31" y1="68.3" x2="30.9" y2="68.1"/>
					
						<line fill="none" stroke="#000000" stroke-width="0.4453" stroke-linecap="round" stroke-linejoin="round" stroke-dasharray="0.4985,0.997" x1="30.3" y1="67.3" x2="26.2" y2="61.6"/>
					
						<line fill="none" stroke="#000000" stroke-width="0.4453" stroke-linecap="round" stroke-linejoin="round" x1="25.9" y1="61.2" x2="25.8" y2="61"/>
				</g>
				<g>
					<g>
						<g>
							<g>
								
									<line fill="none" stroke="#FFFFFF" stroke-width="0.4453" stroke-linecap="round" stroke-linejoin="round" x1="30.2" y1="67.4" x2="30" y2="67.2"/>
								
									<line fill="none" stroke="#FFFFFF" stroke-width="0.4453" stroke-linecap="round" stroke-linejoin="round" stroke-dasharray="0.4985,0.997" x1="29.4" y1="66.4" x2="25.3" y2="60.7"/>
								
									<line fill="none" stroke="#FFFFFF" stroke-width="0.4453" stroke-linecap="round" stroke-linejoin="round" x1="25" y1="60.3" x2="24.9" y2="60.1"/>
							</g>
						</g>
					</g>
				</g>
			</g>
		</g>
		<g>
			<g opacity="0.2">
				<circle cx="22.5" cy="54.2" r="7.3"/>
				<circle cx="75.6" cy="54.2" r="7.3"/>
				<circle cx="10.2" cy="75" r="7.3"/>
				<circle cx="34.7" cy="75" r="7.3"/>
				<circle cx="63.3" cy="75" r="7.3"/>
				<circle fill="none" stroke="#000000" stroke-width="0.4453" stroke-miterlimit="10" cx="87.9" cy="75" r="7.3"/>
			</g>
			<g>
				<g>
					<g>
						<circle fill="#00B0C2" cx="21.6" cy="53.3" r="7.3"/>
					</g>
					<g>
						<circle fill="#92C9DA" cx="74.7" cy="53.3" r="7.3"/>
					</g>
					<g>
						<g>
							<g>
								<circle fill="#0080CC" cx="9.3" cy="74.1" r="7.3"/>
							</g>
							<g>
								<circle fill="#0080CC" cx="33.8" cy="74.1" r="7.3"/>
							</g>
						</g>
					</g>
					<g>
						<g>
							<circle fill="#00B0C2" cx="62.5" cy="74.1" r="7.3"/>
						</g>
						<g>
							<circle fill="none" stroke="#29ABE2" stroke-width="0.4453" stroke-miterlimit="10" cx="87" cy="74.1" r="7.3"/>
						</g>
					</g>
				</g>
			</g>
		</g>
	</g>
	<g>
		<g>
			<g opacity="0.6">
				<g>
					<g>
						
							<line fill="none" stroke="#FFFFFF" stroke-width="0.4453" stroke-linecap="round" stroke-linejoin="round" stroke-miterlimit="10" stroke-dasharray="0.5049,1.0098" x1="126.6" y1="46.5" x2="142" y2="22.7"/>
					</g>
				</g>
			</g>
			<g opacity="0.6">
				<g opacity="0.2">
					
						<line fill="none" stroke="#000000" stroke-width="0.4453" stroke-linecap="round" stroke-linejoin="round" x1="114.9" y1="68.5" x2="115" y2="68.3"/>
					
						<line fill="none" stroke="#000000" stroke-width="0.4453" stroke-linecap="round" stroke-linejoin="round" stroke-dasharray="0.5244,1.0487" x1="115.7" y1="67.4" x2="120.1" y2="61.6"/>
					
						<line fill="none" stroke="#000000" stroke-width="0.4453" stroke-linecap="round" stroke-linejoin="round" x1="120.5" y1="61.2" x2="120.6" y2="61"/>
				</g>
				<g>
					<g>
						<g>
							<g>
								
									<line fill="none" stroke="#FFFFFF" stroke-width="0.4453" stroke-linecap="round" stroke-linejoin="round" x1="114" y1="67.6" x2="114.2" y2="67.4"/>
								
									<line fill="none" stroke="#FFFFFF" stroke-width="0.4453" stroke-linecap="round" stroke-linejoin="round" stroke-dasharray="0.5244,1.0487" x1="114.8" y1="66.6" x2="119.3" y2="60.7"/>
								
									<line fill="none" stroke="#FFFFFF" stroke-width="0.4453" stroke-linecap="round" stroke-linejoin="round" x1="119.6" y1="60.3" x2="119.7" y2="60.1"/>
							</g>
						</g>
					</g>
				</g>
			</g>
			<g opacity="0.6">
				<g opacity="0.2">
					
						<line fill="none" stroke="#000000" stroke-width="0.4453" stroke-linecap="round" stroke-linejoin="round" x1="168" y1="68.4" x2="168.1" y2="68.1"/>
					
						<line fill="none" stroke="#000000" stroke-width="0.4453" stroke-linecap="round" stroke-linejoin="round" stroke-dasharray="0.499,0.9981" x1="168.7" y1="67.4" x2="173" y2="61.8"/>
					
						<line fill="none" stroke="#000000" stroke-width="0.4453" stroke-linecap="round" stroke-linejoin="round" x1="173.3" y1="61.4" x2="173.4" y2="61.2"/>
				</g>
				<g>
					<g>
						<g>
							<g>
								
									<line fill="none" stroke="#FFFFFF" stroke-width="0.4453" stroke-linecap="round" stroke-linejoin="round" x1="167.1" y1="67.5" x2="167.2" y2="67.3"/>
								
									<line fill="none" stroke="#FFFFFF" stroke-width="0.4453" stroke-linecap="round" stroke-linejoin="round" stroke-dasharray="0.499,0.9981" x1="167.8" y1="66.5" x2="172.1" y2="60.9"/>
								
									<line fill="none" stroke="#FFFFFF" stroke-width="0.4453" stroke-linecap="round" stroke-linejoin="round" x1="172.4" y1="60.5" x2="172.5" y2="60.3"/>
							</g>
						</g>
					</g>
				</g>
			</g>
			<g opacity="0.6">
				<g opacity="0.2">
					
						<line fill="none" stroke="#000000" stroke-width="0.4453" stroke-linecap="round" stroke-linejoin="round" x1="185.8" y1="68.3" x2="185.6" y2="68.1"/>
					
						<line fill="none" stroke="#000000" stroke-width="0.4453" stroke-linecap="round" stroke-linejoin="round" stroke-dasharray="0.4985,0.997" x1="185" y1="67.3" x2="180.9" y2="61.6"/>
					
						<line fill="none" stroke="#000000" stroke-width="0.4453" stroke-linecap="round" stroke-linejoin="round" x1="180.6" y1="61.2" x2="180.5" y2="61"/>
				</g>
				<g>
					<g>
						<g>
							<g>
								
									<line fill="none" stroke="#FFFFFF" stroke-width="0.4453" stroke-linecap="round" stroke-linejoin="round" x1="184.9" y1="67.4" x2="184.7" y2="67.2"/>
								
									<line fill="none" stroke="#FFFFFF" stroke-width="0.4453" stroke-linecap="round" stroke-linejoin="round" stroke-dasharray="0.4985,0.997" x1="184.1" y1="66.4" x2="180" y2="60.7"/>
								
									<line fill="none" stroke="#FFFFFF" stroke-width="0.4453" stroke-linecap="round" stroke-linejoin="round" x1="179.7" y1="60.3" x2="179.6" y2="60.1"/>
							</g>
						</g>
					</g>
				</g>
			</g>
			<g opacity="0.6">
				<g>
					<g>
						
							<line fill="none" stroke="#FFFFFF" stroke-width="0.4453" stroke-linecap="round" stroke-linejoin="round" stroke-miterlimit="10" stroke-dasharray="0.5049,1.0098" x1="172.5" y1="46.5" x2="157.6" y2="25"/>
					</g>
				</g>
			</g>
			<g opacity="0.6">
				<g opacity="0.2">
					
						<line fill="none" stroke="#000000" stroke-width="0.4453" stroke-linecap="round" stroke-linejoin="round" x1="132.3" y1="68.3" x2="132.1" y2="68.1"/>
					
						<line fill="none" stroke="#000000" stroke-width="0.4453" stroke-linecap="round" stroke-linejoin="round" stroke-dasharray="0.4985,0.997" x1="131.5" y1="67.3" x2="127.4" y2="61.6"/>
					
						<line fill="none" stroke="#000000" stroke-width="0.4453" stroke-linecap="round" stroke-linejoin="round" x1="127.1" y1="61.2" x2="127" y2="61"/>
				</g>
				<g>
					<g>
						<g>
							<g>
								
									<line fill="none" stroke="#FFFFFF" stroke-width="0.4453" stroke-linecap="round" stroke-linejoin="round" x1="131.4" y1="67.4" x2="131.2" y2="67.2"/>
								
									<line fill="none" stroke="#FFFFFF" stroke-width="0.4453" stroke-linecap="round" stroke-linejoin="round" stroke-dasharray="0.4985,0.997" x1="130.7" y1="66.4" x2="126.6" y2="60.7"/>
								
									<line fill="none" stroke="#FFFFFF" stroke-width="0.4453" stroke-linecap="round" stroke-linejoin="round" x1="126.3" y1="60.3" x2="126.1" y2="60.1"/>
							</g>
						</g>
					</g>
				</g>
			</g>
		</g>
		<g>
			<g opacity="0.2">
				<circle cx="123.7" cy="54.2" r="7.3"/>
				<circle cx="176.8" cy="54.2" r="7.3"/>
				<circle cx="111.4" cy="75" r="7.3"/>
				<circle fill="none" stroke="#000000" stroke-width="0.4453" stroke-miterlimit="10" cx="136" cy="75" r="7.3"/>
				<circle fill="none" stroke="#000000" stroke-width="0.4453" stroke-miterlimit="10" cx="164.6" cy="75" r="7.3"/>
				<circle fill="none" stroke="#000000" stroke-width="0.4453" stroke-miterlimit="10" cx="189.1" cy="75" r="7.3"/>
			</g>
			<g>
				<g>
					<g>
						<circle fill="#92C9DA" cx="122.8" cy="53.3" r="7.3"/>
					</g>
					<g>
						<circle fill="#92C9DA" cx="176" cy="53.3" r="7.3"/>
					</g>
					<g>
						<g>
							<circle fill="#00B0C2" cx="110.5" cy="74.1" r="7.3"/>
						</g>
						<g>
							<circle fill="none" stroke="#29ABE2" stroke-width="0.4453" stroke-miterlimit="10" cx="135.1" cy="74.1" r="7.3"/>
						</g>
					</g>
					<g>
						<circle fill="none" stroke="#29ABE2" stroke-width="0.4453" stroke-miterlimit="10" cx="163.7" cy="74.1" r="7.3"/>
						<circle fill="none" stroke="#29ABE2" stroke-width="0.4453" stroke-miterlimit="10" cx="188.2" cy="74.1" r="7.3"/>
					</g>
				</g>
			</g>
		</g>
	</g>
	<g>
		<g>
			<g opacity="0.6">
				<g>
					<g>
						
							<line fill="none" stroke="#FFFFFF" stroke-width="0.4453" stroke-linecap="round" stroke-linejoin="round" stroke-miterlimit="10" stroke-dasharray="0.5049,1.0098" x1="231.3" y1="46.5" x2="246.7" y2="22.7"/>
					</g>
				</g>
			</g>
			<g opacity="0.6">
				<g opacity="0.2">
					
						<line fill="none" stroke="#000000" stroke-width="0.4453" stroke-linecap="round" stroke-linejoin="round" x1="219.6" y1="68.5" x2="219.8" y2="68.3"/>
					
						<line fill="none" stroke="#000000" stroke-width="0.4453" stroke-linecap="round" stroke-linejoin="round" stroke-dasharray="0.5244,1.0487" x1="220.4" y1="67.4" x2="224.9" y2="61.6"/>
					
						<line fill="none" stroke="#000000" stroke-width="0.4453" stroke-linecap="round" stroke-linejoin="round" x1="225.2" y1="61.2" x2="225.4" y2="61"/>
				</g>
				<g>
					<g>
						<g>
							<g>
								
									<line fill="none" stroke="#FFFFFF" stroke-width="0.4453" stroke-linecap="round" stroke-linejoin="round" x1="218.8" y1="67.6" x2="218.9" y2="67.4"/>
								
									<line fill="none" stroke="#FFFFFF" stroke-width="0.4453" stroke-linecap="round" stroke-linejoin="round" stroke-dasharray="0.5244,1.0487" x1="219.5" y1="66.6" x2="224" y2="60.7"/>
								
									<line fill="none" stroke="#FFFFFF" stroke-width="0.4453" stroke-linecap="round" stroke-linejoin="round" x1="224.3" y1="60.3" x2="224.5" y2="60.1"/>
							</g>
						</g>
					</g>
				</g>
			</g>
			<g opacity="0.6">
				<g opacity="0.2">
					
						<line fill="none" stroke="#000000" stroke-width="0.4453" stroke-linecap="round" stroke-linejoin="round" x1="272.7" y1="68.4" x2="272.9" y2="68.1"/>
					
						<line fill="none" stroke="#000000" stroke-width="0.4453" stroke-linecap="round" stroke-linejoin="round" stroke-dasharray="0.499,0.9981" x1="273.5" y1="67.4" x2="277.7" y2="61.8"/>
					
						<line fill="none" stroke="#000000" stroke-width="0.4453" stroke-linecap="round" stroke-linejoin="round" x1="278" y1="61.4" x2="278.2" y2="61.2"/>
				</g>
				<g>
					<g>
						<g>
							<g>
								
									<line fill="none" stroke="#FFFFFF" stroke-width="0.4453" stroke-linecap="round" stroke-linejoin="round" x1="271.8" y1="67.5" x2="272" y2="67.3"/>
								
									<line fill="none" stroke="#FFFFFF" stroke-width="0.4453" stroke-linecap="round" stroke-linejoin="round" stroke-dasharray="0.499,0.9981" x1="272.6" y1="66.5" x2="276.8" y2="60.9"/>
								
									<line fill="none" stroke="#FFFFFF" stroke-width="0.4453" stroke-linecap="round" stroke-linejoin="round" x1="277.1" y1="60.5" x2="277.3" y2="60.3"/>
							</g>
						</g>
					</g>
				</g>
			</g>
			<g opacity="0.6">
				<g opacity="0.2">
					
						<line fill="none" stroke="#000000" stroke-width="0.4453" stroke-linecap="round" stroke-linejoin="round" x1="290.5" y1="68.3" x2="290.4" y2="68.1"/>
					
						<line fill="none" stroke="#000000" stroke-width="0.4453" stroke-linecap="round" stroke-linejoin="round" stroke-dasharray="0.4985,0.997" x1="289.8" y1="67.3" x2="285.7" y2="61.6"/>
					
						<line fill="none" stroke="#000000" stroke-width="0.4453" stroke-linecap="round" stroke-linejoin="round" x1="285.4" y1="61.2" x2="285.2" y2="61"/>
				</g>
				<g>
					<g>
						<g>
							<g>
								
									<line fill="none" stroke="#FFFFFF" stroke-width="0.4453" stroke-linecap="round" stroke-linejoin="round" x1="289.6" y1="67.4" x2="289.5" y2="67.2"/>
								
									<line fill="none" stroke="#FFFFFF" stroke-width="0.4453" stroke-linecap="round" stroke-linejoin="round" stroke-dasharray="0.4985,0.997" x1="288.9" y1="66.4" x2="284.8" y2="60.7"/>
								
									<line fill="none" stroke="#FFFFFF" stroke-width="0.4453" stroke-linecap="round" stroke-linejoin="round" x1="284.5" y1="60.3" x2="284.3" y2="60.1"/>
							</g>
						</g>
					</g>
				</g>
			</g>
			<g opacity="0.6">
				<g>
					<g>
						
							<line fill="none" stroke="#FFFFFF" stroke-width="0.4453" stroke-linecap="round" stroke-linejoin="round" stroke-miterlimit="10" stroke-dasharray="0.5049,1.0098" x1="277.3" y1="46.5" x2="262.4" y2="25"/>
					</g>
				</g>
			</g>
			<g opacity="0.6">
				<g opacity="0.2">
					
						<line fill="none" stroke="#000000" stroke-width="0.4453" stroke-linecap="round" stroke-linejoin="round" x1="237" y1="68.3" x2="236.9" y2="68.1"/>
					
						<line fill="none" stroke="#000000" stroke-width="0.4453" stroke-linecap="round" stroke-linejoin="round" stroke-dasharray="0.4985,0.997" x1="236.3" y1="67.3" x2="232.2" y2="61.6"/>
					
						<line fill="none" stroke="#000000" stroke-width="0.4453" stroke-linecap="round" stroke-linejoin="round" x1="231.9" y1="61.2" x2="231.7" y2="61"/>
				</g>
				<g>
					<g>
						<g>
							<g>
								
									<line fill="none" stroke="#FFFFFF" stroke-width="0.4453" stroke-linecap="round" stroke-linejoin="round" x1="236.1" y1="67.4" x2="236" y2="67.2"/>
								
									<line fill="none" stroke="#FFFFFF" stroke-width="0.4453" stroke-linecap="round" stroke-linejoin="round" stroke-dasharray="0.4985,0.997" x1="235.4" y1="66.4" x2="231.3" y2="60.7"/>
								
									<line fill="none" stroke="#FFFFFF" stroke-width="0.4453" stroke-linecap="round" stroke-linejoin="round" x1="231" y1="60.3" x2="230.9" y2="60.1"/>
							</g>
						</g>
					</g>
				</g>
			</g>
		</g>
		<g>
			<g opacity="0.2">
				<circle cx="228.4" cy="54.2" r="7.3"/>
				<circle cx="281.6" cy="54.2" r="7.3"/>
				<circle fill="none" stroke="#000000" stroke-width="0.4453" stroke-miterlimit="10" cx="216.2" cy="75" r="7.3"/>
				<circle cx="240.7" cy="75" r="7.3"/>
				<circle cx="269.3" cy="75" r="7.3"/>
				<circle fill="none" stroke="#000000" stroke-width="0.4453" stroke-miterlimit="10" cx="293.9" cy="75" r="7.3"/>
			</g>
			<g>
				<g>
					<g>
						<circle fill="#92C9DA" cx="227.6" cy="53.3" r="7.3"/>
					</g>
					<g>
						<circle fill="#00B0C2" cx="280.7" cy="53.3" r="7.3"/>
					</g>
					<g>
						<circle fill="none" stroke="#29ABE2" stroke-width="0.4453" stroke-miterlimit="10" cx="215.3" cy="74.1" r="7.3"/>
						<g>
							<circle fill="#0080CC" cx="239.8" cy="74.1" r="7.3"/>
						</g>
					</g>
					<g>
						<g>
							<circle fill="#FF94FF" cx="268.4" cy="74.1" r="7.3"/>
						</g>
						<circle fill="none" stroke="#29ABE2" stroke-width="0.4453" stroke-miterlimit="10" cx="293" cy="74.1" r="7.3"/>
					</g>
				</g>
			</g>
		</g>
	</g>
	<g>
		<g>
			
				<image overflow="visible" opacity="0.2" width="88" height="44" xlink:href="1B8C3D54.png"  transform="matrix(1 0 0 1 9.6746 0.4583)">
			</image>
			<g>
				<path fill="#00B0C2" d="M85.4,37.7H18c-3.3,0-6-2.7-6-6V8.1c0-3.3,2.7-6,6-6h67.4c3.3,0,6,2.7,6,6v23.7
					C91.4,35,88.7,37.7,85.4,37.7z"/>
			</g>
		</g>
		<g>
			<g opacity="0.26">
				<path d="M34.9,20.6c0-0.8,0.1-1.5,0.3-2.2c0.2-0.6,0.4-1.2,0.8-1.6c0.3-0.4,0.8-0.8,1.3-1s1.1-0.4,1.7-0.4
					c0.6,0,1.2,0.1,1.7,0.4c0.5,0.2,0.9,0.6,1.3,1c0.3,0.4,0.6,1,0.8,1.6c0.2,0.6,0.3,1.4,0.3,2.2s-0.1,1.5-0.3,2.2
					c-0.2,0.6-0.4,1.2-0.8,1.6c-0.3,0.4-0.8,0.8-1.3,1c-0.5,0.2-1.1,0.4-1.7,0.4c-0.6,0-1.2-0.1-1.7-0.4s-0.9-0.6-1.3-1
					c-0.3-0.4-0.6-1-0.8-1.6S34.9,21.5,34.9,20.6z M39,16.8c-0.4,0-0.7,0.1-1,0.3c-0.3,0.2-0.5,0.5-0.7,0.8
					c-0.2,0.3-0.3,0.7-0.4,1.2c-0.1,0.5-0.1,1-0.1,1.5c0,0.6,0,1.1,0.1,1.5c0.1,0.5,0.2,0.9,0.4,1.2c0.2,0.3,0.4,0.6,0.7,0.8
					c0.3,0.2,0.6,0.3,1,0.3c0.4,0,0.7-0.1,1-0.3s0.5-0.5,0.7-0.8c0.2-0.3,0.3-0.7,0.4-1.2c0.1-0.5,0.1-1,0.1-1.5c0-0.5,0-1-0.1-1.5
					c-0.1-0.5-0.2-0.9-0.4-1.2s-0.4-0.6-0.7-0.8C39.7,16.9,39.4,16.8,39,16.8z"/>
				<path d="M46.4,24.9c0,0.3-0.1,0.5-0.3,0.6c-0.2,0.2-0.5,0.3-0.8,0.3c-0.3,0-0.6-0.1-0.8-0.3c-0.2-0.2-0.3-0.4-0.3-0.6
					c0-0.3,0.1-0.5,0.3-0.6c0.2-0.2,0.5-0.3,0.8-0.3c0.3,0,0.6,0.1,0.8,0.3C46.3,24.4,46.4,24.6,46.4,24.9z"/>
				<path d="M47.5,20.6c0-0.8,0.1-1.5,0.3-2.2c0.2-0.6,0.4-1.2,0.8-1.6c0.3-0.4,0.8-0.8,1.3-1s1.1-0.4,1.7-0.4
					c0.6,0,1.2,0.1,1.7,0.4c0.5,0.2,0.9,0.6,1.3,1c0.3,0.4,0.6,1,0.8,1.6c0.2,0.6,0.3,1.4,0.3,2.2s-0.1,1.5-0.3,2.2
					c-0.2,0.6-0.4,1.2-0.8,1.6c-0.3,0.4-0.8,0.8-1.3,1c-0.5,0.2-1.1,0.4-1.7,0.4c-0.6,0-1.2-0.1-1.7-0.4s-0.9-0.6-1.3-1
					c-0.3-0.4-0.6-1-0.8-1.6S47.5,21.5,47.5,20.6z M51.6,16.8c-0.4,0-0.7,0.1-1,0.3c-0.3,0.2-0.5,0.5-0.7,0.8
					c-0.2,0.3-0.3,0.7-0.4,1.2c-0.1,0.5-0.1,1-0.1,1.5c0,0.6,0,1.1,0.1,1.5c0.1,0.5,0.2,0.9,0.4,1.2c0.2,0.3,0.4,0.6,0.7,0.8
					c0.3,0.2,0.6,0.3,1,0.3c0.4,0,0.7-0.1,1-0.3s0.5-0.5,0.7-0.8c0.2-0.3,0.3-0.7,0.4-1.2c0.1-0.5,0.1-1,0.1-1.5c0-0.5,0-1-0.1-1.5
					c-0.1-0.5-0.2-0.9-0.4-1.2s-0.4-0.6-0.7-0.8C52.3,16.9,52,16.8,51.6,16.8z"/>
				<path d="M56.8,18.6c0-0.4,0.1-0.8,0.3-1.2c0.2-0.4,0.5-0.7,0.9-1c0.4-0.3,0.8-0.5,1.3-0.7c0.5-0.2,1-0.2,1.6-0.2
					s1.1,0.1,1.6,0.3c0.5,0.2,0.9,0.4,1.3,0.7c0.4,0.3,0.7,0.6,0.9,1c0.2,0.4,0.3,0.8,0.3,1.2c0,0.4-0.1,0.8-0.3,1.2s-0.5,0.7-0.9,1
					l-4,3.6H64c0.2,0,0.4,0.1,0.6,0.2c0.2,0.1,0.3,0.3,0.3,0.5c0,0.2-0.1,0.3-0.3,0.5c-0.2,0.1-0.4,0.2-0.6,0.2h-6.3
					c-0.1,0-0.2,0-0.3-0.1s-0.2-0.1-0.3-0.1c-0.1-0.1-0.1-0.1-0.2-0.2c0-0.1-0.1-0.2-0.1-0.3c0-0.2,0.1-0.4,0.2-0.5l5.4-4.8
					c0.5-0.4,0.7-0.8,0.7-1.3c0-0.2-0.1-0.5-0.2-0.7s-0.3-0.4-0.5-0.6S62,17.1,61.7,17c-0.3-0.1-0.6-0.1-0.9-0.1
					c-0.3,0-0.6,0-0.9,0.1c-0.3,0.1-0.5,0.2-0.7,0.4c-0.2,0.2-0.4,0.3-0.5,0.6s-0.2,0.4-0.2,0.7c0,0.2-0.1,0.3-0.3,0.5
					c-0.2,0.1-0.4,0.2-0.6,0.2c-0.2,0-0.4-0.1-0.6-0.2C56.9,19,56.8,18.8,56.8,18.6z"/>
				<path d="M73.3,16.8h-4.8v2.2h2c0.6,0,1.1,0.1,1.7,0.3c0.5,0.2,1,0.4,1.4,0.7c0.4,0.3,0.7,0.7,0.9,1.1c0.2,0.4,0.3,0.8,0.3,1.3
					c0,0.5-0.1,0.9-0.3,1.3c-0.2,0.4-0.5,0.8-0.9,1.1c-0.4,0.3-0.9,0.5-1.4,0.7s-1.1,0.3-1.7,0.3c-0.6,0-1.2-0.1-1.7-0.3
					c-0.5-0.2-1-0.4-1.4-0.7c-0.4-0.3-0.7-0.7-0.9-1.1s-0.3-0.8-0.3-1.3c0-0.2,0.1-0.4,0.2-0.5c0.2-0.1,0.4-0.2,0.6-0.2
					c0.2,0,0.4,0.1,0.6,0.2c0.2,0.1,0.3,0.3,0.3,0.5c0,0.3,0.1,0.5,0.2,0.8s0.3,0.5,0.6,0.6s0.5,0.3,0.8,0.4s0.7,0.2,1,0.2
					c0.4,0,0.7-0.1,1-0.2s0.6-0.3,0.8-0.4c0.2-0.2,0.4-0.4,0.6-0.6c0.1-0.2,0.2-0.5,0.2-0.8c0-0.3-0.1-0.5-0.2-0.8
					c-0.1-0.2-0.3-0.5-0.6-0.6c-0.2-0.2-0.5-0.3-0.8-0.4s-0.7-0.2-1-0.2h-2.8c-0.2,0-0.5-0.1-0.6-0.2s-0.2-0.3-0.2-0.5v-3.6
					c0-0.2,0.1-0.3,0.2-0.5c0.2-0.1,0.4-0.2,0.6-0.2h5.7c0.2,0,0.5,0.1,0.6,0.2c0.2,0.1,0.3,0.3,0.3,0.5c0,0.2-0.1,0.3-0.3,0.5
					C73.8,16.8,73.6,16.8,73.3,16.8z"/>
			</g>
			<g>
				<g>
					<path fill="#FFFFFF" d="M34.5,20.2c0-0.8,0.1-1.5,0.3-2.2c0.2-0.6,0.4-1.2,0.8-1.6c0.3-0.4,0.8-0.8,1.3-1s1.1-0.4,1.7-0.4
						c0.6,0,1.2,0.1,1.7,0.4c0.5,0.2,0.9,0.6,1.3,1c0.3,0.4,0.6,1,0.8,1.6c0.2,0.6,0.3,1.4,0.3,2.2s-0.1,1.5-0.3,2.2
						c-0.2,0.6-0.4,1.2-0.8,1.6c-0.3,0.4-0.8,0.8-1.3,1c-0.5,0.2-1.1,0.4-1.7,0.4c-0.6,0-1.2-0.1-1.7-0.4s-0.9-0.6-1.3-1
						c-0.3-0.4-0.6-1-0.8-1.6S34.5,21,34.5,20.2z M38.5,16.4c-0.4,0-0.7,0.1-1,0.3c-0.3,0.2-0.5,0.5-0.7,0.8
						c-0.2,0.3-0.3,0.7-0.4,1.2c-0.1,0.5-0.1,1-0.1,1.5c0,0.6,0,1.1,0.1,1.5c0.1,0.5,0.2,0.9,0.4,1.2c0.2,0.3,0.4,0.6,0.7,0.8
						c0.3,0.2,0.6,0.3,1,0.3c0.4,0,0.7-0.1,1-0.3s0.5-0.5,0.7-0.8c0.2-0.3,0.3-0.7,0.4-1.2c0.1-0.5,0.1-1,0.1-1.5c0-0.5,0-1-0.1-1.5
						c-0.1-0.5-0.2-0.9-0.4-1.2s-0.4-0.6-0.7-0.8C39.3,16.5,38.9,16.4,38.5,16.4z"/>
					<path fill="#FFFFFF" d="M46,24.4c0,0.3-0.1,0.5-0.3,0.6c-0.2,0.2-0.5,0.3-0.8,0.3c-0.3,0-0.6-0.1-0.8-0.3
						c-0.2-0.2-0.3-0.4-0.3-0.6c0-0.3,0.1-0.5,0.3-0.6c0.2-0.2,0.5-0.3,0.8-0.3c0.3,0,0.6,0.1,0.8,0.3C45.9,24,46,24.2,46,24.4z"/>
					<path fill="#FFFFFF" d="M47.1,20.2c0-0.8,0.1-1.5,0.3-2.2c0.2-0.6,0.4-1.2,0.8-1.6c0.3-0.4,0.8-0.8,1.3-1s1.1-0.4,1.7-0.4
						c0.6,0,1.2,0.1,1.7,0.4c0.5,0.2,0.9,0.6,1.3,1c0.3,0.4,0.6,1,0.8,1.6c0.2,0.6,0.3,1.4,0.3,2.2s-0.1,1.5-0.3,2.2
						c-0.2,0.6-0.4,1.2-0.8,1.6c-0.3,0.4-0.8,0.8-1.3,1c-0.5,0.2-1.1,0.4-1.7,0.4c-0.6,0-1.2-0.1-1.7-0.4s-0.9-0.6-1.3-1
						c-0.3-0.4-0.6-1-0.8-1.6S47.1,21,47.1,20.2z M51.2,16.4c-0.4,0-0.7,0.1-1,0.3c-0.3,0.2-0.5,0.5-0.7,0.8
						c-0.2,0.3-0.3,0.7-0.4,1.2c-0.1,0.5-0.1,1-0.1,1.5c0,0.6,0,1.1,0.1,1.5c0.1,0.5,0.2,0.9,0.4,1.2c0.2,0.3,0.4,0.6,0.7,0.8
						c0.3,0.2,0.6,0.3,1,0.3c0.4,0,0.7-0.1,1-0.3s0.5-0.5,0.7-0.8c0.2-0.3,0.3-0.7,0.4-1.2c0.1-0.5,0.1-1,0.1-1.5c0-0.5,0-1-0.1-1.5
						c-0.1-0.5-0.2-0.9-0.4-1.2s-0.4-0.6-0.7-0.8C51.9,16.5,51.5,16.4,51.2,16.4z"/>
					<path fill="#FFFFFF" d="M56.4,18.2c0-0.4,0.1-0.8,0.3-1.2c0.2-0.4,0.5-0.7,0.9-1c0.4-0.3,0.8-0.5,1.3-0.7
						c0.5-0.2,1-0.2,1.6-0.2s1.1,0.1,1.6,0.3c0.5,0.2,0.9,0.4,1.3,0.7c0.4,0.3,0.7,0.6,0.9,1c0.2,0.4,0.3,0.8,0.3,1.2
						c0,0.4-0.1,0.8-0.3,1.2c-0.2,0.4-0.5,0.7-0.9,1l-4,3.6h4.3c0.2,0,0.4,0.1,0.6,0.2c0.2,0.1,0.3,0.3,0.3,0.5
						c0,0.2-0.1,0.3-0.3,0.5c-0.2,0.1-0.4,0.2-0.6,0.2h-6.3c-0.1,0-0.2,0-0.3-0.1s-0.2-0.1-0.3-0.1c-0.1-0.1-0.1-0.1-0.2-0.2
						c0-0.1-0.1-0.2-0.1-0.3c0-0.2,0.1-0.4,0.2-0.5l5.4-4.8c0.5-0.4,0.7-0.8,0.7-1.3c0-0.2-0.1-0.5-0.2-0.7s-0.3-0.4-0.5-0.6
						s-0.5-0.3-0.7-0.4c-0.3-0.1-0.6-0.1-0.9-0.1c-0.3,0-0.6,0-0.9,0.1c-0.3,0.1-0.5,0.2-0.7,0.4c-0.2,0.2-0.4,0.3-0.5,0.6
						s-0.2,0.4-0.2,0.7c0,0.2-0.1,0.3-0.3,0.5c-0.2,0.1-0.4,0.2-0.6,0.2c-0.2,0-0.4-0.1-0.6-0.2C56.5,18.5,56.4,18.4,56.4,18.2z"/>
					<path fill="#FFFFFF" d="M72.9,16.4h-4.8v2.2h2c0.6,0,1.1,0.1,1.7,0.3c0.5,0.2,1,0.4,1.4,0.7c0.4,0.3,0.7,0.7,0.9,1.1
						c0.2,0.4,0.3,0.8,0.3,1.3c0,0.5-0.1,0.9-0.3,1.3c-0.2,0.4-0.5,0.8-0.9,1.1c-0.4,0.3-0.9,0.5-1.4,0.7s-1.1,0.3-1.7,0.3
						c-0.6,0-1.2-0.1-1.7-0.3c-0.5-0.2-1-0.4-1.4-0.7c-0.4-0.3-0.7-0.7-0.9-1.1s-0.3-0.8-0.3-1.3c0-0.2,0.1-0.4,0.2-0.5
						c0.2-0.1,0.4-0.2,0.6-0.2c0.2,0,0.4,0.1,0.6,0.2c0.2,0.1,0.3,0.3,0.3,0.5c0,0.3,0.1,0.5,0.2,0.8s0.3,0.5,0.6,0.6
						s0.5,0.3,0.8,0.4s0.7,0.2,1,0.2c0.4,0,0.7-0.1,1-0.2s0.6-0.3,0.8-0.4c0.2-0.2,0.4-0.4,0.6-0.6c0.1-0.2,0.2-0.5,0.2-0.8
						c0-0.3-0.1-0.5-0.2-0.8c-0.1-0.2-0.3-0.5-0.6-0.6c-0.2-0.2-0.5-0.3-0.8-0.4S70.4,20,70,20h-2.8c-0.2,0-0.5-0.1-0.6-0.2
						s-0.2-0.3-0.2-0.5v-3.6c0-0.2,0.1-0.3,0.2-0.5c0.2-0.1,0.4-0.2,0.6-0.2h5.7c0.2,0,0.5,0.1,0.6,0.2c0.2,0.1,0.3,0.3,0.3,0.5
						c0,0.2-0.1,0.3-0.3,0.5C73.3,16.3,73.1,16.4,72.9,16.4z"/>
				</g>
			</g>
		</g>
	</g>
	<g>
		<g>
			
				<image overflow="visible" opacity="0.2" width="88" height="44" xlink:href="1B8C3D55.png"  transform="matrix(1 0 0 1 111.6746 0.4583)">
			</image>
			<g>
				<path fill="#00B0C2" d="M187.2,37.7h-67.4c-3.3,0-6-2.7-6-6V8.1c0-3.3,2.7-6,6-6h67.4c3.3,0,6,2.7,6,6v23.7
					C193.2,35,190.6,37.7,187.2,37.7z"/>
			</g>
		</g>
		<g>
			<g opacity="0.26">
				<path d="M137.4,20.5c0-0.8,0.1-1.5,0.3-2.2c0.2-0.6,0.4-1.2,0.8-1.6c0.3-0.4,0.8-0.8,1.3-1s1.1-0.4,1.7-0.4
					c0.6,0,1.2,0.1,1.7,0.4c0.5,0.2,0.9,0.6,1.3,1c0.3,0.4,0.6,1,0.8,1.6c0.2,0.6,0.3,1.4,0.3,2.2s-0.1,1.5-0.3,2.2
					c-0.2,0.6-0.4,1.2-0.8,1.6c-0.3,0.4-0.8,0.8-1.3,1c-0.5,0.2-1.1,0.4-1.7,0.4c-0.6,0-1.2-0.1-1.7-0.4s-0.9-0.6-1.3-1
					c-0.3-0.4-0.6-1-0.8-1.6S137.4,21.4,137.4,20.5z M141.5,16.7c-0.4,0-0.7,0.1-1,0.3c-0.3,0.2-0.5,0.5-0.7,0.8
					c-0.2,0.3-0.3,0.7-0.4,1.2c-0.1,0.5-0.1,1-0.1,1.5c0,0.6,0,1.1,0.1,1.5c0.1,0.5,0.2,0.9,0.4,1.2c0.2,0.3,0.4,0.6,0.7,0.8
					c0.3,0.2,0.6,0.3,1,0.3c0.4,0,0.7-0.1,1-0.3s0.5-0.5,0.7-0.8c0.2-0.3,0.3-0.7,0.4-1.2c0.1-0.5,0.1-1,0.1-1.5c0-0.5,0-1-0.1-1.5
					c-0.1-0.5-0.2-0.9-0.4-1.2s-0.4-0.6-0.7-0.8C142.2,16.8,141.9,16.7,141.5,16.7z"/>
				<path d="M148.9,24.8c0,0.3-0.1,0.5-0.3,0.6c-0.2,0.2-0.5,0.3-0.8,0.3c-0.3,0-0.6-0.1-0.8-0.3c-0.2-0.2-0.3-0.4-0.3-0.6
					c0-0.3,0.1-0.5,0.3-0.6c0.2-0.2,0.5-0.3,0.8-0.3c0.3,0,0.6,0.1,0.8,0.3C148.8,24.3,148.9,24.5,148.9,24.8z"/>
				<path d="M150,20.5c0-0.8,0.1-1.5,0.3-2.2c0.2-0.6,0.4-1.2,0.8-1.6c0.3-0.4,0.8-0.8,1.3-1s1.1-0.4,1.7-0.4c0.6,0,1.2,0.1,1.7,0.4
					c0.5,0.2,0.9,0.6,1.3,1c0.3,0.4,0.6,1,0.8,1.6c0.2,0.6,0.3,1.4,0.3,2.2s-0.1,1.5-0.3,2.2c-0.2,0.6-0.4,1.2-0.8,1.6
					c-0.3,0.4-0.8,0.8-1.3,1c-0.5,0.2-1.1,0.4-1.7,0.4c-0.6,0-1.2-0.1-1.7-0.4s-0.9-0.6-1.3-1c-0.3-0.4-0.6-1-0.8-1.6
					S150,21.4,150,20.5z M154.1,16.7c-0.4,0-0.7,0.1-1,0.3c-0.3,0.2-0.5,0.5-0.7,0.8c-0.2,0.3-0.3,0.7-0.4,1.2
					c-0.1,0.5-0.1,1-0.1,1.5c0,0.6,0,1.1,0.1,1.5c0.1,0.5,0.2,0.9,0.4,1.2c0.2,0.3,0.4,0.6,0.7,0.8c0.3,0.2,0.6,0.3,1,0.3
					c0.4,0,0.7-0.1,1-0.3s0.5-0.5,0.7-0.8c0.2-0.3,0.3-0.7,0.4-1.2c0.1-0.5,0.1-1,0.1-1.5c0-0.5,0-1-0.1-1.5
					c-0.1-0.5-0.2-0.9-0.4-1.2s-0.4-0.6-0.7-0.8C154.8,16.8,154.5,16.7,154.1,16.7z"/>
				<path d="M166.5,16.7h-4.8V19h2c0.6,0,1.1,0.1,1.7,0.3c0.5,0.2,1,0.4,1.4,0.7c0.4,0.3,0.7,0.7,0.9,1.1c0.2,0.4,0.3,0.8,0.3,1.3
					c0,0.5-0.1,0.9-0.3,1.3c-0.2,0.4-0.5,0.8-0.9,1.1c-0.4,0.3-0.9,0.5-1.4,0.7s-1.1,0.3-1.7,0.3c-0.6,0-1.2-0.1-1.7-0.3
					c-0.5-0.2-1-0.4-1.4-0.7c-0.4-0.3-0.7-0.7-0.9-1.1s-0.3-0.8-0.3-1.3c0-0.2,0.1-0.4,0.2-0.5c0.2-0.1,0.4-0.2,0.6-0.2
					c0.2,0,0.4,0.1,0.6,0.2c0.2,0.1,0.3,0.3,0.3,0.5c0,0.3,0.1,0.5,0.2,0.8s0.3,0.5,0.6,0.6s0.5,0.3,0.8,0.4s0.7,0.2,1,0.2
					c0.4,0,0.7-0.1,1-0.2s0.6-0.3,0.8-0.4c0.2-0.2,0.4-0.4,0.6-0.6c0.1-0.2,0.2-0.5,0.2-0.8c0-0.3-0.1-0.5-0.2-0.8
					c-0.1-0.2-0.3-0.5-0.6-0.6c-0.2-0.2-0.5-0.3-0.8-0.4s-0.7-0.2-1-0.2h-2.8c-0.2,0-0.5-0.1-0.6-0.2s-0.2-0.3-0.2-0.5v-3.6
					c0-0.2,0.1-0.3,0.2-0.5c0.2-0.1,0.4-0.2,0.6-0.2h5.7c0.2,0,0.5,0.1,0.6,0.2c0.2,0.1,0.3,0.3,0.3,0.5c0,0.2-0.1,0.3-0.3,0.5
					C167,16.7,166.8,16.7,166.5,16.7z"/>
			</g>
			<g>
				<g>
					<path fill="#FFFFFF" d="M137,20.1c0-0.8,0.1-1.5,0.3-2.2c0.2-0.6,0.4-1.2,0.8-1.6c0.3-0.4,0.8-0.8,1.3-1s1.1-0.4,1.7-0.4
						c0.6,0,1.2,0.1,1.7,0.4c0.5,0.2,0.9,0.6,1.3,1c0.3,0.4,0.6,1,0.8,1.6c0.2,0.6,0.3,1.4,0.3,2.2s-0.1,1.5-0.3,2.2
						c-0.2,0.6-0.4,1.2-0.8,1.6c-0.3,0.4-0.8,0.8-1.3,1c-0.5,0.2-1.1,0.4-1.7,0.4c-0.6,0-1.2-0.1-1.7-0.4s-0.9-0.6-1.3-1
						c-0.3-0.4-0.6-1-0.8-1.6S137,20.9,137,20.1z M141,16.3c-0.4,0-0.7,0.1-1,0.3c-0.3,0.2-0.5,0.5-0.7,0.8
						c-0.2,0.3-0.3,0.7-0.4,1.2c-0.1,0.5-0.1,1-0.1,1.5c0,0.6,0,1.1,0.1,1.5c0.1,0.5,0.2,0.9,0.4,1.2c0.2,0.3,0.4,0.6,0.7,0.8
						c0.3,0.2,0.6,0.3,1,0.3c0.4,0,0.7-0.1,1-0.3s0.5-0.5,0.7-0.8c0.2-0.3,0.3-0.7,0.4-1.2c0.1-0.5,0.1-1,0.1-1.5c0-0.5,0-1-0.1-1.5
						c-0.1-0.5-0.2-0.9-0.4-1.2s-0.4-0.6-0.7-0.8C141.8,16.4,141.4,16.3,141,16.3z"/>
					<path fill="#FFFFFF" d="M148.5,24.3c0,0.3-0.1,0.5-0.3,0.6c-0.2,0.2-0.5,0.3-0.8,0.3c-0.3,0-0.6-0.1-0.8-0.3
						c-0.2-0.2-0.3-0.4-0.3-0.6c0-0.3,0.1-0.5,0.3-0.6c0.2-0.2,0.5-0.3,0.8-0.3c0.3,0,0.6,0.1,0.8,0.3
						C148.4,23.9,148.5,24.1,148.5,24.3z"/>
					<path fill="#FFFFFF" d="M149.6,20.1c0-0.8,0.1-1.5,0.3-2.2c0.2-0.6,0.4-1.2,0.8-1.6c0.3-0.4,0.8-0.8,1.3-1s1.1-0.4,1.7-0.4
						c0.6,0,1.2,0.1,1.7,0.4c0.5,0.2,0.9,0.6,1.3,1c0.3,0.4,0.6,1,0.8,1.6c0.2,0.6,0.3,1.4,0.3,2.2s-0.1,1.5-0.3,2.2
						c-0.2,0.6-0.4,1.2-0.8,1.6c-0.3,0.4-0.8,0.8-1.3,1c-0.5,0.2-1.1,0.4-1.7,0.4c-0.6,0-1.2-0.1-1.7-0.4s-0.9-0.6-1.3-1
						c-0.3-0.4-0.6-1-0.8-1.6S149.6,20.9,149.6,20.1z M153.7,16.3c-0.4,0-0.7,0.1-1,0.3c-0.3,0.2-0.5,0.5-0.7,0.8
						c-0.2,0.3-0.3,0.7-0.4,1.2c-0.1,0.5-0.1,1-0.1,1.5c0,0.6,0,1.1,0.1,1.5c0.1,0.5,0.2,0.9,0.4,1.2c0.2,0.3,0.4,0.6,0.7,0.8
						c0.3,0.2,0.6,0.3,1,0.3c0.4,0,0.7-0.1,1-0.3s0.5-0.5,0.7-0.8c0.2-0.3,0.3-0.7,0.4-1.2c0.1-0.5,0.1-1,0.1-1.5c0-0.5,0-1-0.1-1.5
						c-0.1-0.5-0.2-0.9-0.4-1.2s-0.4-0.6-0.7-0.8C154.4,16.4,154,16.3,153.7,16.3z"/>
					<path fill="#FFFFFF" d="M166.1,16.3h-4.8v2.2h2c0.6,0,1.1,0.1,1.7,0.3c0.5,0.2,1,0.4,1.4,0.7c0.4,0.3,0.7,0.7,0.9,1.1
						c0.2,0.4,0.3,0.8,0.3,1.3c0,0.5-0.1,0.9-0.3,1.3c-0.2,0.4-0.5,0.8-0.9,1.1c-0.4,0.3-0.9,0.5-1.4,0.7s-1.1,0.3-1.7,0.3
						c-0.6,0-1.2-0.1-1.7-0.3c-0.5-0.2-1-0.4-1.4-0.7c-0.4-0.3-0.7-0.7-0.9-1.1s-0.3-0.8-0.3-1.3c0-0.2,0.1-0.4,0.2-0.5
						c0.2-0.1,0.4-0.2,0.6-0.2c0.2,0,0.4,0.1,0.6,0.2c0.2,0.1,0.3,0.3,0.3,0.5c0,0.3,0.1,0.5,0.2,0.8s0.3,0.5,0.6,0.6
						s0.5,0.3,0.8,0.4s0.7,0.2,1,0.2c0.4,0,0.7-0.1,1-0.2s0.6-0.3,0.8-0.4c0.2-0.2,0.4-0.4,0.6-0.6c0.1-0.2,0.2-0.5,0.2-0.8
						c0-0.3-0.1-0.5-0.2-0.8c-0.1-0.2-0.3-0.5-0.6-0.6c-0.2-0.2-0.5-0.3-0.8-0.4s-0.7-0.2-1-0.2h-2.8c-0.2,0-0.5-0.1-0.6-0.2
						s-0.2-0.3-0.2-0.5v-3.6c0-0.2,0.1-0.3,0.2-0.5c0.2-0.1,0.4-0.2,0.6-0.2h5.7c0.2,0,0.5,0.1,0.6,0.2c0.2,0.1,0.3,0.3,0.3,0.5
						c0,0.2-0.1,0.3-0.3,0.5C166.5,16.2,166.3,16.3,166.1,16.3z"/>
				</g>
			</g>
		</g>
	</g>
	<g>
		<g>
			
				<image overflow="visible" opacity="0.2" width="87" height="44" xlink:href="1B8C3D53.png"  transform="matrix(1 0 0 1 212.6746 0.4583)">
			</image>
			<g>
				<path fill="#00B0C2" d="M287.9,37.7h-67.4c-3.3,0-6-2.7-6-6V8.1c0-3.3,2.7-6,6-6h67.4c3.3,0,6,2.7,6,6v23.7
					C293.9,35,291.3,37.7,287.9,37.7z"/>
			</g>
		</g>
		<g>
			<g opacity="0.26">
				<path d="M246.6,20.5c0-0.8,0.1-1.5,0.3-2.2c0.2-0.6,0.4-1.2,0.8-1.6c0.3-0.4,0.8-0.8,1.3-1s1.1-0.4,1.7-0.4
					c0.6,0,1.2,0.1,1.7,0.4c0.5,0.2,0.9,0.6,1.3,1c0.3,0.4,0.6,1,0.8,1.6c0.2,0.6,0.3,1.4,0.3,2.2s-0.1,1.5-0.3,2.2
					c-0.2,0.6-0.4,1.2-0.8,1.6c-0.3,0.4-0.8,0.8-1.3,1c-0.5,0.2-1.1,0.4-1.7,0.4c-0.6,0-1.2-0.1-1.7-0.4s-0.9-0.6-1.3-1
					c-0.3-0.4-0.6-1-0.8-1.6S246.6,21.4,246.6,20.5z M250.6,16.7c-0.4,0-0.7,0.1-1,0.3c-0.3,0.2-0.5,0.5-0.7,0.8
					c-0.2,0.3-0.3,0.7-0.4,1.2c-0.1,0.5-0.1,1-0.1,1.5c0,0.6,0,1.1,0.1,1.5c0.1,0.5,0.2,0.9,0.4,1.2c0.2,0.3,0.4,0.6,0.7,0.8
					c0.3,0.2,0.6,0.3,1,0.3c0.4,0,0.7-0.1,1-0.3s0.5-0.5,0.7-0.8c0.2-0.3,0.3-0.7,0.4-1.2c0.1-0.5,0.1-1,0.1-1.5c0-0.5,0-1-0.1-1.5
					c-0.1-0.5-0.2-0.9-0.4-1.2s-0.4-0.6-0.7-0.8C251.4,16.8,251,16.7,250.6,16.7z"/>
				<path d="M258.1,24.8c0,0.3-0.1,0.5-0.3,0.6c-0.2,0.2-0.5,0.3-0.8,0.3c-0.3,0-0.6-0.1-0.8-0.3c-0.2-0.2-0.3-0.4-0.3-0.6
					c0-0.3,0.1-0.5,0.3-0.6c0.2-0.2,0.5-0.3,0.8-0.3c0.3,0,0.6,0.1,0.8,0.3C258,24.3,258.1,24.5,258.1,24.8z"/>
				<path d="M260.9,25v-8c-0.2,0-0.3,0.1-0.5,0.1s-0.3,0.1-0.5,0.1c-0.2,0-0.5-0.1-0.6-0.2c-0.2-0.1-0.2-0.3-0.2-0.5
					c0-0.1,0-0.3,0.1-0.4c0.1-0.1,0.2-0.2,0.4-0.3l1.9-0.5c0.1,0,0.2,0,0.3,0c0.2,0,0.5,0.1,0.6,0.2c0.2,0.1,0.2,0.3,0.2,0.5v9
					c0,0.2-0.1,0.3-0.3,0.5c-0.2,0.1-0.4,0.2-0.6,0.2c-0.2,0-0.4-0.1-0.6-0.2C261,25.4,260.9,25.2,260.9,25z"/>
			</g>
			<g>
				<g>
					<path fill="#FFFFFF" d="M246.1,20.1c0-0.8,0.1-1.5,0.3-2.2c0.2-0.6,0.4-1.2,0.8-1.6c0.3-0.4,0.8-0.8,1.3-1s1.1-0.4,1.7-0.4
						c0.6,0,1.2,0.1,1.7,0.4c0.5,0.2,0.9,0.6,1.3,1c0.3,0.4,0.6,1,0.8,1.6c0.2,0.6,0.3,1.4,0.3,2.2s-0.1,1.5-0.3,2.2
						c-0.2,0.6-0.4,1.2-0.8,1.6c-0.3,0.4-0.8,0.8-1.3,1c-0.5,0.2-1.1,0.4-1.7,0.4c-0.6,0-1.2-0.1-1.7-0.4s-0.9-0.6-1.3-1
						c-0.3-0.4-0.6-1-0.8-1.6S246.1,20.9,246.1,20.1z M250.2,16.3c-0.4,0-0.7,0.1-1,0.3c-0.3,0.2-0.5,0.5-0.7,0.8
						c-0.2,0.3-0.3,0.7-0.4,1.2c-0.1,0.5-0.1,1-0.1,1.5c0,0.6,0,1.1,0.1,1.5c0.1,0.5,0.2,0.9,0.4,1.2c0.2,0.3,0.4,0.6,0.7,0.8
						c0.3,0.2,0.6,0.3,1,0.3c0.4,0,0.7-0.1,1-0.3s0.5-0.5,0.7-0.8c0.2-0.3,0.3-0.7,0.4-1.2c0.1-0.5,0.1-1,0.1-1.5c0-0.5,0-1-0.1-1.5
						c-0.1-0.5-0.2-0.9-0.4-1.2s-0.4-0.6-0.7-0.8C250.9,16.4,250.6,16.3,250.2,16.3z"/>
					<path fill="#FFFFFF" d="M257.6,24.3c0,0.3-0.1,0.5-0.3,0.6c-0.2,0.2-0.5,0.3-0.8,0.3c-0.3,0-0.6-0.1-0.8-0.3
						c-0.2-0.2-0.3-0.4-0.3-0.6c0-0.3,0.1-0.5,0.3-0.6c0.2-0.2,0.5-0.3,0.8-0.3c0.3,0,0.6,0.1,0.8,0.3
						C257.5,23.9,257.6,24.1,257.6,24.3z"/>
					<path fill="#FFFFFF" d="M260.5,24.6v-8c-0.2,0-0.3,0.1-0.5,0.1s-0.3,0.1-0.5,0.1c-0.2,0-0.5-0.1-0.6-0.2
						c-0.2-0.1-0.2-0.3-0.2-0.5c0-0.1,0-0.3,0.1-0.4c0.1-0.1,0.2-0.2,0.4-0.3l1.9-0.5c0.1,0,0.2,0,0.3,0c0.2,0,0.5,0.1,0.6,0.2
						c0.2,0.1,0.2,0.3,0.2,0.5v9c0,0.2-0.1,0.3-0.3,0.5c-0.2,0.1-0.4,0.2-0.6,0.2c-0.2,0-0.4-0.1-0.6-0.2
						C260.6,24.9,260.5,24.8,260.5,24.6z"/>
				</g>
			</g>
		</g>
	</g>
	<g>
		<g>
			<path fill="#005C99" d="M16.9,14.5h2.5V9.6c0-0.4,0-0.9,0-0.9h0c0,0-0.1,0.3-0.5,0.6l-0.7,0.6l-1.7-1.8l3.2-3h2.5v9.3h2.5V17
				h-7.9V14.5z"/>
		</g>
	</g>
	<g>
		<g>
			<path fill="#005C99" d="M120.1,15.7c0-4.4,5.1-5.1,5.1-6.8c0-0.8-0.7-1.2-1.3-1.2c-0.8,0-1.4,0.6-1.8,1.3l-2.1-1.4
				c0.7-1.3,2-2.5,4.2-2.5c1.9,0,4,1.1,4,3.6c0,3.7-4.8,4.4-4.9,5.9h5.1V17h-8.2C120.2,16.5,120.1,16.1,120.1,15.7z"/>
		</g>
	</g>
	<g>
		<g>
			<path fill="#005C99" d="M222,13.4c0.6,0.6,1.5,1.1,2.4,1.1c1.1,0,1.7-0.5,1.7-1.2c0-0.9-0.9-1.3-2.2-1.3H223l-0.6-1.4l1.6-1.9
				c0.6-0.7,1-1.1,1-1.1v0c0,0-0.4,0.1-1.1,0.1h-2.8V5.2h7.4V7l-2.4,2.8c1.8,0.4,2.9,1.8,2.9,3.4c0,2-1.4,4-4.4,4
				c-1.4,0-3-0.5-4-1.6L222,13.4z"/>
		</g>
	</g>
</g>
</svg>
