<?xml version="1.0" encoding="utf-8"?>
<!-- Generator: Adobe Illustrator 18.0.0, SVG Export Plug-In . SVG Version: 6.00 Build 0)  -->
<!DOCTYPE svg PUBLIC "-//W3C//DTD SVG 1.1//EN" "http://www.w3.org/Graphics/SVG/1.1/DTD/svg11.dtd">
<svg version="1.1" id="Layer_1" xmlns="http://www.w3.org/2000/svg" xmlns:xlink="http://www.w3.org/1999/xlink" x="0px" y="0px"
	 viewBox="0 0 50.1 50.1" enable-background="new 0 0 50.1 50.1" xml:space="preserve">
<g>
	<path fill="#B8171D" d="M25.1,0C11.2,0,0,11.2,0,25.1s11.2,25.1,25.1,25.1s25.1-11.2,25.1-25.1S38.9,0,25.1,0z M11.7,29.1
		c-0.7,0-1.2-0.5-1.2-1.2v-5.7c0-0.7,0.5-1.2,1.2-1.2h26.7c0.7,0,1.2,0.5,1.2,1.2v5.7c0,0.7-0.5,1.2-1.2,1.2H11.7z"/>
	<g>
		
			<image overflow="visible" opacity="0.32" width="43" height="21" xlink:href="C31E5878.png"  transform="matrix(1 0 0 1 4.5246 15.1281)">
		</image>
		<g>
			<path fill="#FFFFFF" d="M11.7,29.1c-0.7,0-1.2-0.5-1.2-1.2v-5.7c0-0.7,0.5-1.2,1.2-1.2h26.7c0.7,0,1.2,0.5,1.2,1.2v5.7
				c0,0.7-0.5,1.2-1.2,1.2H11.7z"/>
		</g>
	</g>
</g>
</svg>
